G04 #@! TF.GenerationSoftware,KiCad,Pcbnew,(5.1.2)-2*
G04 #@! TF.CreationDate,2020-03-15T13:57:48-03:00*
G04 #@! TF.ProjectId,InfraRedGelUniversalDispenser,496e6672-6152-4656-9447-656c556e6976,00*
G04 #@! TF.SameCoordinates,Original*
G04 #@! TF.FileFunction,Legend,Top*
G04 #@! TF.FilePolarity,Positive*
%FSLAX46Y46*%
G04 Gerber Fmt 4.6, Leading zero omitted, Abs format (unit mm)*
G04 Created by KiCad (PCBNEW (5.1.2)-2) date 2020-03-15 13:57:48*
%MOMM*%
%LPD*%
G04 APERTURE LIST*
%ADD10C,0.100000*%
%ADD11C,0.254000*%
%ADD12C,0.152400*%
%ADD13C,0.127000*%
%ADD14C,0.203200*%
%ADD15C,0.120000*%
%ADD16C,0.150000*%
G04 APERTURE END LIST*
D10*
X131370201Y-88422801D02*
X131670201Y-88422801D01*
X131370201Y-88122801D02*
X131370201Y-88422801D01*
X138170201Y-88422801D02*
X137870201Y-88422801D01*
X138170201Y-88122801D02*
X138170201Y-88422801D01*
X138170201Y-78422801D02*
X137870201Y-78422801D01*
X138170201Y-78722801D02*
X138170201Y-78422801D01*
X131370201Y-78422801D02*
X131670201Y-78422801D01*
X131370201Y-78722801D02*
X131370201Y-78422801D01*
D11*
X150548468Y-89482197D02*
G75*
G03X146735800Y-89484200I-1907668J2537997D01*
G01*
D12*
X151180800Y-86944200D02*
G75*
G03X151180800Y-86944200I-2540000J0D01*
G01*
D13*
X148206460Y-88310720D02*
X148196300Y-88214200D01*
X148239480Y-88402160D02*
X148206460Y-88310720D01*
X148290280Y-88485980D02*
X148239480Y-88402160D01*
X148358860Y-88557100D02*
X148290280Y-88485980D01*
X148442680Y-88610440D02*
X148358860Y-88557100D01*
X148534120Y-88643460D02*
X148442680Y-88610440D01*
X148633180Y-88653620D02*
X148534120Y-88643460D01*
X148729700Y-88646000D02*
X148633180Y-88653620D01*
X148826220Y-88612980D02*
X148729700Y-88646000D01*
X148912580Y-88562180D02*
X148826220Y-88612980D01*
X148983700Y-88491060D02*
X148912580Y-88562180D01*
X149039580Y-88407240D02*
X148983700Y-88491060D01*
X149072600Y-88313260D02*
X149039580Y-88407240D01*
X149085300Y-88214200D02*
X149072600Y-88313260D01*
X149072600Y-88112600D02*
X149085300Y-88214200D01*
X149037040Y-88016080D02*
X149072600Y-88112600D01*
X148981160Y-87932260D02*
X149037040Y-88016080D01*
X148904960Y-87861140D02*
X148981160Y-87932260D01*
X148818600Y-87807800D02*
X148904960Y-87861140D01*
X148722080Y-87777320D02*
X148818600Y-87807800D01*
X148623020Y-87769700D02*
X148722080Y-87777320D01*
X148526500Y-87782400D02*
X148623020Y-87769700D01*
X148435060Y-87815420D02*
X148526500Y-87782400D01*
X148353780Y-87868760D02*
X148435060Y-87815420D01*
X148285200Y-87939880D02*
X148353780Y-87868760D01*
X148236940Y-88023700D02*
X148285200Y-87939880D01*
X148206460Y-88115140D02*
X148236940Y-88023700D01*
X148196300Y-88214200D02*
X148206460Y-88115140D01*
X147706080Y-88399620D02*
X147688300Y-88214200D01*
X147756880Y-88574880D02*
X147706080Y-88399620D01*
X147840700Y-88737440D02*
X147756880Y-88574880D01*
X147957540Y-88882220D02*
X147840700Y-88737440D01*
X148097240Y-88999060D02*
X147957540Y-88882220D01*
X148259800Y-89087960D02*
X148097240Y-88999060D01*
X148435060Y-89143840D02*
X148259800Y-89087960D01*
X148615400Y-89164160D02*
X148435060Y-89143840D01*
X148780500Y-89151460D02*
X148615400Y-89164160D01*
X148945600Y-89110820D02*
X148780500Y-89151460D01*
X149098000Y-89039700D02*
X148945600Y-89110820D01*
X149237700Y-88945720D02*
X149098000Y-89039700D01*
X149357080Y-88828880D02*
X149237700Y-88945720D01*
X149456140Y-88694260D02*
X149357080Y-88828880D01*
X149529800Y-88541860D02*
X149456140Y-88694260D01*
X149575520Y-88379300D02*
X149529800Y-88541860D01*
X149593300Y-88214200D02*
X149575520Y-88379300D01*
X149575520Y-88046560D02*
X149593300Y-88214200D01*
X149529800Y-87884000D02*
X149575520Y-88046560D01*
X149456140Y-87731600D02*
X149529800Y-87884000D01*
X149359620Y-87596980D02*
X149456140Y-87731600D01*
X149240240Y-87477600D02*
X149359620Y-87596980D01*
X149100540Y-87383620D02*
X149240240Y-87477600D01*
X148948140Y-87315040D02*
X149100540Y-87383620D01*
X148783040Y-87274400D02*
X148948140Y-87315040D01*
X148620480Y-87261700D02*
X148783040Y-87274400D01*
X148435060Y-87282020D02*
X148620480Y-87261700D01*
X148259800Y-87337900D02*
X148435060Y-87282020D01*
X148097240Y-87426800D02*
X148259800Y-87337900D01*
X147957540Y-87546180D02*
X148097240Y-87426800D01*
X147840700Y-87690960D02*
X147957540Y-87546180D01*
X147756880Y-87853520D02*
X147840700Y-87690960D01*
X147706080Y-88031320D02*
X147756880Y-87853520D01*
X147688300Y-88214200D02*
X147706080Y-88031320D01*
X148206460Y-85773260D02*
X148196300Y-85674200D01*
X148239480Y-85864700D02*
X148206460Y-85773260D01*
X148290280Y-85948520D02*
X148239480Y-85864700D01*
X148358860Y-86019640D02*
X148290280Y-85948520D01*
X148442680Y-86072980D02*
X148358860Y-86019640D01*
X148534120Y-86106000D02*
X148442680Y-86072980D01*
X148633180Y-86116160D02*
X148534120Y-86106000D01*
X148729700Y-86108540D02*
X148633180Y-86116160D01*
X148826220Y-86075520D02*
X148729700Y-86108540D01*
X148912580Y-86024720D02*
X148826220Y-86075520D01*
X148983700Y-85953600D02*
X148912580Y-86024720D01*
X149039580Y-85869780D02*
X148983700Y-85953600D01*
X149072600Y-85775800D02*
X149039580Y-85869780D01*
X149085300Y-85674200D02*
X149072600Y-85775800D01*
X149072600Y-85575140D02*
X149085300Y-85674200D01*
X149037040Y-85478620D02*
X149072600Y-85575140D01*
X148981160Y-85394800D02*
X149037040Y-85478620D01*
X148904960Y-85323680D02*
X148981160Y-85394800D01*
X148818600Y-85270340D02*
X148904960Y-85323680D01*
X148722080Y-85239860D02*
X148818600Y-85270340D01*
X148623020Y-85229700D02*
X148722080Y-85239860D01*
X148526500Y-85244940D02*
X148623020Y-85229700D01*
X148435060Y-85277960D02*
X148526500Y-85244940D01*
X148353780Y-85331300D02*
X148435060Y-85277960D01*
X148285200Y-85402420D02*
X148353780Y-85331300D01*
X148236940Y-85486240D02*
X148285200Y-85402420D01*
X148206460Y-85577680D02*
X148236940Y-85486240D01*
X148196300Y-85674200D02*
X148206460Y-85577680D01*
X147706080Y-85862160D02*
X147688300Y-85676740D01*
X147756880Y-86037420D02*
X147706080Y-85862160D01*
X147840700Y-86199980D02*
X147756880Y-86037420D01*
X147957540Y-86344760D02*
X147840700Y-86199980D01*
X148097240Y-86461600D02*
X147957540Y-86344760D01*
X148259800Y-86550500D02*
X148097240Y-86461600D01*
X148435060Y-86606380D02*
X148259800Y-86550500D01*
X148615400Y-86626700D02*
X148435060Y-86606380D01*
X148780500Y-86614000D02*
X148615400Y-86626700D01*
X148945600Y-86573360D02*
X148780500Y-86614000D01*
X149098000Y-86502240D02*
X148945600Y-86573360D01*
X149237700Y-86408260D02*
X149098000Y-86502240D01*
X149357080Y-86291420D02*
X149237700Y-86408260D01*
X149456140Y-86156800D02*
X149357080Y-86291420D01*
X149529800Y-86004400D02*
X149456140Y-86156800D01*
X149575520Y-85841840D02*
X149529800Y-86004400D01*
X149593300Y-85674200D02*
X149575520Y-85841840D01*
X149575520Y-85509100D02*
X149593300Y-85674200D01*
X149529800Y-85346540D02*
X149575520Y-85509100D01*
X149456140Y-85194140D02*
X149529800Y-85346540D01*
X149359620Y-85059520D02*
X149456140Y-85194140D01*
X149240240Y-84940140D02*
X149359620Y-85059520D01*
X149100540Y-84846160D02*
X149240240Y-84940140D01*
X148948140Y-84777580D02*
X149100540Y-84846160D01*
X148783040Y-84736940D02*
X148948140Y-84777580D01*
X148620480Y-84724240D02*
X148783040Y-84736940D01*
X148435060Y-84744560D02*
X148620480Y-84724240D01*
X148259800Y-84800440D02*
X148435060Y-84744560D01*
X148097240Y-84889340D02*
X148259800Y-84800440D01*
X147957540Y-85008720D02*
X148097240Y-84889340D01*
X147840700Y-85153500D02*
X147957540Y-85008720D01*
X147756880Y-85316060D02*
X147840700Y-85153500D01*
X147706080Y-85493860D02*
X147756880Y-85316060D01*
X147688300Y-85676740D02*
X147706080Y-85493860D01*
D14*
X146735800Y-89484200D02*
X150545800Y-89484200D01*
X146735800Y-89484200D02*
X150545800Y-89484200D01*
D11*
X150116668Y-113154997D02*
G75*
G03X146304000Y-113157000I-1907668J2537997D01*
G01*
D12*
X150749000Y-110617000D02*
G75*
G03X150749000Y-110617000I-2540000J0D01*
G01*
D13*
X147774660Y-111983520D02*
X147764500Y-111887000D01*
X147807680Y-112074960D02*
X147774660Y-111983520D01*
X147858480Y-112158780D02*
X147807680Y-112074960D01*
X147927060Y-112229900D02*
X147858480Y-112158780D01*
X148010880Y-112283240D02*
X147927060Y-112229900D01*
X148102320Y-112316260D02*
X148010880Y-112283240D01*
X148201380Y-112326420D02*
X148102320Y-112316260D01*
X148297900Y-112318800D02*
X148201380Y-112326420D01*
X148394420Y-112285780D02*
X148297900Y-112318800D01*
X148480780Y-112234980D02*
X148394420Y-112285780D01*
X148551900Y-112163860D02*
X148480780Y-112234980D01*
X148607780Y-112080040D02*
X148551900Y-112163860D01*
X148640800Y-111986060D02*
X148607780Y-112080040D01*
X148653500Y-111887000D02*
X148640800Y-111986060D01*
X148640800Y-111785400D02*
X148653500Y-111887000D01*
X148605240Y-111688880D02*
X148640800Y-111785400D01*
X148549360Y-111605060D02*
X148605240Y-111688880D01*
X148473160Y-111533940D02*
X148549360Y-111605060D01*
X148386800Y-111480600D02*
X148473160Y-111533940D01*
X148290280Y-111450120D02*
X148386800Y-111480600D01*
X148191220Y-111442500D02*
X148290280Y-111450120D01*
X148094700Y-111455200D02*
X148191220Y-111442500D01*
X148003260Y-111488220D02*
X148094700Y-111455200D01*
X147921980Y-111541560D02*
X148003260Y-111488220D01*
X147853400Y-111612680D02*
X147921980Y-111541560D01*
X147805140Y-111696500D02*
X147853400Y-111612680D01*
X147774660Y-111787940D02*
X147805140Y-111696500D01*
X147764500Y-111887000D02*
X147774660Y-111787940D01*
X147274280Y-112072420D02*
X147256500Y-111887000D01*
X147325080Y-112247680D02*
X147274280Y-112072420D01*
X147408900Y-112410240D02*
X147325080Y-112247680D01*
X147525740Y-112555020D02*
X147408900Y-112410240D01*
X147665440Y-112671860D02*
X147525740Y-112555020D01*
X147828000Y-112760760D02*
X147665440Y-112671860D01*
X148003260Y-112816640D02*
X147828000Y-112760760D01*
X148183600Y-112836960D02*
X148003260Y-112816640D01*
X148348700Y-112824260D02*
X148183600Y-112836960D01*
X148513800Y-112783620D02*
X148348700Y-112824260D01*
X148666200Y-112712500D02*
X148513800Y-112783620D01*
X148805900Y-112618520D02*
X148666200Y-112712500D01*
X148925280Y-112501680D02*
X148805900Y-112618520D01*
X149024340Y-112367060D02*
X148925280Y-112501680D01*
X149098000Y-112214660D02*
X149024340Y-112367060D01*
X149143720Y-112052100D02*
X149098000Y-112214660D01*
X149161500Y-111887000D02*
X149143720Y-112052100D01*
X149143720Y-111719360D02*
X149161500Y-111887000D01*
X149098000Y-111556800D02*
X149143720Y-111719360D01*
X149024340Y-111404400D02*
X149098000Y-111556800D01*
X148927820Y-111269780D02*
X149024340Y-111404400D01*
X148808440Y-111150400D02*
X148927820Y-111269780D01*
X148668740Y-111056420D02*
X148808440Y-111150400D01*
X148516340Y-110987840D02*
X148668740Y-111056420D01*
X148351240Y-110947200D02*
X148516340Y-110987840D01*
X148188680Y-110934500D02*
X148351240Y-110947200D01*
X148003260Y-110954820D02*
X148188680Y-110934500D01*
X147828000Y-111010700D02*
X148003260Y-110954820D01*
X147665440Y-111099600D02*
X147828000Y-111010700D01*
X147525740Y-111218980D02*
X147665440Y-111099600D01*
X147408900Y-111363760D02*
X147525740Y-111218980D01*
X147325080Y-111526320D02*
X147408900Y-111363760D01*
X147274280Y-111704120D02*
X147325080Y-111526320D01*
X147256500Y-111887000D02*
X147274280Y-111704120D01*
X147774660Y-109446060D02*
X147764500Y-109347000D01*
X147807680Y-109537500D02*
X147774660Y-109446060D01*
X147858480Y-109621320D02*
X147807680Y-109537500D01*
X147927060Y-109692440D02*
X147858480Y-109621320D01*
X148010880Y-109745780D02*
X147927060Y-109692440D01*
X148102320Y-109778800D02*
X148010880Y-109745780D01*
X148201380Y-109788960D02*
X148102320Y-109778800D01*
X148297900Y-109781340D02*
X148201380Y-109788960D01*
X148394420Y-109748320D02*
X148297900Y-109781340D01*
X148480780Y-109697520D02*
X148394420Y-109748320D01*
X148551900Y-109626400D02*
X148480780Y-109697520D01*
X148607780Y-109542580D02*
X148551900Y-109626400D01*
X148640800Y-109448600D02*
X148607780Y-109542580D01*
X148653500Y-109347000D02*
X148640800Y-109448600D01*
X148640800Y-109247940D02*
X148653500Y-109347000D01*
X148605240Y-109151420D02*
X148640800Y-109247940D01*
X148549360Y-109067600D02*
X148605240Y-109151420D01*
X148473160Y-108996480D02*
X148549360Y-109067600D01*
X148386800Y-108943140D02*
X148473160Y-108996480D01*
X148290280Y-108912660D02*
X148386800Y-108943140D01*
X148191220Y-108902500D02*
X148290280Y-108912660D01*
X148094700Y-108917740D02*
X148191220Y-108902500D01*
X148003260Y-108950760D02*
X148094700Y-108917740D01*
X147921980Y-109004100D02*
X148003260Y-108950760D01*
X147853400Y-109075220D02*
X147921980Y-109004100D01*
X147805140Y-109159040D02*
X147853400Y-109075220D01*
X147774660Y-109250480D02*
X147805140Y-109159040D01*
X147764500Y-109347000D02*
X147774660Y-109250480D01*
X147274280Y-109534960D02*
X147256500Y-109349540D01*
X147325080Y-109710220D02*
X147274280Y-109534960D01*
X147408900Y-109872780D02*
X147325080Y-109710220D01*
X147525740Y-110017560D02*
X147408900Y-109872780D01*
X147665440Y-110134400D02*
X147525740Y-110017560D01*
X147828000Y-110223300D02*
X147665440Y-110134400D01*
X148003260Y-110279180D02*
X147828000Y-110223300D01*
X148183600Y-110299500D02*
X148003260Y-110279180D01*
X148348700Y-110286800D02*
X148183600Y-110299500D01*
X148513800Y-110246160D02*
X148348700Y-110286800D01*
X148666200Y-110175040D02*
X148513800Y-110246160D01*
X148805900Y-110081060D02*
X148666200Y-110175040D01*
X148925280Y-109964220D02*
X148805900Y-110081060D01*
X149024340Y-109829600D02*
X148925280Y-109964220D01*
X149098000Y-109677200D02*
X149024340Y-109829600D01*
X149143720Y-109514640D02*
X149098000Y-109677200D01*
X149161500Y-109347000D02*
X149143720Y-109514640D01*
X149143720Y-109181900D02*
X149161500Y-109347000D01*
X149098000Y-109019340D02*
X149143720Y-109181900D01*
X149024340Y-108866940D02*
X149098000Y-109019340D01*
X148927820Y-108732320D02*
X149024340Y-108866940D01*
X148808440Y-108612940D02*
X148927820Y-108732320D01*
X148668740Y-108518960D02*
X148808440Y-108612940D01*
X148516340Y-108450380D02*
X148668740Y-108518960D01*
X148351240Y-108409740D02*
X148516340Y-108450380D01*
X148188680Y-108397040D02*
X148351240Y-108409740D01*
X148003260Y-108417360D02*
X148188680Y-108397040D01*
X147828000Y-108473240D02*
X148003260Y-108417360D01*
X147665440Y-108562140D02*
X147828000Y-108473240D01*
X147525740Y-108681520D02*
X147665440Y-108562140D01*
X147408900Y-108826300D02*
X147525740Y-108681520D01*
X147325080Y-108988860D02*
X147408900Y-108826300D01*
X147274280Y-109166660D02*
X147325080Y-108988860D01*
X147256500Y-109349540D02*
X147274280Y-109166660D01*
D14*
X146304000Y-113157000D02*
X150114000Y-113157000D01*
X146304000Y-113157000D02*
X150114000Y-113157000D01*
D11*
X116735732Y-81688403D02*
G75*
G03X120548400Y-81686400I1907668J-2537997D01*
G01*
D12*
X121183400Y-84226400D02*
G75*
G03X121183400Y-84226400I-2540000J0D01*
G01*
D13*
X119077740Y-82859880D02*
X119087900Y-82956400D01*
X119044720Y-82768440D02*
X119077740Y-82859880D01*
X118993920Y-82684620D02*
X119044720Y-82768440D01*
X118925340Y-82613500D02*
X118993920Y-82684620D01*
X118841520Y-82560160D02*
X118925340Y-82613500D01*
X118750080Y-82527140D02*
X118841520Y-82560160D01*
X118651020Y-82516980D02*
X118750080Y-82527140D01*
X118554500Y-82524600D02*
X118651020Y-82516980D01*
X118457980Y-82557620D02*
X118554500Y-82524600D01*
X118371620Y-82608420D02*
X118457980Y-82557620D01*
X118300500Y-82679540D02*
X118371620Y-82608420D01*
X118244620Y-82763360D02*
X118300500Y-82679540D01*
X118211600Y-82857340D02*
X118244620Y-82763360D01*
X118198900Y-82956400D02*
X118211600Y-82857340D01*
X118211600Y-83058000D02*
X118198900Y-82956400D01*
X118247160Y-83154520D02*
X118211600Y-83058000D01*
X118303040Y-83238340D02*
X118247160Y-83154520D01*
X118379240Y-83309460D02*
X118303040Y-83238340D01*
X118465600Y-83362800D02*
X118379240Y-83309460D01*
X118562120Y-83393280D02*
X118465600Y-83362800D01*
X118661180Y-83400900D02*
X118562120Y-83393280D01*
X118757700Y-83388200D02*
X118661180Y-83400900D01*
X118849140Y-83355180D02*
X118757700Y-83388200D01*
X118930420Y-83301840D02*
X118849140Y-83355180D01*
X118999000Y-83230720D02*
X118930420Y-83301840D01*
X119047260Y-83146900D02*
X118999000Y-83230720D01*
X119077740Y-83055460D02*
X119047260Y-83146900D01*
X119087900Y-82956400D02*
X119077740Y-83055460D01*
X119578120Y-82770980D02*
X119595900Y-82956400D01*
X119527320Y-82595720D02*
X119578120Y-82770980D01*
X119443500Y-82433160D02*
X119527320Y-82595720D01*
X119326660Y-82288380D02*
X119443500Y-82433160D01*
X119186960Y-82171540D02*
X119326660Y-82288380D01*
X119024400Y-82082640D02*
X119186960Y-82171540D01*
X118849140Y-82026760D02*
X119024400Y-82082640D01*
X118668800Y-82006440D02*
X118849140Y-82026760D01*
X118503700Y-82019140D02*
X118668800Y-82006440D01*
X118338600Y-82059780D02*
X118503700Y-82019140D01*
X118186200Y-82130900D02*
X118338600Y-82059780D01*
X118046500Y-82224880D02*
X118186200Y-82130900D01*
X117927120Y-82341720D02*
X118046500Y-82224880D01*
X117828060Y-82476340D02*
X117927120Y-82341720D01*
X117754400Y-82628740D02*
X117828060Y-82476340D01*
X117708680Y-82791300D02*
X117754400Y-82628740D01*
X117690900Y-82956400D02*
X117708680Y-82791300D01*
X117708680Y-83124040D02*
X117690900Y-82956400D01*
X117754400Y-83286600D02*
X117708680Y-83124040D01*
X117828060Y-83439000D02*
X117754400Y-83286600D01*
X117924580Y-83573620D02*
X117828060Y-83439000D01*
X118043960Y-83693000D02*
X117924580Y-83573620D01*
X118183660Y-83786980D02*
X118043960Y-83693000D01*
X118336060Y-83855560D02*
X118183660Y-83786980D01*
X118501160Y-83896200D02*
X118336060Y-83855560D01*
X118663720Y-83908900D02*
X118501160Y-83896200D01*
X118849140Y-83888580D02*
X118663720Y-83908900D01*
X119024400Y-83832700D02*
X118849140Y-83888580D01*
X119186960Y-83743800D02*
X119024400Y-83832700D01*
X119326660Y-83624420D02*
X119186960Y-83743800D01*
X119443500Y-83479640D02*
X119326660Y-83624420D01*
X119527320Y-83317080D02*
X119443500Y-83479640D01*
X119578120Y-83139280D02*
X119527320Y-83317080D01*
X119595900Y-82956400D02*
X119578120Y-83139280D01*
X119077740Y-85397340D02*
X119087900Y-85496400D01*
X119044720Y-85305900D02*
X119077740Y-85397340D01*
X118993920Y-85222080D02*
X119044720Y-85305900D01*
X118925340Y-85150960D02*
X118993920Y-85222080D01*
X118841520Y-85097620D02*
X118925340Y-85150960D01*
X118750080Y-85064600D02*
X118841520Y-85097620D01*
X118651020Y-85054440D02*
X118750080Y-85064600D01*
X118554500Y-85062060D02*
X118651020Y-85054440D01*
X118457980Y-85095080D02*
X118554500Y-85062060D01*
X118371620Y-85145880D02*
X118457980Y-85095080D01*
X118300500Y-85217000D02*
X118371620Y-85145880D01*
X118244620Y-85300820D02*
X118300500Y-85217000D01*
X118211600Y-85394800D02*
X118244620Y-85300820D01*
X118198900Y-85496400D02*
X118211600Y-85394800D01*
X118211600Y-85595460D02*
X118198900Y-85496400D01*
X118247160Y-85691980D02*
X118211600Y-85595460D01*
X118303040Y-85775800D02*
X118247160Y-85691980D01*
X118379240Y-85846920D02*
X118303040Y-85775800D01*
X118465600Y-85900260D02*
X118379240Y-85846920D01*
X118562120Y-85930740D02*
X118465600Y-85900260D01*
X118661180Y-85940900D02*
X118562120Y-85930740D01*
X118757700Y-85925660D02*
X118661180Y-85940900D01*
X118849140Y-85892640D02*
X118757700Y-85925660D01*
X118930420Y-85839300D02*
X118849140Y-85892640D01*
X118999000Y-85768180D02*
X118930420Y-85839300D01*
X119047260Y-85684360D02*
X118999000Y-85768180D01*
X119077740Y-85592920D02*
X119047260Y-85684360D01*
X119087900Y-85496400D02*
X119077740Y-85592920D01*
X119578120Y-85308440D02*
X119595900Y-85493860D01*
X119527320Y-85133180D02*
X119578120Y-85308440D01*
X119443500Y-84970620D02*
X119527320Y-85133180D01*
X119326660Y-84825840D02*
X119443500Y-84970620D01*
X119186960Y-84709000D02*
X119326660Y-84825840D01*
X119024400Y-84620100D02*
X119186960Y-84709000D01*
X118849140Y-84564220D02*
X119024400Y-84620100D01*
X118668800Y-84543900D02*
X118849140Y-84564220D01*
X118503700Y-84556600D02*
X118668800Y-84543900D01*
X118338600Y-84597240D02*
X118503700Y-84556600D01*
X118186200Y-84668360D02*
X118338600Y-84597240D01*
X118046500Y-84762340D02*
X118186200Y-84668360D01*
X117927120Y-84879180D02*
X118046500Y-84762340D01*
X117828060Y-85013800D02*
X117927120Y-84879180D01*
X117754400Y-85166200D02*
X117828060Y-85013800D01*
X117708680Y-85328760D02*
X117754400Y-85166200D01*
X117690900Y-85496400D02*
X117708680Y-85328760D01*
X117708680Y-85661500D02*
X117690900Y-85496400D01*
X117754400Y-85824060D02*
X117708680Y-85661500D01*
X117828060Y-85976460D02*
X117754400Y-85824060D01*
X117924580Y-86111080D02*
X117828060Y-85976460D01*
X118043960Y-86230460D02*
X117924580Y-86111080D01*
X118183660Y-86324440D02*
X118043960Y-86230460D01*
X118336060Y-86393020D02*
X118183660Y-86324440D01*
X118501160Y-86433660D02*
X118336060Y-86393020D01*
X118663720Y-86446360D02*
X118501160Y-86433660D01*
X118849140Y-86426040D02*
X118663720Y-86446360D01*
X119024400Y-86370160D02*
X118849140Y-86426040D01*
X119186960Y-86281260D02*
X119024400Y-86370160D01*
X119326660Y-86161880D02*
X119186960Y-86281260D01*
X119443500Y-86017100D02*
X119326660Y-86161880D01*
X119527320Y-85854540D02*
X119443500Y-86017100D01*
X119578120Y-85676740D02*
X119527320Y-85854540D01*
X119595900Y-85493860D02*
X119578120Y-85676740D01*
D14*
X120548400Y-81686400D02*
X116738400Y-81686400D01*
X120548400Y-81686400D02*
X116738400Y-81686400D01*
D10*
X160921400Y-106700000D02*
X160521400Y-106700000D01*
X160921400Y-106300000D02*
X160921400Y-106700000D01*
X160921400Y-96500000D02*
X160921400Y-96900000D01*
X160921400Y-96500000D02*
X160521400Y-96500000D01*
X156121400Y-96500000D02*
X156121400Y-96900000D01*
X156121400Y-96500000D02*
X160521400Y-96500000D01*
X156121400Y-106700000D02*
X156121400Y-106300000D01*
X156121400Y-106700000D02*
X156521400Y-106700000D01*
X159811400Y-96500000D02*
X159811400Y-106600000D01*
X127542600Y-104684200D02*
X127042600Y-104684200D01*
X127542600Y-104684200D02*
X127542600Y-105134200D01*
X117342600Y-104684200D02*
X117342600Y-105134200D01*
X117342600Y-104684200D02*
X117842600Y-104684200D01*
X117342600Y-112384200D02*
X117842600Y-112384200D01*
X117342600Y-112384200D02*
X117342600Y-111884200D01*
X127542600Y-112384200D02*
X127542600Y-111884200D01*
X127542600Y-112384200D02*
X127042600Y-112384200D01*
X161580200Y-79801400D02*
X161580200Y-80301400D01*
X161580200Y-79801400D02*
X162030200Y-79801400D01*
X161580200Y-90001400D02*
X162030200Y-90001400D01*
X161580200Y-90001400D02*
X161580200Y-89501400D01*
X169280200Y-90001400D02*
X169280200Y-89501400D01*
X169280200Y-90001400D02*
X168780200Y-90001400D01*
X169280200Y-79801400D02*
X168780200Y-79801400D01*
X169280200Y-79801400D02*
X169280200Y-80301400D01*
X139152200Y-110110800D02*
X139152200Y-107160800D01*
X139252200Y-110110800D02*
X139252200Y-107160800D01*
X139352200Y-110110800D02*
X139352200Y-107160800D01*
X139452200Y-110110800D02*
X139452200Y-107160800D01*
X134102200Y-110110800D02*
X134102200Y-109735800D01*
X134602200Y-110110800D02*
X134102200Y-110110800D01*
X134102200Y-107160800D02*
X134502200Y-107160800D01*
X134102200Y-107610800D02*
X134102200Y-107160800D01*
X139552200Y-110110800D02*
X139552200Y-107160800D01*
X138952200Y-110110800D02*
X139552200Y-110110800D01*
X139552200Y-107160800D02*
X139052200Y-107160800D01*
X159996400Y-82996200D02*
X157046400Y-82996200D01*
X159996400Y-82896200D02*
X157046400Y-82896200D01*
X159996400Y-82796200D02*
X157046400Y-82796200D01*
X159996400Y-82696200D02*
X157046400Y-82696200D01*
X159996400Y-88046200D02*
X159621400Y-88046200D01*
X159996400Y-87546200D02*
X159996400Y-88046200D01*
X157046400Y-88046200D02*
X157046400Y-87646200D01*
X157496400Y-88046200D02*
X157046400Y-88046200D01*
X159996400Y-82596200D02*
X157046400Y-82596200D01*
X159996400Y-83196200D02*
X159996400Y-82596200D01*
X157046400Y-82596200D02*
X157046400Y-83096200D01*
D15*
X118567662Y-78428000D02*
G75*
G02X117022370Y-72878000I-462J2990000D01*
G01*
X118566738Y-78428000D02*
G75*
G03X120112030Y-72878000I462J2990000D01*
G01*
X121067200Y-75438000D02*
G75*
G03X121067200Y-75438000I-2500000J0D01*
G01*
X120112200Y-72878000D02*
X117022200Y-72878000D01*
X139645400Y-92676400D02*
X139645400Y-102446400D01*
X129875400Y-92676400D02*
X129875400Y-102446400D01*
X129875400Y-102446400D02*
X139645400Y-102446400D01*
X129875400Y-92676400D02*
X139645400Y-92676400D01*
D14*
X147345400Y-102082600D02*
X147345400Y-97002600D01*
X147345400Y-97002600D02*
X148107400Y-97002600D01*
X148107400Y-97002600D02*
X148869400Y-97002600D01*
X148869400Y-97002600D02*
X148869400Y-102082600D01*
X148869400Y-102082600D02*
X148107400Y-102082600D01*
X148107400Y-102082600D02*
X147345400Y-102082600D01*
X148107400Y-97002600D02*
X148107400Y-96748600D01*
X148107400Y-102082600D02*
X148107400Y-102336600D01*
X125984000Y-80441800D02*
X125984000Y-80187800D01*
X125984000Y-85521800D02*
X125984000Y-85775800D01*
X125984000Y-80441800D02*
X126746000Y-80441800D01*
X125222000Y-80441800D02*
X125984000Y-80441800D01*
X125222000Y-85521800D02*
X125222000Y-80441800D01*
X125984000Y-85521800D02*
X125222000Y-85521800D01*
X126746000Y-85521800D02*
X125984000Y-85521800D01*
X126746000Y-80441800D02*
X126746000Y-85521800D01*
X148793200Y-75158600D02*
X148793200Y-74904600D01*
X148793200Y-80238600D02*
X148793200Y-80492600D01*
X148793200Y-75158600D02*
X149555200Y-75158600D01*
X148031200Y-75158600D02*
X148793200Y-75158600D01*
X148031200Y-80238600D02*
X148031200Y-75158600D01*
X148793200Y-80238600D02*
X148031200Y-80238600D01*
X149555200Y-80238600D02*
X148793200Y-80238600D01*
X149555200Y-75158600D02*
X149555200Y-80238600D01*
X131673600Y-74091800D02*
X131419600Y-74091800D01*
X136753600Y-74091800D02*
X137007600Y-74091800D01*
X131673600Y-74091800D02*
X131673600Y-73329800D01*
X131673600Y-74853800D02*
X131673600Y-74091800D01*
X136753600Y-74853800D02*
X131673600Y-74853800D01*
X136753600Y-74091800D02*
X136753600Y-74853800D01*
X136753600Y-73329800D02*
X136753600Y-74091800D01*
X131673600Y-73329800D02*
X136753600Y-73329800D01*
X118643400Y-92379800D02*
X118643400Y-92125800D01*
X118643400Y-97459800D02*
X118643400Y-97713800D01*
X118643400Y-92379800D02*
X119405400Y-92379800D01*
X117881400Y-92379800D02*
X118643400Y-92379800D01*
X117881400Y-97459800D02*
X117881400Y-92379800D01*
X118643400Y-97459800D02*
X117881400Y-97459800D01*
X119405400Y-97459800D02*
X118643400Y-97459800D01*
X119405400Y-92379800D02*
X119405400Y-97459800D01*
D16*
X105372066Y-63206780D02*
X105038733Y-62730590D01*
X104800638Y-63206780D02*
X104800638Y-62206780D01*
X105181590Y-62206780D01*
X105276828Y-62254400D01*
X105324447Y-62302019D01*
X105372066Y-62397257D01*
X105372066Y-62540114D01*
X105324447Y-62635352D01*
X105276828Y-62682971D01*
X105181590Y-62730590D01*
X104800638Y-62730590D01*
X105800638Y-62682971D02*
X106133971Y-62682971D01*
X106276828Y-63206780D02*
X105800638Y-63206780D01*
X105800638Y-62206780D01*
X106276828Y-62206780D01*
X107038733Y-62682971D02*
X106705400Y-62682971D01*
X106705400Y-63206780D02*
X106705400Y-62206780D01*
X107181590Y-62206780D01*
X107705400Y-62206780D02*
X107705400Y-62444876D01*
X107467304Y-62349638D02*
X107705400Y-62444876D01*
X107943495Y-62349638D01*
X107562542Y-62635352D02*
X107705400Y-62444876D01*
X107848257Y-62635352D01*
X108467304Y-62206780D02*
X108467304Y-62444876D01*
X108229209Y-62349638D02*
X108467304Y-62444876D01*
X108705400Y-62349638D01*
X108324447Y-62635352D02*
X108467304Y-62444876D01*
X108610161Y-62635352D01*
X105676866Y-114616380D02*
X105343533Y-114140190D01*
X105105438Y-114616380D02*
X105105438Y-113616380D01*
X105486390Y-113616380D01*
X105581628Y-113664000D01*
X105629247Y-113711619D01*
X105676866Y-113806857D01*
X105676866Y-113949714D01*
X105629247Y-114044952D01*
X105581628Y-114092571D01*
X105486390Y-114140190D01*
X105105438Y-114140190D01*
X106105438Y-114092571D02*
X106438771Y-114092571D01*
X106581628Y-114616380D02*
X106105438Y-114616380D01*
X106105438Y-113616380D01*
X106581628Y-113616380D01*
X107343533Y-114092571D02*
X107010200Y-114092571D01*
X107010200Y-114616380D02*
X107010200Y-113616380D01*
X107486390Y-113616380D01*
X108010200Y-113616380D02*
X108010200Y-113854476D01*
X107772104Y-113759238D02*
X108010200Y-113854476D01*
X108248295Y-113759238D01*
X107867342Y-114044952D02*
X108010200Y-113854476D01*
X108153057Y-114044952D01*
X108772104Y-113616380D02*
X108772104Y-113854476D01*
X108534009Y-113759238D02*
X108772104Y-113854476D01*
X109010200Y-113759238D01*
X108629247Y-114044952D02*
X108772104Y-113854476D01*
X108914961Y-114044952D01*
X171920066Y-114463980D02*
X171586733Y-113987790D01*
X171348638Y-114463980D02*
X171348638Y-113463980D01*
X171729590Y-113463980D01*
X171824828Y-113511600D01*
X171872447Y-113559219D01*
X171920066Y-113654457D01*
X171920066Y-113797314D01*
X171872447Y-113892552D01*
X171824828Y-113940171D01*
X171729590Y-113987790D01*
X171348638Y-113987790D01*
X172348638Y-113940171D02*
X172681971Y-113940171D01*
X172824828Y-114463980D02*
X172348638Y-114463980D01*
X172348638Y-113463980D01*
X172824828Y-113463980D01*
X173586733Y-113940171D02*
X173253400Y-113940171D01*
X173253400Y-114463980D02*
X173253400Y-113463980D01*
X173729590Y-113463980D01*
X174253400Y-113463980D02*
X174253400Y-113702076D01*
X174015304Y-113606838D02*
X174253400Y-113702076D01*
X174491495Y-113606838D01*
X174110542Y-113892552D02*
X174253400Y-113702076D01*
X174396257Y-113892552D01*
X175015304Y-113463980D02*
X175015304Y-113702076D01*
X174777209Y-113606838D02*
X175015304Y-113702076D01*
X175253400Y-113606838D01*
X174872447Y-113892552D02*
X175015304Y-113702076D01*
X175158161Y-113892552D01*
X171462866Y-62597180D02*
X171129533Y-62120990D01*
X170891438Y-62597180D02*
X170891438Y-61597180D01*
X171272390Y-61597180D01*
X171367628Y-61644800D01*
X171415247Y-61692419D01*
X171462866Y-61787657D01*
X171462866Y-61930514D01*
X171415247Y-62025752D01*
X171367628Y-62073371D01*
X171272390Y-62120990D01*
X170891438Y-62120990D01*
X171891438Y-62073371D02*
X172224771Y-62073371D01*
X172367628Y-62597180D02*
X171891438Y-62597180D01*
X171891438Y-61597180D01*
X172367628Y-61597180D01*
X173129533Y-62073371D02*
X172796200Y-62073371D01*
X172796200Y-62597180D02*
X172796200Y-61597180D01*
X173272390Y-61597180D01*
X173796200Y-61597180D02*
X173796200Y-61835276D01*
X173558104Y-61740038D02*
X173796200Y-61835276D01*
X174034295Y-61740038D01*
X173653342Y-62025752D02*
X173796200Y-61835276D01*
X173939057Y-62025752D01*
X174558104Y-61597180D02*
X174558104Y-61835276D01*
X174320009Y-61740038D02*
X174558104Y-61835276D01*
X174796200Y-61740038D01*
X174415247Y-62025752D02*
X174558104Y-61835276D01*
X174700961Y-62025752D01*
X134258296Y-76555181D02*
X134258296Y-77364705D01*
X134305915Y-77459943D01*
X134353534Y-77507562D01*
X134448772Y-77555181D01*
X134639248Y-77555181D01*
X134734486Y-77507562D01*
X134782105Y-77459943D01*
X134829724Y-77364705D01*
X134829724Y-76555181D01*
X135829724Y-77555181D02*
X135258296Y-77555181D01*
X135544010Y-77555181D02*
X135544010Y-76555181D01*
X135448772Y-76698039D01*
X135353534Y-76793277D01*
X135258296Y-76840896D01*
D13*
X152726571Y-87394142D02*
X152116971Y-87394142D01*
X152116971Y-87249000D01*
X152146000Y-87161914D01*
X152204057Y-87103857D01*
X152262114Y-87074828D01*
X152378228Y-87045800D01*
X152465314Y-87045800D01*
X152581428Y-87074828D01*
X152639485Y-87103857D01*
X152697542Y-87161914D01*
X152726571Y-87249000D01*
X152726571Y-87394142D01*
X152320171Y-86523285D02*
X152726571Y-86523285D01*
X152087942Y-86668428D02*
X152523371Y-86813571D01*
X152523371Y-86436200D01*
X144526000Y-89164885D02*
X144496971Y-89222942D01*
X144496971Y-89310028D01*
X144526000Y-89397114D01*
X144584057Y-89455171D01*
X144642114Y-89484200D01*
X144758228Y-89513228D01*
X144845314Y-89513228D01*
X144961428Y-89484200D01*
X145019485Y-89455171D01*
X145077542Y-89397114D01*
X145106571Y-89310028D01*
X145106571Y-89251971D01*
X145077542Y-89164885D01*
X145048514Y-89135857D01*
X144845314Y-89135857D01*
X144845314Y-89251971D01*
X145106571Y-88526257D02*
X144816285Y-88729457D01*
X145106571Y-88874600D02*
X144496971Y-88874600D01*
X144496971Y-88642371D01*
X144526000Y-88584314D01*
X144555028Y-88555285D01*
X144613085Y-88526257D01*
X144700171Y-88526257D01*
X144758228Y-88555285D01*
X144787257Y-88584314D01*
X144816285Y-88642371D01*
X144816285Y-88874600D01*
X144787257Y-88265000D02*
X144787257Y-88061800D01*
X145106571Y-87974714D02*
X145106571Y-88265000D01*
X144496971Y-88265000D01*
X144496971Y-87974714D01*
X144787257Y-87713457D02*
X144787257Y-87510257D01*
X145106571Y-87423171D02*
X145106571Y-87713457D01*
X144496971Y-87713457D01*
X144496971Y-87423171D01*
X145106571Y-87161914D02*
X144496971Y-87161914D01*
X145106571Y-86813571D01*
X144496971Y-86813571D01*
X144874342Y-86523285D02*
X144874342Y-86058828D01*
X145106571Y-85478257D02*
X145106571Y-85768542D01*
X144496971Y-85768542D01*
X144787257Y-85275057D02*
X144787257Y-85071857D01*
X145106571Y-84984771D02*
X145106571Y-85275057D01*
X144496971Y-85275057D01*
X144496971Y-84984771D01*
X145106571Y-84723514D02*
X144496971Y-84723514D01*
X144496971Y-84578371D01*
X144526000Y-84491285D01*
X144584057Y-84433228D01*
X144642114Y-84404200D01*
X144758228Y-84375171D01*
X144845314Y-84375171D01*
X144961428Y-84404200D01*
X145019485Y-84433228D01*
X145077542Y-84491285D01*
X145106571Y-84578371D01*
X145106571Y-84723514D01*
X152294771Y-111066942D02*
X151685171Y-111066942D01*
X151685171Y-110921800D01*
X151714200Y-110834714D01*
X151772257Y-110776657D01*
X151830314Y-110747628D01*
X151946428Y-110718600D01*
X152033514Y-110718600D01*
X152149628Y-110747628D01*
X152207685Y-110776657D01*
X152265742Y-110834714D01*
X152294771Y-110921800D01*
X152294771Y-111066942D01*
X151685171Y-110515400D02*
X151685171Y-110138028D01*
X151917400Y-110341228D01*
X151917400Y-110254142D01*
X151946428Y-110196085D01*
X151975457Y-110167057D01*
X152033514Y-110138028D01*
X152178657Y-110138028D01*
X152236714Y-110167057D01*
X152265742Y-110196085D01*
X152294771Y-110254142D01*
X152294771Y-110428314D01*
X152265742Y-110486371D01*
X152236714Y-110515400D01*
X144674771Y-112213571D02*
X144384485Y-112416771D01*
X144674771Y-112561914D02*
X144065171Y-112561914D01*
X144065171Y-112329685D01*
X144094200Y-112271628D01*
X144123228Y-112242600D01*
X144181285Y-112213571D01*
X144268371Y-112213571D01*
X144326428Y-112242600D01*
X144355457Y-112271628D01*
X144384485Y-112329685D01*
X144384485Y-112561914D01*
X144355457Y-111952314D02*
X144355457Y-111749114D01*
X144674771Y-111662028D02*
X144674771Y-111952314D01*
X144065171Y-111952314D01*
X144065171Y-111662028D01*
X144674771Y-111400771D02*
X144065171Y-111400771D01*
X144065171Y-111255628D01*
X144094200Y-111168542D01*
X144152257Y-111110485D01*
X144210314Y-111081457D01*
X144326428Y-111052428D01*
X144413514Y-111052428D01*
X144529628Y-111081457D01*
X144587685Y-111110485D01*
X144645742Y-111168542D01*
X144674771Y-111255628D01*
X144674771Y-111400771D01*
X144442542Y-110791171D02*
X144442542Y-110326714D01*
X144674771Y-109746142D02*
X144674771Y-110036428D01*
X144065171Y-110036428D01*
X144355457Y-109542942D02*
X144355457Y-109339742D01*
X144674771Y-109252657D02*
X144674771Y-109542942D01*
X144065171Y-109542942D01*
X144065171Y-109252657D01*
X144674771Y-108991400D02*
X144065171Y-108991400D01*
X144065171Y-108846257D01*
X144094200Y-108759171D01*
X144152257Y-108701114D01*
X144210314Y-108672085D01*
X144326428Y-108643057D01*
X144413514Y-108643057D01*
X144529628Y-108672085D01*
X144587685Y-108701114D01*
X144645742Y-108759171D01*
X144674771Y-108846257D01*
X144674771Y-108991400D01*
X115109171Y-84676342D02*
X114499571Y-84676342D01*
X114499571Y-84531200D01*
X114528600Y-84444114D01*
X114586657Y-84386057D01*
X114644714Y-84357028D01*
X114760828Y-84328000D01*
X114847914Y-84328000D01*
X114964028Y-84357028D01*
X115022085Y-84386057D01*
X115080142Y-84444114D01*
X115109171Y-84531200D01*
X115109171Y-84676342D01*
X114557628Y-84095771D02*
X114528600Y-84066742D01*
X114499571Y-84008685D01*
X114499571Y-83863542D01*
X114528600Y-83805485D01*
X114557628Y-83776457D01*
X114615685Y-83747428D01*
X114673742Y-83747428D01*
X114760828Y-83776457D01*
X115109171Y-84124800D01*
X115109171Y-83747428D01*
X122729171Y-85735885D02*
X122119571Y-85735885D01*
X122729171Y-85097257D02*
X122438885Y-85300457D01*
X122729171Y-85445600D02*
X122119571Y-85445600D01*
X122119571Y-85213371D01*
X122148600Y-85155314D01*
X122177628Y-85126285D01*
X122235685Y-85097257D01*
X122322771Y-85097257D01*
X122380828Y-85126285D01*
X122409857Y-85155314D01*
X122438885Y-85213371D01*
X122438885Y-85445600D01*
X122496942Y-84836000D02*
X122496942Y-84371542D01*
X122729171Y-83790971D02*
X122729171Y-84081257D01*
X122119571Y-84081257D01*
X122409857Y-83587771D02*
X122409857Y-83384571D01*
X122729171Y-83297485D02*
X122729171Y-83587771D01*
X122119571Y-83587771D01*
X122119571Y-83297485D01*
X122729171Y-83036228D02*
X122119571Y-83036228D01*
X122119571Y-82891085D01*
X122148600Y-82804000D01*
X122206657Y-82745942D01*
X122264714Y-82716914D01*
X122380828Y-82687885D01*
X122467914Y-82687885D01*
X122584028Y-82716914D01*
X122642085Y-82745942D01*
X122700142Y-82804000D01*
X122729171Y-82891085D01*
X122729171Y-83036228D01*
D16*
X162289019Y-101775238D02*
X162241400Y-101870476D01*
X162146161Y-101965714D01*
X162003304Y-102108571D01*
X161955685Y-102203809D01*
X161955685Y-102299047D01*
X162193780Y-102251428D02*
X162146161Y-102346666D01*
X162050923Y-102441904D01*
X161860447Y-102489523D01*
X161527114Y-102489523D01*
X161336638Y-102441904D01*
X161241400Y-102346666D01*
X161193780Y-102251428D01*
X161193780Y-102060952D01*
X161241400Y-101965714D01*
X161336638Y-101870476D01*
X161527114Y-101822857D01*
X161860447Y-101822857D01*
X162050923Y-101870476D01*
X162146161Y-101965714D01*
X162193780Y-102060952D01*
X162193780Y-102251428D01*
X162193780Y-100870476D02*
X162193780Y-101441904D01*
X162193780Y-101156190D02*
X161193780Y-101156190D01*
X161336638Y-101251428D01*
X161431876Y-101346666D01*
X161479495Y-101441904D01*
X122309266Y-103186580D02*
X122309266Y-103900866D01*
X122261647Y-104043723D01*
X122166409Y-104138961D01*
X122023552Y-104186580D01*
X121928314Y-104186580D01*
X122737838Y-103281819D02*
X122785457Y-103234200D01*
X122880695Y-103186580D01*
X123118790Y-103186580D01*
X123214028Y-103234200D01*
X123261647Y-103281819D01*
X123309266Y-103377057D01*
X123309266Y-103472295D01*
X123261647Y-103615152D01*
X122690219Y-104186580D01*
X123309266Y-104186580D01*
X160082580Y-85034733D02*
X160796866Y-85034733D01*
X160939723Y-85082352D01*
X161034961Y-85177590D01*
X161082580Y-85320447D01*
X161082580Y-85415685D01*
X161082580Y-84034733D02*
X161082580Y-84606161D01*
X161082580Y-84320447D02*
X160082580Y-84320447D01*
X160225438Y-84415685D01*
X160320676Y-84510923D01*
X160368295Y-84606161D01*
X135875804Y-111435140D02*
X135875804Y-110435140D01*
X136113900Y-110435140D01*
X136256757Y-110482760D01*
X136351995Y-110577998D01*
X136399614Y-110673236D01*
X136447233Y-110863712D01*
X136447233Y-111006569D01*
X136399614Y-111197045D01*
X136351995Y-111292283D01*
X136256757Y-111387521D01*
X136113900Y-111435140D01*
X135875804Y-111435140D01*
X137304376Y-110435140D02*
X137113900Y-110435140D01*
X137018661Y-110482760D01*
X136971042Y-110530379D01*
X136875804Y-110673236D01*
X136828185Y-110863712D01*
X136828185Y-111244664D01*
X136875804Y-111339902D01*
X136923423Y-111387521D01*
X137018661Y-111435140D01*
X137209138Y-111435140D01*
X137304376Y-111387521D01*
X137351995Y-111339902D01*
X137399614Y-111244664D01*
X137399614Y-111006569D01*
X137351995Y-110911331D01*
X137304376Y-110863712D01*
X137209138Y-110816093D01*
X137018661Y-110816093D01*
X136923423Y-110863712D01*
X136875804Y-110911331D01*
X136828185Y-111006569D01*
X161320740Y-86272595D02*
X160320740Y-86272595D01*
X160320740Y-86034500D01*
X160368360Y-85891642D01*
X160463598Y-85796404D01*
X160558836Y-85748785D01*
X160749312Y-85701166D01*
X160892169Y-85701166D01*
X161082645Y-85748785D01*
X161177883Y-85796404D01*
X161273121Y-85891642D01*
X161320740Y-86034500D01*
X161320740Y-86272595D01*
X160320740Y-84796404D02*
X160320740Y-85272595D01*
X160796931Y-85320214D01*
X160749312Y-85272595D01*
X160701693Y-85177357D01*
X160701693Y-84939261D01*
X160749312Y-84844023D01*
X160796931Y-84796404D01*
X160892169Y-84748785D01*
X161130264Y-84748785D01*
X161225502Y-84796404D01*
X161273121Y-84844023D01*
X161320740Y-84939261D01*
X161320740Y-85177357D01*
X161273121Y-85272595D01*
X161225502Y-85320214D01*
X122979580Y-76176095D02*
X121979580Y-76176095D01*
X121979580Y-75938000D01*
X122027200Y-75795142D01*
X122122438Y-75699904D01*
X122217676Y-75652285D01*
X122408152Y-75604666D01*
X122551009Y-75604666D01*
X122741485Y-75652285D01*
X122836723Y-75699904D01*
X122931961Y-75795142D01*
X122979580Y-75938000D01*
X122979580Y-76176095D01*
X122979580Y-74652285D02*
X122979580Y-75223714D01*
X122979580Y-74938000D02*
X121979580Y-74938000D01*
X122122438Y-75033238D01*
X122217676Y-75128476D01*
X122265295Y-75223714D01*
X134165161Y-91998780D02*
X133831828Y-91522590D01*
X133593733Y-91998780D02*
X133593733Y-90998780D01*
X133974685Y-90998780D01*
X134069923Y-91046400D01*
X134117542Y-91094019D01*
X134165161Y-91189257D01*
X134165161Y-91332114D01*
X134117542Y-91427352D01*
X134069923Y-91474971D01*
X133974685Y-91522590D01*
X133593733Y-91522590D01*
X134450876Y-90998780D02*
X134784209Y-91998780D01*
X135117542Y-90998780D01*
X135974685Y-91998780D02*
X135403257Y-91998780D01*
X135688971Y-91998780D02*
X135688971Y-90998780D01*
X135593733Y-91141638D01*
X135498495Y-91236876D01*
X135403257Y-91284495D01*
D13*
X146986171Y-99644200D02*
X146695885Y-99847400D01*
X146986171Y-99992542D02*
X146376571Y-99992542D01*
X146376571Y-99760314D01*
X146405600Y-99702257D01*
X146434628Y-99673228D01*
X146492685Y-99644200D01*
X146579771Y-99644200D01*
X146637828Y-99673228D01*
X146666857Y-99702257D01*
X146695885Y-99760314D01*
X146695885Y-99992542D01*
X146376571Y-99092657D02*
X146376571Y-99382942D01*
X146666857Y-99411971D01*
X146637828Y-99382942D01*
X146608800Y-99324885D01*
X146608800Y-99179742D01*
X146637828Y-99121685D01*
X146666857Y-99092657D01*
X146724914Y-99063628D01*
X146870057Y-99063628D01*
X146928114Y-99092657D01*
X146957142Y-99121685D01*
X146986171Y-99179742D01*
X146986171Y-99324885D01*
X146957142Y-99382942D01*
X146928114Y-99411971D01*
X149780171Y-103519514D02*
X149489885Y-103722714D01*
X149780171Y-103867857D02*
X149170571Y-103867857D01*
X149170571Y-103635628D01*
X149199600Y-103577571D01*
X149228628Y-103548542D01*
X149286685Y-103519514D01*
X149373771Y-103519514D01*
X149431828Y-103548542D01*
X149460857Y-103577571D01*
X149489885Y-103635628D01*
X149489885Y-103867857D01*
X149460857Y-103258257D02*
X149460857Y-103055057D01*
X149780171Y-102967971D02*
X149780171Y-103258257D01*
X149170571Y-103258257D01*
X149170571Y-102967971D01*
X149751142Y-102735742D02*
X149780171Y-102648657D01*
X149780171Y-102503514D01*
X149751142Y-102445457D01*
X149722114Y-102416428D01*
X149664057Y-102387400D01*
X149606000Y-102387400D01*
X149547942Y-102416428D01*
X149518914Y-102445457D01*
X149489885Y-102503514D01*
X149460857Y-102619628D01*
X149431828Y-102677685D01*
X149402800Y-102706714D01*
X149344742Y-102735742D01*
X149286685Y-102735742D01*
X149228628Y-102706714D01*
X149199600Y-102677685D01*
X149170571Y-102619628D01*
X149170571Y-102474485D01*
X149199600Y-102387400D01*
X149780171Y-102126142D02*
X149170571Y-102126142D01*
X149751142Y-101864885D02*
X149780171Y-101777800D01*
X149780171Y-101632657D01*
X149751142Y-101574600D01*
X149722114Y-101545571D01*
X149664057Y-101516542D01*
X149606000Y-101516542D01*
X149547942Y-101545571D01*
X149518914Y-101574600D01*
X149489885Y-101632657D01*
X149460857Y-101748771D01*
X149431828Y-101806828D01*
X149402800Y-101835857D01*
X149344742Y-101864885D01*
X149286685Y-101864885D01*
X149228628Y-101835857D01*
X149199600Y-101806828D01*
X149170571Y-101748771D01*
X149170571Y-101603628D01*
X149199600Y-101516542D01*
X149170571Y-101342371D02*
X149170571Y-100994028D01*
X149780171Y-101168200D02*
X149170571Y-101168200D01*
X149170571Y-100674714D02*
X149170571Y-100558600D01*
X149199600Y-100500542D01*
X149257657Y-100442485D01*
X149373771Y-100413457D01*
X149576971Y-100413457D01*
X149693085Y-100442485D01*
X149751142Y-100500542D01*
X149780171Y-100558600D01*
X149780171Y-100674714D01*
X149751142Y-100732771D01*
X149693085Y-100790828D01*
X149576971Y-100819857D01*
X149373771Y-100819857D01*
X149257657Y-100790828D01*
X149199600Y-100732771D01*
X149170571Y-100674714D01*
X149780171Y-99803857D02*
X149489885Y-100007057D01*
X149780171Y-100152200D02*
X149170571Y-100152200D01*
X149170571Y-99919971D01*
X149199600Y-99861914D01*
X149228628Y-99832885D01*
X149286685Y-99803857D01*
X149373771Y-99803857D01*
X149431828Y-99832885D01*
X149460857Y-99861914D01*
X149489885Y-99919971D01*
X149489885Y-100152200D01*
X149606000Y-99571628D02*
X149606000Y-99281342D01*
X149780171Y-99629685D02*
X149170571Y-99426485D01*
X149780171Y-99223285D01*
X149170571Y-99078142D02*
X149780171Y-98671742D01*
X149170571Y-98671742D02*
X149780171Y-99078142D01*
X149780171Y-98439514D02*
X149170571Y-98439514D01*
X149606000Y-98178257D02*
X149606000Y-97887971D01*
X149780171Y-98236314D02*
X149170571Y-98033114D01*
X149780171Y-97829914D01*
X149780171Y-97336428D02*
X149780171Y-97626714D01*
X149170571Y-97626714D01*
X149547942Y-97133228D02*
X149547942Y-96668771D01*
X149170571Y-96262371D02*
X149170571Y-96204314D01*
X149199600Y-96146257D01*
X149228628Y-96117228D01*
X149286685Y-96088200D01*
X149402800Y-96059171D01*
X149547942Y-96059171D01*
X149664057Y-96088200D01*
X149722114Y-96117228D01*
X149751142Y-96146257D01*
X149780171Y-96204314D01*
X149780171Y-96262371D01*
X149751142Y-96320428D01*
X149722114Y-96349457D01*
X149664057Y-96378485D01*
X149547942Y-96407514D01*
X149402800Y-96407514D01*
X149286685Y-96378485D01*
X149228628Y-96349457D01*
X149199600Y-96320428D01*
X149170571Y-96262371D01*
X149722114Y-95797914D02*
X149751142Y-95768885D01*
X149780171Y-95797914D01*
X149751142Y-95826942D01*
X149722114Y-95797914D01*
X149780171Y-95797914D01*
X149170571Y-95565685D02*
X149170571Y-95188314D01*
X149402800Y-95391514D01*
X149402800Y-95304428D01*
X149431828Y-95246371D01*
X149460857Y-95217342D01*
X149518914Y-95188314D01*
X149664057Y-95188314D01*
X149722114Y-95217342D01*
X149751142Y-95246371D01*
X149780171Y-95304428D01*
X149780171Y-95478600D01*
X149751142Y-95536657D01*
X149722114Y-95565685D01*
X127656771Y-83083400D02*
X127366485Y-83286600D01*
X127656771Y-83431742D02*
X127047171Y-83431742D01*
X127047171Y-83199514D01*
X127076200Y-83141457D01*
X127105228Y-83112428D01*
X127163285Y-83083400D01*
X127250371Y-83083400D01*
X127308428Y-83112428D01*
X127337457Y-83141457D01*
X127366485Y-83199514D01*
X127366485Y-83431742D01*
X127250371Y-82560885D02*
X127656771Y-82560885D01*
X127018142Y-82706028D02*
X127453571Y-82851171D01*
X127453571Y-82473800D01*
X124862771Y-86958714D02*
X124572485Y-87161914D01*
X124862771Y-87307057D02*
X124253171Y-87307057D01*
X124253171Y-87074828D01*
X124282200Y-87016771D01*
X124311228Y-86987742D01*
X124369285Y-86958714D01*
X124456371Y-86958714D01*
X124514428Y-86987742D01*
X124543457Y-87016771D01*
X124572485Y-87074828D01*
X124572485Y-87307057D01*
X124543457Y-86697457D02*
X124543457Y-86494257D01*
X124862771Y-86407171D02*
X124862771Y-86697457D01*
X124253171Y-86697457D01*
X124253171Y-86407171D01*
X124833742Y-86174942D02*
X124862771Y-86087857D01*
X124862771Y-85942714D01*
X124833742Y-85884657D01*
X124804714Y-85855628D01*
X124746657Y-85826600D01*
X124688600Y-85826600D01*
X124630542Y-85855628D01*
X124601514Y-85884657D01*
X124572485Y-85942714D01*
X124543457Y-86058828D01*
X124514428Y-86116885D01*
X124485400Y-86145914D01*
X124427342Y-86174942D01*
X124369285Y-86174942D01*
X124311228Y-86145914D01*
X124282200Y-86116885D01*
X124253171Y-86058828D01*
X124253171Y-85913685D01*
X124282200Y-85826600D01*
X124862771Y-85565342D02*
X124253171Y-85565342D01*
X124833742Y-85304085D02*
X124862771Y-85217000D01*
X124862771Y-85071857D01*
X124833742Y-85013800D01*
X124804714Y-84984771D01*
X124746657Y-84955742D01*
X124688600Y-84955742D01*
X124630542Y-84984771D01*
X124601514Y-85013800D01*
X124572485Y-85071857D01*
X124543457Y-85187971D01*
X124514428Y-85246028D01*
X124485400Y-85275057D01*
X124427342Y-85304085D01*
X124369285Y-85304085D01*
X124311228Y-85275057D01*
X124282200Y-85246028D01*
X124253171Y-85187971D01*
X124253171Y-85042828D01*
X124282200Y-84955742D01*
X124253171Y-84781571D02*
X124253171Y-84433228D01*
X124862771Y-84607400D02*
X124253171Y-84607400D01*
X124253171Y-84113914D02*
X124253171Y-83997800D01*
X124282200Y-83939742D01*
X124340257Y-83881685D01*
X124456371Y-83852657D01*
X124659571Y-83852657D01*
X124775685Y-83881685D01*
X124833742Y-83939742D01*
X124862771Y-83997800D01*
X124862771Y-84113914D01*
X124833742Y-84171971D01*
X124775685Y-84230028D01*
X124659571Y-84259057D01*
X124456371Y-84259057D01*
X124340257Y-84230028D01*
X124282200Y-84171971D01*
X124253171Y-84113914D01*
X124862771Y-83243057D02*
X124572485Y-83446257D01*
X124862771Y-83591400D02*
X124253171Y-83591400D01*
X124253171Y-83359171D01*
X124282200Y-83301114D01*
X124311228Y-83272085D01*
X124369285Y-83243057D01*
X124456371Y-83243057D01*
X124514428Y-83272085D01*
X124543457Y-83301114D01*
X124572485Y-83359171D01*
X124572485Y-83591400D01*
X124688600Y-83010828D02*
X124688600Y-82720542D01*
X124862771Y-83068885D02*
X124253171Y-82865685D01*
X124862771Y-82662485D01*
X124253171Y-82517342D02*
X124862771Y-82110942D01*
X124253171Y-82110942D02*
X124862771Y-82517342D01*
X124862771Y-81878714D02*
X124253171Y-81878714D01*
X124688600Y-81617457D02*
X124688600Y-81327171D01*
X124862771Y-81675514D02*
X124253171Y-81472314D01*
X124862771Y-81269114D01*
X124862771Y-80775628D02*
X124862771Y-81065914D01*
X124253171Y-81065914D01*
X124630542Y-80572428D02*
X124630542Y-80107971D01*
X124253171Y-79701571D02*
X124253171Y-79643514D01*
X124282200Y-79585457D01*
X124311228Y-79556428D01*
X124369285Y-79527400D01*
X124485400Y-79498371D01*
X124630542Y-79498371D01*
X124746657Y-79527400D01*
X124804714Y-79556428D01*
X124833742Y-79585457D01*
X124862771Y-79643514D01*
X124862771Y-79701571D01*
X124833742Y-79759628D01*
X124804714Y-79788657D01*
X124746657Y-79817685D01*
X124630542Y-79846714D01*
X124485400Y-79846714D01*
X124369285Y-79817685D01*
X124311228Y-79788657D01*
X124282200Y-79759628D01*
X124253171Y-79701571D01*
X124804714Y-79237114D02*
X124833742Y-79208085D01*
X124862771Y-79237114D01*
X124833742Y-79266142D01*
X124804714Y-79237114D01*
X124862771Y-79237114D01*
X124253171Y-79004885D02*
X124253171Y-78627514D01*
X124485400Y-78830714D01*
X124485400Y-78743628D01*
X124514428Y-78685571D01*
X124543457Y-78656542D01*
X124601514Y-78627514D01*
X124746657Y-78627514D01*
X124804714Y-78656542D01*
X124833742Y-78685571D01*
X124862771Y-78743628D01*
X124862771Y-78917800D01*
X124833742Y-78975857D01*
X124804714Y-79004885D01*
X150465971Y-77800200D02*
X150175685Y-78003400D01*
X150465971Y-78148542D02*
X149856371Y-78148542D01*
X149856371Y-77916314D01*
X149885400Y-77858257D01*
X149914428Y-77829228D01*
X149972485Y-77800200D01*
X150059571Y-77800200D01*
X150117628Y-77829228D01*
X150146657Y-77858257D01*
X150175685Y-77916314D01*
X150175685Y-78148542D01*
X149856371Y-77597000D02*
X149856371Y-77219628D01*
X150088600Y-77422828D01*
X150088600Y-77335742D01*
X150117628Y-77277685D01*
X150146657Y-77248657D01*
X150204714Y-77219628D01*
X150349857Y-77219628D01*
X150407914Y-77248657D01*
X150436942Y-77277685D01*
X150465971Y-77335742D01*
X150465971Y-77509914D01*
X150436942Y-77567971D01*
X150407914Y-77597000D01*
X147062371Y-78482371D02*
X147062371Y-78105000D01*
X147294600Y-78308200D01*
X147294600Y-78221114D01*
X147323628Y-78163057D01*
X147352657Y-78134028D01*
X147410714Y-78105000D01*
X147555857Y-78105000D01*
X147613914Y-78134028D01*
X147642942Y-78163057D01*
X147671971Y-78221114D01*
X147671971Y-78395285D01*
X147642942Y-78453342D01*
X147613914Y-78482371D01*
X147062371Y-77901800D02*
X147062371Y-77524428D01*
X147294600Y-77727628D01*
X147294600Y-77640542D01*
X147323628Y-77582485D01*
X147352657Y-77553457D01*
X147410714Y-77524428D01*
X147555857Y-77524428D01*
X147613914Y-77553457D01*
X147642942Y-77582485D01*
X147671971Y-77640542D01*
X147671971Y-77814714D01*
X147642942Y-77872771D01*
X147613914Y-77901800D01*
X147062371Y-77147057D02*
X147062371Y-77089000D01*
X147091400Y-77030942D01*
X147120428Y-77001914D01*
X147178485Y-76972885D01*
X147294600Y-76943857D01*
X147439742Y-76943857D01*
X147555857Y-76972885D01*
X147613914Y-77001914D01*
X147642942Y-77030942D01*
X147671971Y-77089000D01*
X147671971Y-77147057D01*
X147642942Y-77205114D01*
X147613914Y-77234142D01*
X147555857Y-77263171D01*
X147439742Y-77292200D01*
X147294600Y-77292200D01*
X147178485Y-77263171D01*
X147120428Y-77234142D01*
X147091400Y-77205114D01*
X147062371Y-77147057D01*
X134112000Y-72970571D02*
X133908800Y-72680285D01*
X133763657Y-72970571D02*
X133763657Y-72360971D01*
X133995885Y-72360971D01*
X134053942Y-72390000D01*
X134082971Y-72419028D01*
X134112000Y-72477085D01*
X134112000Y-72564171D01*
X134082971Y-72622228D01*
X134053942Y-72651257D01*
X133995885Y-72680285D01*
X133763657Y-72680285D01*
X134344228Y-72419028D02*
X134373257Y-72390000D01*
X134431314Y-72360971D01*
X134576457Y-72360971D01*
X134634514Y-72390000D01*
X134663542Y-72419028D01*
X134692571Y-72477085D01*
X134692571Y-72535142D01*
X134663542Y-72622228D01*
X134315200Y-72970571D01*
X134692571Y-72970571D01*
X133415314Y-75154971D02*
X133792685Y-75154971D01*
X133589485Y-75387200D01*
X133676571Y-75387200D01*
X133734628Y-75416228D01*
X133763657Y-75445257D01*
X133792685Y-75503314D01*
X133792685Y-75648457D01*
X133763657Y-75706514D01*
X133734628Y-75735542D01*
X133676571Y-75764571D01*
X133502400Y-75764571D01*
X133444342Y-75735542D01*
X133415314Y-75706514D01*
X133995885Y-75154971D02*
X134373257Y-75154971D01*
X134170057Y-75387200D01*
X134257142Y-75387200D01*
X134315200Y-75416228D01*
X134344228Y-75445257D01*
X134373257Y-75503314D01*
X134373257Y-75648457D01*
X134344228Y-75706514D01*
X134315200Y-75735542D01*
X134257142Y-75764571D01*
X134082971Y-75764571D01*
X134024914Y-75735542D01*
X133995885Y-75706514D01*
X134634514Y-75764571D02*
X134634514Y-75154971D01*
X134982857Y-75764571D02*
X134721600Y-75416228D01*
X134982857Y-75154971D02*
X134634514Y-75503314D01*
X120316171Y-95021400D02*
X120025885Y-95224600D01*
X120316171Y-95369742D02*
X119706571Y-95369742D01*
X119706571Y-95137514D01*
X119735600Y-95079457D01*
X119764628Y-95050428D01*
X119822685Y-95021400D01*
X119909771Y-95021400D01*
X119967828Y-95050428D01*
X119996857Y-95079457D01*
X120025885Y-95137514D01*
X120025885Y-95369742D01*
X120316171Y-94440828D02*
X120316171Y-94789171D01*
X120316171Y-94615000D02*
X119706571Y-94615000D01*
X119793657Y-94673057D01*
X119851714Y-94731114D01*
X119880742Y-94789171D01*
X116912571Y-95703571D02*
X116912571Y-95326200D01*
X117144800Y-95529400D01*
X117144800Y-95442314D01*
X117173828Y-95384257D01*
X117202857Y-95355228D01*
X117260914Y-95326200D01*
X117406057Y-95326200D01*
X117464114Y-95355228D01*
X117493142Y-95384257D01*
X117522171Y-95442314D01*
X117522171Y-95616485D01*
X117493142Y-95674542D01*
X117464114Y-95703571D01*
X116912571Y-95123000D02*
X116912571Y-94745628D01*
X117144800Y-94948828D01*
X117144800Y-94861742D01*
X117173828Y-94803685D01*
X117202857Y-94774657D01*
X117260914Y-94745628D01*
X117406057Y-94745628D01*
X117464114Y-94774657D01*
X117493142Y-94803685D01*
X117522171Y-94861742D01*
X117522171Y-95035914D01*
X117493142Y-95093971D01*
X117464114Y-95123000D01*
X116912571Y-94368257D02*
X116912571Y-94310200D01*
X116941600Y-94252142D01*
X116970628Y-94223114D01*
X117028685Y-94194085D01*
X117144800Y-94165057D01*
X117289942Y-94165057D01*
X117406057Y-94194085D01*
X117464114Y-94223114D01*
X117493142Y-94252142D01*
X117522171Y-94310200D01*
X117522171Y-94368257D01*
X117493142Y-94426314D01*
X117464114Y-94455342D01*
X117406057Y-94484371D01*
X117289942Y-94513400D01*
X117144800Y-94513400D01*
X117028685Y-94484371D01*
X116970628Y-94455342D01*
X116941600Y-94426314D01*
X116912571Y-94368257D01*
M02*
