M48
; DRILL file {KiCad (5.1.2)-2} date 3/15/2020 1:57:37 PM
; FORMAT={-:-/ absolute / metric / decimal}
; #@! TF.CreationDate,2020-03-15T13:57:37-03:00
; #@! TF.GenerationSoftware,Kicad,Pcbnew,(5.1.2)-2
; #@! TF.FileFunction,Plated,1,2,PTH
FMAT,2
METRIC
T1C0.500
T2C0.800
T3C0.813
T4C0.899
T5C0.900
T6C1.000
T7C1.100
T8C1.300
T9C3.200
%
G90
G05
T1
X170.396Y-66.345
X171.099Y-64.648
X171.099Y-68.042
X172.796Y-63.945
X172.796Y-68.745
X174.493Y-64.648
X174.493Y-68.042
X175.196Y-66.345
X104.61Y-118.364
X105.313Y-116.667
X105.313Y-120.061
X107.01Y-115.964
X107.01Y-120.764
X108.707Y-116.667
X108.707Y-120.061
X109.41Y-118.364
X104.305Y-66.954
X105.008Y-65.257
X105.008Y-68.651
X106.705Y-64.554
X106.705Y-69.354
X108.402Y-65.257
X108.402Y-68.651
X109.105Y-66.954
X170.853Y-118.212
X171.556Y-116.515
X171.556Y-119.909
X173.253Y-115.812
X173.253Y-120.612
X174.95Y-116.515
X174.95Y-119.909
X175.653Y-118.212
T2
X132.105Y-95.021
X132.105Y-100.101
X137.185Y-97.561
T3
X148.641Y-85.674
X148.641Y-88.214
X118.643Y-82.956
X118.643Y-85.496
X148.209Y-109.347
X148.209Y-111.887
T4
X148.793Y-73.889
X148.793Y-81.509
X125.984Y-79.172
X125.984Y-86.792
X148.107Y-95.733
X148.107Y-103.353
X118.643Y-91.11
X118.643Y-98.73
X130.404Y-74.092
X138.024Y-74.092
T5
X118.567Y-74.168
X118.567Y-76.708
T6
X158.521Y-99.06
X158.521Y-101.6
X158.521Y-104.14
X130.97Y-79.623
X130.97Y-82.163
X130.97Y-84.703
X130.97Y-87.243
X138.59Y-79.623
X138.59Y-82.163
X138.59Y-84.703
X138.59Y-87.243
T7
X158.521Y-80.721
X158.521Y-89.921
X132.227Y-108.636
X141.427Y-108.636
T8
X165.43Y-82.401
X165.43Y-87.401
X119.943Y-108.534
X124.943Y-108.534
T9
X172.796Y-66.345
X107.01Y-118.364
X106.705Y-66.954
X173.253Y-118.212
T0
M30
