G04 #@! TF.GenerationSoftware,KiCad,Pcbnew,(5.1.2)-2*
G04 #@! TF.CreationDate,2020-03-15T13:57:48-03:00*
G04 #@! TF.ProjectId,InfraRedGelUniversalDispenser,496e6672-6152-4656-9447-656c556e6976,00*
G04 #@! TF.SameCoordinates,Original*
G04 #@! TF.FileFunction,Copper,L2,Bot*
G04 #@! TF.FilePolarity,Positive*
%FSLAX46Y46*%
G04 Gerber Fmt 4.6, Leading zero omitted, Abs format (unit mm)*
G04 Created by KiCad (PCBNEW (5.1.2)-2) date 2020-03-15 13:57:48*
%MOMM*%
%LPD*%
G04 APERTURE LIST*
%ADD10C,0.375000*%
%ADD11C,6.400000*%
%ADD12C,0.800000*%
%ADD13C,1.600000*%
%ADD14R,1.600000X1.600000*%
%ADD15C,1.879600*%
%ADD16C,2.000000*%
%ADD17R,2.000000X2.000000*%
%ADD18C,2.500000*%
%ADD19R,2.500000X2.500000*%
%ADD20C,2.100000*%
%ADD21C,1.800000*%
%ADD22R,1.800000X1.800000*%
%ADD23C,1.440000*%
%ADD24C,1.000000*%
%ADD25C,0.254000*%
G04 APERTURE END LIST*
D10*
X108158742Y-96693371D02*
X108158742Y-97193371D01*
X107373028Y-97193371D02*
X108873028Y-97193371D01*
X108873028Y-96479085D01*
X107373028Y-95907657D02*
X108873028Y-95907657D01*
X108873028Y-95336228D01*
X108801600Y-95193371D01*
X108730171Y-95121942D01*
X108587314Y-95050514D01*
X108373028Y-95050514D01*
X108230171Y-95121942D01*
X108158742Y-95193371D01*
X108087314Y-95336228D01*
X108087314Y-95907657D01*
X107944457Y-94407657D02*
X107944457Y-93264800D01*
X108873028Y-92550514D02*
X107658742Y-92550514D01*
X107515885Y-92479085D01*
X107444457Y-92407657D01*
X107373028Y-92264800D01*
X107373028Y-91979085D01*
X107444457Y-91836228D01*
X107515885Y-91764800D01*
X107658742Y-91693371D01*
X108873028Y-91693371D01*
X107373028Y-90979085D02*
X108873028Y-90979085D01*
X107373028Y-90121942D01*
X108873028Y-90121942D01*
X107801600Y-89479085D02*
X107801600Y-88764800D01*
X107373028Y-89621942D02*
X108873028Y-89121942D01*
X107373028Y-88621942D01*
X111725828Y-98944142D02*
X111725828Y-97872714D01*
X112368685Y-98515571D02*
X110440114Y-98944142D01*
X111082971Y-98015571D02*
X111082971Y-99087000D01*
X110440114Y-98444142D02*
X112368685Y-98015571D01*
X110868685Y-96515571D02*
X110797257Y-96587000D01*
X110725828Y-96801285D01*
X110725828Y-96944142D01*
X110797257Y-97158428D01*
X110940114Y-97301285D01*
X111082971Y-97372714D01*
X111368685Y-97444142D01*
X111582971Y-97444142D01*
X111868685Y-97372714D01*
X112011542Y-97301285D01*
X112154400Y-97158428D01*
X112225828Y-96944142D01*
X112225828Y-96801285D01*
X112154400Y-96587000D01*
X112082971Y-96515571D01*
X112225828Y-95587000D02*
X112225828Y-95301285D01*
X112154400Y-95158428D01*
X112011542Y-95015571D01*
X111725828Y-94944142D01*
X111225828Y-94944142D01*
X110940114Y-95015571D01*
X110797257Y-95158428D01*
X110725828Y-95301285D01*
X110725828Y-95587000D01*
X110797257Y-95729857D01*
X110940114Y-95872714D01*
X111225828Y-95944142D01*
X111725828Y-95944142D01*
X112011542Y-95872714D01*
X112154400Y-95729857D01*
X112225828Y-95587000D01*
X112225828Y-94515571D02*
X110725828Y-94015571D01*
X112225828Y-93515571D01*
X110725828Y-93015571D02*
X112225828Y-93015571D01*
X110725828Y-92301285D02*
X112225828Y-92301285D01*
X112225828Y-91944142D01*
X112154400Y-91729857D01*
X112011542Y-91587000D01*
X111868685Y-91515571D01*
X111582971Y-91444142D01*
X111368685Y-91444142D01*
X111082971Y-91515571D01*
X110940114Y-91587000D01*
X110797257Y-91729857D01*
X110725828Y-91944142D01*
X110725828Y-92301285D01*
X111297257Y-90801285D02*
X111297257Y-89658428D01*
X110725828Y-88158428D02*
X110725828Y-89015571D01*
X110725828Y-88587000D02*
X112225828Y-88587000D01*
X112011542Y-88729857D01*
X111868685Y-88872714D01*
X111797257Y-89015571D01*
X110725828Y-87444142D02*
X110725828Y-87158428D01*
X110797257Y-87015571D01*
X110868685Y-86944142D01*
X111082971Y-86801285D01*
X111368685Y-86729857D01*
X111940114Y-86729857D01*
X112082971Y-86801285D01*
X112154400Y-86872714D01*
X112225828Y-87015571D01*
X112225828Y-87301285D01*
X112154400Y-87444142D01*
X112082971Y-87515571D01*
X111940114Y-87587000D01*
X111582971Y-87587000D01*
X111440114Y-87515571D01*
X111368685Y-87444142D01*
X111297257Y-87301285D01*
X111297257Y-87015571D01*
X111368685Y-86872714D01*
X111440114Y-86801285D01*
X111582971Y-86729857D01*
X173351000Y-88435571D02*
X174065285Y-88435571D01*
X174065285Y-86935571D01*
X172922428Y-87078428D02*
X172851000Y-87007000D01*
X172708142Y-86935571D01*
X172351000Y-86935571D01*
X172208142Y-87007000D01*
X172136714Y-87078428D01*
X172065285Y-87221285D01*
X172065285Y-87364142D01*
X172136714Y-87578428D01*
X172993857Y-88435571D01*
X172065285Y-88435571D01*
X173528800Y-83025371D02*
X174243085Y-83025371D01*
X174243085Y-81525371D01*
X172243085Y-83025371D02*
X173100228Y-83025371D01*
X172671657Y-83025371D02*
X172671657Y-81525371D01*
X172814514Y-81739657D01*
X172957371Y-81882514D01*
X173100228Y-81953942D01*
X125641028Y-114610342D02*
X124498171Y-114610342D01*
X120205428Y-114711942D02*
X119062571Y-114711942D01*
X119634000Y-115283371D02*
X119634000Y-114140514D01*
D11*
X106705400Y-66954400D03*
D12*
X109105400Y-66954400D03*
X108402456Y-68651456D03*
X106705400Y-69354400D03*
X105008344Y-68651456D03*
X104305400Y-66954400D03*
X105008344Y-65257344D03*
X106705400Y-64554400D03*
X108402456Y-65257344D03*
D11*
X107010200Y-118364000D03*
D12*
X109410200Y-118364000D03*
X108707256Y-120061056D03*
X107010200Y-120764000D03*
X105313144Y-120061056D03*
X104610200Y-118364000D03*
X105313144Y-116666944D03*
X107010200Y-115964000D03*
X108707256Y-116666944D03*
D11*
X173253400Y-118211600D03*
D12*
X175653400Y-118211600D03*
X174950456Y-119908656D03*
X173253400Y-120611600D03*
X171556344Y-119908656D03*
X170853400Y-118211600D03*
X171556344Y-116514544D03*
X173253400Y-115811600D03*
X174950456Y-116514544D03*
X174493256Y-64647744D03*
X172796200Y-63944800D03*
X171099144Y-64647744D03*
X170396200Y-66344800D03*
X171099144Y-68041856D03*
X172796200Y-68744800D03*
X174493256Y-68041856D03*
X175196200Y-66344800D03*
D11*
X172796200Y-66344800D03*
D13*
X138590201Y-79622801D03*
X138590201Y-82162801D03*
X138590201Y-84702801D03*
X138590201Y-87242801D03*
X130970201Y-87242801D03*
X130970201Y-84702801D03*
X130970201Y-82162801D03*
D14*
X130970201Y-79622801D03*
D15*
X148640800Y-88214200D03*
X148640800Y-85674200D03*
X148209000Y-111887000D03*
X148209000Y-109347000D03*
X118643400Y-82956400D03*
X118643400Y-85496400D03*
D16*
X158521400Y-104140000D03*
X158521400Y-101600000D03*
D17*
X158521400Y-99060000D03*
D18*
X124942600Y-108534200D03*
D19*
X119942600Y-108534200D03*
D18*
X165430200Y-82401400D03*
D19*
X165430200Y-87401400D03*
D20*
X132227200Y-108635800D03*
X141427200Y-108635800D03*
X158521400Y-89921200D03*
X158521400Y-80721200D03*
D21*
X118567200Y-76708000D03*
D22*
X118567200Y-74168000D03*
D23*
X132105400Y-100101400D03*
X137185400Y-97561400D03*
X132105400Y-95021400D03*
D15*
X148107400Y-103352600D03*
X148107400Y-95732600D03*
X125984000Y-86791800D03*
X125984000Y-79171800D03*
X148793200Y-81508600D03*
X148793200Y-73888600D03*
X138023600Y-74091800D03*
X130403600Y-74091800D03*
X118643400Y-98729800D03*
X118643400Y-91109800D03*
D24*
X130519200Y-79171800D02*
X130970201Y-79622801D01*
X125984000Y-79171800D02*
X130519200Y-79171800D01*
X124028200Y-79171800D02*
X125984000Y-79171800D01*
X146778323Y-95732600D02*
X144466923Y-93421200D01*
X148107400Y-95732600D02*
X146778323Y-95732600D01*
X144466923Y-93421200D02*
X122809000Y-93421200D01*
X122809000Y-93421200D02*
X121920000Y-92532200D01*
X121920000Y-92532200D02*
X121920000Y-81280000D01*
X121920000Y-81280000D02*
X124028200Y-79171800D01*
X132107770Y-82169000D02*
X132101571Y-82162801D01*
X134010400Y-82169000D02*
X132107770Y-82169000D01*
X132101571Y-82162801D02*
X130970201Y-82162801D01*
X135407400Y-80772000D02*
X134010400Y-82169000D01*
X135407400Y-77520800D02*
X135407400Y-80772000D01*
X120283201Y-95289601D02*
X120283201Y-79843399D01*
X120283201Y-79843399D02*
X123894991Y-76231609D01*
X123894991Y-76231609D02*
X134118209Y-76231609D01*
X134118209Y-76231609D02*
X135407400Y-77520800D01*
X121435001Y-96441401D02*
X120283201Y-95289601D01*
X136065401Y-96441401D02*
X121435001Y-96441401D01*
X137185400Y-97561400D02*
X136065401Y-96441401D01*
X118567200Y-82880200D02*
X118643400Y-82956400D01*
X118567200Y-76708000D02*
X118567200Y-82880200D01*
X149538077Y-111887000D02*
X149588877Y-111937800D01*
X148209000Y-111887000D02*
X149538077Y-111887000D01*
X149588877Y-111937800D02*
X156235400Y-111937800D01*
X158521400Y-109651800D02*
X158521400Y-104140000D01*
X156235400Y-111937800D02*
X158521400Y-109651800D01*
X119942600Y-106284200D02*
X115087400Y-101429000D01*
X119942600Y-108534200D02*
X119942600Y-106284200D01*
X115087400Y-101429000D02*
X115087400Y-97637600D01*
X118643400Y-82956400D02*
X116103400Y-82956400D01*
X116103400Y-82956400D02*
X115087400Y-83972400D01*
X115087400Y-83972400D02*
X115087400Y-94589600D01*
X115087400Y-94589600D02*
X115087400Y-97637600D01*
X125323600Y-91922600D02*
X133588060Y-91922600D01*
X123520200Y-90119200D02*
X125323600Y-91922600D01*
X123469400Y-90119200D02*
X123520200Y-90119200D01*
X130170202Y-86442802D02*
X129394202Y-86442802D01*
X130970201Y-87242801D02*
X130170202Y-86442802D01*
X129394202Y-86442802D02*
X127152400Y-84201000D01*
X125044200Y-84201000D02*
X123469400Y-85775800D01*
X127152400Y-84201000D02*
X125044200Y-84201000D01*
X123469400Y-85775800D02*
X123469400Y-90119200D01*
X133588060Y-91922600D02*
X146837400Y-91922600D01*
X146837400Y-91922600D02*
X148463000Y-93548200D01*
X148463000Y-93548200D02*
X152730200Y-93548200D01*
X152730200Y-93548200D02*
X154889200Y-95707200D01*
X154889200Y-95707200D02*
X154889200Y-102920800D01*
X154889200Y-102920800D02*
X156159200Y-104190800D01*
X156210000Y-104140000D02*
X158521400Y-104140000D01*
X156159200Y-104190800D02*
X156210000Y-104140000D01*
X145999200Y-111887000D02*
X148209000Y-111887000D01*
X144754600Y-110642400D02*
X145999200Y-111887000D01*
X132105400Y-95021400D02*
X140208000Y-95021400D01*
X140208000Y-95021400D02*
X144754600Y-99568000D01*
X144754600Y-102641400D02*
X144754600Y-110642400D01*
X144754600Y-99568000D02*
X144754600Y-102641400D01*
X115087400Y-94589600D02*
X117373400Y-94589600D01*
X117373400Y-94589600D02*
X121107200Y-98323400D01*
X138658600Y-102641400D02*
X144754600Y-102641400D01*
X121107200Y-98323400D02*
X134340600Y-98323400D01*
X134340600Y-98323400D02*
X138658600Y-102641400D01*
X130327400Y-74168000D02*
X130403600Y-74091800D01*
X118567200Y-74168000D02*
X130327400Y-74168000D01*
X136277199Y-84702801D02*
X130970201Y-84702801D01*
X131343399Y-75031599D02*
X135508999Y-75031599D01*
X130403600Y-74091800D02*
X131343399Y-75031599D01*
X135508999Y-75031599D02*
X137134600Y-76657200D01*
X137134600Y-76657200D02*
X136982200Y-76809600D01*
X136982200Y-76809600D02*
X136982200Y-83997800D01*
X136982200Y-83997800D02*
X136277199Y-84702801D01*
X118643400Y-85496400D02*
X118643400Y-91109800D01*
X148107400Y-109245400D02*
X148209000Y-109347000D01*
X148107400Y-103352600D02*
X148107400Y-109245400D01*
X165430200Y-89651400D02*
X165430200Y-87401400D01*
X165165600Y-89916000D02*
X165430200Y-89651400D01*
X160011524Y-89916000D02*
X165165600Y-89916000D01*
X160006324Y-89921200D02*
X160011524Y-89916000D01*
X158521400Y-89921200D02*
X160006324Y-89921200D01*
X158521400Y-101600000D02*
X162941000Y-101600000D01*
X165165600Y-99375400D02*
X165165600Y-89916000D01*
X162941000Y-101600000D02*
X165165600Y-99375400D01*
X149580599Y-89153999D02*
X149732999Y-89153999D01*
X148640800Y-88214200D02*
X149580599Y-89153999D01*
X150500200Y-89921200D02*
X158521400Y-89921200D01*
X149732999Y-89153999D02*
X150500200Y-89921200D01*
X148793200Y-85521800D02*
X148640800Y-85674200D01*
X148793200Y-81508600D02*
X148793200Y-85521800D01*
X132105400Y-101119633D02*
X132105400Y-100101400D01*
X136245600Y-105259833D02*
X132105400Y-101119633D01*
X136245600Y-107391200D02*
X136245600Y-105259833D01*
X141427200Y-108635800D02*
X137490200Y-108635800D01*
X137490200Y-108635800D02*
X136245600Y-107391200D01*
X131087167Y-100101400D02*
X132105400Y-100101400D01*
X118685923Y-100101400D02*
X131087167Y-100101400D01*
X118643400Y-100058877D02*
X118685923Y-100101400D01*
X118643400Y-98729800D02*
X118643400Y-100058877D01*
X148590000Y-74091800D02*
X148793200Y-73888600D01*
X138023600Y-74091800D02*
X148590000Y-74091800D01*
X158521400Y-76073000D02*
X158521400Y-80721200D01*
X148793200Y-73888600D02*
X156337000Y-73888600D01*
X156337000Y-73888600D02*
X158521400Y-76073000D01*
X160006324Y-80721200D02*
X160082524Y-80797400D01*
X158521400Y-80721200D02*
X160006324Y-80721200D01*
X163826200Y-80797400D02*
X165430200Y-82401400D01*
X160082524Y-80797400D02*
X163826200Y-80797400D01*
X141427200Y-110120724D02*
X145098476Y-113792000D01*
X141427200Y-108635800D02*
X141427200Y-110120724D01*
X145098476Y-113792000D02*
X165709600Y-113792000D01*
X165709600Y-113792000D02*
X169494200Y-110007400D01*
X169494200Y-110007400D02*
X169494200Y-83007200D01*
X168888400Y-82401400D02*
X165430200Y-82401400D01*
X169494200Y-83007200D02*
X168888400Y-82401400D01*
X138590201Y-74658401D02*
X138023600Y-74091800D01*
X138590201Y-79622801D02*
X138590201Y-74658401D01*
X132125600Y-108534200D02*
X132227200Y-108635800D01*
X124942600Y-108534200D02*
X132125600Y-108534200D01*
X159054800Y-99060000D02*
X158521400Y-99060000D01*
X158521400Y-96062800D02*
X158521400Y-99060000D01*
X125984000Y-89738200D02*
X147624800Y-89738200D01*
X125984000Y-86791800D02*
X125984000Y-89738200D01*
X147624800Y-89738200D02*
X149758400Y-91871800D01*
X149758400Y-91871800D02*
X156540200Y-91871800D01*
X156540200Y-91871800D02*
X158521400Y-93853000D01*
X158521400Y-93853000D02*
X158521400Y-96062800D01*
D25*
G36*
X177267401Y-123521000D02*
G01*
X102335250Y-123521000D01*
X102330810Y-117986285D01*
X103175200Y-117986285D01*
X103175200Y-118741715D01*
X103322577Y-119482628D01*
X103611667Y-120180554D01*
X104031361Y-120808670D01*
X104565530Y-121342839D01*
X105193646Y-121762533D01*
X105891572Y-122051623D01*
X106632485Y-122199000D01*
X107387915Y-122199000D01*
X108128828Y-122051623D01*
X108826754Y-121762533D01*
X109454870Y-121342839D01*
X109989039Y-120808670D01*
X110408733Y-120180554D01*
X110697823Y-119482628D01*
X110845200Y-118741715D01*
X110845200Y-117986285D01*
X110814886Y-117833885D01*
X169418400Y-117833885D01*
X169418400Y-118589315D01*
X169565777Y-119330228D01*
X169854867Y-120028154D01*
X170274561Y-120656270D01*
X170808730Y-121190439D01*
X171436846Y-121610133D01*
X172134772Y-121899223D01*
X172875685Y-122046600D01*
X173631115Y-122046600D01*
X174372028Y-121899223D01*
X175069954Y-121610133D01*
X175698070Y-121190439D01*
X176232239Y-120656270D01*
X176651933Y-120028154D01*
X176941023Y-119330228D01*
X177088400Y-118589315D01*
X177088400Y-117833885D01*
X176941023Y-117092972D01*
X176651933Y-116395046D01*
X176232239Y-115766930D01*
X175698070Y-115232761D01*
X175069954Y-114813067D01*
X174372028Y-114523977D01*
X173631115Y-114376600D01*
X172875685Y-114376600D01*
X172134772Y-114523977D01*
X171436846Y-114813067D01*
X170808730Y-115232761D01*
X170274561Y-115766930D01*
X169854867Y-116395046D01*
X169565777Y-117092972D01*
X169418400Y-117833885D01*
X110814886Y-117833885D01*
X110697823Y-117245372D01*
X110408733Y-116547446D01*
X109989039Y-115919330D01*
X109454870Y-115385161D01*
X108826754Y-114965467D01*
X108128828Y-114676377D01*
X107387915Y-114529000D01*
X106632485Y-114529000D01*
X105891572Y-114676377D01*
X105193646Y-114965467D01*
X104565530Y-115385161D01*
X104031361Y-115919330D01*
X103611667Y-116547446D01*
X103322577Y-117245372D01*
X103175200Y-117986285D01*
X102330810Y-117986285D01*
X102326647Y-112796050D01*
X117882929Y-112796050D01*
X117882929Y-116691050D01*
X121385072Y-116691050D01*
X121385072Y-112796050D01*
X117882929Y-112796050D01*
X102326647Y-112796050D01*
X102326566Y-112694450D01*
X123318529Y-112694450D01*
X123318529Y-116589450D01*
X126820672Y-116589450D01*
X126820672Y-112694450D01*
X123318529Y-112694450D01*
X102326566Y-112694450D01*
X102324231Y-109784200D01*
X118054528Y-109784200D01*
X118066788Y-109908682D01*
X118103098Y-110028380D01*
X118162063Y-110138694D01*
X118241415Y-110235385D01*
X118338106Y-110314737D01*
X118448420Y-110373702D01*
X118568118Y-110410012D01*
X118692600Y-110422272D01*
X119656850Y-110419200D01*
X119815600Y-110260450D01*
X119815600Y-108661200D01*
X120069600Y-108661200D01*
X120069600Y-110260450D01*
X120228350Y-110419200D01*
X121192600Y-110422272D01*
X121317082Y-110410012D01*
X121436780Y-110373702D01*
X121547094Y-110314737D01*
X121643785Y-110235385D01*
X121723137Y-110138694D01*
X121782102Y-110028380D01*
X121818412Y-109908682D01*
X121830672Y-109784200D01*
X121827600Y-108819950D01*
X121668850Y-108661200D01*
X120069600Y-108661200D01*
X119815600Y-108661200D01*
X118216350Y-108661200D01*
X118057600Y-108819950D01*
X118054528Y-109784200D01*
X102324231Y-109784200D01*
X102322226Y-107284200D01*
X118054528Y-107284200D01*
X118057600Y-108248450D01*
X118216350Y-108407200D01*
X119815600Y-108407200D01*
X119815600Y-106807950D01*
X120069600Y-106807950D01*
X120069600Y-108407200D01*
X121668850Y-108407200D01*
X121727506Y-108348544D01*
X123057600Y-108348544D01*
X123057600Y-108719856D01*
X123130039Y-109084034D01*
X123272134Y-109427082D01*
X123478425Y-109735818D01*
X123740982Y-109998375D01*
X124049718Y-110204666D01*
X124392766Y-110346761D01*
X124756944Y-110419200D01*
X125128256Y-110419200D01*
X125492434Y-110346761D01*
X125835482Y-110204666D01*
X126144218Y-109998375D01*
X126406775Y-109735818D01*
X126451288Y-109669200D01*
X130891163Y-109669200D01*
X130918375Y-109709925D01*
X131153075Y-109944625D01*
X131429053Y-110129028D01*
X131735704Y-110256046D01*
X132061242Y-110320800D01*
X132393158Y-110320800D01*
X132718696Y-110256046D01*
X133025347Y-110129028D01*
X133301325Y-109944625D01*
X133536025Y-109709925D01*
X133720428Y-109433947D01*
X133847446Y-109127296D01*
X133912200Y-108801758D01*
X133912200Y-108469842D01*
X133847446Y-108144304D01*
X133720428Y-107837653D01*
X133536025Y-107561675D01*
X133301325Y-107326975D01*
X133025347Y-107142572D01*
X132718696Y-107015554D01*
X132393158Y-106950800D01*
X132061242Y-106950800D01*
X131735704Y-107015554D01*
X131429053Y-107142572D01*
X131153075Y-107326975D01*
X131080850Y-107399200D01*
X126451288Y-107399200D01*
X126406775Y-107332582D01*
X126144218Y-107070025D01*
X125835482Y-106863734D01*
X125492434Y-106721639D01*
X125128256Y-106649200D01*
X124756944Y-106649200D01*
X124392766Y-106721639D01*
X124049718Y-106863734D01*
X123740982Y-107070025D01*
X123478425Y-107332582D01*
X123272134Y-107641318D01*
X123130039Y-107984366D01*
X123057600Y-108348544D01*
X121727506Y-108348544D01*
X121827600Y-108248450D01*
X121830672Y-107284200D01*
X121818412Y-107159718D01*
X121782102Y-107040020D01*
X121723137Y-106929706D01*
X121643785Y-106833015D01*
X121547094Y-106753663D01*
X121436780Y-106694698D01*
X121317082Y-106658388D01*
X121192600Y-106646128D01*
X120228350Y-106649200D01*
X120069600Y-106807950D01*
X119815600Y-106807950D01*
X119656850Y-106649200D01*
X118692600Y-106646128D01*
X118568118Y-106658388D01*
X118448420Y-106694698D01*
X118338106Y-106753663D01*
X118241415Y-106833015D01*
X118162063Y-106929706D01*
X118103098Y-107040020D01*
X118066788Y-107159718D01*
X118054528Y-107284200D01*
X102322226Y-107284200D01*
X102306479Y-87656586D01*
X105965350Y-87656586D01*
X105965350Y-98373015D01*
X109318150Y-98373015D01*
X109318150Y-100052357D01*
X113213150Y-100052357D01*
X113213150Y-85621643D01*
X109318150Y-85621643D01*
X109318150Y-87656586D01*
X105965350Y-87656586D01*
X102306479Y-87656586D01*
X102302761Y-83021377D01*
X117062316Y-83021377D01*
X117105373Y-83328584D01*
X117207535Y-83621486D01*
X117292677Y-83780777D01*
X117550924Y-83869271D01*
X118463795Y-82956400D01*
X117550924Y-82043529D01*
X117292677Y-82132023D01*
X117157803Y-82411376D01*
X117080019Y-82711675D01*
X117062316Y-83021377D01*
X102302761Y-83021377D01*
X102298550Y-77772080D01*
X117682725Y-77772080D01*
X117766408Y-78026261D01*
X118038975Y-78157158D01*
X118331842Y-78232365D01*
X118633753Y-78248991D01*
X118933107Y-78206397D01*
X119218399Y-78106222D01*
X119367992Y-78026261D01*
X119451675Y-77772080D01*
X118567200Y-76887605D01*
X117682725Y-77772080D01*
X102298550Y-77772080D01*
X102297749Y-76774553D01*
X117026209Y-76774553D01*
X117068803Y-77073907D01*
X117168978Y-77359199D01*
X117248939Y-77508792D01*
X117503120Y-77592475D01*
X118387595Y-76708000D01*
X118373453Y-76693858D01*
X118553058Y-76514253D01*
X118567200Y-76528395D01*
X118581343Y-76514253D01*
X118760948Y-76693858D01*
X118746805Y-76708000D01*
X119631280Y-77592475D01*
X119885461Y-77508792D01*
X120016358Y-77236225D01*
X120091565Y-76943358D01*
X120108191Y-76641447D01*
X120065597Y-76342093D01*
X119965422Y-76056801D01*
X119885461Y-75907208D01*
X119631282Y-75823526D01*
X119747230Y-75707578D01*
X119700465Y-75660813D01*
X119711380Y-75657502D01*
X119821694Y-75598537D01*
X119918385Y-75519185D01*
X119997737Y-75422494D01*
X120056702Y-75312180D01*
X120059487Y-75303000D01*
X123237394Y-75303000D01*
X123088542Y-75425160D01*
X123053000Y-75468468D01*
X119520061Y-79001408D01*
X119476753Y-79036950D01*
X119334918Y-79209776D01*
X119278585Y-79315169D01*
X119229525Y-79406953D01*
X119164624Y-79620901D01*
X119142710Y-79843399D01*
X119148202Y-79899160D01*
X119148202Y-81460385D01*
X118888125Y-81393019D01*
X118578423Y-81375316D01*
X118271216Y-81418373D01*
X117978314Y-81520535D01*
X117819023Y-81605677D01*
X117730529Y-81863924D01*
X118643400Y-82776795D01*
X118657543Y-82762653D01*
X118837148Y-82942258D01*
X118823005Y-82956400D01*
X118837148Y-82970543D01*
X118657543Y-83150148D01*
X118643400Y-83136005D01*
X117730529Y-84048876D01*
X117776114Y-84181905D01*
X117639523Y-84273173D01*
X117420173Y-84492523D01*
X117247830Y-84750452D01*
X117129118Y-85037048D01*
X117068600Y-85341296D01*
X117068600Y-85651504D01*
X117129118Y-85955752D01*
X117247830Y-86242348D01*
X117420173Y-86500277D01*
X117508400Y-86588504D01*
X117508401Y-90017695D01*
X117420173Y-90105923D01*
X117247830Y-90363852D01*
X117129118Y-90650448D01*
X117068600Y-90954696D01*
X117068600Y-91264904D01*
X117129118Y-91569152D01*
X117247830Y-91855748D01*
X117420173Y-92113677D01*
X117639523Y-92333027D01*
X117897452Y-92505370D01*
X118184048Y-92624082D01*
X118488296Y-92684600D01*
X118798504Y-92684600D01*
X119102752Y-92624082D01*
X119148201Y-92605256D01*
X119148201Y-95233850D01*
X119142710Y-95289601D01*
X119148201Y-95345352D01*
X119164624Y-95512099D01*
X119229525Y-95726047D01*
X119334917Y-95923224D01*
X119476752Y-96096050D01*
X119520065Y-96131597D01*
X120593009Y-97204541D01*
X120628552Y-97247850D01*
X120801378Y-97389685D01*
X120998554Y-97495077D01*
X121162706Y-97544872D01*
X121212501Y-97559978D01*
X121226940Y-97561400D01*
X121379249Y-97576401D01*
X121379256Y-97576401D01*
X121435000Y-97581891D01*
X121490744Y-97576401D01*
X135595270Y-97576401D01*
X135859371Y-97840502D01*
X135882472Y-97956639D01*
X135984615Y-98203233D01*
X136132903Y-98425162D01*
X136321638Y-98613897D01*
X136543567Y-98762185D01*
X136790161Y-98864328D01*
X137051944Y-98916400D01*
X137318856Y-98916400D01*
X137580639Y-98864328D01*
X137827233Y-98762185D01*
X138049162Y-98613897D01*
X138237897Y-98425162D01*
X138386185Y-98203233D01*
X138488328Y-97956639D01*
X138540400Y-97694856D01*
X138540400Y-97427944D01*
X138488328Y-97166161D01*
X138386185Y-96919567D01*
X138237897Y-96697638D01*
X138049162Y-96508903D01*
X137827233Y-96360615D01*
X137580639Y-96258472D01*
X137464502Y-96235371D01*
X136907397Y-95678265D01*
X136871850Y-95634952D01*
X136699024Y-95493117D01*
X136501848Y-95387725D01*
X136287900Y-95322824D01*
X136121153Y-95306401D01*
X136121152Y-95306401D01*
X136065401Y-95300910D01*
X136009650Y-95306401D01*
X133430653Y-95306401D01*
X133453211Y-95214373D01*
X133464961Y-94947720D01*
X133424463Y-94683899D01*
X133378043Y-94556200D01*
X143996792Y-94556200D01*
X145936332Y-96495741D01*
X145971874Y-96539049D01*
X146144700Y-96680884D01*
X146341876Y-96786276D01*
X146506028Y-96836071D01*
X146555823Y-96851177D01*
X146576816Y-96853244D01*
X146722571Y-96867600D01*
X146722578Y-96867600D01*
X146778322Y-96873090D01*
X146834066Y-96867600D01*
X147015296Y-96867600D01*
X147103523Y-96955827D01*
X147361452Y-97128170D01*
X147648048Y-97246882D01*
X147952296Y-97307400D01*
X148262504Y-97307400D01*
X148566752Y-97246882D01*
X148853348Y-97128170D01*
X149111277Y-96955827D01*
X149330627Y-96736477D01*
X149502970Y-96478548D01*
X149621682Y-96191952D01*
X149682200Y-95887704D01*
X149682200Y-95577496D01*
X149621682Y-95273248D01*
X149502970Y-94986652D01*
X149330627Y-94728723D01*
X149111277Y-94509373D01*
X148853348Y-94337030D01*
X148566752Y-94218318D01*
X148262504Y-94157800D01*
X147952296Y-94157800D01*
X147648048Y-94218318D01*
X147361452Y-94337030D01*
X147137515Y-94486660D01*
X145308919Y-92658065D01*
X145273372Y-92614751D01*
X145100546Y-92472916D01*
X144903370Y-92367524D01*
X144689422Y-92302623D01*
X144522675Y-92286200D01*
X144522674Y-92286200D01*
X144466923Y-92280709D01*
X144411172Y-92286200D01*
X123279132Y-92286200D01*
X123055000Y-92062069D01*
X123055000Y-81750131D01*
X124498332Y-80306800D01*
X124891896Y-80306800D01*
X124980123Y-80395027D01*
X125238052Y-80567370D01*
X125524648Y-80686082D01*
X125828896Y-80746600D01*
X126139104Y-80746600D01*
X126443352Y-80686082D01*
X126729948Y-80567370D01*
X126987877Y-80395027D01*
X127076104Y-80306800D01*
X129532129Y-80306800D01*
X129532129Y-80422801D01*
X129544389Y-80547283D01*
X129580699Y-80666981D01*
X129639664Y-80777295D01*
X129719016Y-80873986D01*
X129815707Y-80953338D01*
X129926021Y-81012303D01*
X130045719Y-81048613D01*
X130054162Y-81049444D01*
X129855564Y-81248042D01*
X129698521Y-81483074D01*
X129590348Y-81744227D01*
X129535201Y-82021466D01*
X129535201Y-82304136D01*
X129590348Y-82581375D01*
X129698521Y-82842528D01*
X129855564Y-83077560D01*
X130055442Y-83277438D01*
X130287960Y-83432801D01*
X130055442Y-83588164D01*
X129855564Y-83788042D01*
X129698521Y-84023074D01*
X129590348Y-84284227D01*
X129535201Y-84561466D01*
X129535201Y-84844136D01*
X129590348Y-85121375D01*
X129698521Y-85382528D01*
X129855564Y-85617560D01*
X130055442Y-85817438D01*
X130289329Y-85973716D01*
X130228687Y-86006130D01*
X130157104Y-86250099D01*
X130970201Y-87063196D01*
X131783298Y-86250099D01*
X131711715Y-86006130D01*
X131647209Y-85975607D01*
X131649928Y-85974481D01*
X131854485Y-85837801D01*
X136221448Y-85837801D01*
X136277199Y-85843292D01*
X136332950Y-85837801D01*
X136332951Y-85837801D01*
X136499698Y-85821378D01*
X136713646Y-85756477D01*
X136910822Y-85651085D01*
X137083648Y-85509250D01*
X137119195Y-85465936D01*
X137284569Y-85300562D01*
X137318521Y-85382528D01*
X137475564Y-85617560D01*
X137675442Y-85817438D01*
X137907960Y-85972801D01*
X137675442Y-86128164D01*
X137475564Y-86328042D01*
X137318521Y-86563074D01*
X137210348Y-86824227D01*
X137155201Y-87101466D01*
X137155201Y-87384136D01*
X137210348Y-87661375D01*
X137318521Y-87922528D01*
X137475564Y-88157560D01*
X137675442Y-88357438D01*
X137910474Y-88514481D01*
X138124661Y-88603200D01*
X131427675Y-88603200D01*
X131586493Y-88546404D01*
X131711715Y-88479472D01*
X131783298Y-88235503D01*
X130970201Y-87422406D01*
X130157104Y-88235503D01*
X130228687Y-88479472D01*
X130484197Y-88600372D01*
X130495479Y-88603200D01*
X127119000Y-88603200D01*
X127119000Y-87883904D01*
X127207227Y-87795677D01*
X127379570Y-87537748D01*
X127472534Y-87313313D01*
X129529984Y-87313313D01*
X129571414Y-87592931D01*
X129666598Y-87859093D01*
X129733530Y-87984315D01*
X129977499Y-88055898D01*
X130790596Y-87242801D01*
X131149806Y-87242801D01*
X131962903Y-88055898D01*
X132206872Y-87984315D01*
X132327772Y-87728805D01*
X132396501Y-87454617D01*
X132410418Y-87172289D01*
X132368988Y-86892671D01*
X132273804Y-86626509D01*
X132206872Y-86501287D01*
X131962903Y-86429704D01*
X131149806Y-87242801D01*
X130790596Y-87242801D01*
X129977499Y-86429704D01*
X129733530Y-86501287D01*
X129612630Y-86756797D01*
X129543901Y-87030985D01*
X129529984Y-87313313D01*
X127472534Y-87313313D01*
X127498282Y-87251152D01*
X127558800Y-86946904D01*
X127558800Y-86636696D01*
X127498282Y-86332448D01*
X127379570Y-86045852D01*
X127207227Y-85787923D01*
X126987877Y-85568573D01*
X126729948Y-85396230D01*
X126443352Y-85277518D01*
X126139104Y-85217000D01*
X125828896Y-85217000D01*
X125524648Y-85277518D01*
X125238052Y-85396230D01*
X124980123Y-85568573D01*
X124760773Y-85787923D01*
X124588430Y-86045852D01*
X124469718Y-86332448D01*
X124409200Y-86636696D01*
X124409200Y-86946904D01*
X124469718Y-87251152D01*
X124588430Y-87537748D01*
X124760773Y-87795677D01*
X124849000Y-87883904D01*
X124849001Y-89682439D01*
X124843509Y-89738200D01*
X124865423Y-89960699D01*
X124930324Y-90174647D01*
X125035716Y-90371823D01*
X125177551Y-90544649D01*
X125350377Y-90686484D01*
X125547553Y-90791876D01*
X125761501Y-90856777D01*
X125928248Y-90873200D01*
X125928249Y-90873200D01*
X125984000Y-90878691D01*
X126039752Y-90873200D01*
X147154669Y-90873200D01*
X148916409Y-92634941D01*
X148951951Y-92678249D01*
X149124777Y-92820084D01*
X149321953Y-92925476D01*
X149535901Y-92990377D01*
X149758399Y-93012291D01*
X149814151Y-93006800D01*
X156070069Y-93006800D01*
X157386400Y-94323132D01*
X157386401Y-96007039D01*
X157386400Y-96007049D01*
X157386400Y-97437378D01*
X157277220Y-97470498D01*
X157166906Y-97529463D01*
X157070215Y-97608815D01*
X156990863Y-97705506D01*
X156931898Y-97815820D01*
X156895588Y-97935518D01*
X156883328Y-98060000D01*
X156883328Y-100060000D01*
X156895588Y-100184482D01*
X156931898Y-100304180D01*
X156990863Y-100414494D01*
X157070215Y-100511185D01*
X157166906Y-100590537D01*
X157213030Y-100615191D01*
X157072482Y-100825537D01*
X156949232Y-101123088D01*
X156886400Y-101438967D01*
X156886400Y-101761033D01*
X156949232Y-102076912D01*
X157072482Y-102374463D01*
X157251413Y-102642252D01*
X157479148Y-102869987D01*
X157588000Y-102942720D01*
X157565592Y-103004587D01*
X158521400Y-103960395D01*
X159477208Y-103004587D01*
X159454800Y-102942720D01*
X159563652Y-102869987D01*
X159698639Y-102735000D01*
X162885249Y-102735000D01*
X162941000Y-102740491D01*
X162996751Y-102735000D01*
X162996752Y-102735000D01*
X163163499Y-102718577D01*
X163377447Y-102653676D01*
X163574623Y-102548284D01*
X163747449Y-102406449D01*
X163782996Y-102363135D01*
X165928741Y-100217391D01*
X165972049Y-100181849D01*
X166113884Y-100009023D01*
X166219276Y-99811847D01*
X166284177Y-99597899D01*
X166300600Y-99431152D01*
X166300600Y-99431143D01*
X166306090Y-99375401D01*
X166300600Y-99319659D01*
X166300600Y-90379925D01*
X166378484Y-90285023D01*
X166483876Y-90087847D01*
X166548777Y-89873899D01*
X166565200Y-89707152D01*
X166565200Y-89707151D01*
X166570691Y-89651400D01*
X166565200Y-89595649D01*
X166565200Y-89289472D01*
X166680200Y-89289472D01*
X166804682Y-89277212D01*
X166924380Y-89240902D01*
X167034694Y-89181937D01*
X167131385Y-89102585D01*
X167210737Y-89005894D01*
X167269702Y-88895580D01*
X167306012Y-88775882D01*
X167318272Y-88651400D01*
X167318272Y-86151400D01*
X167306012Y-86026918D01*
X167269702Y-85907220D01*
X167210737Y-85796906D01*
X167131385Y-85700215D01*
X167034694Y-85620863D01*
X166924380Y-85561898D01*
X166804682Y-85525588D01*
X166680200Y-85513328D01*
X164180200Y-85513328D01*
X164055718Y-85525588D01*
X163936020Y-85561898D01*
X163825706Y-85620863D01*
X163729015Y-85700215D01*
X163649663Y-85796906D01*
X163590698Y-85907220D01*
X163554388Y-86026918D01*
X163542128Y-86151400D01*
X163542128Y-88651400D01*
X163554388Y-88775882D01*
X163555941Y-88781000D01*
X160067275Y-88781000D01*
X160011524Y-88775509D01*
X159955773Y-88781000D01*
X159955772Y-88781000D01*
X159902975Y-88786200D01*
X159769350Y-88786200D01*
X159595525Y-88612375D01*
X159319547Y-88427972D01*
X159012896Y-88300954D01*
X158687358Y-88236200D01*
X158355442Y-88236200D01*
X158029904Y-88300954D01*
X157723253Y-88427972D01*
X157447275Y-88612375D01*
X157273450Y-88786200D01*
X150970332Y-88786200D01*
X150574994Y-88390863D01*
X150539448Y-88347550D01*
X150366622Y-88205715D01*
X150215600Y-88124993D01*
X150215600Y-88059096D01*
X150155082Y-87754848D01*
X150036370Y-87468252D01*
X149864027Y-87210323D01*
X149644677Y-86990973D01*
X149574676Y-86944200D01*
X149644677Y-86897427D01*
X149864027Y-86678077D01*
X150036370Y-86420148D01*
X150155082Y-86133552D01*
X150215600Y-85829304D01*
X150215600Y-85519096D01*
X150155082Y-85214848D01*
X150036370Y-84928252D01*
X149928200Y-84766364D01*
X149928200Y-82600704D01*
X150016427Y-82512477D01*
X150188770Y-82254548D01*
X150307482Y-81967952D01*
X150368000Y-81663704D01*
X150368000Y-81353496D01*
X150307482Y-81049248D01*
X150188770Y-80762652D01*
X150016427Y-80504723D01*
X149797077Y-80285373D01*
X149539148Y-80113030D01*
X149252552Y-79994318D01*
X148948304Y-79933800D01*
X148638096Y-79933800D01*
X148333848Y-79994318D01*
X148047252Y-80113030D01*
X147789323Y-80285373D01*
X147569973Y-80504723D01*
X147397630Y-80762652D01*
X147278918Y-81049248D01*
X147218400Y-81353496D01*
X147218400Y-81663704D01*
X147278918Y-81967952D01*
X147397630Y-82254548D01*
X147569973Y-82512477D01*
X147658200Y-82600704D01*
X147658201Y-84436756D01*
X147636923Y-84450973D01*
X147417573Y-84670323D01*
X147245230Y-84928252D01*
X147126518Y-85214848D01*
X147066000Y-85519096D01*
X147066000Y-85829304D01*
X147126518Y-86133552D01*
X147245230Y-86420148D01*
X147417573Y-86678077D01*
X147636923Y-86897427D01*
X147706924Y-86944200D01*
X147636923Y-86990973D01*
X147417573Y-87210323D01*
X147245230Y-87468252D01*
X147126518Y-87754848D01*
X147066000Y-88059096D01*
X147066000Y-88369304D01*
X147112524Y-88603200D01*
X139055741Y-88603200D01*
X139269928Y-88514481D01*
X139504960Y-88357438D01*
X139704838Y-88157560D01*
X139861881Y-87922528D01*
X139970054Y-87661375D01*
X140025201Y-87384136D01*
X140025201Y-87101466D01*
X139970054Y-86824227D01*
X139861881Y-86563074D01*
X139704838Y-86328042D01*
X139504960Y-86128164D01*
X139272442Y-85972801D01*
X139504960Y-85817438D01*
X139704838Y-85617560D01*
X139861881Y-85382528D01*
X139970054Y-85121375D01*
X140025201Y-84844136D01*
X140025201Y-84561466D01*
X139970054Y-84284227D01*
X139861881Y-84023074D01*
X139704838Y-83788042D01*
X139504960Y-83588164D01*
X139272442Y-83432801D01*
X139504960Y-83277438D01*
X139704838Y-83077560D01*
X139861881Y-82842528D01*
X139970054Y-82581375D01*
X140025201Y-82304136D01*
X140025201Y-82021466D01*
X139970054Y-81744227D01*
X139861881Y-81483074D01*
X139704838Y-81248042D01*
X139504960Y-81048164D01*
X139272442Y-80892801D01*
X139504960Y-80737438D01*
X139704838Y-80537560D01*
X139861881Y-80302528D01*
X139970054Y-80041375D01*
X140025201Y-79764136D01*
X140025201Y-79481466D01*
X139970054Y-79204227D01*
X139861881Y-78943074D01*
X139725201Y-78738517D01*
X139725201Y-75226800D01*
X147961392Y-75226800D01*
X148047252Y-75284170D01*
X148333848Y-75402882D01*
X148638096Y-75463400D01*
X148948304Y-75463400D01*
X149252552Y-75402882D01*
X149539148Y-75284170D01*
X149797077Y-75111827D01*
X149885304Y-75023600D01*
X155866869Y-75023600D01*
X157386400Y-76543132D01*
X157386401Y-79473249D01*
X157212575Y-79647075D01*
X157028172Y-79923053D01*
X156901154Y-80229704D01*
X156836400Y-80555242D01*
X156836400Y-80887158D01*
X156901154Y-81212696D01*
X157028172Y-81519347D01*
X157212575Y-81795325D01*
X157447275Y-82030025D01*
X157723253Y-82214428D01*
X158029904Y-82341446D01*
X158355442Y-82406200D01*
X158687358Y-82406200D01*
X159012896Y-82341446D01*
X159319547Y-82214428D01*
X159595525Y-82030025D01*
X159744590Y-81880960D01*
X159860025Y-81915977D01*
X160026772Y-81932400D01*
X160082523Y-81937891D01*
X160138275Y-81932400D01*
X163356069Y-81932400D01*
X163560831Y-82137162D01*
X163545200Y-82215744D01*
X163545200Y-82587056D01*
X163617639Y-82951234D01*
X163759734Y-83294282D01*
X163966025Y-83603018D01*
X164228582Y-83865575D01*
X164537318Y-84071866D01*
X164880366Y-84213961D01*
X165244544Y-84286400D01*
X165615856Y-84286400D01*
X165980034Y-84213961D01*
X166323082Y-84071866D01*
X166631818Y-83865575D01*
X166894375Y-83603018D01*
X166938888Y-83536400D01*
X168359201Y-83536400D01*
X168359200Y-109537267D01*
X165239469Y-112657000D01*
X149585977Y-112657000D01*
X149694597Y-112432024D01*
X149772381Y-112131725D01*
X149790084Y-111822023D01*
X149747027Y-111514816D01*
X149644865Y-111221914D01*
X149559723Y-111062623D01*
X149301476Y-110974129D01*
X148388605Y-111887000D01*
X148402748Y-111901143D01*
X148223143Y-112080748D01*
X148209000Y-112066605D01*
X148194858Y-112080748D01*
X148015253Y-111901143D01*
X148029395Y-111887000D01*
X147116524Y-110974129D01*
X146858277Y-111062623D01*
X146723403Y-111341976D01*
X146645619Y-111642275D01*
X146627916Y-111951977D01*
X146670973Y-112259184D01*
X146773135Y-112552086D01*
X146829212Y-112657000D01*
X145568608Y-112657000D01*
X142678779Y-109767171D01*
X142736025Y-109709925D01*
X142920428Y-109433947D01*
X143047446Y-109127296D01*
X143112200Y-108801758D01*
X143112200Y-108469842D01*
X143047446Y-108144304D01*
X142920428Y-107837653D01*
X142736025Y-107561675D01*
X142501325Y-107326975D01*
X142225347Y-107142572D01*
X141918696Y-107015554D01*
X141593158Y-106950800D01*
X141261242Y-106950800D01*
X140935704Y-107015554D01*
X140629053Y-107142572D01*
X140353075Y-107326975D01*
X140179250Y-107500800D01*
X137960332Y-107500800D01*
X137380600Y-106921069D01*
X137380600Y-105315584D01*
X137386091Y-105259833D01*
X137364177Y-105037334D01*
X137299276Y-104823386D01*
X137193884Y-104626210D01*
X137052049Y-104453384D01*
X137008741Y-104417842D01*
X135788395Y-103197496D01*
X146532600Y-103197496D01*
X146532600Y-103507704D01*
X146593118Y-103811952D01*
X146711830Y-104098548D01*
X146884173Y-104356477D01*
X146972400Y-104444704D01*
X146972401Y-108363136D01*
X146813430Y-108601052D01*
X146694718Y-108887648D01*
X146634200Y-109191896D01*
X146634200Y-109502104D01*
X146694718Y-109806352D01*
X146813430Y-110092948D01*
X146985773Y-110350877D01*
X147205123Y-110570227D01*
X147341714Y-110661495D01*
X147296129Y-110794524D01*
X148209000Y-111707395D01*
X149121871Y-110794524D01*
X149076286Y-110661495D01*
X149212877Y-110570227D01*
X149432227Y-110350877D01*
X149604570Y-110092948D01*
X149723282Y-109806352D01*
X149783800Y-109502104D01*
X149783800Y-109191896D01*
X149723282Y-108887648D01*
X149604570Y-108601052D01*
X149432227Y-108343123D01*
X149242400Y-108153296D01*
X149242400Y-105275413D01*
X157565592Y-105275413D01*
X157661356Y-105539814D01*
X157950971Y-105680704D01*
X158262508Y-105762384D01*
X158583995Y-105781718D01*
X158903075Y-105737961D01*
X159207488Y-105632795D01*
X159381444Y-105539814D01*
X159477208Y-105275413D01*
X158521400Y-104319605D01*
X157565592Y-105275413D01*
X149242400Y-105275413D01*
X149242400Y-104444704D01*
X149330627Y-104356477D01*
X149433447Y-104202595D01*
X156879682Y-104202595D01*
X156923439Y-104521675D01*
X157028605Y-104826088D01*
X157121586Y-105000044D01*
X157385987Y-105095808D01*
X158341795Y-104140000D01*
X158701005Y-104140000D01*
X159656813Y-105095808D01*
X159921214Y-105000044D01*
X160062104Y-104710429D01*
X160143784Y-104398892D01*
X160163118Y-104077405D01*
X160119361Y-103758325D01*
X160014195Y-103453912D01*
X159921214Y-103279956D01*
X159656813Y-103184192D01*
X158701005Y-104140000D01*
X158341795Y-104140000D01*
X157385987Y-103184192D01*
X157121586Y-103279956D01*
X156980696Y-103569571D01*
X156899016Y-103881108D01*
X156879682Y-104202595D01*
X149433447Y-104202595D01*
X149502970Y-104098548D01*
X149621682Y-103811952D01*
X149682200Y-103507704D01*
X149682200Y-103197496D01*
X149621682Y-102893248D01*
X149502970Y-102606652D01*
X149330627Y-102348723D01*
X149111277Y-102129373D01*
X148853348Y-101957030D01*
X148566752Y-101838318D01*
X148262504Y-101777800D01*
X147952296Y-101777800D01*
X147648048Y-101838318D01*
X147361452Y-101957030D01*
X147103523Y-102129373D01*
X146884173Y-102348723D01*
X146711830Y-102606652D01*
X146593118Y-102893248D01*
X146532600Y-103197496D01*
X135788395Y-103197496D01*
X133314370Y-100723472D01*
X133408328Y-100496639D01*
X133460400Y-100234856D01*
X133460400Y-99967944D01*
X133408328Y-99706161D01*
X133306185Y-99459567D01*
X133157897Y-99237638D01*
X132969162Y-99048903D01*
X132747233Y-98900615D01*
X132500639Y-98798472D01*
X132238856Y-98746400D01*
X131971944Y-98746400D01*
X131710161Y-98798472D01*
X131463567Y-98900615D01*
X131365113Y-98966400D01*
X120201990Y-98966400D01*
X120218200Y-98884904D01*
X120218200Y-98574696D01*
X120157682Y-98270448D01*
X120038970Y-97983852D01*
X119866627Y-97725923D01*
X119647277Y-97506573D01*
X119389348Y-97334230D01*
X119102752Y-97215518D01*
X118798504Y-97155000D01*
X118488296Y-97155000D01*
X118184048Y-97215518D01*
X117897452Y-97334230D01*
X117639523Y-97506573D01*
X117420173Y-97725923D01*
X117247830Y-97983852D01*
X117129118Y-98270448D01*
X117068600Y-98574696D01*
X117068600Y-98884904D01*
X117129118Y-99189152D01*
X117247830Y-99475748D01*
X117420173Y-99733677D01*
X117508400Y-99821904D01*
X117508400Y-100003126D01*
X117502909Y-100058877D01*
X117508400Y-100114628D01*
X117508400Y-100114629D01*
X117524823Y-100281376D01*
X117589724Y-100495324D01*
X117695117Y-100692500D01*
X117836952Y-100865326D01*
X117860304Y-100884491D01*
X117879474Y-100907849D01*
X118052300Y-101049684D01*
X118249476Y-101155076D01*
X118463424Y-101219977D01*
X118630171Y-101236400D01*
X118630172Y-101236400D01*
X118685923Y-101241891D01*
X118741675Y-101236400D01*
X130976409Y-101236400D01*
X130986823Y-101342131D01*
X131051724Y-101556079D01*
X131157116Y-101753256D01*
X131298951Y-101926082D01*
X131342265Y-101961629D01*
X135110601Y-105729966D01*
X135110600Y-107335448D01*
X135105109Y-107391200D01*
X135110600Y-107446951D01*
X135127023Y-107613698D01*
X135191924Y-107827646D01*
X135297316Y-108024823D01*
X135439151Y-108197649D01*
X135482465Y-108233196D01*
X136648208Y-109398940D01*
X136683751Y-109442249D01*
X136856577Y-109584084D01*
X137053753Y-109689476D01*
X137206521Y-109735818D01*
X137267700Y-109754377D01*
X137288693Y-109756444D01*
X137434448Y-109770800D01*
X137434455Y-109770800D01*
X137490199Y-109776290D01*
X137545943Y-109770800D01*
X140179250Y-109770800D01*
X140292200Y-109883750D01*
X140292200Y-110064973D01*
X140286709Y-110120724D01*
X140292200Y-110176475D01*
X140292200Y-110176476D01*
X140308623Y-110343223D01*
X140310945Y-110350877D01*
X140373524Y-110557170D01*
X140422584Y-110648954D01*
X140478917Y-110754347D01*
X140620752Y-110927173D01*
X140664060Y-110962715D01*
X144256485Y-114555141D01*
X144292027Y-114598449D01*
X144464853Y-114740284D01*
X144662029Y-114845676D01*
X144875977Y-114910577D01*
X145042724Y-114927000D01*
X145042733Y-114927000D01*
X145098475Y-114932490D01*
X145154217Y-114927000D01*
X165653849Y-114927000D01*
X165709600Y-114932491D01*
X165765351Y-114927000D01*
X165765352Y-114927000D01*
X165932099Y-114910577D01*
X166146047Y-114845676D01*
X166343223Y-114740284D01*
X166516049Y-114598449D01*
X166551596Y-114555135D01*
X170257346Y-110849387D01*
X170300649Y-110813849D01*
X170349482Y-110754347D01*
X170442484Y-110641023D01*
X170547876Y-110443847D01*
X170612777Y-110229899D01*
X170634691Y-110007400D01*
X170629200Y-109951648D01*
X170629200Y-85948250D01*
X170957072Y-85948250D01*
X170957072Y-89843250D01*
X175244929Y-89843250D01*
X175244929Y-85948250D01*
X170957072Y-85948250D01*
X170629200Y-85948250D01*
X170629200Y-83062952D01*
X170634691Y-83007200D01*
X170612777Y-82784701D01*
X170547876Y-82570753D01*
X170516727Y-82512477D01*
X170442484Y-82373577D01*
X170300649Y-82200751D01*
X170257340Y-82165208D01*
X169730395Y-81638264D01*
X169694849Y-81594951D01*
X169522023Y-81453116D01*
X169324847Y-81347724D01*
X169110899Y-81282823D01*
X168944152Y-81266400D01*
X168944151Y-81266400D01*
X168888400Y-81260909D01*
X168832649Y-81266400D01*
X166938888Y-81266400D01*
X166894375Y-81199782D01*
X166631818Y-80937225D01*
X166323082Y-80730934D01*
X165980034Y-80588839D01*
X165724699Y-80538050D01*
X171134872Y-80538050D01*
X171134872Y-84433050D01*
X175422729Y-84433050D01*
X175422729Y-80538050D01*
X171134872Y-80538050D01*
X165724699Y-80538050D01*
X165615856Y-80516400D01*
X165244544Y-80516400D01*
X165165962Y-80532031D01*
X164668195Y-80034264D01*
X164632649Y-79990951D01*
X164459823Y-79849116D01*
X164262647Y-79743724D01*
X164048699Y-79678823D01*
X163881952Y-79662400D01*
X163881951Y-79662400D01*
X163826200Y-79656909D01*
X163770449Y-79662400D01*
X160425880Y-79662400D01*
X160228823Y-79602623D01*
X160062076Y-79586200D01*
X160062075Y-79586200D01*
X160006324Y-79580709D01*
X159950573Y-79586200D01*
X159769350Y-79586200D01*
X159656400Y-79473250D01*
X159656400Y-76128751D01*
X159661891Y-76072999D01*
X159639977Y-75850500D01*
X159575076Y-75636553D01*
X159554462Y-75597987D01*
X159469684Y-75439377D01*
X159327849Y-75266551D01*
X159284541Y-75231009D01*
X157178996Y-73125465D01*
X157143449Y-73082151D01*
X156970623Y-72940316D01*
X156773447Y-72834924D01*
X156559499Y-72770023D01*
X156392752Y-72753600D01*
X156392751Y-72753600D01*
X156337000Y-72748109D01*
X156281249Y-72753600D01*
X149885304Y-72753600D01*
X149797077Y-72665373D01*
X149539148Y-72493030D01*
X149252552Y-72374318D01*
X148948304Y-72313800D01*
X148638096Y-72313800D01*
X148333848Y-72374318D01*
X148047252Y-72493030D01*
X147789323Y-72665373D01*
X147569973Y-72884723D01*
X147521813Y-72956800D01*
X139115704Y-72956800D01*
X139027477Y-72868573D01*
X138769548Y-72696230D01*
X138482952Y-72577518D01*
X138178704Y-72517000D01*
X137868496Y-72517000D01*
X137564248Y-72577518D01*
X137277652Y-72696230D01*
X137019723Y-72868573D01*
X136800373Y-73087923D01*
X136628030Y-73345852D01*
X136509318Y-73632448D01*
X136448800Y-73936696D01*
X136448800Y-74246904D01*
X136478438Y-74395907D01*
X136350995Y-74268464D01*
X136315448Y-74225150D01*
X136142622Y-74083315D01*
X135945446Y-73977923D01*
X135731498Y-73913022D01*
X135564751Y-73896599D01*
X135564750Y-73896599D01*
X135508999Y-73891108D01*
X135453248Y-73896599D01*
X131970424Y-73896599D01*
X131917882Y-73632448D01*
X131799170Y-73345852D01*
X131626827Y-73087923D01*
X131407477Y-72868573D01*
X131149548Y-72696230D01*
X130862952Y-72577518D01*
X130558704Y-72517000D01*
X130248496Y-72517000D01*
X129944248Y-72577518D01*
X129657652Y-72696230D01*
X129399723Y-72868573D01*
X129235296Y-73033000D01*
X120059487Y-73033000D01*
X120056702Y-73023820D01*
X119997737Y-72913506D01*
X119918385Y-72816815D01*
X119821694Y-72737463D01*
X119711380Y-72678498D01*
X119591682Y-72642188D01*
X119467200Y-72629928D01*
X117667200Y-72629928D01*
X117542718Y-72642188D01*
X117423020Y-72678498D01*
X117312706Y-72737463D01*
X117216015Y-72816815D01*
X117136663Y-72913506D01*
X117077698Y-73023820D01*
X117041388Y-73143518D01*
X117029128Y-73268000D01*
X117029128Y-75068000D01*
X117041388Y-75192482D01*
X117077698Y-75312180D01*
X117136663Y-75422494D01*
X117216015Y-75519185D01*
X117312706Y-75598537D01*
X117423020Y-75657502D01*
X117433935Y-75660813D01*
X117387170Y-75707578D01*
X117503118Y-75823526D01*
X117248939Y-75907208D01*
X117118042Y-76179775D01*
X117042835Y-76472642D01*
X117026209Y-76774553D01*
X102297749Y-76774553D01*
X102289567Y-66576685D01*
X102870400Y-66576685D01*
X102870400Y-67332115D01*
X103017777Y-68073028D01*
X103306867Y-68770954D01*
X103726561Y-69399070D01*
X104260730Y-69933239D01*
X104888846Y-70352933D01*
X105586772Y-70642023D01*
X106327685Y-70789400D01*
X107083115Y-70789400D01*
X107824028Y-70642023D01*
X108521954Y-70352933D01*
X109150070Y-69933239D01*
X109684239Y-69399070D01*
X110103933Y-68770954D01*
X110393023Y-68073028D01*
X110540400Y-67332115D01*
X110540400Y-66576685D01*
X110419143Y-65967085D01*
X168961200Y-65967085D01*
X168961200Y-66722515D01*
X169108577Y-67463428D01*
X169397667Y-68161354D01*
X169817361Y-68789470D01*
X170351530Y-69323639D01*
X170979646Y-69743333D01*
X171677572Y-70032423D01*
X172418485Y-70179800D01*
X173173915Y-70179800D01*
X173914828Y-70032423D01*
X174612754Y-69743333D01*
X175240870Y-69323639D01*
X175775039Y-68789470D01*
X176194733Y-68161354D01*
X176483823Y-67463428D01*
X176631200Y-66722515D01*
X176631200Y-65967085D01*
X176483823Y-65226172D01*
X176194733Y-64528246D01*
X175775039Y-63900130D01*
X175240870Y-63365961D01*
X174612754Y-62946267D01*
X173914828Y-62657177D01*
X173173915Y-62509800D01*
X172418485Y-62509800D01*
X171677572Y-62657177D01*
X170979646Y-62946267D01*
X170351530Y-63365961D01*
X169817361Y-63900130D01*
X169397667Y-64528246D01*
X169108577Y-65226172D01*
X168961200Y-65967085D01*
X110419143Y-65967085D01*
X110393023Y-65835772D01*
X110103933Y-65137846D01*
X109684239Y-64509730D01*
X109150070Y-63975561D01*
X108521954Y-63555867D01*
X107824028Y-63266777D01*
X107083115Y-63119400D01*
X106327685Y-63119400D01*
X105586772Y-63266777D01*
X104888846Y-63555867D01*
X104260730Y-63975561D01*
X103726561Y-64509730D01*
X103306867Y-65137846D01*
X103017777Y-65835772D01*
X102870400Y-66576685D01*
X102289567Y-66576685D01*
X102285549Y-61568800D01*
X177267400Y-61568800D01*
X177267401Y-123521000D01*
X177267401Y-123521000D01*
G37*
X177267401Y-123521000D02*
X102335250Y-123521000D01*
X102330810Y-117986285D01*
X103175200Y-117986285D01*
X103175200Y-118741715D01*
X103322577Y-119482628D01*
X103611667Y-120180554D01*
X104031361Y-120808670D01*
X104565530Y-121342839D01*
X105193646Y-121762533D01*
X105891572Y-122051623D01*
X106632485Y-122199000D01*
X107387915Y-122199000D01*
X108128828Y-122051623D01*
X108826754Y-121762533D01*
X109454870Y-121342839D01*
X109989039Y-120808670D01*
X110408733Y-120180554D01*
X110697823Y-119482628D01*
X110845200Y-118741715D01*
X110845200Y-117986285D01*
X110814886Y-117833885D01*
X169418400Y-117833885D01*
X169418400Y-118589315D01*
X169565777Y-119330228D01*
X169854867Y-120028154D01*
X170274561Y-120656270D01*
X170808730Y-121190439D01*
X171436846Y-121610133D01*
X172134772Y-121899223D01*
X172875685Y-122046600D01*
X173631115Y-122046600D01*
X174372028Y-121899223D01*
X175069954Y-121610133D01*
X175698070Y-121190439D01*
X176232239Y-120656270D01*
X176651933Y-120028154D01*
X176941023Y-119330228D01*
X177088400Y-118589315D01*
X177088400Y-117833885D01*
X176941023Y-117092972D01*
X176651933Y-116395046D01*
X176232239Y-115766930D01*
X175698070Y-115232761D01*
X175069954Y-114813067D01*
X174372028Y-114523977D01*
X173631115Y-114376600D01*
X172875685Y-114376600D01*
X172134772Y-114523977D01*
X171436846Y-114813067D01*
X170808730Y-115232761D01*
X170274561Y-115766930D01*
X169854867Y-116395046D01*
X169565777Y-117092972D01*
X169418400Y-117833885D01*
X110814886Y-117833885D01*
X110697823Y-117245372D01*
X110408733Y-116547446D01*
X109989039Y-115919330D01*
X109454870Y-115385161D01*
X108826754Y-114965467D01*
X108128828Y-114676377D01*
X107387915Y-114529000D01*
X106632485Y-114529000D01*
X105891572Y-114676377D01*
X105193646Y-114965467D01*
X104565530Y-115385161D01*
X104031361Y-115919330D01*
X103611667Y-116547446D01*
X103322577Y-117245372D01*
X103175200Y-117986285D01*
X102330810Y-117986285D01*
X102326647Y-112796050D01*
X117882929Y-112796050D01*
X117882929Y-116691050D01*
X121385072Y-116691050D01*
X121385072Y-112796050D01*
X117882929Y-112796050D01*
X102326647Y-112796050D01*
X102326566Y-112694450D01*
X123318529Y-112694450D01*
X123318529Y-116589450D01*
X126820672Y-116589450D01*
X126820672Y-112694450D01*
X123318529Y-112694450D01*
X102326566Y-112694450D01*
X102324231Y-109784200D01*
X118054528Y-109784200D01*
X118066788Y-109908682D01*
X118103098Y-110028380D01*
X118162063Y-110138694D01*
X118241415Y-110235385D01*
X118338106Y-110314737D01*
X118448420Y-110373702D01*
X118568118Y-110410012D01*
X118692600Y-110422272D01*
X119656850Y-110419200D01*
X119815600Y-110260450D01*
X119815600Y-108661200D01*
X120069600Y-108661200D01*
X120069600Y-110260450D01*
X120228350Y-110419200D01*
X121192600Y-110422272D01*
X121317082Y-110410012D01*
X121436780Y-110373702D01*
X121547094Y-110314737D01*
X121643785Y-110235385D01*
X121723137Y-110138694D01*
X121782102Y-110028380D01*
X121818412Y-109908682D01*
X121830672Y-109784200D01*
X121827600Y-108819950D01*
X121668850Y-108661200D01*
X120069600Y-108661200D01*
X119815600Y-108661200D01*
X118216350Y-108661200D01*
X118057600Y-108819950D01*
X118054528Y-109784200D01*
X102324231Y-109784200D01*
X102322226Y-107284200D01*
X118054528Y-107284200D01*
X118057600Y-108248450D01*
X118216350Y-108407200D01*
X119815600Y-108407200D01*
X119815600Y-106807950D01*
X120069600Y-106807950D01*
X120069600Y-108407200D01*
X121668850Y-108407200D01*
X121727506Y-108348544D01*
X123057600Y-108348544D01*
X123057600Y-108719856D01*
X123130039Y-109084034D01*
X123272134Y-109427082D01*
X123478425Y-109735818D01*
X123740982Y-109998375D01*
X124049718Y-110204666D01*
X124392766Y-110346761D01*
X124756944Y-110419200D01*
X125128256Y-110419200D01*
X125492434Y-110346761D01*
X125835482Y-110204666D01*
X126144218Y-109998375D01*
X126406775Y-109735818D01*
X126451288Y-109669200D01*
X130891163Y-109669200D01*
X130918375Y-109709925D01*
X131153075Y-109944625D01*
X131429053Y-110129028D01*
X131735704Y-110256046D01*
X132061242Y-110320800D01*
X132393158Y-110320800D01*
X132718696Y-110256046D01*
X133025347Y-110129028D01*
X133301325Y-109944625D01*
X133536025Y-109709925D01*
X133720428Y-109433947D01*
X133847446Y-109127296D01*
X133912200Y-108801758D01*
X133912200Y-108469842D01*
X133847446Y-108144304D01*
X133720428Y-107837653D01*
X133536025Y-107561675D01*
X133301325Y-107326975D01*
X133025347Y-107142572D01*
X132718696Y-107015554D01*
X132393158Y-106950800D01*
X132061242Y-106950800D01*
X131735704Y-107015554D01*
X131429053Y-107142572D01*
X131153075Y-107326975D01*
X131080850Y-107399200D01*
X126451288Y-107399200D01*
X126406775Y-107332582D01*
X126144218Y-107070025D01*
X125835482Y-106863734D01*
X125492434Y-106721639D01*
X125128256Y-106649200D01*
X124756944Y-106649200D01*
X124392766Y-106721639D01*
X124049718Y-106863734D01*
X123740982Y-107070025D01*
X123478425Y-107332582D01*
X123272134Y-107641318D01*
X123130039Y-107984366D01*
X123057600Y-108348544D01*
X121727506Y-108348544D01*
X121827600Y-108248450D01*
X121830672Y-107284200D01*
X121818412Y-107159718D01*
X121782102Y-107040020D01*
X121723137Y-106929706D01*
X121643785Y-106833015D01*
X121547094Y-106753663D01*
X121436780Y-106694698D01*
X121317082Y-106658388D01*
X121192600Y-106646128D01*
X120228350Y-106649200D01*
X120069600Y-106807950D01*
X119815600Y-106807950D01*
X119656850Y-106649200D01*
X118692600Y-106646128D01*
X118568118Y-106658388D01*
X118448420Y-106694698D01*
X118338106Y-106753663D01*
X118241415Y-106833015D01*
X118162063Y-106929706D01*
X118103098Y-107040020D01*
X118066788Y-107159718D01*
X118054528Y-107284200D01*
X102322226Y-107284200D01*
X102306479Y-87656586D01*
X105965350Y-87656586D01*
X105965350Y-98373015D01*
X109318150Y-98373015D01*
X109318150Y-100052357D01*
X113213150Y-100052357D01*
X113213150Y-85621643D01*
X109318150Y-85621643D01*
X109318150Y-87656586D01*
X105965350Y-87656586D01*
X102306479Y-87656586D01*
X102302761Y-83021377D01*
X117062316Y-83021377D01*
X117105373Y-83328584D01*
X117207535Y-83621486D01*
X117292677Y-83780777D01*
X117550924Y-83869271D01*
X118463795Y-82956400D01*
X117550924Y-82043529D01*
X117292677Y-82132023D01*
X117157803Y-82411376D01*
X117080019Y-82711675D01*
X117062316Y-83021377D01*
X102302761Y-83021377D01*
X102298550Y-77772080D01*
X117682725Y-77772080D01*
X117766408Y-78026261D01*
X118038975Y-78157158D01*
X118331842Y-78232365D01*
X118633753Y-78248991D01*
X118933107Y-78206397D01*
X119218399Y-78106222D01*
X119367992Y-78026261D01*
X119451675Y-77772080D01*
X118567200Y-76887605D01*
X117682725Y-77772080D01*
X102298550Y-77772080D01*
X102297749Y-76774553D01*
X117026209Y-76774553D01*
X117068803Y-77073907D01*
X117168978Y-77359199D01*
X117248939Y-77508792D01*
X117503120Y-77592475D01*
X118387595Y-76708000D01*
X118373453Y-76693858D01*
X118553058Y-76514253D01*
X118567200Y-76528395D01*
X118581343Y-76514253D01*
X118760948Y-76693858D01*
X118746805Y-76708000D01*
X119631280Y-77592475D01*
X119885461Y-77508792D01*
X120016358Y-77236225D01*
X120091565Y-76943358D01*
X120108191Y-76641447D01*
X120065597Y-76342093D01*
X119965422Y-76056801D01*
X119885461Y-75907208D01*
X119631282Y-75823526D01*
X119747230Y-75707578D01*
X119700465Y-75660813D01*
X119711380Y-75657502D01*
X119821694Y-75598537D01*
X119918385Y-75519185D01*
X119997737Y-75422494D01*
X120056702Y-75312180D01*
X120059487Y-75303000D01*
X123237394Y-75303000D01*
X123088542Y-75425160D01*
X123053000Y-75468468D01*
X119520061Y-79001408D01*
X119476753Y-79036950D01*
X119334918Y-79209776D01*
X119278585Y-79315169D01*
X119229525Y-79406953D01*
X119164624Y-79620901D01*
X119142710Y-79843399D01*
X119148202Y-79899160D01*
X119148202Y-81460385D01*
X118888125Y-81393019D01*
X118578423Y-81375316D01*
X118271216Y-81418373D01*
X117978314Y-81520535D01*
X117819023Y-81605677D01*
X117730529Y-81863924D01*
X118643400Y-82776795D01*
X118657543Y-82762653D01*
X118837148Y-82942258D01*
X118823005Y-82956400D01*
X118837148Y-82970543D01*
X118657543Y-83150148D01*
X118643400Y-83136005D01*
X117730529Y-84048876D01*
X117776114Y-84181905D01*
X117639523Y-84273173D01*
X117420173Y-84492523D01*
X117247830Y-84750452D01*
X117129118Y-85037048D01*
X117068600Y-85341296D01*
X117068600Y-85651504D01*
X117129118Y-85955752D01*
X117247830Y-86242348D01*
X117420173Y-86500277D01*
X117508400Y-86588504D01*
X117508401Y-90017695D01*
X117420173Y-90105923D01*
X117247830Y-90363852D01*
X117129118Y-90650448D01*
X117068600Y-90954696D01*
X117068600Y-91264904D01*
X117129118Y-91569152D01*
X117247830Y-91855748D01*
X117420173Y-92113677D01*
X117639523Y-92333027D01*
X117897452Y-92505370D01*
X118184048Y-92624082D01*
X118488296Y-92684600D01*
X118798504Y-92684600D01*
X119102752Y-92624082D01*
X119148201Y-92605256D01*
X119148201Y-95233850D01*
X119142710Y-95289601D01*
X119148201Y-95345352D01*
X119164624Y-95512099D01*
X119229525Y-95726047D01*
X119334917Y-95923224D01*
X119476752Y-96096050D01*
X119520065Y-96131597D01*
X120593009Y-97204541D01*
X120628552Y-97247850D01*
X120801378Y-97389685D01*
X120998554Y-97495077D01*
X121162706Y-97544872D01*
X121212501Y-97559978D01*
X121226940Y-97561400D01*
X121379249Y-97576401D01*
X121379256Y-97576401D01*
X121435000Y-97581891D01*
X121490744Y-97576401D01*
X135595270Y-97576401D01*
X135859371Y-97840502D01*
X135882472Y-97956639D01*
X135984615Y-98203233D01*
X136132903Y-98425162D01*
X136321638Y-98613897D01*
X136543567Y-98762185D01*
X136790161Y-98864328D01*
X137051944Y-98916400D01*
X137318856Y-98916400D01*
X137580639Y-98864328D01*
X137827233Y-98762185D01*
X138049162Y-98613897D01*
X138237897Y-98425162D01*
X138386185Y-98203233D01*
X138488328Y-97956639D01*
X138540400Y-97694856D01*
X138540400Y-97427944D01*
X138488328Y-97166161D01*
X138386185Y-96919567D01*
X138237897Y-96697638D01*
X138049162Y-96508903D01*
X137827233Y-96360615D01*
X137580639Y-96258472D01*
X137464502Y-96235371D01*
X136907397Y-95678265D01*
X136871850Y-95634952D01*
X136699024Y-95493117D01*
X136501848Y-95387725D01*
X136287900Y-95322824D01*
X136121153Y-95306401D01*
X136121152Y-95306401D01*
X136065401Y-95300910D01*
X136009650Y-95306401D01*
X133430653Y-95306401D01*
X133453211Y-95214373D01*
X133464961Y-94947720D01*
X133424463Y-94683899D01*
X133378043Y-94556200D01*
X143996792Y-94556200D01*
X145936332Y-96495741D01*
X145971874Y-96539049D01*
X146144700Y-96680884D01*
X146341876Y-96786276D01*
X146506028Y-96836071D01*
X146555823Y-96851177D01*
X146576816Y-96853244D01*
X146722571Y-96867600D01*
X146722578Y-96867600D01*
X146778322Y-96873090D01*
X146834066Y-96867600D01*
X147015296Y-96867600D01*
X147103523Y-96955827D01*
X147361452Y-97128170D01*
X147648048Y-97246882D01*
X147952296Y-97307400D01*
X148262504Y-97307400D01*
X148566752Y-97246882D01*
X148853348Y-97128170D01*
X149111277Y-96955827D01*
X149330627Y-96736477D01*
X149502970Y-96478548D01*
X149621682Y-96191952D01*
X149682200Y-95887704D01*
X149682200Y-95577496D01*
X149621682Y-95273248D01*
X149502970Y-94986652D01*
X149330627Y-94728723D01*
X149111277Y-94509373D01*
X148853348Y-94337030D01*
X148566752Y-94218318D01*
X148262504Y-94157800D01*
X147952296Y-94157800D01*
X147648048Y-94218318D01*
X147361452Y-94337030D01*
X147137515Y-94486660D01*
X145308919Y-92658065D01*
X145273372Y-92614751D01*
X145100546Y-92472916D01*
X144903370Y-92367524D01*
X144689422Y-92302623D01*
X144522675Y-92286200D01*
X144522674Y-92286200D01*
X144466923Y-92280709D01*
X144411172Y-92286200D01*
X123279132Y-92286200D01*
X123055000Y-92062069D01*
X123055000Y-81750131D01*
X124498332Y-80306800D01*
X124891896Y-80306800D01*
X124980123Y-80395027D01*
X125238052Y-80567370D01*
X125524648Y-80686082D01*
X125828896Y-80746600D01*
X126139104Y-80746600D01*
X126443352Y-80686082D01*
X126729948Y-80567370D01*
X126987877Y-80395027D01*
X127076104Y-80306800D01*
X129532129Y-80306800D01*
X129532129Y-80422801D01*
X129544389Y-80547283D01*
X129580699Y-80666981D01*
X129639664Y-80777295D01*
X129719016Y-80873986D01*
X129815707Y-80953338D01*
X129926021Y-81012303D01*
X130045719Y-81048613D01*
X130054162Y-81049444D01*
X129855564Y-81248042D01*
X129698521Y-81483074D01*
X129590348Y-81744227D01*
X129535201Y-82021466D01*
X129535201Y-82304136D01*
X129590348Y-82581375D01*
X129698521Y-82842528D01*
X129855564Y-83077560D01*
X130055442Y-83277438D01*
X130287960Y-83432801D01*
X130055442Y-83588164D01*
X129855564Y-83788042D01*
X129698521Y-84023074D01*
X129590348Y-84284227D01*
X129535201Y-84561466D01*
X129535201Y-84844136D01*
X129590348Y-85121375D01*
X129698521Y-85382528D01*
X129855564Y-85617560D01*
X130055442Y-85817438D01*
X130289329Y-85973716D01*
X130228687Y-86006130D01*
X130157104Y-86250099D01*
X130970201Y-87063196D01*
X131783298Y-86250099D01*
X131711715Y-86006130D01*
X131647209Y-85975607D01*
X131649928Y-85974481D01*
X131854485Y-85837801D01*
X136221448Y-85837801D01*
X136277199Y-85843292D01*
X136332950Y-85837801D01*
X136332951Y-85837801D01*
X136499698Y-85821378D01*
X136713646Y-85756477D01*
X136910822Y-85651085D01*
X137083648Y-85509250D01*
X137119195Y-85465936D01*
X137284569Y-85300562D01*
X137318521Y-85382528D01*
X137475564Y-85617560D01*
X137675442Y-85817438D01*
X137907960Y-85972801D01*
X137675442Y-86128164D01*
X137475564Y-86328042D01*
X137318521Y-86563074D01*
X137210348Y-86824227D01*
X137155201Y-87101466D01*
X137155201Y-87384136D01*
X137210348Y-87661375D01*
X137318521Y-87922528D01*
X137475564Y-88157560D01*
X137675442Y-88357438D01*
X137910474Y-88514481D01*
X138124661Y-88603200D01*
X131427675Y-88603200D01*
X131586493Y-88546404D01*
X131711715Y-88479472D01*
X131783298Y-88235503D01*
X130970201Y-87422406D01*
X130157104Y-88235503D01*
X130228687Y-88479472D01*
X130484197Y-88600372D01*
X130495479Y-88603200D01*
X127119000Y-88603200D01*
X127119000Y-87883904D01*
X127207227Y-87795677D01*
X127379570Y-87537748D01*
X127472534Y-87313313D01*
X129529984Y-87313313D01*
X129571414Y-87592931D01*
X129666598Y-87859093D01*
X129733530Y-87984315D01*
X129977499Y-88055898D01*
X130790596Y-87242801D01*
X131149806Y-87242801D01*
X131962903Y-88055898D01*
X132206872Y-87984315D01*
X132327772Y-87728805D01*
X132396501Y-87454617D01*
X132410418Y-87172289D01*
X132368988Y-86892671D01*
X132273804Y-86626509D01*
X132206872Y-86501287D01*
X131962903Y-86429704D01*
X131149806Y-87242801D01*
X130790596Y-87242801D01*
X129977499Y-86429704D01*
X129733530Y-86501287D01*
X129612630Y-86756797D01*
X129543901Y-87030985D01*
X129529984Y-87313313D01*
X127472534Y-87313313D01*
X127498282Y-87251152D01*
X127558800Y-86946904D01*
X127558800Y-86636696D01*
X127498282Y-86332448D01*
X127379570Y-86045852D01*
X127207227Y-85787923D01*
X126987877Y-85568573D01*
X126729948Y-85396230D01*
X126443352Y-85277518D01*
X126139104Y-85217000D01*
X125828896Y-85217000D01*
X125524648Y-85277518D01*
X125238052Y-85396230D01*
X124980123Y-85568573D01*
X124760773Y-85787923D01*
X124588430Y-86045852D01*
X124469718Y-86332448D01*
X124409200Y-86636696D01*
X124409200Y-86946904D01*
X124469718Y-87251152D01*
X124588430Y-87537748D01*
X124760773Y-87795677D01*
X124849000Y-87883904D01*
X124849001Y-89682439D01*
X124843509Y-89738200D01*
X124865423Y-89960699D01*
X124930324Y-90174647D01*
X125035716Y-90371823D01*
X125177551Y-90544649D01*
X125350377Y-90686484D01*
X125547553Y-90791876D01*
X125761501Y-90856777D01*
X125928248Y-90873200D01*
X125928249Y-90873200D01*
X125984000Y-90878691D01*
X126039752Y-90873200D01*
X147154669Y-90873200D01*
X148916409Y-92634941D01*
X148951951Y-92678249D01*
X149124777Y-92820084D01*
X149321953Y-92925476D01*
X149535901Y-92990377D01*
X149758399Y-93012291D01*
X149814151Y-93006800D01*
X156070069Y-93006800D01*
X157386400Y-94323132D01*
X157386401Y-96007039D01*
X157386400Y-96007049D01*
X157386400Y-97437378D01*
X157277220Y-97470498D01*
X157166906Y-97529463D01*
X157070215Y-97608815D01*
X156990863Y-97705506D01*
X156931898Y-97815820D01*
X156895588Y-97935518D01*
X156883328Y-98060000D01*
X156883328Y-100060000D01*
X156895588Y-100184482D01*
X156931898Y-100304180D01*
X156990863Y-100414494D01*
X157070215Y-100511185D01*
X157166906Y-100590537D01*
X157213030Y-100615191D01*
X157072482Y-100825537D01*
X156949232Y-101123088D01*
X156886400Y-101438967D01*
X156886400Y-101761033D01*
X156949232Y-102076912D01*
X157072482Y-102374463D01*
X157251413Y-102642252D01*
X157479148Y-102869987D01*
X157588000Y-102942720D01*
X157565592Y-103004587D01*
X158521400Y-103960395D01*
X159477208Y-103004587D01*
X159454800Y-102942720D01*
X159563652Y-102869987D01*
X159698639Y-102735000D01*
X162885249Y-102735000D01*
X162941000Y-102740491D01*
X162996751Y-102735000D01*
X162996752Y-102735000D01*
X163163499Y-102718577D01*
X163377447Y-102653676D01*
X163574623Y-102548284D01*
X163747449Y-102406449D01*
X163782996Y-102363135D01*
X165928741Y-100217391D01*
X165972049Y-100181849D01*
X166113884Y-100009023D01*
X166219276Y-99811847D01*
X166284177Y-99597899D01*
X166300600Y-99431152D01*
X166300600Y-99431143D01*
X166306090Y-99375401D01*
X166300600Y-99319659D01*
X166300600Y-90379925D01*
X166378484Y-90285023D01*
X166483876Y-90087847D01*
X166548777Y-89873899D01*
X166565200Y-89707152D01*
X166565200Y-89707151D01*
X166570691Y-89651400D01*
X166565200Y-89595649D01*
X166565200Y-89289472D01*
X166680200Y-89289472D01*
X166804682Y-89277212D01*
X166924380Y-89240902D01*
X167034694Y-89181937D01*
X167131385Y-89102585D01*
X167210737Y-89005894D01*
X167269702Y-88895580D01*
X167306012Y-88775882D01*
X167318272Y-88651400D01*
X167318272Y-86151400D01*
X167306012Y-86026918D01*
X167269702Y-85907220D01*
X167210737Y-85796906D01*
X167131385Y-85700215D01*
X167034694Y-85620863D01*
X166924380Y-85561898D01*
X166804682Y-85525588D01*
X166680200Y-85513328D01*
X164180200Y-85513328D01*
X164055718Y-85525588D01*
X163936020Y-85561898D01*
X163825706Y-85620863D01*
X163729015Y-85700215D01*
X163649663Y-85796906D01*
X163590698Y-85907220D01*
X163554388Y-86026918D01*
X163542128Y-86151400D01*
X163542128Y-88651400D01*
X163554388Y-88775882D01*
X163555941Y-88781000D01*
X160067275Y-88781000D01*
X160011524Y-88775509D01*
X159955773Y-88781000D01*
X159955772Y-88781000D01*
X159902975Y-88786200D01*
X159769350Y-88786200D01*
X159595525Y-88612375D01*
X159319547Y-88427972D01*
X159012896Y-88300954D01*
X158687358Y-88236200D01*
X158355442Y-88236200D01*
X158029904Y-88300954D01*
X157723253Y-88427972D01*
X157447275Y-88612375D01*
X157273450Y-88786200D01*
X150970332Y-88786200D01*
X150574994Y-88390863D01*
X150539448Y-88347550D01*
X150366622Y-88205715D01*
X150215600Y-88124993D01*
X150215600Y-88059096D01*
X150155082Y-87754848D01*
X150036370Y-87468252D01*
X149864027Y-87210323D01*
X149644677Y-86990973D01*
X149574676Y-86944200D01*
X149644677Y-86897427D01*
X149864027Y-86678077D01*
X150036370Y-86420148D01*
X150155082Y-86133552D01*
X150215600Y-85829304D01*
X150215600Y-85519096D01*
X150155082Y-85214848D01*
X150036370Y-84928252D01*
X149928200Y-84766364D01*
X149928200Y-82600704D01*
X150016427Y-82512477D01*
X150188770Y-82254548D01*
X150307482Y-81967952D01*
X150368000Y-81663704D01*
X150368000Y-81353496D01*
X150307482Y-81049248D01*
X150188770Y-80762652D01*
X150016427Y-80504723D01*
X149797077Y-80285373D01*
X149539148Y-80113030D01*
X149252552Y-79994318D01*
X148948304Y-79933800D01*
X148638096Y-79933800D01*
X148333848Y-79994318D01*
X148047252Y-80113030D01*
X147789323Y-80285373D01*
X147569973Y-80504723D01*
X147397630Y-80762652D01*
X147278918Y-81049248D01*
X147218400Y-81353496D01*
X147218400Y-81663704D01*
X147278918Y-81967952D01*
X147397630Y-82254548D01*
X147569973Y-82512477D01*
X147658200Y-82600704D01*
X147658201Y-84436756D01*
X147636923Y-84450973D01*
X147417573Y-84670323D01*
X147245230Y-84928252D01*
X147126518Y-85214848D01*
X147066000Y-85519096D01*
X147066000Y-85829304D01*
X147126518Y-86133552D01*
X147245230Y-86420148D01*
X147417573Y-86678077D01*
X147636923Y-86897427D01*
X147706924Y-86944200D01*
X147636923Y-86990973D01*
X147417573Y-87210323D01*
X147245230Y-87468252D01*
X147126518Y-87754848D01*
X147066000Y-88059096D01*
X147066000Y-88369304D01*
X147112524Y-88603200D01*
X139055741Y-88603200D01*
X139269928Y-88514481D01*
X139504960Y-88357438D01*
X139704838Y-88157560D01*
X139861881Y-87922528D01*
X139970054Y-87661375D01*
X140025201Y-87384136D01*
X140025201Y-87101466D01*
X139970054Y-86824227D01*
X139861881Y-86563074D01*
X139704838Y-86328042D01*
X139504960Y-86128164D01*
X139272442Y-85972801D01*
X139504960Y-85817438D01*
X139704838Y-85617560D01*
X139861881Y-85382528D01*
X139970054Y-85121375D01*
X140025201Y-84844136D01*
X140025201Y-84561466D01*
X139970054Y-84284227D01*
X139861881Y-84023074D01*
X139704838Y-83788042D01*
X139504960Y-83588164D01*
X139272442Y-83432801D01*
X139504960Y-83277438D01*
X139704838Y-83077560D01*
X139861881Y-82842528D01*
X139970054Y-82581375D01*
X140025201Y-82304136D01*
X140025201Y-82021466D01*
X139970054Y-81744227D01*
X139861881Y-81483074D01*
X139704838Y-81248042D01*
X139504960Y-81048164D01*
X139272442Y-80892801D01*
X139504960Y-80737438D01*
X139704838Y-80537560D01*
X139861881Y-80302528D01*
X139970054Y-80041375D01*
X140025201Y-79764136D01*
X140025201Y-79481466D01*
X139970054Y-79204227D01*
X139861881Y-78943074D01*
X139725201Y-78738517D01*
X139725201Y-75226800D01*
X147961392Y-75226800D01*
X148047252Y-75284170D01*
X148333848Y-75402882D01*
X148638096Y-75463400D01*
X148948304Y-75463400D01*
X149252552Y-75402882D01*
X149539148Y-75284170D01*
X149797077Y-75111827D01*
X149885304Y-75023600D01*
X155866869Y-75023600D01*
X157386400Y-76543132D01*
X157386401Y-79473249D01*
X157212575Y-79647075D01*
X157028172Y-79923053D01*
X156901154Y-80229704D01*
X156836400Y-80555242D01*
X156836400Y-80887158D01*
X156901154Y-81212696D01*
X157028172Y-81519347D01*
X157212575Y-81795325D01*
X157447275Y-82030025D01*
X157723253Y-82214428D01*
X158029904Y-82341446D01*
X158355442Y-82406200D01*
X158687358Y-82406200D01*
X159012896Y-82341446D01*
X159319547Y-82214428D01*
X159595525Y-82030025D01*
X159744590Y-81880960D01*
X159860025Y-81915977D01*
X160026772Y-81932400D01*
X160082523Y-81937891D01*
X160138275Y-81932400D01*
X163356069Y-81932400D01*
X163560831Y-82137162D01*
X163545200Y-82215744D01*
X163545200Y-82587056D01*
X163617639Y-82951234D01*
X163759734Y-83294282D01*
X163966025Y-83603018D01*
X164228582Y-83865575D01*
X164537318Y-84071866D01*
X164880366Y-84213961D01*
X165244544Y-84286400D01*
X165615856Y-84286400D01*
X165980034Y-84213961D01*
X166323082Y-84071866D01*
X166631818Y-83865575D01*
X166894375Y-83603018D01*
X166938888Y-83536400D01*
X168359201Y-83536400D01*
X168359200Y-109537267D01*
X165239469Y-112657000D01*
X149585977Y-112657000D01*
X149694597Y-112432024D01*
X149772381Y-112131725D01*
X149790084Y-111822023D01*
X149747027Y-111514816D01*
X149644865Y-111221914D01*
X149559723Y-111062623D01*
X149301476Y-110974129D01*
X148388605Y-111887000D01*
X148402748Y-111901143D01*
X148223143Y-112080748D01*
X148209000Y-112066605D01*
X148194858Y-112080748D01*
X148015253Y-111901143D01*
X148029395Y-111887000D01*
X147116524Y-110974129D01*
X146858277Y-111062623D01*
X146723403Y-111341976D01*
X146645619Y-111642275D01*
X146627916Y-111951977D01*
X146670973Y-112259184D01*
X146773135Y-112552086D01*
X146829212Y-112657000D01*
X145568608Y-112657000D01*
X142678779Y-109767171D01*
X142736025Y-109709925D01*
X142920428Y-109433947D01*
X143047446Y-109127296D01*
X143112200Y-108801758D01*
X143112200Y-108469842D01*
X143047446Y-108144304D01*
X142920428Y-107837653D01*
X142736025Y-107561675D01*
X142501325Y-107326975D01*
X142225347Y-107142572D01*
X141918696Y-107015554D01*
X141593158Y-106950800D01*
X141261242Y-106950800D01*
X140935704Y-107015554D01*
X140629053Y-107142572D01*
X140353075Y-107326975D01*
X140179250Y-107500800D01*
X137960332Y-107500800D01*
X137380600Y-106921069D01*
X137380600Y-105315584D01*
X137386091Y-105259833D01*
X137364177Y-105037334D01*
X137299276Y-104823386D01*
X137193884Y-104626210D01*
X137052049Y-104453384D01*
X137008741Y-104417842D01*
X135788395Y-103197496D01*
X146532600Y-103197496D01*
X146532600Y-103507704D01*
X146593118Y-103811952D01*
X146711830Y-104098548D01*
X146884173Y-104356477D01*
X146972400Y-104444704D01*
X146972401Y-108363136D01*
X146813430Y-108601052D01*
X146694718Y-108887648D01*
X146634200Y-109191896D01*
X146634200Y-109502104D01*
X146694718Y-109806352D01*
X146813430Y-110092948D01*
X146985773Y-110350877D01*
X147205123Y-110570227D01*
X147341714Y-110661495D01*
X147296129Y-110794524D01*
X148209000Y-111707395D01*
X149121871Y-110794524D01*
X149076286Y-110661495D01*
X149212877Y-110570227D01*
X149432227Y-110350877D01*
X149604570Y-110092948D01*
X149723282Y-109806352D01*
X149783800Y-109502104D01*
X149783800Y-109191896D01*
X149723282Y-108887648D01*
X149604570Y-108601052D01*
X149432227Y-108343123D01*
X149242400Y-108153296D01*
X149242400Y-105275413D01*
X157565592Y-105275413D01*
X157661356Y-105539814D01*
X157950971Y-105680704D01*
X158262508Y-105762384D01*
X158583995Y-105781718D01*
X158903075Y-105737961D01*
X159207488Y-105632795D01*
X159381444Y-105539814D01*
X159477208Y-105275413D01*
X158521400Y-104319605D01*
X157565592Y-105275413D01*
X149242400Y-105275413D01*
X149242400Y-104444704D01*
X149330627Y-104356477D01*
X149433447Y-104202595D01*
X156879682Y-104202595D01*
X156923439Y-104521675D01*
X157028605Y-104826088D01*
X157121586Y-105000044D01*
X157385987Y-105095808D01*
X158341795Y-104140000D01*
X158701005Y-104140000D01*
X159656813Y-105095808D01*
X159921214Y-105000044D01*
X160062104Y-104710429D01*
X160143784Y-104398892D01*
X160163118Y-104077405D01*
X160119361Y-103758325D01*
X160014195Y-103453912D01*
X159921214Y-103279956D01*
X159656813Y-103184192D01*
X158701005Y-104140000D01*
X158341795Y-104140000D01*
X157385987Y-103184192D01*
X157121586Y-103279956D01*
X156980696Y-103569571D01*
X156899016Y-103881108D01*
X156879682Y-104202595D01*
X149433447Y-104202595D01*
X149502970Y-104098548D01*
X149621682Y-103811952D01*
X149682200Y-103507704D01*
X149682200Y-103197496D01*
X149621682Y-102893248D01*
X149502970Y-102606652D01*
X149330627Y-102348723D01*
X149111277Y-102129373D01*
X148853348Y-101957030D01*
X148566752Y-101838318D01*
X148262504Y-101777800D01*
X147952296Y-101777800D01*
X147648048Y-101838318D01*
X147361452Y-101957030D01*
X147103523Y-102129373D01*
X146884173Y-102348723D01*
X146711830Y-102606652D01*
X146593118Y-102893248D01*
X146532600Y-103197496D01*
X135788395Y-103197496D01*
X133314370Y-100723472D01*
X133408328Y-100496639D01*
X133460400Y-100234856D01*
X133460400Y-99967944D01*
X133408328Y-99706161D01*
X133306185Y-99459567D01*
X133157897Y-99237638D01*
X132969162Y-99048903D01*
X132747233Y-98900615D01*
X132500639Y-98798472D01*
X132238856Y-98746400D01*
X131971944Y-98746400D01*
X131710161Y-98798472D01*
X131463567Y-98900615D01*
X131365113Y-98966400D01*
X120201990Y-98966400D01*
X120218200Y-98884904D01*
X120218200Y-98574696D01*
X120157682Y-98270448D01*
X120038970Y-97983852D01*
X119866627Y-97725923D01*
X119647277Y-97506573D01*
X119389348Y-97334230D01*
X119102752Y-97215518D01*
X118798504Y-97155000D01*
X118488296Y-97155000D01*
X118184048Y-97215518D01*
X117897452Y-97334230D01*
X117639523Y-97506573D01*
X117420173Y-97725923D01*
X117247830Y-97983852D01*
X117129118Y-98270448D01*
X117068600Y-98574696D01*
X117068600Y-98884904D01*
X117129118Y-99189152D01*
X117247830Y-99475748D01*
X117420173Y-99733677D01*
X117508400Y-99821904D01*
X117508400Y-100003126D01*
X117502909Y-100058877D01*
X117508400Y-100114628D01*
X117508400Y-100114629D01*
X117524823Y-100281376D01*
X117589724Y-100495324D01*
X117695117Y-100692500D01*
X117836952Y-100865326D01*
X117860304Y-100884491D01*
X117879474Y-100907849D01*
X118052300Y-101049684D01*
X118249476Y-101155076D01*
X118463424Y-101219977D01*
X118630171Y-101236400D01*
X118630172Y-101236400D01*
X118685923Y-101241891D01*
X118741675Y-101236400D01*
X130976409Y-101236400D01*
X130986823Y-101342131D01*
X131051724Y-101556079D01*
X131157116Y-101753256D01*
X131298951Y-101926082D01*
X131342265Y-101961629D01*
X135110601Y-105729966D01*
X135110600Y-107335448D01*
X135105109Y-107391200D01*
X135110600Y-107446951D01*
X135127023Y-107613698D01*
X135191924Y-107827646D01*
X135297316Y-108024823D01*
X135439151Y-108197649D01*
X135482465Y-108233196D01*
X136648208Y-109398940D01*
X136683751Y-109442249D01*
X136856577Y-109584084D01*
X137053753Y-109689476D01*
X137206521Y-109735818D01*
X137267700Y-109754377D01*
X137288693Y-109756444D01*
X137434448Y-109770800D01*
X137434455Y-109770800D01*
X137490199Y-109776290D01*
X137545943Y-109770800D01*
X140179250Y-109770800D01*
X140292200Y-109883750D01*
X140292200Y-110064973D01*
X140286709Y-110120724D01*
X140292200Y-110176475D01*
X140292200Y-110176476D01*
X140308623Y-110343223D01*
X140310945Y-110350877D01*
X140373524Y-110557170D01*
X140422584Y-110648954D01*
X140478917Y-110754347D01*
X140620752Y-110927173D01*
X140664060Y-110962715D01*
X144256485Y-114555141D01*
X144292027Y-114598449D01*
X144464853Y-114740284D01*
X144662029Y-114845676D01*
X144875977Y-114910577D01*
X145042724Y-114927000D01*
X145042733Y-114927000D01*
X145098475Y-114932490D01*
X145154217Y-114927000D01*
X165653849Y-114927000D01*
X165709600Y-114932491D01*
X165765351Y-114927000D01*
X165765352Y-114927000D01*
X165932099Y-114910577D01*
X166146047Y-114845676D01*
X166343223Y-114740284D01*
X166516049Y-114598449D01*
X166551596Y-114555135D01*
X170257346Y-110849387D01*
X170300649Y-110813849D01*
X170349482Y-110754347D01*
X170442484Y-110641023D01*
X170547876Y-110443847D01*
X170612777Y-110229899D01*
X170634691Y-110007400D01*
X170629200Y-109951648D01*
X170629200Y-85948250D01*
X170957072Y-85948250D01*
X170957072Y-89843250D01*
X175244929Y-89843250D01*
X175244929Y-85948250D01*
X170957072Y-85948250D01*
X170629200Y-85948250D01*
X170629200Y-83062952D01*
X170634691Y-83007200D01*
X170612777Y-82784701D01*
X170547876Y-82570753D01*
X170516727Y-82512477D01*
X170442484Y-82373577D01*
X170300649Y-82200751D01*
X170257340Y-82165208D01*
X169730395Y-81638264D01*
X169694849Y-81594951D01*
X169522023Y-81453116D01*
X169324847Y-81347724D01*
X169110899Y-81282823D01*
X168944152Y-81266400D01*
X168944151Y-81266400D01*
X168888400Y-81260909D01*
X168832649Y-81266400D01*
X166938888Y-81266400D01*
X166894375Y-81199782D01*
X166631818Y-80937225D01*
X166323082Y-80730934D01*
X165980034Y-80588839D01*
X165724699Y-80538050D01*
X171134872Y-80538050D01*
X171134872Y-84433050D01*
X175422729Y-84433050D01*
X175422729Y-80538050D01*
X171134872Y-80538050D01*
X165724699Y-80538050D01*
X165615856Y-80516400D01*
X165244544Y-80516400D01*
X165165962Y-80532031D01*
X164668195Y-80034264D01*
X164632649Y-79990951D01*
X164459823Y-79849116D01*
X164262647Y-79743724D01*
X164048699Y-79678823D01*
X163881952Y-79662400D01*
X163881951Y-79662400D01*
X163826200Y-79656909D01*
X163770449Y-79662400D01*
X160425880Y-79662400D01*
X160228823Y-79602623D01*
X160062076Y-79586200D01*
X160062075Y-79586200D01*
X160006324Y-79580709D01*
X159950573Y-79586200D01*
X159769350Y-79586200D01*
X159656400Y-79473250D01*
X159656400Y-76128751D01*
X159661891Y-76072999D01*
X159639977Y-75850500D01*
X159575076Y-75636553D01*
X159554462Y-75597987D01*
X159469684Y-75439377D01*
X159327849Y-75266551D01*
X159284541Y-75231009D01*
X157178996Y-73125465D01*
X157143449Y-73082151D01*
X156970623Y-72940316D01*
X156773447Y-72834924D01*
X156559499Y-72770023D01*
X156392752Y-72753600D01*
X156392751Y-72753600D01*
X156337000Y-72748109D01*
X156281249Y-72753600D01*
X149885304Y-72753600D01*
X149797077Y-72665373D01*
X149539148Y-72493030D01*
X149252552Y-72374318D01*
X148948304Y-72313800D01*
X148638096Y-72313800D01*
X148333848Y-72374318D01*
X148047252Y-72493030D01*
X147789323Y-72665373D01*
X147569973Y-72884723D01*
X147521813Y-72956800D01*
X139115704Y-72956800D01*
X139027477Y-72868573D01*
X138769548Y-72696230D01*
X138482952Y-72577518D01*
X138178704Y-72517000D01*
X137868496Y-72517000D01*
X137564248Y-72577518D01*
X137277652Y-72696230D01*
X137019723Y-72868573D01*
X136800373Y-73087923D01*
X136628030Y-73345852D01*
X136509318Y-73632448D01*
X136448800Y-73936696D01*
X136448800Y-74246904D01*
X136478438Y-74395907D01*
X136350995Y-74268464D01*
X136315448Y-74225150D01*
X136142622Y-74083315D01*
X135945446Y-73977923D01*
X135731498Y-73913022D01*
X135564751Y-73896599D01*
X135564750Y-73896599D01*
X135508999Y-73891108D01*
X135453248Y-73896599D01*
X131970424Y-73896599D01*
X131917882Y-73632448D01*
X131799170Y-73345852D01*
X131626827Y-73087923D01*
X131407477Y-72868573D01*
X131149548Y-72696230D01*
X130862952Y-72577518D01*
X130558704Y-72517000D01*
X130248496Y-72517000D01*
X129944248Y-72577518D01*
X129657652Y-72696230D01*
X129399723Y-72868573D01*
X129235296Y-73033000D01*
X120059487Y-73033000D01*
X120056702Y-73023820D01*
X119997737Y-72913506D01*
X119918385Y-72816815D01*
X119821694Y-72737463D01*
X119711380Y-72678498D01*
X119591682Y-72642188D01*
X119467200Y-72629928D01*
X117667200Y-72629928D01*
X117542718Y-72642188D01*
X117423020Y-72678498D01*
X117312706Y-72737463D01*
X117216015Y-72816815D01*
X117136663Y-72913506D01*
X117077698Y-73023820D01*
X117041388Y-73143518D01*
X117029128Y-73268000D01*
X117029128Y-75068000D01*
X117041388Y-75192482D01*
X117077698Y-75312180D01*
X117136663Y-75422494D01*
X117216015Y-75519185D01*
X117312706Y-75598537D01*
X117423020Y-75657502D01*
X117433935Y-75660813D01*
X117387170Y-75707578D01*
X117503118Y-75823526D01*
X117248939Y-75907208D01*
X117118042Y-76179775D01*
X117042835Y-76472642D01*
X117026209Y-76774553D01*
X102297749Y-76774553D01*
X102289567Y-66576685D01*
X102870400Y-66576685D01*
X102870400Y-67332115D01*
X103017777Y-68073028D01*
X103306867Y-68770954D01*
X103726561Y-69399070D01*
X104260730Y-69933239D01*
X104888846Y-70352933D01*
X105586772Y-70642023D01*
X106327685Y-70789400D01*
X107083115Y-70789400D01*
X107824028Y-70642023D01*
X108521954Y-70352933D01*
X109150070Y-69933239D01*
X109684239Y-69399070D01*
X110103933Y-68770954D01*
X110393023Y-68073028D01*
X110540400Y-67332115D01*
X110540400Y-66576685D01*
X110419143Y-65967085D01*
X168961200Y-65967085D01*
X168961200Y-66722515D01*
X169108577Y-67463428D01*
X169397667Y-68161354D01*
X169817361Y-68789470D01*
X170351530Y-69323639D01*
X170979646Y-69743333D01*
X171677572Y-70032423D01*
X172418485Y-70179800D01*
X173173915Y-70179800D01*
X173914828Y-70032423D01*
X174612754Y-69743333D01*
X175240870Y-69323639D01*
X175775039Y-68789470D01*
X176194733Y-68161354D01*
X176483823Y-67463428D01*
X176631200Y-66722515D01*
X176631200Y-65967085D01*
X176483823Y-65226172D01*
X176194733Y-64528246D01*
X175775039Y-63900130D01*
X175240870Y-63365961D01*
X174612754Y-62946267D01*
X173914828Y-62657177D01*
X173173915Y-62509800D01*
X172418485Y-62509800D01*
X171677572Y-62657177D01*
X170979646Y-62946267D01*
X170351530Y-63365961D01*
X169817361Y-63900130D01*
X169397667Y-64528246D01*
X169108577Y-65226172D01*
X168961200Y-65967085D01*
X110419143Y-65967085D01*
X110393023Y-65835772D01*
X110103933Y-65137846D01*
X109684239Y-64509730D01*
X109150070Y-63975561D01*
X108521954Y-63555867D01*
X107824028Y-63266777D01*
X107083115Y-63119400D01*
X106327685Y-63119400D01*
X105586772Y-63266777D01*
X104888846Y-63555867D01*
X104260730Y-63975561D01*
X103726561Y-64509730D01*
X103306867Y-65137846D01*
X103017777Y-65835772D01*
X102870400Y-66576685D01*
X102289567Y-66576685D01*
X102285549Y-61568800D01*
X177267400Y-61568800D01*
X177267401Y-123521000D01*
G36*
X132299148Y-95007258D02*
G01*
X132285005Y-95021400D01*
X132299148Y-95035543D01*
X132119543Y-95215148D01*
X132105400Y-95201005D01*
X132091258Y-95215148D01*
X131911653Y-95035543D01*
X131925795Y-95021400D01*
X131911653Y-95007258D01*
X132091258Y-94827653D01*
X132105400Y-94841795D01*
X132119543Y-94827653D01*
X132299148Y-95007258D01*
X132299148Y-95007258D01*
G37*
X132299148Y-95007258D02*
X132285005Y-95021400D01*
X132299148Y-95035543D01*
X132119543Y-95215148D01*
X132105400Y-95201005D01*
X132091258Y-95215148D01*
X131911653Y-95035543D01*
X131925795Y-95021400D01*
X131911653Y-95007258D01*
X132091258Y-94827653D01*
X132105400Y-94841795D01*
X132119543Y-94827653D01*
X132299148Y-95007258D01*
M02*
