%FSLAX45Y45*%
G04 Gerber Fmt 4.5, Leading zero omitted, Abs format (unit mm)*
G04 Created by KiCad (PCBNEW (5.1.2)-2) date 2020-03-15 13:57:41*
%MOMM*%
%LPD*%
G04 APERTURE LIST*
%ADD10C,0.100000*%
%ADD11C,0.200000*%
%ADD12C,0.300000*%
G04 APERTURE END LIST*
D10*
X10165080Y-12420600D02*
X10160000Y-6088380D01*
X17795240Y-12420600D02*
X10165080Y-12420600D01*
X17795240Y-6088380D02*
X17795240Y-12420600D01*
X10160000Y-6088380D02*
X17795240Y-6088380D01*
D11*
X17014620Y-6609480D02*
X17064620Y-6659480D01*
X17064620Y-6609480D02*
X17014620Y-6659480D01*
X17084914Y-6439774D02*
X17134914Y-6489774D01*
X17134914Y-6439774D02*
X17084914Y-6489774D01*
X17084914Y-6779186D02*
X17134914Y-6829186D01*
X17134914Y-6779186D02*
X17084914Y-6829186D01*
X17254620Y-6369480D02*
X17304620Y-6419480D01*
X17304620Y-6369480D02*
X17254620Y-6419480D01*
X17254620Y-6849480D02*
X17304620Y-6899480D01*
X17304620Y-6849480D02*
X17254620Y-6899480D01*
X17424326Y-6439774D02*
X17474326Y-6489774D01*
X17474326Y-6439774D02*
X17424326Y-6489774D01*
X17424326Y-6779186D02*
X17474326Y-6829186D01*
X17474326Y-6779186D02*
X17424326Y-6829186D01*
X17494620Y-6609480D02*
X17544620Y-6659480D01*
X17544620Y-6609480D02*
X17494620Y-6659480D01*
X10436020Y-11811400D02*
X10486020Y-11861400D01*
X10486020Y-11811400D02*
X10436020Y-11861400D01*
X10506314Y-11641694D02*
X10556314Y-11691694D01*
X10556314Y-11641694D02*
X10506314Y-11691694D01*
X10506314Y-11981106D02*
X10556314Y-12031106D01*
X10556314Y-11981106D02*
X10506314Y-12031106D01*
X10676020Y-11571400D02*
X10726020Y-11621400D01*
X10726020Y-11571400D02*
X10676020Y-11621400D01*
X10676020Y-12051400D02*
X10726020Y-12101400D01*
X10726020Y-12051400D02*
X10676020Y-12101400D01*
X10845726Y-11641694D02*
X10895726Y-11691694D01*
X10895726Y-11641694D02*
X10845726Y-11691694D01*
X10845726Y-11981106D02*
X10895726Y-12031106D01*
X10895726Y-11981106D02*
X10845726Y-12031106D01*
X10916020Y-11811400D02*
X10966020Y-11861400D01*
X10966020Y-11811400D02*
X10916020Y-11861400D01*
X10405540Y-6670440D02*
X10455540Y-6720440D01*
X10455540Y-6670440D02*
X10405540Y-6720440D01*
X10475834Y-6500734D02*
X10525834Y-6550734D01*
X10525834Y-6500734D02*
X10475834Y-6550734D01*
X10475834Y-6840146D02*
X10525834Y-6890146D01*
X10525834Y-6840146D02*
X10475834Y-6890146D01*
X10645540Y-6430440D02*
X10695540Y-6480440D01*
X10695540Y-6430440D02*
X10645540Y-6480440D01*
X10645540Y-6910440D02*
X10695540Y-6960440D01*
X10695540Y-6910440D02*
X10645540Y-6960440D01*
X10815246Y-6500734D02*
X10865246Y-6550734D01*
X10865246Y-6500734D02*
X10815246Y-6550734D01*
X10815246Y-6840146D02*
X10865246Y-6890146D01*
X10865246Y-6840146D02*
X10815246Y-6890146D01*
X10885540Y-6670440D02*
X10935540Y-6720440D01*
X10935540Y-6670440D02*
X10885540Y-6720440D01*
X17060340Y-11796160D02*
X17110340Y-11846160D01*
X17110340Y-11796160D02*
X17060340Y-11846160D01*
X17130634Y-11626454D02*
X17180634Y-11676454D01*
X17180634Y-11626454D02*
X17130634Y-11676454D01*
X17130634Y-11965866D02*
X17180634Y-12015866D01*
X17180634Y-11965866D02*
X17130634Y-12015866D01*
X17300340Y-11556160D02*
X17350340Y-11606160D01*
X17350340Y-11556160D02*
X17300340Y-11606160D01*
X17300340Y-12036160D02*
X17350340Y-12086160D01*
X17350340Y-12036160D02*
X17300340Y-12086160D01*
X17470046Y-11626454D02*
X17520046Y-11676454D01*
X17520046Y-11626454D02*
X17470046Y-11676454D01*
X17470046Y-11965866D02*
X17520046Y-12015866D01*
X17520046Y-11965866D02*
X17470046Y-12015866D01*
X17540340Y-11796160D02*
X17590340Y-11846160D01*
X17590340Y-11796160D02*
X17540340Y-11846160D01*
X13250540Y-9502140D02*
G75*
G03X13250540Y-9502140I-40000J0D01*
G01*
X13250540Y-10010140D02*
G75*
G03X13250540Y-10010140I-40000J0D01*
G01*
X13758540Y-9756140D02*
G75*
G03X13758540Y-9756140I-40000J0D01*
G01*
X14864080Y-8526780D02*
X14864080Y-8608060D01*
X14823440Y-8567420D02*
X14904720Y-8567420D01*
X14864080Y-8780780D02*
X14864080Y-8862060D01*
X14823440Y-8821420D02*
X14904720Y-8821420D01*
X11864340Y-8255000D02*
X11864340Y-8336280D01*
X11823700Y-8295640D02*
X11904980Y-8295640D01*
X11864340Y-8509000D02*
X11864340Y-8590280D01*
X11823700Y-8549640D02*
X11904980Y-8549640D01*
X14820900Y-10894060D02*
X14820900Y-10975340D01*
X14780260Y-10934700D02*
X14861540Y-10934700D01*
X14820900Y-11148060D02*
X14820900Y-11229340D01*
X14780260Y-11188700D02*
X14861540Y-11188700D01*
X14911110Y-7420650D02*
X14911110Y-7357070D01*
X14847530Y-7357070D01*
X14847530Y-7420650D01*
X14911110Y-7420650D01*
X14911110Y-8182650D02*
X14911110Y-8119070D01*
X14847530Y-8119070D01*
X14847530Y-8182650D01*
X14911110Y-8182650D01*
X12630190Y-7948970D02*
X12630190Y-7885390D01*
X12566610Y-7885390D01*
X12566610Y-7948970D01*
X12630190Y-7948970D01*
X12630190Y-8710970D02*
X12630190Y-8647390D01*
X12566610Y-8647390D01*
X12566610Y-8710970D01*
X12630190Y-8710970D01*
X14842530Y-9605050D02*
X14842530Y-9541470D01*
X14778950Y-9541470D01*
X14778950Y-9605050D01*
X14842530Y-9605050D01*
X14842530Y-10367050D02*
X14842530Y-10303470D01*
X14778950Y-10303470D01*
X14778950Y-10367050D01*
X14842530Y-10367050D01*
X11896130Y-9142770D02*
X11896130Y-9079190D01*
X11832550Y-9079190D01*
X11832550Y-9142770D01*
X11896130Y-9142770D01*
X11896130Y-9904770D02*
X11896130Y-9841190D01*
X11832550Y-9841190D01*
X11832550Y-9904770D01*
X11896130Y-9904770D01*
X13072150Y-7440970D02*
X13072150Y-7377390D01*
X13008570Y-7377390D01*
X13008570Y-7440970D01*
X13072150Y-7440970D01*
X13834150Y-7440970D02*
X13834150Y-7377390D01*
X13770570Y-7377390D01*
X13770570Y-7440970D01*
X13834150Y-7440970D01*
X11856720Y-7461800D02*
X11901720Y-7416800D01*
X11856720Y-7371800D01*
X11811720Y-7416800D01*
X11856720Y-7461800D01*
X11856720Y-7715800D02*
X11901720Y-7670800D01*
X11856720Y-7625800D01*
X11811720Y-7670800D01*
X11856720Y-7715800D01*
X15802140Y-9856000D02*
X15902140Y-9956000D01*
X15902140Y-9856000D02*
X15802140Y-9956000D01*
X15902140Y-9906000D02*
G75*
G03X15902140Y-9906000I-50000J0D01*
G01*
X15802140Y-10110000D02*
X15902140Y-10210000D01*
X15902140Y-10110000D02*
X15802140Y-10210000D01*
X15902140Y-10160000D02*
G75*
G03X15902140Y-10160000I-50000J0D01*
G01*
X15802140Y-10364000D02*
X15902140Y-10464000D01*
X15902140Y-10364000D02*
X15802140Y-10464000D01*
X15902140Y-10414000D02*
G75*
G03X15902140Y-10414000I-50000J0D01*
G01*
X13047020Y-7912280D02*
X13147020Y-8012280D01*
X13147020Y-7912280D02*
X13047020Y-8012280D01*
X13147020Y-7962280D02*
G75*
G03X13147020Y-7962280I-50000J0D01*
G01*
X13047020Y-8166280D02*
X13147020Y-8266280D01*
X13147020Y-8166280D02*
X13047020Y-8266280D01*
X13147020Y-8216280D02*
G75*
G03X13147020Y-8216280I-50000J0D01*
G01*
X13047020Y-8420280D02*
X13147020Y-8520280D01*
X13147020Y-8420280D02*
X13047020Y-8520280D01*
X13147020Y-8470280D02*
G75*
G03X13147020Y-8470280I-50000J0D01*
G01*
X13047020Y-8674280D02*
X13147020Y-8774280D01*
X13147020Y-8674280D02*
X13047020Y-8774280D01*
X13147020Y-8724280D02*
G75*
G03X13147020Y-8724280I-50000J0D01*
G01*
X13809020Y-7912280D02*
X13909020Y-8012280D01*
X13909020Y-7912280D02*
X13809020Y-8012280D01*
X13909020Y-7962280D02*
G75*
G03X13909020Y-7962280I-50000J0D01*
G01*
X13809020Y-8166280D02*
X13909020Y-8266280D01*
X13909020Y-8166280D02*
X13809020Y-8266280D01*
X13909020Y-8216280D02*
G75*
G03X13909020Y-8216280I-50000J0D01*
G01*
X13809020Y-8420280D02*
X13909020Y-8520280D01*
X13909020Y-8420280D02*
X13809020Y-8520280D01*
X13909020Y-8470280D02*
G75*
G03X13909020Y-8470280I-50000J0D01*
G01*
X13809020Y-8674280D02*
X13909020Y-8774280D01*
X13909020Y-8674280D02*
X13809020Y-8774280D01*
X13909020Y-8724280D02*
G75*
G03X13909020Y-8724280I-50000J0D01*
G01*
X15797140Y-8017120D02*
X15907140Y-8127120D01*
X15907140Y-8017120D02*
X15797140Y-8127120D01*
X15852140Y-8017120D02*
X15852140Y-8127120D01*
X15797140Y-8072120D02*
X15907140Y-8072120D01*
X15797140Y-8937120D02*
X15907140Y-9047120D01*
X15907140Y-8937120D02*
X15797140Y-9047120D01*
X15852140Y-8937120D02*
X15852140Y-9047120D01*
X15797140Y-8992120D02*
X15907140Y-8992120D01*
X13167720Y-10808580D02*
X13277720Y-10918580D01*
X13277720Y-10808580D02*
X13167720Y-10918580D01*
X13222720Y-10808580D02*
X13222720Y-10918580D01*
X13167720Y-10863580D02*
X13277720Y-10863580D01*
X14087720Y-10808580D02*
X14197720Y-10918580D01*
X14197720Y-10808580D02*
X14087720Y-10918580D01*
X14142720Y-10808580D02*
X14142720Y-10918580D01*
X14087720Y-10863580D02*
X14197720Y-10863580D01*
X16478020Y-8175140D02*
X16608020Y-8305140D01*
X16608020Y-8175140D02*
X16478020Y-8305140D01*
X16588982Y-8286102D02*
X16588982Y-8194178D01*
X16497058Y-8194178D01*
X16497058Y-8286102D01*
X16588982Y-8286102D01*
X16478020Y-8675140D02*
X16608020Y-8805140D01*
X16608020Y-8675140D02*
X16478020Y-8805140D01*
X16588982Y-8786102D02*
X16588982Y-8694178D01*
X16497058Y-8694178D01*
X16497058Y-8786102D01*
X16588982Y-8786102D01*
X11929260Y-10788420D02*
X12059260Y-10918420D01*
X12059260Y-10788420D02*
X11929260Y-10918420D01*
X12040222Y-10899382D02*
X12040222Y-10807458D01*
X11948298Y-10807458D01*
X11948298Y-10899382D01*
X12040222Y-10899382D01*
X12429260Y-10788420D02*
X12559260Y-10918420D01*
X12559260Y-10788420D02*
X12429260Y-10918420D01*
X12540222Y-10899382D02*
X12540222Y-10807458D01*
X12448298Y-10807458D01*
X12448298Y-10899382D01*
X12540222Y-10899382D01*
X17119620Y-6474480D02*
X17439620Y-6794480D01*
X17439620Y-6474480D02*
X17119620Y-6794480D01*
X17279620Y-6794480D02*
X17439620Y-6634480D01*
X17279620Y-6474480D01*
X17119620Y-6634480D01*
X17279620Y-6794480D01*
X10541020Y-11676400D02*
X10861020Y-11996400D01*
X10861020Y-11676400D02*
X10541020Y-11996400D01*
X10701020Y-11996400D02*
X10861020Y-11836400D01*
X10701020Y-11676400D01*
X10541020Y-11836400D01*
X10701020Y-11996400D01*
X10510540Y-6535440D02*
X10830540Y-6855440D01*
X10830540Y-6535440D02*
X10510540Y-6855440D01*
X10670540Y-6855440D02*
X10830540Y-6695440D01*
X10670540Y-6535440D01*
X10510540Y-6695440D01*
X10670540Y-6855440D01*
X17165340Y-11661160D02*
X17485340Y-11981160D01*
X17485340Y-11661160D02*
X17165340Y-11981160D01*
X17325340Y-11981160D02*
X17485340Y-11821160D01*
X17325340Y-11661160D01*
X17165340Y-11821160D01*
X17325340Y-11981160D01*
D12*
X10441428Y-12891314D02*
X10441428Y-12591314D01*
X10512857Y-12591314D01*
X10555714Y-12605600D01*
X10584286Y-12634171D01*
X10598571Y-12662743D01*
X10612857Y-12719886D01*
X10612857Y-12762743D01*
X10598571Y-12819886D01*
X10584286Y-12848457D01*
X10555714Y-12877029D01*
X10512857Y-12891314D01*
X10441428Y-12891314D01*
X10741428Y-12891314D02*
X10741428Y-12691314D01*
X10741428Y-12748457D02*
X10755714Y-12719886D01*
X10770000Y-12705600D01*
X10798571Y-12691314D01*
X10827143Y-12691314D01*
X10927143Y-12891314D02*
X10927143Y-12691314D01*
X10927143Y-12591314D02*
X10912857Y-12605600D01*
X10927143Y-12619886D01*
X10941428Y-12605600D01*
X10927143Y-12591314D01*
X10927143Y-12619886D01*
X11112857Y-12891314D02*
X11084286Y-12877029D01*
X11070000Y-12848457D01*
X11070000Y-12591314D01*
X11270000Y-12891314D02*
X11241428Y-12877029D01*
X11227143Y-12848457D01*
X11227143Y-12591314D01*
X11612857Y-12891314D02*
X11612857Y-12591314D01*
X11712857Y-12805600D01*
X11812857Y-12591314D01*
X11812857Y-12891314D01*
X12084286Y-12891314D02*
X12084286Y-12734171D01*
X12070000Y-12705600D01*
X12041428Y-12691314D01*
X11984286Y-12691314D01*
X11955714Y-12705600D01*
X12084286Y-12877029D02*
X12055714Y-12891314D01*
X11984286Y-12891314D01*
X11955714Y-12877029D01*
X11941428Y-12848457D01*
X11941428Y-12819886D01*
X11955714Y-12791314D01*
X11984286Y-12777029D01*
X12055714Y-12777029D01*
X12084286Y-12762743D01*
X12227143Y-12691314D02*
X12227143Y-12991314D01*
X12227143Y-12705600D02*
X12255714Y-12691314D01*
X12312857Y-12691314D01*
X12341428Y-12705600D01*
X12355714Y-12719886D01*
X12370000Y-12748457D01*
X12370000Y-12834171D01*
X12355714Y-12862743D01*
X12341428Y-12877029D01*
X12312857Y-12891314D01*
X12255714Y-12891314D01*
X12227143Y-12877029D01*
X12498571Y-12862743D02*
X12512857Y-12877029D01*
X12498571Y-12891314D01*
X12484286Y-12877029D01*
X12498571Y-12862743D01*
X12498571Y-12891314D01*
X12498571Y-12705600D02*
X12512857Y-12719886D01*
X12498571Y-12734171D01*
X12484286Y-12719886D01*
X12498571Y-12705600D01*
X12498571Y-12734171D01*
X10105000Y-13360600D02*
X10155000Y-13410600D01*
X10155000Y-13360600D02*
X10105000Y-13410600D01*
X10498571Y-13221314D02*
X10527143Y-13221314D01*
X10555714Y-13235600D01*
X10570000Y-13249886D01*
X10584286Y-13278457D01*
X10598571Y-13335600D01*
X10598571Y-13407029D01*
X10584286Y-13464171D01*
X10570000Y-13492743D01*
X10555714Y-13507029D01*
X10527143Y-13521314D01*
X10498571Y-13521314D01*
X10470000Y-13507029D01*
X10455714Y-13492743D01*
X10441428Y-13464171D01*
X10427143Y-13407029D01*
X10427143Y-13335600D01*
X10441428Y-13278457D01*
X10455714Y-13249886D01*
X10470000Y-13235600D01*
X10498571Y-13221314D01*
X10727143Y-13492743D02*
X10741428Y-13507029D01*
X10727143Y-13521314D01*
X10712857Y-13507029D01*
X10727143Y-13492743D01*
X10727143Y-13521314D01*
X11012857Y-13221314D02*
X10870000Y-13221314D01*
X10855714Y-13364171D01*
X10870000Y-13349886D01*
X10898571Y-13335600D01*
X10970000Y-13335600D01*
X10998571Y-13349886D01*
X11012857Y-13364171D01*
X11027143Y-13392743D01*
X11027143Y-13464171D01*
X11012857Y-13492743D01*
X10998571Y-13507029D01*
X10970000Y-13521314D01*
X10898571Y-13521314D01*
X10870000Y-13507029D01*
X10855714Y-13492743D01*
X11212857Y-13221314D02*
X11241428Y-13221314D01*
X11270000Y-13235600D01*
X11284286Y-13249886D01*
X11298571Y-13278457D01*
X11312857Y-13335600D01*
X11312857Y-13407029D01*
X11298571Y-13464171D01*
X11284286Y-13492743D01*
X11270000Y-13507029D01*
X11241428Y-13521314D01*
X11212857Y-13521314D01*
X11184286Y-13507029D01*
X11170000Y-13492743D01*
X11155714Y-13464171D01*
X11141428Y-13407029D01*
X11141428Y-13335600D01*
X11155714Y-13278457D01*
X11170000Y-13249886D01*
X11184286Y-13235600D01*
X11212857Y-13221314D01*
X11441428Y-13521314D02*
X11441428Y-13321314D01*
X11441428Y-13349886D02*
X11455714Y-13335600D01*
X11484286Y-13321314D01*
X11527143Y-13321314D01*
X11555714Y-13335600D01*
X11570000Y-13364171D01*
X11570000Y-13521314D01*
X11570000Y-13364171D02*
X11584286Y-13335600D01*
X11612857Y-13321314D01*
X11655714Y-13321314D01*
X11684286Y-13335600D01*
X11698571Y-13364171D01*
X11698571Y-13521314D01*
X11841428Y-13521314D02*
X11841428Y-13321314D01*
X11841428Y-13349886D02*
X11855714Y-13335600D01*
X11884286Y-13321314D01*
X11927143Y-13321314D01*
X11955714Y-13335600D01*
X11970000Y-13364171D01*
X11970000Y-13521314D01*
X11970000Y-13364171D02*
X11984286Y-13335600D01*
X12012857Y-13321314D01*
X12055714Y-13321314D01*
X12084286Y-13335600D01*
X12098571Y-13364171D01*
X12098571Y-13521314D01*
X12684286Y-13207029D02*
X12427143Y-13592743D01*
X13070000Y-13221314D02*
X13098571Y-13221314D01*
X13127143Y-13235600D01*
X13141428Y-13249886D01*
X13155714Y-13278457D01*
X13170000Y-13335600D01*
X13170000Y-13407029D01*
X13155714Y-13464171D01*
X13141428Y-13492743D01*
X13127143Y-13507029D01*
X13098571Y-13521314D01*
X13070000Y-13521314D01*
X13041428Y-13507029D01*
X13027143Y-13492743D01*
X13012857Y-13464171D01*
X12998571Y-13407029D01*
X12998571Y-13335600D01*
X13012857Y-13278457D01*
X13027143Y-13249886D01*
X13041428Y-13235600D01*
X13070000Y-13221314D01*
X13298571Y-13492743D02*
X13312857Y-13507029D01*
X13298571Y-13521314D01*
X13284286Y-13507029D01*
X13298571Y-13492743D01*
X13298571Y-13521314D01*
X13498571Y-13221314D02*
X13527143Y-13221314D01*
X13555714Y-13235600D01*
X13570000Y-13249886D01*
X13584286Y-13278457D01*
X13598571Y-13335600D01*
X13598571Y-13407029D01*
X13584286Y-13464171D01*
X13570000Y-13492743D01*
X13555714Y-13507029D01*
X13527143Y-13521314D01*
X13498571Y-13521314D01*
X13470000Y-13507029D01*
X13455714Y-13492743D01*
X13441428Y-13464171D01*
X13427143Y-13407029D01*
X13427143Y-13335600D01*
X13441428Y-13278457D01*
X13455714Y-13249886D01*
X13470000Y-13235600D01*
X13498571Y-13221314D01*
X13712857Y-13249886D02*
X13727143Y-13235600D01*
X13755714Y-13221314D01*
X13827143Y-13221314D01*
X13855714Y-13235600D01*
X13870000Y-13249886D01*
X13884286Y-13278457D01*
X13884286Y-13307029D01*
X13870000Y-13349886D01*
X13698571Y-13521314D01*
X13884286Y-13521314D01*
X14070000Y-13221314D02*
X14098571Y-13221314D01*
X14127143Y-13235600D01*
X14141428Y-13249886D01*
X14155714Y-13278457D01*
X14170000Y-13335600D01*
X14170000Y-13407029D01*
X14155714Y-13464171D01*
X14141428Y-13492743D01*
X14127143Y-13507029D01*
X14098571Y-13521314D01*
X14070000Y-13521314D01*
X14041428Y-13507029D01*
X14027143Y-13492743D01*
X14012857Y-13464171D01*
X13998571Y-13407029D01*
X13998571Y-13335600D01*
X14012857Y-13278457D01*
X14027143Y-13249886D01*
X14041428Y-13235600D01*
X14070000Y-13221314D01*
X14284286Y-13221314D02*
X14284286Y-13278457D01*
X14398571Y-13221314D02*
X14398571Y-13278457D01*
X14841428Y-13635600D02*
X14827143Y-13621314D01*
X14798571Y-13578457D01*
X14784286Y-13549886D01*
X14770000Y-13507029D01*
X14755714Y-13435600D01*
X14755714Y-13378457D01*
X14770000Y-13307029D01*
X14784286Y-13264171D01*
X14798571Y-13235600D01*
X14827143Y-13192743D01*
X14841428Y-13178457D01*
X14927143Y-13221314D02*
X15112857Y-13221314D01*
X15012857Y-13335600D01*
X15055714Y-13335600D01*
X15084286Y-13349886D01*
X15098571Y-13364171D01*
X15112857Y-13392743D01*
X15112857Y-13464171D01*
X15098571Y-13492743D01*
X15084286Y-13507029D01*
X15055714Y-13521314D01*
X14970000Y-13521314D01*
X14941428Y-13507029D01*
X14927143Y-13492743D01*
X15227143Y-13249886D02*
X15241428Y-13235600D01*
X15270000Y-13221314D01*
X15341428Y-13221314D01*
X15370000Y-13235600D01*
X15384286Y-13249886D01*
X15398571Y-13278457D01*
X15398571Y-13307029D01*
X15384286Y-13349886D01*
X15212857Y-13521314D01*
X15398571Y-13521314D01*
X15755714Y-13521314D02*
X15755714Y-13221314D01*
X15884286Y-13521314D02*
X15884286Y-13364171D01*
X15870000Y-13335600D01*
X15841428Y-13321314D01*
X15798571Y-13321314D01*
X15770000Y-13335600D01*
X15755714Y-13349886D01*
X16070000Y-13521314D02*
X16041428Y-13507029D01*
X16027143Y-13492743D01*
X16012857Y-13464171D01*
X16012857Y-13378457D01*
X16027143Y-13349886D01*
X16041428Y-13335600D01*
X16070000Y-13321314D01*
X16112857Y-13321314D01*
X16141428Y-13335600D01*
X16155714Y-13349886D01*
X16170000Y-13378457D01*
X16170000Y-13464171D01*
X16155714Y-13492743D01*
X16141428Y-13507029D01*
X16112857Y-13521314D01*
X16070000Y-13521314D01*
X16341428Y-13521314D02*
X16312857Y-13507029D01*
X16298571Y-13478457D01*
X16298571Y-13221314D01*
X16570000Y-13507029D02*
X16541428Y-13521314D01*
X16484286Y-13521314D01*
X16455714Y-13507029D01*
X16441428Y-13478457D01*
X16441428Y-13364171D01*
X16455714Y-13335600D01*
X16484286Y-13321314D01*
X16541428Y-13321314D01*
X16570000Y-13335600D01*
X16584286Y-13364171D01*
X16584286Y-13392743D01*
X16441428Y-13421314D01*
X16698571Y-13507029D02*
X16727143Y-13521314D01*
X16784286Y-13521314D01*
X16812857Y-13507029D01*
X16827143Y-13478457D01*
X16827143Y-13464171D01*
X16812857Y-13435600D01*
X16784286Y-13421314D01*
X16741428Y-13421314D01*
X16712857Y-13407029D01*
X16698571Y-13378457D01*
X16698571Y-13364171D01*
X16712857Y-13335600D01*
X16741428Y-13321314D01*
X16784286Y-13321314D01*
X16812857Y-13335600D01*
X16927143Y-13635600D02*
X16941428Y-13621314D01*
X16970000Y-13578457D01*
X16984286Y-13549886D01*
X16998571Y-13507029D01*
X17012857Y-13435600D01*
X17012857Y-13378457D01*
X16998571Y-13307029D01*
X16984286Y-13264171D01*
X16970000Y-13235600D01*
X16941428Y-13192743D01*
X16927143Y-13178457D01*
X10155000Y-13781600D02*
G75*
G03X10155000Y-13781600I-40000J0D01*
G01*
X10498571Y-13617314D02*
X10527143Y-13617314D01*
X10555714Y-13631600D01*
X10570000Y-13645886D01*
X10584286Y-13674457D01*
X10598571Y-13731600D01*
X10598571Y-13803029D01*
X10584286Y-13860171D01*
X10570000Y-13888743D01*
X10555714Y-13903029D01*
X10527143Y-13917314D01*
X10498571Y-13917314D01*
X10470000Y-13903029D01*
X10455714Y-13888743D01*
X10441428Y-13860171D01*
X10427143Y-13803029D01*
X10427143Y-13731600D01*
X10441428Y-13674457D01*
X10455714Y-13645886D01*
X10470000Y-13631600D01*
X10498571Y-13617314D01*
X10727143Y-13888743D02*
X10741428Y-13903029D01*
X10727143Y-13917314D01*
X10712857Y-13903029D01*
X10727143Y-13888743D01*
X10727143Y-13917314D01*
X10912857Y-13745886D02*
X10884286Y-13731600D01*
X10870000Y-13717314D01*
X10855714Y-13688743D01*
X10855714Y-13674457D01*
X10870000Y-13645886D01*
X10884286Y-13631600D01*
X10912857Y-13617314D01*
X10970000Y-13617314D01*
X10998571Y-13631600D01*
X11012857Y-13645886D01*
X11027143Y-13674457D01*
X11027143Y-13688743D01*
X11012857Y-13717314D01*
X10998571Y-13731600D01*
X10970000Y-13745886D01*
X10912857Y-13745886D01*
X10884286Y-13760171D01*
X10870000Y-13774457D01*
X10855714Y-13803029D01*
X10855714Y-13860171D01*
X10870000Y-13888743D01*
X10884286Y-13903029D01*
X10912857Y-13917314D01*
X10970000Y-13917314D01*
X10998571Y-13903029D01*
X11012857Y-13888743D01*
X11027143Y-13860171D01*
X11027143Y-13803029D01*
X11012857Y-13774457D01*
X10998571Y-13760171D01*
X10970000Y-13745886D01*
X11212857Y-13617314D02*
X11241428Y-13617314D01*
X11270000Y-13631600D01*
X11284286Y-13645886D01*
X11298571Y-13674457D01*
X11312857Y-13731600D01*
X11312857Y-13803029D01*
X11298571Y-13860171D01*
X11284286Y-13888743D01*
X11270000Y-13903029D01*
X11241428Y-13917314D01*
X11212857Y-13917314D01*
X11184286Y-13903029D01*
X11170000Y-13888743D01*
X11155714Y-13860171D01*
X11141428Y-13803029D01*
X11141428Y-13731600D01*
X11155714Y-13674457D01*
X11170000Y-13645886D01*
X11184286Y-13631600D01*
X11212857Y-13617314D01*
X11441428Y-13917314D02*
X11441428Y-13717314D01*
X11441428Y-13745886D02*
X11455714Y-13731600D01*
X11484286Y-13717314D01*
X11527143Y-13717314D01*
X11555714Y-13731600D01*
X11570000Y-13760171D01*
X11570000Y-13917314D01*
X11570000Y-13760171D02*
X11584286Y-13731600D01*
X11612857Y-13717314D01*
X11655714Y-13717314D01*
X11684286Y-13731600D01*
X11698571Y-13760171D01*
X11698571Y-13917314D01*
X11841428Y-13917314D02*
X11841428Y-13717314D01*
X11841428Y-13745886D02*
X11855714Y-13731600D01*
X11884286Y-13717314D01*
X11927143Y-13717314D01*
X11955714Y-13731600D01*
X11970000Y-13760171D01*
X11970000Y-13917314D01*
X11970000Y-13760171D02*
X11984286Y-13731600D01*
X12012857Y-13717314D01*
X12055714Y-13717314D01*
X12084286Y-13731600D01*
X12098571Y-13760171D01*
X12098571Y-13917314D01*
X12684286Y-13603029D02*
X12427143Y-13988743D01*
X13070000Y-13617314D02*
X13098571Y-13617314D01*
X13127143Y-13631600D01*
X13141428Y-13645886D01*
X13155714Y-13674457D01*
X13170000Y-13731600D01*
X13170000Y-13803029D01*
X13155714Y-13860171D01*
X13141428Y-13888743D01*
X13127143Y-13903029D01*
X13098571Y-13917314D01*
X13070000Y-13917314D01*
X13041428Y-13903029D01*
X13027143Y-13888743D01*
X13012857Y-13860171D01*
X12998571Y-13803029D01*
X12998571Y-13731600D01*
X13012857Y-13674457D01*
X13027143Y-13645886D01*
X13041428Y-13631600D01*
X13070000Y-13617314D01*
X13298571Y-13888743D02*
X13312857Y-13903029D01*
X13298571Y-13917314D01*
X13284286Y-13903029D01*
X13298571Y-13888743D01*
X13298571Y-13917314D01*
X13498571Y-13617314D02*
X13527143Y-13617314D01*
X13555714Y-13631600D01*
X13570000Y-13645886D01*
X13584286Y-13674457D01*
X13598571Y-13731600D01*
X13598571Y-13803029D01*
X13584286Y-13860171D01*
X13570000Y-13888743D01*
X13555714Y-13903029D01*
X13527143Y-13917314D01*
X13498571Y-13917314D01*
X13470000Y-13903029D01*
X13455714Y-13888743D01*
X13441428Y-13860171D01*
X13427143Y-13803029D01*
X13427143Y-13731600D01*
X13441428Y-13674457D01*
X13455714Y-13645886D01*
X13470000Y-13631600D01*
X13498571Y-13617314D01*
X13698571Y-13617314D02*
X13884286Y-13617314D01*
X13784286Y-13731600D01*
X13827143Y-13731600D01*
X13855714Y-13745886D01*
X13870000Y-13760171D01*
X13884286Y-13788743D01*
X13884286Y-13860171D01*
X13870000Y-13888743D01*
X13855714Y-13903029D01*
X13827143Y-13917314D01*
X13741428Y-13917314D01*
X13712857Y-13903029D01*
X13698571Y-13888743D01*
X14170000Y-13917314D02*
X13998571Y-13917314D01*
X14084286Y-13917314D02*
X14084286Y-13617314D01*
X14055714Y-13660171D01*
X14027143Y-13688743D01*
X13998571Y-13703029D01*
X14284286Y-13617314D02*
X14284286Y-13674457D01*
X14398571Y-13617314D02*
X14398571Y-13674457D01*
X14841428Y-14031600D02*
X14827143Y-14017314D01*
X14798571Y-13974457D01*
X14784286Y-13945886D01*
X14770000Y-13903029D01*
X14755714Y-13831600D01*
X14755714Y-13774457D01*
X14770000Y-13703029D01*
X14784286Y-13660171D01*
X14798571Y-13631600D01*
X14827143Y-13588743D01*
X14841428Y-13574457D01*
X14927143Y-13617314D02*
X15112857Y-13617314D01*
X15012857Y-13731600D01*
X15055714Y-13731600D01*
X15084286Y-13745886D01*
X15098571Y-13760171D01*
X15112857Y-13788743D01*
X15112857Y-13860171D01*
X15098571Y-13888743D01*
X15084286Y-13903029D01*
X15055714Y-13917314D01*
X14970000Y-13917314D01*
X14941428Y-13903029D01*
X14927143Y-13888743D01*
X15470000Y-13917314D02*
X15470000Y-13617314D01*
X15598571Y-13917314D02*
X15598571Y-13760171D01*
X15584286Y-13731600D01*
X15555714Y-13717314D01*
X15512857Y-13717314D01*
X15484286Y-13731600D01*
X15470000Y-13745886D01*
X15784286Y-13917314D02*
X15755714Y-13903029D01*
X15741428Y-13888743D01*
X15727143Y-13860171D01*
X15727143Y-13774457D01*
X15741428Y-13745886D01*
X15755714Y-13731600D01*
X15784286Y-13717314D01*
X15827143Y-13717314D01*
X15855714Y-13731600D01*
X15870000Y-13745886D01*
X15884286Y-13774457D01*
X15884286Y-13860171D01*
X15870000Y-13888743D01*
X15855714Y-13903029D01*
X15827143Y-13917314D01*
X15784286Y-13917314D01*
X16055714Y-13917314D02*
X16027143Y-13903029D01*
X16012857Y-13874457D01*
X16012857Y-13617314D01*
X16284286Y-13903029D02*
X16255714Y-13917314D01*
X16198571Y-13917314D01*
X16170000Y-13903029D01*
X16155714Y-13874457D01*
X16155714Y-13760171D01*
X16170000Y-13731600D01*
X16198571Y-13717314D01*
X16255714Y-13717314D01*
X16284286Y-13731600D01*
X16298571Y-13760171D01*
X16298571Y-13788743D01*
X16155714Y-13817314D01*
X16412857Y-13903029D02*
X16441428Y-13917314D01*
X16498571Y-13917314D01*
X16527143Y-13903029D01*
X16541428Y-13874457D01*
X16541428Y-13860171D01*
X16527143Y-13831600D01*
X16498571Y-13817314D01*
X16455714Y-13817314D01*
X16427143Y-13803029D01*
X16412857Y-13774457D01*
X16412857Y-13760171D01*
X16427143Y-13731600D01*
X16455714Y-13717314D01*
X16498571Y-13717314D01*
X16527143Y-13731600D01*
X16641428Y-14031600D02*
X16655714Y-14017314D01*
X16684286Y-13974457D01*
X16698571Y-13945886D01*
X16712857Y-13903029D01*
X16727143Y-13831600D01*
X16727143Y-13774457D01*
X16712857Y-13703029D01*
X16698571Y-13660171D01*
X16684286Y-13631600D01*
X16655714Y-13588743D01*
X16641428Y-13574457D01*
X10114360Y-14136960D02*
X10114360Y-14218240D01*
X10073720Y-14177600D02*
X10155000Y-14177600D01*
X10498571Y-14013314D02*
X10527143Y-14013314D01*
X10555714Y-14027600D01*
X10570000Y-14041886D01*
X10584286Y-14070457D01*
X10598571Y-14127600D01*
X10598571Y-14199029D01*
X10584286Y-14256171D01*
X10570000Y-14284743D01*
X10555714Y-14299029D01*
X10527143Y-14313314D01*
X10498571Y-14313314D01*
X10470000Y-14299029D01*
X10455714Y-14284743D01*
X10441428Y-14256171D01*
X10427143Y-14199029D01*
X10427143Y-14127600D01*
X10441428Y-14070457D01*
X10455714Y-14041886D01*
X10470000Y-14027600D01*
X10498571Y-14013314D01*
X10727143Y-14284743D02*
X10741428Y-14299029D01*
X10727143Y-14313314D01*
X10712857Y-14299029D01*
X10727143Y-14284743D01*
X10727143Y-14313314D01*
X10912857Y-14141886D02*
X10884286Y-14127600D01*
X10870000Y-14113314D01*
X10855714Y-14084743D01*
X10855714Y-14070457D01*
X10870000Y-14041886D01*
X10884286Y-14027600D01*
X10912857Y-14013314D01*
X10970000Y-14013314D01*
X10998571Y-14027600D01*
X11012857Y-14041886D01*
X11027143Y-14070457D01*
X11027143Y-14084743D01*
X11012857Y-14113314D01*
X10998571Y-14127600D01*
X10970000Y-14141886D01*
X10912857Y-14141886D01*
X10884286Y-14156171D01*
X10870000Y-14170457D01*
X10855714Y-14199029D01*
X10855714Y-14256171D01*
X10870000Y-14284743D01*
X10884286Y-14299029D01*
X10912857Y-14313314D01*
X10970000Y-14313314D01*
X10998571Y-14299029D01*
X11012857Y-14284743D01*
X11027143Y-14256171D01*
X11027143Y-14199029D01*
X11012857Y-14170457D01*
X10998571Y-14156171D01*
X10970000Y-14141886D01*
X11312857Y-14313314D02*
X11141428Y-14313314D01*
X11227143Y-14313314D02*
X11227143Y-14013314D01*
X11198571Y-14056171D01*
X11170000Y-14084743D01*
X11141428Y-14099029D01*
X11441428Y-14313314D02*
X11441428Y-14113314D01*
X11441428Y-14141886D02*
X11455714Y-14127600D01*
X11484286Y-14113314D01*
X11527143Y-14113314D01*
X11555714Y-14127600D01*
X11570000Y-14156171D01*
X11570000Y-14313314D01*
X11570000Y-14156171D02*
X11584286Y-14127600D01*
X11612857Y-14113314D01*
X11655714Y-14113314D01*
X11684286Y-14127600D01*
X11698571Y-14156171D01*
X11698571Y-14313314D01*
X11841428Y-14313314D02*
X11841428Y-14113314D01*
X11841428Y-14141886D02*
X11855714Y-14127600D01*
X11884286Y-14113314D01*
X11927143Y-14113314D01*
X11955714Y-14127600D01*
X11970000Y-14156171D01*
X11970000Y-14313314D01*
X11970000Y-14156171D02*
X11984286Y-14127600D01*
X12012857Y-14113314D01*
X12055714Y-14113314D01*
X12084286Y-14127600D01*
X12098571Y-14156171D01*
X12098571Y-14313314D01*
X12684286Y-13999029D02*
X12427143Y-14384743D01*
X13070000Y-14013314D02*
X13098571Y-14013314D01*
X13127143Y-14027600D01*
X13141428Y-14041886D01*
X13155714Y-14070457D01*
X13170000Y-14127600D01*
X13170000Y-14199029D01*
X13155714Y-14256171D01*
X13141428Y-14284743D01*
X13127143Y-14299029D01*
X13098571Y-14313314D01*
X13070000Y-14313314D01*
X13041428Y-14299029D01*
X13027143Y-14284743D01*
X13012857Y-14256171D01*
X12998571Y-14199029D01*
X12998571Y-14127600D01*
X13012857Y-14070457D01*
X13027143Y-14041886D01*
X13041428Y-14027600D01*
X13070000Y-14013314D01*
X13298571Y-14284743D02*
X13312857Y-14299029D01*
X13298571Y-14313314D01*
X13284286Y-14299029D01*
X13298571Y-14284743D01*
X13298571Y-14313314D01*
X13498571Y-14013314D02*
X13527143Y-14013314D01*
X13555714Y-14027600D01*
X13570000Y-14041886D01*
X13584286Y-14070457D01*
X13598571Y-14127600D01*
X13598571Y-14199029D01*
X13584286Y-14256171D01*
X13570000Y-14284743D01*
X13555714Y-14299029D01*
X13527143Y-14313314D01*
X13498571Y-14313314D01*
X13470000Y-14299029D01*
X13455714Y-14284743D01*
X13441428Y-14256171D01*
X13427143Y-14199029D01*
X13427143Y-14127600D01*
X13441428Y-14070457D01*
X13455714Y-14041886D01*
X13470000Y-14027600D01*
X13498571Y-14013314D01*
X13698571Y-14013314D02*
X13884286Y-14013314D01*
X13784286Y-14127600D01*
X13827143Y-14127600D01*
X13855714Y-14141886D01*
X13870000Y-14156171D01*
X13884286Y-14184743D01*
X13884286Y-14256171D01*
X13870000Y-14284743D01*
X13855714Y-14299029D01*
X13827143Y-14313314D01*
X13741428Y-14313314D01*
X13712857Y-14299029D01*
X13698571Y-14284743D01*
X13998571Y-14041886D02*
X14012857Y-14027600D01*
X14041428Y-14013314D01*
X14112857Y-14013314D01*
X14141428Y-14027600D01*
X14155714Y-14041886D01*
X14170000Y-14070457D01*
X14170000Y-14099029D01*
X14155714Y-14141886D01*
X13984286Y-14313314D01*
X14170000Y-14313314D01*
X14284286Y-14013314D02*
X14284286Y-14070457D01*
X14398571Y-14013314D02*
X14398571Y-14070457D01*
X14841428Y-14427600D02*
X14827143Y-14413314D01*
X14798571Y-14370457D01*
X14784286Y-14341886D01*
X14770000Y-14299029D01*
X14755714Y-14227600D01*
X14755714Y-14170457D01*
X14770000Y-14099029D01*
X14784286Y-14056171D01*
X14798571Y-14027600D01*
X14827143Y-13984743D01*
X14841428Y-13970457D01*
X15084286Y-14013314D02*
X15027143Y-14013314D01*
X14998571Y-14027600D01*
X14984286Y-14041886D01*
X14955714Y-14084743D01*
X14941428Y-14141886D01*
X14941428Y-14256171D01*
X14955714Y-14284743D01*
X14970000Y-14299029D01*
X14998571Y-14313314D01*
X15055714Y-14313314D01*
X15084286Y-14299029D01*
X15098571Y-14284743D01*
X15112857Y-14256171D01*
X15112857Y-14184743D01*
X15098571Y-14156171D01*
X15084286Y-14141886D01*
X15055714Y-14127600D01*
X14998571Y-14127600D01*
X14970000Y-14141886D01*
X14955714Y-14156171D01*
X14941428Y-14184743D01*
X15470000Y-14313314D02*
X15470000Y-14013314D01*
X15598571Y-14313314D02*
X15598571Y-14156171D01*
X15584286Y-14127600D01*
X15555714Y-14113314D01*
X15512857Y-14113314D01*
X15484286Y-14127600D01*
X15470000Y-14141886D01*
X15784286Y-14313314D02*
X15755714Y-14299029D01*
X15741428Y-14284743D01*
X15727143Y-14256171D01*
X15727143Y-14170457D01*
X15741428Y-14141886D01*
X15755714Y-14127600D01*
X15784286Y-14113314D01*
X15827143Y-14113314D01*
X15855714Y-14127600D01*
X15870000Y-14141886D01*
X15884286Y-14170457D01*
X15884286Y-14256171D01*
X15870000Y-14284743D01*
X15855714Y-14299029D01*
X15827143Y-14313314D01*
X15784286Y-14313314D01*
X16055714Y-14313314D02*
X16027143Y-14299029D01*
X16012857Y-14270457D01*
X16012857Y-14013314D01*
X16284286Y-14299029D02*
X16255714Y-14313314D01*
X16198571Y-14313314D01*
X16170000Y-14299029D01*
X16155714Y-14270457D01*
X16155714Y-14156171D01*
X16170000Y-14127600D01*
X16198571Y-14113314D01*
X16255714Y-14113314D01*
X16284286Y-14127600D01*
X16298571Y-14156171D01*
X16298571Y-14184743D01*
X16155714Y-14213314D01*
X16412857Y-14299029D02*
X16441428Y-14313314D01*
X16498571Y-14313314D01*
X16527143Y-14299029D01*
X16541428Y-14270457D01*
X16541428Y-14256171D01*
X16527143Y-14227600D01*
X16498571Y-14213314D01*
X16455714Y-14213314D01*
X16427143Y-14199029D01*
X16412857Y-14170457D01*
X16412857Y-14156171D01*
X16427143Y-14127600D01*
X16455714Y-14113314D01*
X16498571Y-14113314D01*
X16527143Y-14127600D01*
X16641428Y-14427600D02*
X16655714Y-14413314D01*
X16684286Y-14370457D01*
X16698571Y-14341886D01*
X16712857Y-14299029D01*
X16727143Y-14227600D01*
X16727143Y-14170457D01*
X16712857Y-14099029D01*
X16698571Y-14056171D01*
X16684286Y-14027600D01*
X16655714Y-13984743D01*
X16641428Y-13970457D01*
X10141832Y-14605390D02*
X10141832Y-14541810D01*
X10078252Y-14541810D01*
X10078252Y-14605390D01*
X10141832Y-14605390D01*
X10498571Y-14409314D02*
X10527143Y-14409314D01*
X10555714Y-14423600D01*
X10570000Y-14437886D01*
X10584286Y-14466457D01*
X10598571Y-14523600D01*
X10598571Y-14595029D01*
X10584286Y-14652171D01*
X10570000Y-14680743D01*
X10555714Y-14695029D01*
X10527143Y-14709314D01*
X10498571Y-14709314D01*
X10470000Y-14695029D01*
X10455714Y-14680743D01*
X10441428Y-14652171D01*
X10427143Y-14595029D01*
X10427143Y-14523600D01*
X10441428Y-14466457D01*
X10455714Y-14437886D01*
X10470000Y-14423600D01*
X10498571Y-14409314D01*
X10727143Y-14680743D02*
X10741428Y-14695029D01*
X10727143Y-14709314D01*
X10712857Y-14695029D01*
X10727143Y-14680743D01*
X10727143Y-14709314D01*
X10884286Y-14709314D02*
X10941428Y-14709314D01*
X10970000Y-14695029D01*
X10984286Y-14680743D01*
X11012857Y-14637886D01*
X11027143Y-14580743D01*
X11027143Y-14466457D01*
X11012857Y-14437886D01*
X10998571Y-14423600D01*
X10970000Y-14409314D01*
X10912857Y-14409314D01*
X10884286Y-14423600D01*
X10870000Y-14437886D01*
X10855714Y-14466457D01*
X10855714Y-14537886D01*
X10870000Y-14566457D01*
X10884286Y-14580743D01*
X10912857Y-14595029D01*
X10970000Y-14595029D01*
X10998571Y-14580743D01*
X11012857Y-14566457D01*
X11027143Y-14537886D01*
X11212857Y-14409314D02*
X11241428Y-14409314D01*
X11270000Y-14423600D01*
X11284286Y-14437886D01*
X11298571Y-14466457D01*
X11312857Y-14523600D01*
X11312857Y-14595029D01*
X11298571Y-14652171D01*
X11284286Y-14680743D01*
X11270000Y-14695029D01*
X11241428Y-14709314D01*
X11212857Y-14709314D01*
X11184286Y-14695029D01*
X11170000Y-14680743D01*
X11155714Y-14652171D01*
X11141428Y-14595029D01*
X11141428Y-14523600D01*
X11155714Y-14466457D01*
X11170000Y-14437886D01*
X11184286Y-14423600D01*
X11212857Y-14409314D01*
X11441428Y-14709314D02*
X11441428Y-14509314D01*
X11441428Y-14537886D02*
X11455714Y-14523600D01*
X11484286Y-14509314D01*
X11527143Y-14509314D01*
X11555714Y-14523600D01*
X11570000Y-14552171D01*
X11570000Y-14709314D01*
X11570000Y-14552171D02*
X11584286Y-14523600D01*
X11612857Y-14509314D01*
X11655714Y-14509314D01*
X11684286Y-14523600D01*
X11698571Y-14552171D01*
X11698571Y-14709314D01*
X11841428Y-14709314D02*
X11841428Y-14509314D01*
X11841428Y-14537886D02*
X11855714Y-14523600D01*
X11884286Y-14509314D01*
X11927143Y-14509314D01*
X11955714Y-14523600D01*
X11970000Y-14552171D01*
X11970000Y-14709314D01*
X11970000Y-14552171D02*
X11984286Y-14523600D01*
X12012857Y-14509314D01*
X12055714Y-14509314D01*
X12084286Y-14523600D01*
X12098571Y-14552171D01*
X12098571Y-14709314D01*
X12684286Y-14395029D02*
X12427143Y-14780743D01*
X13070000Y-14409314D02*
X13098571Y-14409314D01*
X13127143Y-14423600D01*
X13141428Y-14437886D01*
X13155714Y-14466457D01*
X13170000Y-14523600D01*
X13170000Y-14595029D01*
X13155714Y-14652171D01*
X13141428Y-14680743D01*
X13127143Y-14695029D01*
X13098571Y-14709314D01*
X13070000Y-14709314D01*
X13041428Y-14695029D01*
X13027143Y-14680743D01*
X13012857Y-14652171D01*
X12998571Y-14595029D01*
X12998571Y-14523600D01*
X13012857Y-14466457D01*
X13027143Y-14437886D01*
X13041428Y-14423600D01*
X13070000Y-14409314D01*
X13298571Y-14680743D02*
X13312857Y-14695029D01*
X13298571Y-14709314D01*
X13284286Y-14695029D01*
X13298571Y-14680743D01*
X13298571Y-14709314D01*
X13498571Y-14409314D02*
X13527143Y-14409314D01*
X13555714Y-14423600D01*
X13570000Y-14437886D01*
X13584286Y-14466457D01*
X13598571Y-14523600D01*
X13598571Y-14595029D01*
X13584286Y-14652171D01*
X13570000Y-14680743D01*
X13555714Y-14695029D01*
X13527143Y-14709314D01*
X13498571Y-14709314D01*
X13470000Y-14695029D01*
X13455714Y-14680743D01*
X13441428Y-14652171D01*
X13427143Y-14595029D01*
X13427143Y-14523600D01*
X13441428Y-14466457D01*
X13455714Y-14437886D01*
X13470000Y-14423600D01*
X13498571Y-14409314D01*
X13698571Y-14409314D02*
X13884286Y-14409314D01*
X13784286Y-14523600D01*
X13827143Y-14523600D01*
X13855714Y-14537886D01*
X13870000Y-14552171D01*
X13884286Y-14580743D01*
X13884286Y-14652171D01*
X13870000Y-14680743D01*
X13855714Y-14695029D01*
X13827143Y-14709314D01*
X13741428Y-14709314D01*
X13712857Y-14695029D01*
X13698571Y-14680743D01*
X14155714Y-14409314D02*
X14012857Y-14409314D01*
X13998571Y-14552171D01*
X14012857Y-14537886D01*
X14041428Y-14523600D01*
X14112857Y-14523600D01*
X14141428Y-14537886D01*
X14155714Y-14552171D01*
X14170000Y-14580743D01*
X14170000Y-14652171D01*
X14155714Y-14680743D01*
X14141428Y-14695029D01*
X14112857Y-14709314D01*
X14041428Y-14709314D01*
X14012857Y-14695029D01*
X13998571Y-14680743D01*
X14284286Y-14409314D02*
X14284286Y-14466457D01*
X14398571Y-14409314D02*
X14398571Y-14466457D01*
X14841428Y-14823600D02*
X14827143Y-14809314D01*
X14798571Y-14766457D01*
X14784286Y-14737886D01*
X14770000Y-14695029D01*
X14755714Y-14623600D01*
X14755714Y-14566457D01*
X14770000Y-14495029D01*
X14784286Y-14452171D01*
X14798571Y-14423600D01*
X14827143Y-14380743D01*
X14841428Y-14366457D01*
X15112857Y-14709314D02*
X14941428Y-14709314D01*
X15027143Y-14709314D02*
X15027143Y-14409314D01*
X14998571Y-14452171D01*
X14970000Y-14480743D01*
X14941428Y-14495029D01*
X15298571Y-14409314D02*
X15327143Y-14409314D01*
X15355714Y-14423600D01*
X15370000Y-14437886D01*
X15384286Y-14466457D01*
X15398571Y-14523600D01*
X15398571Y-14595029D01*
X15384286Y-14652171D01*
X15370000Y-14680743D01*
X15355714Y-14695029D01*
X15327143Y-14709314D01*
X15298571Y-14709314D01*
X15270000Y-14695029D01*
X15255714Y-14680743D01*
X15241428Y-14652171D01*
X15227143Y-14595029D01*
X15227143Y-14523600D01*
X15241428Y-14466457D01*
X15255714Y-14437886D01*
X15270000Y-14423600D01*
X15298571Y-14409314D01*
X15755714Y-14709314D02*
X15755714Y-14409314D01*
X15884286Y-14709314D02*
X15884286Y-14552171D01*
X15870000Y-14523600D01*
X15841428Y-14509314D01*
X15798571Y-14509314D01*
X15770000Y-14523600D01*
X15755714Y-14537886D01*
X16070000Y-14709314D02*
X16041428Y-14695029D01*
X16027143Y-14680743D01*
X16012857Y-14652171D01*
X16012857Y-14566457D01*
X16027143Y-14537886D01*
X16041428Y-14523600D01*
X16070000Y-14509314D01*
X16112857Y-14509314D01*
X16141428Y-14523600D01*
X16155714Y-14537886D01*
X16170000Y-14566457D01*
X16170000Y-14652171D01*
X16155714Y-14680743D01*
X16141428Y-14695029D01*
X16112857Y-14709314D01*
X16070000Y-14709314D01*
X16341428Y-14709314D02*
X16312857Y-14695029D01*
X16298571Y-14666457D01*
X16298571Y-14409314D01*
X16570000Y-14695029D02*
X16541428Y-14709314D01*
X16484286Y-14709314D01*
X16455714Y-14695029D01*
X16441428Y-14666457D01*
X16441428Y-14552171D01*
X16455714Y-14523600D01*
X16484286Y-14509314D01*
X16541428Y-14509314D01*
X16570000Y-14523600D01*
X16584286Y-14552171D01*
X16584286Y-14580743D01*
X16441428Y-14609314D01*
X16698571Y-14695029D02*
X16727143Y-14709314D01*
X16784286Y-14709314D01*
X16812857Y-14695029D01*
X16827143Y-14666457D01*
X16827143Y-14652171D01*
X16812857Y-14623600D01*
X16784286Y-14609314D01*
X16741428Y-14609314D01*
X16712857Y-14595029D01*
X16698571Y-14566457D01*
X16698571Y-14552171D01*
X16712857Y-14523600D01*
X16741428Y-14509314D01*
X16784286Y-14509314D01*
X16812857Y-14523600D01*
X16927143Y-14823600D02*
X16941428Y-14809314D01*
X16970000Y-14766457D01*
X16984286Y-14737886D01*
X16998571Y-14695029D01*
X17012857Y-14623600D01*
X17012857Y-14566457D01*
X16998571Y-14495029D01*
X16984286Y-14452171D01*
X16970000Y-14423600D01*
X16941428Y-14380743D01*
X16927143Y-14366457D01*
X10110000Y-15014600D02*
X10155000Y-14969600D01*
X10110000Y-14924600D01*
X10065000Y-14969600D01*
X10110000Y-15014600D01*
X10498571Y-14805314D02*
X10527143Y-14805314D01*
X10555714Y-14819600D01*
X10570000Y-14833886D01*
X10584286Y-14862457D01*
X10598571Y-14919600D01*
X10598571Y-14991029D01*
X10584286Y-15048171D01*
X10570000Y-15076743D01*
X10555714Y-15091029D01*
X10527143Y-15105314D01*
X10498571Y-15105314D01*
X10470000Y-15091029D01*
X10455714Y-15076743D01*
X10441428Y-15048171D01*
X10427143Y-14991029D01*
X10427143Y-14919600D01*
X10441428Y-14862457D01*
X10455714Y-14833886D01*
X10470000Y-14819600D01*
X10498571Y-14805314D01*
X10727143Y-15076743D02*
X10741428Y-15091029D01*
X10727143Y-15105314D01*
X10712857Y-15091029D01*
X10727143Y-15076743D01*
X10727143Y-15105314D01*
X10884286Y-15105314D02*
X10941428Y-15105314D01*
X10970000Y-15091029D01*
X10984286Y-15076743D01*
X11012857Y-15033886D01*
X11027143Y-14976743D01*
X11027143Y-14862457D01*
X11012857Y-14833886D01*
X10998571Y-14819600D01*
X10970000Y-14805314D01*
X10912857Y-14805314D01*
X10884286Y-14819600D01*
X10870000Y-14833886D01*
X10855714Y-14862457D01*
X10855714Y-14933886D01*
X10870000Y-14962457D01*
X10884286Y-14976743D01*
X10912857Y-14991029D01*
X10970000Y-14991029D01*
X10998571Y-14976743D01*
X11012857Y-14962457D01*
X11027143Y-14933886D01*
X11212857Y-14805314D02*
X11241428Y-14805314D01*
X11270000Y-14819600D01*
X11284286Y-14833886D01*
X11298571Y-14862457D01*
X11312857Y-14919600D01*
X11312857Y-14991029D01*
X11298571Y-15048171D01*
X11284286Y-15076743D01*
X11270000Y-15091029D01*
X11241428Y-15105314D01*
X11212857Y-15105314D01*
X11184286Y-15091029D01*
X11170000Y-15076743D01*
X11155714Y-15048171D01*
X11141428Y-14991029D01*
X11141428Y-14919600D01*
X11155714Y-14862457D01*
X11170000Y-14833886D01*
X11184286Y-14819600D01*
X11212857Y-14805314D01*
X11441428Y-15105314D02*
X11441428Y-14905314D01*
X11441428Y-14933886D02*
X11455714Y-14919600D01*
X11484286Y-14905314D01*
X11527143Y-14905314D01*
X11555714Y-14919600D01*
X11570000Y-14948171D01*
X11570000Y-15105314D01*
X11570000Y-14948171D02*
X11584286Y-14919600D01*
X11612857Y-14905314D01*
X11655714Y-14905314D01*
X11684286Y-14919600D01*
X11698571Y-14948171D01*
X11698571Y-15105314D01*
X11841428Y-15105314D02*
X11841428Y-14905314D01*
X11841428Y-14933886D02*
X11855714Y-14919600D01*
X11884286Y-14905314D01*
X11927143Y-14905314D01*
X11955714Y-14919600D01*
X11970000Y-14948171D01*
X11970000Y-15105314D01*
X11970000Y-14948171D02*
X11984286Y-14919600D01*
X12012857Y-14905314D01*
X12055714Y-14905314D01*
X12084286Y-14919600D01*
X12098571Y-14948171D01*
X12098571Y-15105314D01*
X12684286Y-14791029D02*
X12427143Y-15176743D01*
X13070000Y-14805314D02*
X13098571Y-14805314D01*
X13127143Y-14819600D01*
X13141428Y-14833886D01*
X13155714Y-14862457D01*
X13170000Y-14919600D01*
X13170000Y-14991029D01*
X13155714Y-15048171D01*
X13141428Y-15076743D01*
X13127143Y-15091029D01*
X13098571Y-15105314D01*
X13070000Y-15105314D01*
X13041428Y-15091029D01*
X13027143Y-15076743D01*
X13012857Y-15048171D01*
X12998571Y-14991029D01*
X12998571Y-14919600D01*
X13012857Y-14862457D01*
X13027143Y-14833886D01*
X13041428Y-14819600D01*
X13070000Y-14805314D01*
X13298571Y-15076743D02*
X13312857Y-15091029D01*
X13298571Y-15105314D01*
X13284286Y-15091029D01*
X13298571Y-15076743D01*
X13298571Y-15105314D01*
X13498571Y-14805314D02*
X13527143Y-14805314D01*
X13555714Y-14819600D01*
X13570000Y-14833886D01*
X13584286Y-14862457D01*
X13598571Y-14919600D01*
X13598571Y-14991029D01*
X13584286Y-15048171D01*
X13570000Y-15076743D01*
X13555714Y-15091029D01*
X13527143Y-15105314D01*
X13498571Y-15105314D01*
X13470000Y-15091029D01*
X13455714Y-15076743D01*
X13441428Y-15048171D01*
X13427143Y-14991029D01*
X13427143Y-14919600D01*
X13441428Y-14862457D01*
X13455714Y-14833886D01*
X13470000Y-14819600D01*
X13498571Y-14805314D01*
X13698571Y-14805314D02*
X13884286Y-14805314D01*
X13784286Y-14919600D01*
X13827143Y-14919600D01*
X13855714Y-14933886D01*
X13870000Y-14948171D01*
X13884286Y-14976743D01*
X13884286Y-15048171D01*
X13870000Y-15076743D01*
X13855714Y-15091029D01*
X13827143Y-15105314D01*
X13741428Y-15105314D01*
X13712857Y-15091029D01*
X13698571Y-15076743D01*
X14155714Y-14805314D02*
X14012857Y-14805314D01*
X13998571Y-14948171D01*
X14012857Y-14933886D01*
X14041428Y-14919600D01*
X14112857Y-14919600D01*
X14141428Y-14933886D01*
X14155714Y-14948171D01*
X14170000Y-14976743D01*
X14170000Y-15048171D01*
X14155714Y-15076743D01*
X14141428Y-15091029D01*
X14112857Y-15105314D01*
X14041428Y-15105314D01*
X14012857Y-15091029D01*
X13998571Y-15076743D01*
X14284286Y-14805314D02*
X14284286Y-14862457D01*
X14398571Y-14805314D02*
X14398571Y-14862457D01*
X14841428Y-15219600D02*
X14827143Y-15205314D01*
X14798571Y-15162457D01*
X14784286Y-15133886D01*
X14770000Y-15091029D01*
X14755714Y-15019600D01*
X14755714Y-14962457D01*
X14770000Y-14891029D01*
X14784286Y-14848171D01*
X14798571Y-14819600D01*
X14827143Y-14776743D01*
X14841428Y-14762457D01*
X14941428Y-14833886D02*
X14955714Y-14819600D01*
X14984286Y-14805314D01*
X15055714Y-14805314D01*
X15084286Y-14819600D01*
X15098571Y-14833886D01*
X15112857Y-14862457D01*
X15112857Y-14891029D01*
X15098571Y-14933886D01*
X14927143Y-15105314D01*
X15112857Y-15105314D01*
X15470000Y-15105314D02*
X15470000Y-14805314D01*
X15598571Y-15105314D02*
X15598571Y-14948171D01*
X15584286Y-14919600D01*
X15555714Y-14905314D01*
X15512857Y-14905314D01*
X15484286Y-14919600D01*
X15470000Y-14933886D01*
X15784286Y-15105314D02*
X15755714Y-15091029D01*
X15741428Y-15076743D01*
X15727143Y-15048171D01*
X15727143Y-14962457D01*
X15741428Y-14933886D01*
X15755714Y-14919600D01*
X15784286Y-14905314D01*
X15827143Y-14905314D01*
X15855714Y-14919600D01*
X15870000Y-14933886D01*
X15884286Y-14962457D01*
X15884286Y-15048171D01*
X15870000Y-15076743D01*
X15855714Y-15091029D01*
X15827143Y-15105314D01*
X15784286Y-15105314D01*
X16055714Y-15105314D02*
X16027143Y-15091029D01*
X16012857Y-15062457D01*
X16012857Y-14805314D01*
X16284286Y-15091029D02*
X16255714Y-15105314D01*
X16198571Y-15105314D01*
X16170000Y-15091029D01*
X16155714Y-15062457D01*
X16155714Y-14948171D01*
X16170000Y-14919600D01*
X16198571Y-14905314D01*
X16255714Y-14905314D01*
X16284286Y-14919600D01*
X16298571Y-14948171D01*
X16298571Y-14976743D01*
X16155714Y-15005314D01*
X16412857Y-15091029D02*
X16441428Y-15105314D01*
X16498571Y-15105314D01*
X16527143Y-15091029D01*
X16541428Y-15062457D01*
X16541428Y-15048171D01*
X16527143Y-15019600D01*
X16498571Y-15005314D01*
X16455714Y-15005314D01*
X16427143Y-14991029D01*
X16412857Y-14962457D01*
X16412857Y-14948171D01*
X16427143Y-14919600D01*
X16455714Y-14905314D01*
X16498571Y-14905314D01*
X16527143Y-14919600D01*
X16641428Y-15219600D02*
X16655714Y-15205314D01*
X16684286Y-15162457D01*
X16698571Y-15133886D01*
X16712857Y-15091029D01*
X16727143Y-15019600D01*
X16727143Y-14962457D01*
X16712857Y-14891029D01*
X16698571Y-14848171D01*
X16684286Y-14819600D01*
X16655714Y-14776743D01*
X16641428Y-14762457D01*
X10055000Y-15315600D02*
X10155000Y-15415600D01*
X10155000Y-15315600D02*
X10055000Y-15415600D01*
X10155000Y-15365600D02*
G75*
G03X10155000Y-15365600I-50000J0D01*
G01*
X10598571Y-15501314D02*
X10427143Y-15501314D01*
X10512857Y-15501314D02*
X10512857Y-15201314D01*
X10484286Y-15244171D01*
X10455714Y-15272743D01*
X10427143Y-15287029D01*
X10727143Y-15472743D02*
X10741428Y-15487029D01*
X10727143Y-15501314D01*
X10712857Y-15487029D01*
X10727143Y-15472743D01*
X10727143Y-15501314D01*
X10927143Y-15201314D02*
X10955714Y-15201314D01*
X10984286Y-15215600D01*
X10998571Y-15229886D01*
X11012857Y-15258457D01*
X11027143Y-15315600D01*
X11027143Y-15387029D01*
X11012857Y-15444171D01*
X10998571Y-15472743D01*
X10984286Y-15487029D01*
X10955714Y-15501314D01*
X10927143Y-15501314D01*
X10898571Y-15487029D01*
X10884286Y-15472743D01*
X10870000Y-15444171D01*
X10855714Y-15387029D01*
X10855714Y-15315600D01*
X10870000Y-15258457D01*
X10884286Y-15229886D01*
X10898571Y-15215600D01*
X10927143Y-15201314D01*
X11212857Y-15201314D02*
X11241428Y-15201314D01*
X11270000Y-15215600D01*
X11284286Y-15229886D01*
X11298571Y-15258457D01*
X11312857Y-15315600D01*
X11312857Y-15387029D01*
X11298571Y-15444171D01*
X11284286Y-15472743D01*
X11270000Y-15487029D01*
X11241428Y-15501314D01*
X11212857Y-15501314D01*
X11184286Y-15487029D01*
X11170000Y-15472743D01*
X11155714Y-15444171D01*
X11141428Y-15387029D01*
X11141428Y-15315600D01*
X11155714Y-15258457D01*
X11170000Y-15229886D01*
X11184286Y-15215600D01*
X11212857Y-15201314D01*
X11441428Y-15501314D02*
X11441428Y-15301314D01*
X11441428Y-15329886D02*
X11455714Y-15315600D01*
X11484286Y-15301314D01*
X11527143Y-15301314D01*
X11555714Y-15315600D01*
X11570000Y-15344171D01*
X11570000Y-15501314D01*
X11570000Y-15344171D02*
X11584286Y-15315600D01*
X11612857Y-15301314D01*
X11655714Y-15301314D01*
X11684286Y-15315600D01*
X11698571Y-15344171D01*
X11698571Y-15501314D01*
X11841428Y-15501314D02*
X11841428Y-15301314D01*
X11841428Y-15329886D02*
X11855714Y-15315600D01*
X11884286Y-15301314D01*
X11927143Y-15301314D01*
X11955714Y-15315600D01*
X11970000Y-15344171D01*
X11970000Y-15501314D01*
X11970000Y-15344171D02*
X11984286Y-15315600D01*
X12012857Y-15301314D01*
X12055714Y-15301314D01*
X12084286Y-15315600D01*
X12098571Y-15344171D01*
X12098571Y-15501314D01*
X12684286Y-15187029D02*
X12427143Y-15572743D01*
X13070000Y-15201314D02*
X13098571Y-15201314D01*
X13127143Y-15215600D01*
X13141428Y-15229886D01*
X13155714Y-15258457D01*
X13170000Y-15315600D01*
X13170000Y-15387029D01*
X13155714Y-15444171D01*
X13141428Y-15472743D01*
X13127143Y-15487029D01*
X13098571Y-15501314D01*
X13070000Y-15501314D01*
X13041428Y-15487029D01*
X13027143Y-15472743D01*
X13012857Y-15444171D01*
X12998571Y-15387029D01*
X12998571Y-15315600D01*
X13012857Y-15258457D01*
X13027143Y-15229886D01*
X13041428Y-15215600D01*
X13070000Y-15201314D01*
X13298571Y-15472743D02*
X13312857Y-15487029D01*
X13298571Y-15501314D01*
X13284286Y-15487029D01*
X13298571Y-15472743D01*
X13298571Y-15501314D01*
X13498571Y-15201314D02*
X13527143Y-15201314D01*
X13555714Y-15215600D01*
X13570000Y-15229886D01*
X13584286Y-15258457D01*
X13598571Y-15315600D01*
X13598571Y-15387029D01*
X13584286Y-15444171D01*
X13570000Y-15472743D01*
X13555714Y-15487029D01*
X13527143Y-15501314D01*
X13498571Y-15501314D01*
X13470000Y-15487029D01*
X13455714Y-15472743D01*
X13441428Y-15444171D01*
X13427143Y-15387029D01*
X13427143Y-15315600D01*
X13441428Y-15258457D01*
X13455714Y-15229886D01*
X13470000Y-15215600D01*
X13498571Y-15201314D01*
X13698571Y-15201314D02*
X13884286Y-15201314D01*
X13784286Y-15315600D01*
X13827143Y-15315600D01*
X13855714Y-15329886D01*
X13870000Y-15344171D01*
X13884286Y-15372743D01*
X13884286Y-15444171D01*
X13870000Y-15472743D01*
X13855714Y-15487029D01*
X13827143Y-15501314D01*
X13741428Y-15501314D01*
X13712857Y-15487029D01*
X13698571Y-15472743D01*
X14027143Y-15501314D02*
X14084286Y-15501314D01*
X14112857Y-15487029D01*
X14127143Y-15472743D01*
X14155714Y-15429886D01*
X14170000Y-15372743D01*
X14170000Y-15258457D01*
X14155714Y-15229886D01*
X14141428Y-15215600D01*
X14112857Y-15201314D01*
X14055714Y-15201314D01*
X14027143Y-15215600D01*
X14012857Y-15229886D01*
X13998571Y-15258457D01*
X13998571Y-15329886D01*
X14012857Y-15358457D01*
X14027143Y-15372743D01*
X14055714Y-15387029D01*
X14112857Y-15387029D01*
X14141428Y-15372743D01*
X14155714Y-15358457D01*
X14170000Y-15329886D01*
X14284286Y-15201314D02*
X14284286Y-15258457D01*
X14398571Y-15201314D02*
X14398571Y-15258457D01*
X14841428Y-15615600D02*
X14827143Y-15601314D01*
X14798571Y-15558457D01*
X14784286Y-15529886D01*
X14770000Y-15487029D01*
X14755714Y-15415600D01*
X14755714Y-15358457D01*
X14770000Y-15287029D01*
X14784286Y-15244171D01*
X14798571Y-15215600D01*
X14827143Y-15172743D01*
X14841428Y-15158457D01*
X15112857Y-15501314D02*
X14941428Y-15501314D01*
X15027143Y-15501314D02*
X15027143Y-15201314D01*
X14998571Y-15244171D01*
X14970000Y-15272743D01*
X14941428Y-15287029D01*
X15398571Y-15501314D02*
X15227143Y-15501314D01*
X15312857Y-15501314D02*
X15312857Y-15201314D01*
X15284286Y-15244171D01*
X15255714Y-15272743D01*
X15227143Y-15287029D01*
X15755714Y-15501314D02*
X15755714Y-15201314D01*
X15884286Y-15501314D02*
X15884286Y-15344171D01*
X15870000Y-15315600D01*
X15841428Y-15301314D01*
X15798571Y-15301314D01*
X15770000Y-15315600D01*
X15755714Y-15329886D01*
X16070000Y-15501314D02*
X16041428Y-15487029D01*
X16027143Y-15472743D01*
X16012857Y-15444171D01*
X16012857Y-15358457D01*
X16027143Y-15329886D01*
X16041428Y-15315600D01*
X16070000Y-15301314D01*
X16112857Y-15301314D01*
X16141428Y-15315600D01*
X16155714Y-15329886D01*
X16170000Y-15358457D01*
X16170000Y-15444171D01*
X16155714Y-15472743D01*
X16141428Y-15487029D01*
X16112857Y-15501314D01*
X16070000Y-15501314D01*
X16341428Y-15501314D02*
X16312857Y-15487029D01*
X16298571Y-15458457D01*
X16298571Y-15201314D01*
X16570000Y-15487029D02*
X16541428Y-15501314D01*
X16484286Y-15501314D01*
X16455714Y-15487029D01*
X16441428Y-15458457D01*
X16441428Y-15344171D01*
X16455714Y-15315600D01*
X16484286Y-15301314D01*
X16541428Y-15301314D01*
X16570000Y-15315600D01*
X16584286Y-15344171D01*
X16584286Y-15372743D01*
X16441428Y-15401314D01*
X16698571Y-15487029D02*
X16727143Y-15501314D01*
X16784286Y-15501314D01*
X16812857Y-15487029D01*
X16827143Y-15458457D01*
X16827143Y-15444171D01*
X16812857Y-15415600D01*
X16784286Y-15401314D01*
X16741428Y-15401314D01*
X16712857Y-15387029D01*
X16698571Y-15358457D01*
X16698571Y-15344171D01*
X16712857Y-15315600D01*
X16741428Y-15301314D01*
X16784286Y-15301314D01*
X16812857Y-15315600D01*
X16927143Y-15615600D02*
X16941428Y-15601314D01*
X16970000Y-15558457D01*
X16984286Y-15529886D01*
X16998571Y-15487029D01*
X17012857Y-15415600D01*
X17012857Y-15358457D01*
X16998571Y-15287029D01*
X16984286Y-15244171D01*
X16970000Y-15215600D01*
X16941428Y-15172743D01*
X16927143Y-15158457D01*
X10045000Y-15706600D02*
X10155000Y-15816600D01*
X10155000Y-15706600D02*
X10045000Y-15816600D01*
X10100000Y-15706600D02*
X10100000Y-15816600D01*
X10045000Y-15761600D02*
X10155000Y-15761600D01*
X10598571Y-15897314D02*
X10427143Y-15897314D01*
X10512857Y-15897314D02*
X10512857Y-15597314D01*
X10484286Y-15640171D01*
X10455714Y-15668743D01*
X10427143Y-15683029D01*
X10727143Y-15868743D02*
X10741428Y-15883029D01*
X10727143Y-15897314D01*
X10712857Y-15883029D01*
X10727143Y-15868743D01*
X10727143Y-15897314D01*
X11027143Y-15897314D02*
X10855714Y-15897314D01*
X10941428Y-15897314D02*
X10941428Y-15597314D01*
X10912857Y-15640171D01*
X10884286Y-15668743D01*
X10855714Y-15683029D01*
X11212857Y-15597314D02*
X11241428Y-15597314D01*
X11270000Y-15611600D01*
X11284286Y-15625886D01*
X11298571Y-15654457D01*
X11312857Y-15711600D01*
X11312857Y-15783029D01*
X11298571Y-15840171D01*
X11284286Y-15868743D01*
X11270000Y-15883029D01*
X11241428Y-15897314D01*
X11212857Y-15897314D01*
X11184286Y-15883029D01*
X11170000Y-15868743D01*
X11155714Y-15840171D01*
X11141428Y-15783029D01*
X11141428Y-15711600D01*
X11155714Y-15654457D01*
X11170000Y-15625886D01*
X11184286Y-15611600D01*
X11212857Y-15597314D01*
X11441428Y-15897314D02*
X11441428Y-15697314D01*
X11441428Y-15725886D02*
X11455714Y-15711600D01*
X11484286Y-15697314D01*
X11527143Y-15697314D01*
X11555714Y-15711600D01*
X11570000Y-15740171D01*
X11570000Y-15897314D01*
X11570000Y-15740171D02*
X11584286Y-15711600D01*
X11612857Y-15697314D01*
X11655714Y-15697314D01*
X11684286Y-15711600D01*
X11698571Y-15740171D01*
X11698571Y-15897314D01*
X11841428Y-15897314D02*
X11841428Y-15697314D01*
X11841428Y-15725886D02*
X11855714Y-15711600D01*
X11884286Y-15697314D01*
X11927143Y-15697314D01*
X11955714Y-15711600D01*
X11970000Y-15740171D01*
X11970000Y-15897314D01*
X11970000Y-15740171D02*
X11984286Y-15711600D01*
X12012857Y-15697314D01*
X12055714Y-15697314D01*
X12084286Y-15711600D01*
X12098571Y-15740171D01*
X12098571Y-15897314D01*
X12684286Y-15583029D02*
X12427143Y-15968743D01*
X13070000Y-15597314D02*
X13098571Y-15597314D01*
X13127143Y-15611600D01*
X13141428Y-15625886D01*
X13155714Y-15654457D01*
X13170000Y-15711600D01*
X13170000Y-15783029D01*
X13155714Y-15840171D01*
X13141428Y-15868743D01*
X13127143Y-15883029D01*
X13098571Y-15897314D01*
X13070000Y-15897314D01*
X13041428Y-15883029D01*
X13027143Y-15868743D01*
X13012857Y-15840171D01*
X12998571Y-15783029D01*
X12998571Y-15711600D01*
X13012857Y-15654457D01*
X13027143Y-15625886D01*
X13041428Y-15611600D01*
X13070000Y-15597314D01*
X13298571Y-15868743D02*
X13312857Y-15883029D01*
X13298571Y-15897314D01*
X13284286Y-15883029D01*
X13298571Y-15868743D01*
X13298571Y-15897314D01*
X13498571Y-15597314D02*
X13527143Y-15597314D01*
X13555714Y-15611600D01*
X13570000Y-15625886D01*
X13584286Y-15654457D01*
X13598571Y-15711600D01*
X13598571Y-15783029D01*
X13584286Y-15840171D01*
X13570000Y-15868743D01*
X13555714Y-15883029D01*
X13527143Y-15897314D01*
X13498571Y-15897314D01*
X13470000Y-15883029D01*
X13455714Y-15868743D01*
X13441428Y-15840171D01*
X13427143Y-15783029D01*
X13427143Y-15711600D01*
X13441428Y-15654457D01*
X13455714Y-15625886D01*
X13470000Y-15611600D01*
X13498571Y-15597314D01*
X13855714Y-15697314D02*
X13855714Y-15897314D01*
X13784286Y-15583029D02*
X13712857Y-15797314D01*
X13898571Y-15797314D01*
X13984286Y-15597314D02*
X14170000Y-15597314D01*
X14070000Y-15711600D01*
X14112857Y-15711600D01*
X14141428Y-15725886D01*
X14155714Y-15740171D01*
X14170000Y-15768743D01*
X14170000Y-15840171D01*
X14155714Y-15868743D01*
X14141428Y-15883029D01*
X14112857Y-15897314D01*
X14027143Y-15897314D01*
X13998571Y-15883029D01*
X13984286Y-15868743D01*
X14284286Y-15597314D02*
X14284286Y-15654457D01*
X14398571Y-15597314D02*
X14398571Y-15654457D01*
X14841428Y-16011600D02*
X14827143Y-15997314D01*
X14798571Y-15954457D01*
X14784286Y-15925886D01*
X14770000Y-15883029D01*
X14755714Y-15811600D01*
X14755714Y-15754457D01*
X14770000Y-15683029D01*
X14784286Y-15640171D01*
X14798571Y-15611600D01*
X14827143Y-15568743D01*
X14841428Y-15554457D01*
X15084286Y-15697314D02*
X15084286Y-15897314D01*
X15012857Y-15583029D02*
X14941428Y-15797314D01*
X15127143Y-15797314D01*
X15470000Y-15897314D02*
X15470000Y-15597314D01*
X15598571Y-15897314D02*
X15598571Y-15740171D01*
X15584286Y-15711600D01*
X15555714Y-15697314D01*
X15512857Y-15697314D01*
X15484286Y-15711600D01*
X15470000Y-15725886D01*
X15784286Y-15897314D02*
X15755714Y-15883029D01*
X15741428Y-15868743D01*
X15727143Y-15840171D01*
X15727143Y-15754457D01*
X15741428Y-15725886D01*
X15755714Y-15711600D01*
X15784286Y-15697314D01*
X15827143Y-15697314D01*
X15855714Y-15711600D01*
X15870000Y-15725886D01*
X15884286Y-15754457D01*
X15884286Y-15840171D01*
X15870000Y-15868743D01*
X15855714Y-15883029D01*
X15827143Y-15897314D01*
X15784286Y-15897314D01*
X16055714Y-15897314D02*
X16027143Y-15883029D01*
X16012857Y-15854457D01*
X16012857Y-15597314D01*
X16284286Y-15883029D02*
X16255714Y-15897314D01*
X16198571Y-15897314D01*
X16170000Y-15883029D01*
X16155714Y-15854457D01*
X16155714Y-15740171D01*
X16170000Y-15711600D01*
X16198571Y-15697314D01*
X16255714Y-15697314D01*
X16284286Y-15711600D01*
X16298571Y-15740171D01*
X16298571Y-15768743D01*
X16155714Y-15797314D01*
X16412857Y-15883029D02*
X16441428Y-15897314D01*
X16498571Y-15897314D01*
X16527143Y-15883029D01*
X16541428Y-15854457D01*
X16541428Y-15840171D01*
X16527143Y-15811600D01*
X16498571Y-15797314D01*
X16455714Y-15797314D01*
X16427143Y-15783029D01*
X16412857Y-15754457D01*
X16412857Y-15740171D01*
X16427143Y-15711600D01*
X16455714Y-15697314D01*
X16498571Y-15697314D01*
X16527143Y-15711600D01*
X16641428Y-16011600D02*
X16655714Y-15997314D01*
X16684286Y-15954457D01*
X16698571Y-15925886D01*
X16712857Y-15883029D01*
X16727143Y-15811600D01*
X16727143Y-15754457D01*
X16712857Y-15683029D01*
X16698571Y-15640171D01*
X16684286Y-15611600D01*
X16655714Y-15568743D01*
X16641428Y-15554457D01*
X10025000Y-16092600D02*
X10155000Y-16222600D01*
X10155000Y-16092600D02*
X10025000Y-16222600D01*
X10135962Y-16203562D02*
X10135962Y-16111638D01*
X10044038Y-16111638D01*
X10044038Y-16203562D01*
X10135962Y-16203562D01*
X10598571Y-16293314D02*
X10427143Y-16293314D01*
X10512857Y-16293314D02*
X10512857Y-15993314D01*
X10484286Y-16036171D01*
X10455714Y-16064743D01*
X10427143Y-16079029D01*
X10727143Y-16264743D02*
X10741428Y-16279029D01*
X10727143Y-16293314D01*
X10712857Y-16279029D01*
X10727143Y-16264743D01*
X10727143Y-16293314D01*
X10841428Y-15993314D02*
X11027143Y-15993314D01*
X10927143Y-16107600D01*
X10970000Y-16107600D01*
X10998571Y-16121886D01*
X11012857Y-16136171D01*
X11027143Y-16164743D01*
X11027143Y-16236171D01*
X11012857Y-16264743D01*
X10998571Y-16279029D01*
X10970000Y-16293314D01*
X10884286Y-16293314D01*
X10855714Y-16279029D01*
X10841428Y-16264743D01*
X11212857Y-15993314D02*
X11241428Y-15993314D01*
X11270000Y-16007600D01*
X11284286Y-16021886D01*
X11298571Y-16050457D01*
X11312857Y-16107600D01*
X11312857Y-16179029D01*
X11298571Y-16236171D01*
X11284286Y-16264743D01*
X11270000Y-16279029D01*
X11241428Y-16293314D01*
X11212857Y-16293314D01*
X11184286Y-16279029D01*
X11170000Y-16264743D01*
X11155714Y-16236171D01*
X11141428Y-16179029D01*
X11141428Y-16107600D01*
X11155714Y-16050457D01*
X11170000Y-16021886D01*
X11184286Y-16007600D01*
X11212857Y-15993314D01*
X11441428Y-16293314D02*
X11441428Y-16093314D01*
X11441428Y-16121886D02*
X11455714Y-16107600D01*
X11484286Y-16093314D01*
X11527143Y-16093314D01*
X11555714Y-16107600D01*
X11570000Y-16136171D01*
X11570000Y-16293314D01*
X11570000Y-16136171D02*
X11584286Y-16107600D01*
X11612857Y-16093314D01*
X11655714Y-16093314D01*
X11684286Y-16107600D01*
X11698571Y-16136171D01*
X11698571Y-16293314D01*
X11841428Y-16293314D02*
X11841428Y-16093314D01*
X11841428Y-16121886D02*
X11855714Y-16107600D01*
X11884286Y-16093314D01*
X11927143Y-16093314D01*
X11955714Y-16107600D01*
X11970000Y-16136171D01*
X11970000Y-16293314D01*
X11970000Y-16136171D02*
X11984286Y-16107600D01*
X12012857Y-16093314D01*
X12055714Y-16093314D01*
X12084286Y-16107600D01*
X12098571Y-16136171D01*
X12098571Y-16293314D01*
X12684286Y-15979029D02*
X12427143Y-16364743D01*
X13070000Y-15993314D02*
X13098571Y-15993314D01*
X13127143Y-16007600D01*
X13141428Y-16021886D01*
X13155714Y-16050457D01*
X13170000Y-16107600D01*
X13170000Y-16179029D01*
X13155714Y-16236171D01*
X13141428Y-16264743D01*
X13127143Y-16279029D01*
X13098571Y-16293314D01*
X13070000Y-16293314D01*
X13041428Y-16279029D01*
X13027143Y-16264743D01*
X13012857Y-16236171D01*
X12998571Y-16179029D01*
X12998571Y-16107600D01*
X13012857Y-16050457D01*
X13027143Y-16021886D01*
X13041428Y-16007600D01*
X13070000Y-15993314D01*
X13298571Y-16264743D02*
X13312857Y-16279029D01*
X13298571Y-16293314D01*
X13284286Y-16279029D01*
X13298571Y-16264743D01*
X13298571Y-16293314D01*
X13498571Y-15993314D02*
X13527143Y-15993314D01*
X13555714Y-16007600D01*
X13570000Y-16021886D01*
X13584286Y-16050457D01*
X13598571Y-16107600D01*
X13598571Y-16179029D01*
X13584286Y-16236171D01*
X13570000Y-16264743D01*
X13555714Y-16279029D01*
X13527143Y-16293314D01*
X13498571Y-16293314D01*
X13470000Y-16279029D01*
X13455714Y-16264743D01*
X13441428Y-16236171D01*
X13427143Y-16179029D01*
X13427143Y-16107600D01*
X13441428Y-16050457D01*
X13455714Y-16021886D01*
X13470000Y-16007600D01*
X13498571Y-15993314D01*
X13870000Y-15993314D02*
X13727143Y-15993314D01*
X13712857Y-16136171D01*
X13727143Y-16121886D01*
X13755714Y-16107600D01*
X13827143Y-16107600D01*
X13855714Y-16121886D01*
X13870000Y-16136171D01*
X13884286Y-16164743D01*
X13884286Y-16236171D01*
X13870000Y-16264743D01*
X13855714Y-16279029D01*
X13827143Y-16293314D01*
X13755714Y-16293314D01*
X13727143Y-16279029D01*
X13712857Y-16264743D01*
X14170000Y-16293314D02*
X13998571Y-16293314D01*
X14084286Y-16293314D02*
X14084286Y-15993314D01*
X14055714Y-16036171D01*
X14027143Y-16064743D01*
X13998571Y-16079029D01*
X14284286Y-15993314D02*
X14284286Y-16050457D01*
X14398571Y-15993314D02*
X14398571Y-16050457D01*
X14841428Y-16407600D02*
X14827143Y-16393314D01*
X14798571Y-16350457D01*
X14784286Y-16321886D01*
X14770000Y-16279029D01*
X14755714Y-16207600D01*
X14755714Y-16150457D01*
X14770000Y-16079029D01*
X14784286Y-16036171D01*
X14798571Y-16007600D01*
X14827143Y-15964743D01*
X14841428Y-15950457D01*
X15084286Y-16093314D02*
X15084286Y-16293314D01*
X15012857Y-15979029D02*
X14941428Y-16193314D01*
X15127143Y-16193314D01*
X15470000Y-16293314D02*
X15470000Y-15993314D01*
X15598571Y-16293314D02*
X15598571Y-16136171D01*
X15584286Y-16107600D01*
X15555714Y-16093314D01*
X15512857Y-16093314D01*
X15484286Y-16107600D01*
X15470000Y-16121886D01*
X15784286Y-16293314D02*
X15755714Y-16279029D01*
X15741428Y-16264743D01*
X15727143Y-16236171D01*
X15727143Y-16150457D01*
X15741428Y-16121886D01*
X15755714Y-16107600D01*
X15784286Y-16093314D01*
X15827143Y-16093314D01*
X15855714Y-16107600D01*
X15870000Y-16121886D01*
X15884286Y-16150457D01*
X15884286Y-16236171D01*
X15870000Y-16264743D01*
X15855714Y-16279029D01*
X15827143Y-16293314D01*
X15784286Y-16293314D01*
X16055714Y-16293314D02*
X16027143Y-16279029D01*
X16012857Y-16250457D01*
X16012857Y-15993314D01*
X16284286Y-16279029D02*
X16255714Y-16293314D01*
X16198571Y-16293314D01*
X16170000Y-16279029D01*
X16155714Y-16250457D01*
X16155714Y-16136171D01*
X16170000Y-16107600D01*
X16198571Y-16093314D01*
X16255714Y-16093314D01*
X16284286Y-16107600D01*
X16298571Y-16136171D01*
X16298571Y-16164743D01*
X16155714Y-16193314D01*
X16412857Y-16279029D02*
X16441428Y-16293314D01*
X16498571Y-16293314D01*
X16527143Y-16279029D01*
X16541428Y-16250457D01*
X16541428Y-16236171D01*
X16527143Y-16207600D01*
X16498571Y-16193314D01*
X16455714Y-16193314D01*
X16427143Y-16179029D01*
X16412857Y-16150457D01*
X16412857Y-16136171D01*
X16427143Y-16107600D01*
X16455714Y-16093314D01*
X16498571Y-16093314D01*
X16527143Y-16107600D01*
X16641428Y-16407600D02*
X16655714Y-16393314D01*
X16684286Y-16350457D01*
X16698571Y-16321886D01*
X16712857Y-16279029D01*
X16727143Y-16207600D01*
X16727143Y-16150457D01*
X16712857Y-16079029D01*
X16698571Y-16036171D01*
X16684286Y-16007600D01*
X16655714Y-15964743D01*
X16641428Y-15950457D01*
X9835000Y-16393600D02*
X10155000Y-16713600D01*
X10155000Y-16393600D02*
X9835000Y-16713600D01*
X9995000Y-16713600D02*
X10155000Y-16553600D01*
X9995000Y-16393600D01*
X9835000Y-16553600D01*
X9995000Y-16713600D01*
X10412857Y-16389314D02*
X10598571Y-16389314D01*
X10498571Y-16503600D01*
X10541428Y-16503600D01*
X10570000Y-16517886D01*
X10584286Y-16532171D01*
X10598571Y-16560743D01*
X10598571Y-16632171D01*
X10584286Y-16660743D01*
X10570000Y-16675029D01*
X10541428Y-16689314D01*
X10455714Y-16689314D01*
X10427143Y-16675029D01*
X10412857Y-16660743D01*
X10727143Y-16660743D02*
X10741428Y-16675029D01*
X10727143Y-16689314D01*
X10712857Y-16675029D01*
X10727143Y-16660743D01*
X10727143Y-16689314D01*
X10855714Y-16417886D02*
X10870000Y-16403600D01*
X10898571Y-16389314D01*
X10970000Y-16389314D01*
X10998571Y-16403600D01*
X11012857Y-16417886D01*
X11027143Y-16446457D01*
X11027143Y-16475029D01*
X11012857Y-16517886D01*
X10841428Y-16689314D01*
X11027143Y-16689314D01*
X11212857Y-16389314D02*
X11241428Y-16389314D01*
X11270000Y-16403600D01*
X11284286Y-16417886D01*
X11298571Y-16446457D01*
X11312857Y-16503600D01*
X11312857Y-16575029D01*
X11298571Y-16632171D01*
X11284286Y-16660743D01*
X11270000Y-16675029D01*
X11241428Y-16689314D01*
X11212857Y-16689314D01*
X11184286Y-16675029D01*
X11170000Y-16660743D01*
X11155714Y-16632171D01*
X11141428Y-16575029D01*
X11141428Y-16503600D01*
X11155714Y-16446457D01*
X11170000Y-16417886D01*
X11184286Y-16403600D01*
X11212857Y-16389314D01*
X11441428Y-16689314D02*
X11441428Y-16489314D01*
X11441428Y-16517886D02*
X11455714Y-16503600D01*
X11484286Y-16489314D01*
X11527143Y-16489314D01*
X11555714Y-16503600D01*
X11570000Y-16532171D01*
X11570000Y-16689314D01*
X11570000Y-16532171D02*
X11584286Y-16503600D01*
X11612857Y-16489314D01*
X11655714Y-16489314D01*
X11684286Y-16503600D01*
X11698571Y-16532171D01*
X11698571Y-16689314D01*
X11841428Y-16689314D02*
X11841428Y-16489314D01*
X11841428Y-16517886D02*
X11855714Y-16503600D01*
X11884286Y-16489314D01*
X11927143Y-16489314D01*
X11955714Y-16503600D01*
X11970000Y-16532171D01*
X11970000Y-16689314D01*
X11970000Y-16532171D02*
X11984286Y-16503600D01*
X12012857Y-16489314D01*
X12055714Y-16489314D01*
X12084286Y-16503600D01*
X12098571Y-16532171D01*
X12098571Y-16689314D01*
X12684286Y-16375029D02*
X12427143Y-16760743D01*
X13070000Y-16389314D02*
X13098571Y-16389314D01*
X13127143Y-16403600D01*
X13141428Y-16417886D01*
X13155714Y-16446457D01*
X13170000Y-16503600D01*
X13170000Y-16575029D01*
X13155714Y-16632171D01*
X13141428Y-16660743D01*
X13127143Y-16675029D01*
X13098571Y-16689314D01*
X13070000Y-16689314D01*
X13041428Y-16675029D01*
X13027143Y-16660743D01*
X13012857Y-16632171D01*
X12998571Y-16575029D01*
X12998571Y-16503600D01*
X13012857Y-16446457D01*
X13027143Y-16417886D01*
X13041428Y-16403600D01*
X13070000Y-16389314D01*
X13298571Y-16660743D02*
X13312857Y-16675029D01*
X13298571Y-16689314D01*
X13284286Y-16675029D01*
X13298571Y-16660743D01*
X13298571Y-16689314D01*
X13598571Y-16689314D02*
X13427143Y-16689314D01*
X13512857Y-16689314D02*
X13512857Y-16389314D01*
X13484286Y-16432171D01*
X13455714Y-16460743D01*
X13427143Y-16475029D01*
X13712857Y-16417886D02*
X13727143Y-16403600D01*
X13755714Y-16389314D01*
X13827143Y-16389314D01*
X13855714Y-16403600D01*
X13870000Y-16417886D01*
X13884286Y-16446457D01*
X13884286Y-16475029D01*
X13870000Y-16517886D01*
X13698571Y-16689314D01*
X13884286Y-16689314D01*
X14141428Y-16389314D02*
X14084286Y-16389314D01*
X14055714Y-16403600D01*
X14041428Y-16417886D01*
X14012857Y-16460743D01*
X13998571Y-16517886D01*
X13998571Y-16632171D01*
X14012857Y-16660743D01*
X14027143Y-16675029D01*
X14055714Y-16689314D01*
X14112857Y-16689314D01*
X14141428Y-16675029D01*
X14155714Y-16660743D01*
X14170000Y-16632171D01*
X14170000Y-16560743D01*
X14155714Y-16532171D01*
X14141428Y-16517886D01*
X14112857Y-16503600D01*
X14055714Y-16503600D01*
X14027143Y-16517886D01*
X14012857Y-16532171D01*
X13998571Y-16560743D01*
X14284286Y-16389314D02*
X14284286Y-16446457D01*
X14398571Y-16389314D02*
X14398571Y-16446457D01*
X14841428Y-16803600D02*
X14827143Y-16789314D01*
X14798571Y-16746457D01*
X14784286Y-16717886D01*
X14770000Y-16675029D01*
X14755714Y-16603600D01*
X14755714Y-16546457D01*
X14770000Y-16475029D01*
X14784286Y-16432171D01*
X14798571Y-16403600D01*
X14827143Y-16360743D01*
X14841428Y-16346457D01*
X15084286Y-16489314D02*
X15084286Y-16689314D01*
X15012857Y-16375029D02*
X14941428Y-16589314D01*
X15127143Y-16589314D01*
X15470000Y-16689314D02*
X15470000Y-16389314D01*
X15598571Y-16689314D02*
X15598571Y-16532171D01*
X15584286Y-16503600D01*
X15555714Y-16489314D01*
X15512857Y-16489314D01*
X15484286Y-16503600D01*
X15470000Y-16517886D01*
X15784286Y-16689314D02*
X15755714Y-16675029D01*
X15741428Y-16660743D01*
X15727143Y-16632171D01*
X15727143Y-16546457D01*
X15741428Y-16517886D01*
X15755714Y-16503600D01*
X15784286Y-16489314D01*
X15827143Y-16489314D01*
X15855714Y-16503600D01*
X15870000Y-16517886D01*
X15884286Y-16546457D01*
X15884286Y-16632171D01*
X15870000Y-16660743D01*
X15855714Y-16675029D01*
X15827143Y-16689314D01*
X15784286Y-16689314D01*
X16055714Y-16689314D02*
X16027143Y-16675029D01*
X16012857Y-16646457D01*
X16012857Y-16389314D01*
X16284286Y-16675029D02*
X16255714Y-16689314D01*
X16198571Y-16689314D01*
X16170000Y-16675029D01*
X16155714Y-16646457D01*
X16155714Y-16532171D01*
X16170000Y-16503600D01*
X16198571Y-16489314D01*
X16255714Y-16489314D01*
X16284286Y-16503600D01*
X16298571Y-16532171D01*
X16298571Y-16560743D01*
X16155714Y-16589314D01*
X16412857Y-16675029D02*
X16441428Y-16689314D01*
X16498571Y-16689314D01*
X16527143Y-16675029D01*
X16541428Y-16646457D01*
X16541428Y-16632171D01*
X16527143Y-16603600D01*
X16498571Y-16589314D01*
X16455714Y-16589314D01*
X16427143Y-16575029D01*
X16412857Y-16546457D01*
X16412857Y-16532171D01*
X16427143Y-16503600D01*
X16455714Y-16489314D01*
X16498571Y-16489314D01*
X16527143Y-16503600D01*
X16641428Y-16803600D02*
X16655714Y-16789314D01*
X16684286Y-16746457D01*
X16698571Y-16717886D01*
X16712857Y-16675029D01*
X16727143Y-16603600D01*
X16727143Y-16546457D01*
X16712857Y-16475029D01*
X16698571Y-16432171D01*
X16684286Y-16403600D01*
X16655714Y-16360743D01*
X16641428Y-16346457D01*
M02*
