G04 #@! TF.GenerationSoftware,KiCad,Pcbnew,(5.1.2)-2*
G04 #@! TF.CreationDate,2020-03-21T23:17:17-04:00*
G04 #@! TF.ProjectId,InfraRedGelUniversalDispenserV2,496e6672-6152-4656-9447-656c556e6976,R01*
G04 #@! TF.SameCoordinates,Original*
G04 #@! TF.FileFunction,Copper,L1,Top*
G04 #@! TF.FilePolarity,Positive*
%FSLAX46Y46*%
G04 Gerber Fmt 4.6, Leading zero omitted, Abs format (unit mm)*
G04 Created by KiCad (PCBNEW (5.1.2)-2) date 2020-03-21 23:17:17*
%MOMM*%
%LPD*%
G04 APERTURE LIST*
%ADD10C,6.400000*%
%ADD11C,0.800000*%
%ADD12C,1.879600*%
%ADD13C,2.300000*%
%ADD14R,2.300000X2.300000*%
%ADD15C,2.500000*%
%ADD16R,2.500000X2.500000*%
%ADD17C,1.440000*%
%ADD18C,1.676400*%
%ADD19R,1.500000X1.500000*%
%ADD20C,1.500000*%
%ADD21C,3.000000*%
%ADD22C,2.100000*%
G04 APERTURE END LIST*
D10*
X110667800Y-69291200D03*
D11*
X113067800Y-69291200D03*
X112364856Y-70988256D03*
X110667800Y-71691200D03*
X108970744Y-70988256D03*
X108267800Y-69291200D03*
X108970744Y-67594144D03*
X110667800Y-66891200D03*
X112364856Y-67594144D03*
D10*
X110718600Y-113055400D03*
D11*
X113118600Y-113055400D03*
X112415656Y-114752456D03*
X110718600Y-115455400D03*
X109021544Y-114752456D03*
X108318600Y-113055400D03*
X109021544Y-111358344D03*
X110718600Y-110655400D03*
X112415656Y-111358344D03*
D10*
X169748200Y-113055400D03*
D11*
X172148200Y-113055400D03*
X171445256Y-114752456D03*
X169748200Y-115455400D03*
X168051144Y-114752456D03*
X167348200Y-113055400D03*
X168051144Y-111358344D03*
X169748200Y-110655400D03*
X171445256Y-111358344D03*
X171369056Y-67568744D03*
X169672000Y-66865800D03*
X167974944Y-67568744D03*
X167272000Y-69265800D03*
X167974944Y-70962856D03*
X169672000Y-71665800D03*
X171369056Y-70962856D03*
X172072000Y-69265800D03*
D10*
X169672000Y-69265800D03*
D12*
X139496800Y-77114400D03*
X147116800Y-77114400D03*
X147116800Y-80924400D03*
X139496800Y-80924400D03*
X125831600Y-76962000D03*
X133451600Y-76962000D03*
X125831600Y-80924400D03*
X133451600Y-80924400D03*
D13*
X145995400Y-70408800D03*
D14*
X140995400Y-70408800D03*
D13*
X132330200Y-70408800D03*
D14*
X127330200Y-70408800D03*
D15*
X112395000Y-89212400D03*
X112395000Y-94212400D03*
D16*
X112395000Y-99212400D03*
D17*
X136067800Y-113004600D03*
X133527800Y-107924600D03*
X130987800Y-113004600D03*
D18*
X167208200Y-95902780D03*
X167208200Y-91904820D03*
D19*
X151638000Y-96783200D03*
D20*
X151638000Y-91583200D03*
X151638000Y-94183200D03*
D21*
X126191400Y-94209400D03*
D15*
X128141400Y-88259400D03*
D21*
X140391400Y-88209400D03*
X140341400Y-100259400D03*
D15*
X128141400Y-100259400D03*
D22*
X120523000Y-98608000D03*
X120523000Y-89408000D03*
M02*
