M48
; DRILL file {KiCad (5.1.2)-2} date 3/21/2020 11:17:05 PM
; FORMAT={-:-/ absolute / metric / decimal}
; #@! TF.CreationDate,2020-03-21T23:17:05-04:00
; #@! TF.GenerationSoftware,Kicad,Pcbnew,(5.1.2)-2
; #@! TF.FileFunction,Plated,1,2,PTH
FMAT,2
METRIC
T1C0.500
T2C0.798
T3C0.800
T4C0.899
T5C0.900
T6C1.000
T7C1.100
T8C1.300
T9C3.200
%
G90
G05
T1
X108.268Y-69.291
X108.971Y-67.594
X108.971Y-70.988
X110.668Y-66.891
X110.668Y-71.691
X112.365Y-67.594
X112.365Y-70.988
X113.068Y-69.291
X167.348Y-113.055
X168.051Y-111.358
X168.051Y-114.752
X169.748Y-110.655
X169.748Y-115.455
X171.445Y-111.358
X171.445Y-114.752
X172.148Y-113.055
X108.319Y-113.055
X109.022Y-111.358
X109.022Y-114.752
X110.719Y-110.655
X110.719Y-115.455
X112.416Y-111.358
X112.416Y-114.752
X113.119Y-113.055
X167.272Y-69.266
X167.975Y-67.569
X167.975Y-70.963
X169.672Y-66.866
X169.672Y-71.666
X171.369Y-67.569
X171.369Y-70.963
X172.072Y-69.266
T2
X167.208Y-91.905
X167.208Y-95.903
T3
X130.988Y-113.005
X133.528Y-107.925
X136.068Y-113.005
T4
X139.497Y-80.924
X147.117Y-80.924
X125.832Y-80.924
X133.452Y-80.924
X139.497Y-77.114
X147.117Y-77.114
X125.832Y-76.962
X133.452Y-76.962
T5
X151.638Y-91.583
X151.638Y-94.183
X151.638Y-96.783
T6
X128.141Y-88.259
X128.141Y-100.259
T7
X120.523Y-89.408
X120.523Y-98.608
T8
X126.191Y-94.209
X140.341Y-100.259
X140.391Y-88.209
X140.995Y-70.409
X145.995Y-70.409
X112.395Y-89.212
X112.395Y-94.212
X112.395Y-99.212
X127.33Y-70.409
X132.33Y-70.409
T9
X110.668Y-69.291
X169.748Y-113.055
X110.719Y-113.055
X169.672Y-69.266
T0
M30
