G04 #@! TF.GenerationSoftware,KiCad,Pcbnew,(5.1.2)-2*
G04 #@! TF.CreationDate,2020-03-21T23:17:17-04:00*
G04 #@! TF.ProjectId,InfraRedGelUniversalDispenserV2,496e6672-6152-4656-9447-656c556e6976,R01*
G04 #@! TF.SameCoordinates,Original*
G04 #@! TF.FileFunction,Soldermask,Bot*
G04 #@! TF.FilePolarity,Negative*
%FSLAX46Y46*%
G04 Gerber Fmt 4.6, Leading zero omitted, Abs format (unit mm)*
G04 Created by KiCad (PCBNEW (5.1.2)-2) date 2020-03-21 23:17:17*
%MOMM*%
%LPD*%
G04 APERTURE LIST*
%ADD10C,0.100000*%
G04 APERTURE END LIST*
D10*
G36*
X170382439Y-109866867D02*
G01*
X170696482Y-109929334D01*
X171288126Y-110174401D01*
X171820592Y-110530184D01*
X172273416Y-110983008D01*
X172629199Y-111515474D01*
X172874266Y-112107118D01*
X172874266Y-112107119D01*
X172999200Y-112735203D01*
X172999200Y-113375597D01*
X172953872Y-113603475D01*
X172874266Y-114003682D01*
X172629199Y-114595326D01*
X172273416Y-115127792D01*
X171820592Y-115580616D01*
X171288126Y-115936399D01*
X170696482Y-116181466D01*
X170382439Y-116243933D01*
X170068397Y-116306400D01*
X169428003Y-116306400D01*
X169113961Y-116243933D01*
X168799918Y-116181466D01*
X168208274Y-115936399D01*
X167675808Y-115580616D01*
X167222984Y-115127792D01*
X166867201Y-114595326D01*
X166622134Y-114003682D01*
X166542528Y-113603475D01*
X166497200Y-113375597D01*
X166497200Y-112735203D01*
X166622134Y-112107119D01*
X166622134Y-112107118D01*
X166867201Y-111515474D01*
X167222984Y-110983008D01*
X167675808Y-110530184D01*
X168208274Y-110174401D01*
X168799918Y-109929334D01*
X169113961Y-109866867D01*
X169428003Y-109804400D01*
X170068397Y-109804400D01*
X170382439Y-109866867D01*
X170382439Y-109866867D01*
G37*
G36*
X111352839Y-109866867D02*
G01*
X111666882Y-109929334D01*
X112258526Y-110174401D01*
X112790992Y-110530184D01*
X113243816Y-110983008D01*
X113599599Y-111515474D01*
X113844666Y-112107118D01*
X113844666Y-112107119D01*
X113969600Y-112735203D01*
X113969600Y-113375597D01*
X113924272Y-113603475D01*
X113844666Y-114003682D01*
X113599599Y-114595326D01*
X113243816Y-115127792D01*
X112790992Y-115580616D01*
X112258526Y-115936399D01*
X111666882Y-116181466D01*
X111352839Y-116243933D01*
X111038797Y-116306400D01*
X110398403Y-116306400D01*
X110084361Y-116243933D01*
X109770318Y-116181466D01*
X109178674Y-115936399D01*
X108646208Y-115580616D01*
X108193384Y-115127792D01*
X107837601Y-114595326D01*
X107592534Y-114003682D01*
X107512928Y-113603475D01*
X107467600Y-113375597D01*
X107467600Y-112735203D01*
X107592534Y-112107119D01*
X107592534Y-112107118D01*
X107837601Y-111515474D01*
X108193384Y-110983008D01*
X108646208Y-110530184D01*
X109178674Y-110174401D01*
X109770318Y-109929334D01*
X110084361Y-109866867D01*
X110398403Y-109804400D01*
X111038797Y-109804400D01*
X111352839Y-109866867D01*
X111352839Y-109866867D01*
G37*
G36*
X136193389Y-112243476D02*
G01*
X136292693Y-112263229D01*
X136433006Y-112321348D01*
X136559284Y-112405725D01*
X136666675Y-112513116D01*
X136751052Y-112639394D01*
X136809171Y-112779707D01*
X136809171Y-112779709D01*
X136838800Y-112928662D01*
X136838800Y-113080538D01*
X136828924Y-113130189D01*
X136809171Y-113229493D01*
X136751052Y-113369806D01*
X136666675Y-113496084D01*
X136559284Y-113603475D01*
X136433006Y-113687852D01*
X136292693Y-113745971D01*
X136193389Y-113765724D01*
X136143738Y-113775600D01*
X135991862Y-113775600D01*
X135942211Y-113765724D01*
X135842907Y-113745971D01*
X135702594Y-113687852D01*
X135576316Y-113603475D01*
X135468925Y-113496084D01*
X135384548Y-113369806D01*
X135326429Y-113229493D01*
X135306676Y-113130189D01*
X135296800Y-113080538D01*
X135296800Y-112928662D01*
X135326429Y-112779709D01*
X135326429Y-112779707D01*
X135384548Y-112639394D01*
X135468925Y-112513116D01*
X135576316Y-112405725D01*
X135702594Y-112321348D01*
X135842907Y-112263229D01*
X135942211Y-112243476D01*
X135991862Y-112233600D01*
X136143738Y-112233600D01*
X136193389Y-112243476D01*
X136193389Y-112243476D01*
G37*
G36*
X131113389Y-112243476D02*
G01*
X131212693Y-112263229D01*
X131353006Y-112321348D01*
X131479284Y-112405725D01*
X131586675Y-112513116D01*
X131671052Y-112639394D01*
X131729171Y-112779707D01*
X131729171Y-112779709D01*
X131758800Y-112928662D01*
X131758800Y-113080538D01*
X131748924Y-113130189D01*
X131729171Y-113229493D01*
X131671052Y-113369806D01*
X131586675Y-113496084D01*
X131479284Y-113603475D01*
X131353006Y-113687852D01*
X131212693Y-113745971D01*
X131113389Y-113765724D01*
X131063738Y-113775600D01*
X130911862Y-113775600D01*
X130862211Y-113765724D01*
X130762907Y-113745971D01*
X130622594Y-113687852D01*
X130496316Y-113603475D01*
X130388925Y-113496084D01*
X130304548Y-113369806D01*
X130246429Y-113229493D01*
X130226676Y-113130189D01*
X130216800Y-113080538D01*
X130216800Y-112928662D01*
X130246429Y-112779709D01*
X130246429Y-112779707D01*
X130304548Y-112639394D01*
X130388925Y-112513116D01*
X130496316Y-112405725D01*
X130622594Y-112321348D01*
X130762907Y-112263229D01*
X130862211Y-112243476D01*
X130911862Y-112233600D01*
X131063738Y-112233600D01*
X131113389Y-112243476D01*
X131113389Y-112243476D01*
G37*
G36*
X133653389Y-107163476D02*
G01*
X133752693Y-107183229D01*
X133893006Y-107241348D01*
X134019284Y-107325725D01*
X134126675Y-107433116D01*
X134211052Y-107559394D01*
X134269171Y-107699707D01*
X134298800Y-107848663D01*
X134298800Y-108000537D01*
X134269171Y-108149493D01*
X134211052Y-108289806D01*
X134126675Y-108416084D01*
X134019284Y-108523475D01*
X133893006Y-108607852D01*
X133752693Y-108665971D01*
X133653389Y-108685724D01*
X133603738Y-108695600D01*
X133451862Y-108695600D01*
X133402211Y-108685724D01*
X133302907Y-108665971D01*
X133162594Y-108607852D01*
X133036316Y-108523475D01*
X132928925Y-108416084D01*
X132844548Y-108289806D01*
X132786429Y-108149493D01*
X132756800Y-108000537D01*
X132756800Y-107848663D01*
X132786429Y-107699707D01*
X132844548Y-107559394D01*
X132928925Y-107433116D01*
X133036316Y-107325725D01*
X133162594Y-107241348D01*
X133302907Y-107183229D01*
X133402211Y-107163476D01*
X133451862Y-107153600D01*
X133603738Y-107153600D01*
X133653389Y-107163476D01*
X133653389Y-107163476D01*
G37*
G36*
X140643985Y-98738202D02*
G01*
X140793810Y-98768004D01*
X141076074Y-98884921D01*
X141330105Y-99054659D01*
X141546141Y-99270695D01*
X141715879Y-99524726D01*
X141832796Y-99806990D01*
X141892400Y-100106640D01*
X141892400Y-100412160D01*
X141832796Y-100711810D01*
X141715879Y-100994074D01*
X141546141Y-101248105D01*
X141330105Y-101464141D01*
X141076074Y-101633879D01*
X140793810Y-101750796D01*
X140643985Y-101780598D01*
X140494161Y-101810400D01*
X140188639Y-101810400D01*
X140038815Y-101780598D01*
X139888990Y-101750796D01*
X139606726Y-101633879D01*
X139352695Y-101464141D01*
X139136659Y-101248105D01*
X138966921Y-100994074D01*
X138850004Y-100711810D01*
X138790400Y-100412160D01*
X138790400Y-100106640D01*
X138850004Y-99806990D01*
X138966921Y-99524726D01*
X139136659Y-99270695D01*
X139352695Y-99054659D01*
X139606726Y-98884921D01*
X139888990Y-98768004D01*
X140038815Y-98738202D01*
X140188639Y-98708400D01*
X140494161Y-98708400D01*
X140643985Y-98738202D01*
X140643985Y-98738202D01*
G37*
G36*
X128520887Y-99008396D02*
G01*
X128757653Y-99106468D01*
X128757655Y-99106469D01*
X128792153Y-99129520D01*
X128970739Y-99248847D01*
X129151953Y-99430061D01*
X129294332Y-99643147D01*
X129392404Y-99879913D01*
X129442400Y-100131261D01*
X129442400Y-100387539D01*
X129392404Y-100638887D01*
X129362198Y-100711810D01*
X129294331Y-100875655D01*
X129151953Y-101088739D01*
X128970739Y-101269953D01*
X128757655Y-101412331D01*
X128757654Y-101412332D01*
X128757653Y-101412332D01*
X128520887Y-101510404D01*
X128269539Y-101560400D01*
X128013261Y-101560400D01*
X127761913Y-101510404D01*
X127525147Y-101412332D01*
X127525146Y-101412332D01*
X127525145Y-101412331D01*
X127312061Y-101269953D01*
X127130847Y-101088739D01*
X126988469Y-100875655D01*
X126920602Y-100711810D01*
X126890396Y-100638887D01*
X126840400Y-100387539D01*
X126840400Y-100131261D01*
X126890396Y-99879913D01*
X126988468Y-99643147D01*
X127130847Y-99430061D01*
X127312061Y-99248847D01*
X127490647Y-99129520D01*
X127525145Y-99106469D01*
X127525147Y-99106468D01*
X127761913Y-99008396D01*
X128013261Y-98958400D01*
X128269539Y-98958400D01*
X128520887Y-99008396D01*
X128520887Y-99008396D01*
G37*
G36*
X113696000Y-100513400D02*
G01*
X111094000Y-100513400D01*
X111094000Y-97911400D01*
X113696000Y-97911400D01*
X113696000Y-100513400D01*
X113696000Y-100513400D01*
G37*
G36*
X120737794Y-97528155D02*
G01*
X120844150Y-97549311D01*
X120928379Y-97584200D01*
X121044520Y-97632307D01*
X121224844Y-97752795D01*
X121378205Y-97906156D01*
X121498693Y-98086480D01*
X121581689Y-98286851D01*
X121624000Y-98499560D01*
X121624000Y-98716440D01*
X121581689Y-98929149D01*
X121498693Y-99129520D01*
X121378205Y-99309844D01*
X121224844Y-99463205D01*
X121044520Y-99583693D01*
X120944334Y-99625191D01*
X120844150Y-99666689D01*
X120737795Y-99687844D01*
X120631440Y-99709000D01*
X120414560Y-99709000D01*
X120308205Y-99687844D01*
X120201850Y-99666689D01*
X120101666Y-99625191D01*
X120001480Y-99583693D01*
X119821156Y-99463205D01*
X119667795Y-99309844D01*
X119547307Y-99129520D01*
X119464311Y-98929149D01*
X119422000Y-98716440D01*
X119422000Y-98499560D01*
X119464311Y-98286851D01*
X119547307Y-98086480D01*
X119667795Y-97906156D01*
X119821156Y-97752795D01*
X120001480Y-97632307D01*
X120117621Y-97584200D01*
X120201850Y-97549311D01*
X120308206Y-97528155D01*
X120414560Y-97507000D01*
X120631440Y-97507000D01*
X120737794Y-97528155D01*
X120737794Y-97528155D01*
G37*
G36*
X152439000Y-97584200D02*
G01*
X150837000Y-97584200D01*
X150837000Y-95982200D01*
X152439000Y-95982200D01*
X152439000Y-97584200D01*
X152439000Y-97584200D01*
G37*
G36*
X167407442Y-94984200D02*
G01*
X167482329Y-94999096D01*
X167653362Y-95069940D01*
X167807287Y-95172790D01*
X167938190Y-95303693D01*
X168041040Y-95457618D01*
X168111884Y-95628651D01*
X168148000Y-95810218D01*
X168148000Y-95995342D01*
X168111884Y-96176909D01*
X168041040Y-96347942D01*
X167938190Y-96501867D01*
X167807287Y-96632770D01*
X167653362Y-96735620D01*
X167482329Y-96806464D01*
X167421807Y-96818503D01*
X167300764Y-96842580D01*
X167115636Y-96842580D01*
X166994593Y-96818503D01*
X166934071Y-96806464D01*
X166763038Y-96735620D01*
X166609113Y-96632770D01*
X166478210Y-96501867D01*
X166375360Y-96347942D01*
X166304516Y-96176909D01*
X166268400Y-95995342D01*
X166268400Y-95810218D01*
X166304516Y-95628651D01*
X166375360Y-95457618D01*
X166478210Y-95303693D01*
X166609113Y-95172790D01*
X166763038Y-95069940D01*
X166934071Y-94999096D01*
X167008958Y-94984200D01*
X167115636Y-94962980D01*
X167300764Y-94962980D01*
X167407442Y-94984200D01*
X167407442Y-94984200D01*
G37*
G36*
X126493985Y-92688202D02*
G01*
X126643810Y-92718004D01*
X126926074Y-92834921D01*
X127180105Y-93004659D01*
X127396141Y-93220695D01*
X127565879Y-93474726D01*
X127682796Y-93756990D01*
X127742400Y-94056640D01*
X127742400Y-94362160D01*
X127682796Y-94661810D01*
X127565879Y-94944074D01*
X127396141Y-95198105D01*
X127180105Y-95414141D01*
X126926074Y-95583879D01*
X126643810Y-95700796D01*
X126493985Y-95730598D01*
X126344161Y-95760400D01*
X126038639Y-95760400D01*
X125888815Y-95730598D01*
X125738990Y-95700796D01*
X125456726Y-95583879D01*
X125202695Y-95414141D01*
X124986659Y-95198105D01*
X124816921Y-94944074D01*
X124700004Y-94661810D01*
X124640400Y-94362160D01*
X124640400Y-94056640D01*
X124700004Y-93756990D01*
X124816921Y-93474726D01*
X124986659Y-93220695D01*
X125202695Y-93004659D01*
X125456726Y-92834921D01*
X125738990Y-92718004D01*
X125888815Y-92688202D01*
X126038639Y-92658400D01*
X126344161Y-92658400D01*
X126493985Y-92688202D01*
X126493985Y-92688202D01*
G37*
G36*
X112774487Y-92961396D02*
G01*
X113011253Y-93059468D01*
X113011255Y-93059469D01*
X113224339Y-93201847D01*
X113405553Y-93383061D01*
X113524463Y-93561022D01*
X113547932Y-93596147D01*
X113646004Y-93832913D01*
X113696000Y-94084261D01*
X113696000Y-94340539D01*
X113646004Y-94591887D01*
X113557573Y-94805378D01*
X113547931Y-94828655D01*
X113405553Y-95041739D01*
X113224339Y-95222953D01*
X113011255Y-95365331D01*
X113011254Y-95365332D01*
X113011253Y-95365332D01*
X112774487Y-95463404D01*
X112523139Y-95513400D01*
X112266861Y-95513400D01*
X112015513Y-95463404D01*
X111778747Y-95365332D01*
X111778746Y-95365332D01*
X111778745Y-95365331D01*
X111565661Y-95222953D01*
X111384447Y-95041739D01*
X111242069Y-94828655D01*
X111232427Y-94805378D01*
X111143996Y-94591887D01*
X111094000Y-94340539D01*
X111094000Y-94084261D01*
X111143996Y-93832913D01*
X111242068Y-93596147D01*
X111265538Y-93561022D01*
X111384447Y-93383061D01*
X111565661Y-93201847D01*
X111778745Y-93059469D01*
X111778747Y-93059468D01*
X112015513Y-92961396D01*
X112266861Y-92911400D01*
X112523139Y-92911400D01*
X112774487Y-92961396D01*
X112774487Y-92961396D01*
G37*
G36*
X151871642Y-93412981D02*
G01*
X152017414Y-93473362D01*
X152017416Y-93473363D01*
X152148608Y-93561022D01*
X152260178Y-93672592D01*
X152316570Y-93756990D01*
X152347838Y-93803786D01*
X152408219Y-93949558D01*
X152439000Y-94104307D01*
X152439000Y-94262093D01*
X152408219Y-94416842D01*
X152347838Y-94562614D01*
X152347837Y-94562616D01*
X152260178Y-94693808D01*
X152148608Y-94805378D01*
X152017416Y-94893037D01*
X152017415Y-94893038D01*
X152017414Y-94893038D01*
X151871642Y-94953419D01*
X151716893Y-94984200D01*
X151559107Y-94984200D01*
X151404358Y-94953419D01*
X151258586Y-94893038D01*
X151258585Y-94893038D01*
X151258584Y-94893037D01*
X151127392Y-94805378D01*
X151015822Y-94693808D01*
X150928163Y-94562616D01*
X150928162Y-94562614D01*
X150867781Y-94416842D01*
X150837000Y-94262093D01*
X150837000Y-94104307D01*
X150867781Y-93949558D01*
X150928162Y-93803786D01*
X150959430Y-93756990D01*
X151015822Y-93672592D01*
X151127392Y-93561022D01*
X151258584Y-93473363D01*
X151258586Y-93473362D01*
X151404358Y-93412981D01*
X151559107Y-93382200D01*
X151716893Y-93382200D01*
X151871642Y-93412981D01*
X151871642Y-93412981D01*
G37*
G36*
X167421807Y-90989097D02*
G01*
X167482329Y-91001136D01*
X167653362Y-91071980D01*
X167807287Y-91174830D01*
X167938190Y-91305733D01*
X168041040Y-91459658D01*
X168111884Y-91630691D01*
X168148000Y-91812258D01*
X168148000Y-91997382D01*
X168111884Y-92178949D01*
X168041040Y-92349982D01*
X167938190Y-92503907D01*
X167807287Y-92634810D01*
X167653362Y-92737660D01*
X167482329Y-92808504D01*
X167421807Y-92820543D01*
X167300764Y-92844620D01*
X167115636Y-92844620D01*
X166994593Y-92820543D01*
X166934071Y-92808504D01*
X166763038Y-92737660D01*
X166609113Y-92634810D01*
X166478210Y-92503907D01*
X166375360Y-92349982D01*
X166304516Y-92178949D01*
X166268400Y-91997382D01*
X166268400Y-91812258D01*
X166304516Y-91630691D01*
X166375360Y-91459658D01*
X166478210Y-91305733D01*
X166609113Y-91174830D01*
X166763038Y-91071980D01*
X166934071Y-91001136D01*
X166994593Y-90989097D01*
X167115636Y-90965020D01*
X167300764Y-90965020D01*
X167421807Y-90989097D01*
X167421807Y-90989097D01*
G37*
G36*
X151871642Y-90812981D02*
G01*
X152017414Y-90873362D01*
X152017416Y-90873363D01*
X152148608Y-90961022D01*
X152260178Y-91072592D01*
X152347837Y-91203784D01*
X152347838Y-91203786D01*
X152408219Y-91349558D01*
X152439000Y-91504307D01*
X152439000Y-91662093D01*
X152408219Y-91816842D01*
X152347838Y-91962614D01*
X152347837Y-91962616D01*
X152260178Y-92093808D01*
X152148608Y-92205378D01*
X152017416Y-92293037D01*
X152017415Y-92293038D01*
X152017414Y-92293038D01*
X151871642Y-92353419D01*
X151716893Y-92384200D01*
X151559107Y-92384200D01*
X151404358Y-92353419D01*
X151258586Y-92293038D01*
X151258585Y-92293038D01*
X151258584Y-92293037D01*
X151127392Y-92205378D01*
X151015822Y-92093808D01*
X150928163Y-91962616D01*
X150928162Y-91962614D01*
X150867781Y-91816842D01*
X150837000Y-91662093D01*
X150837000Y-91504307D01*
X150867781Y-91349558D01*
X150928162Y-91203786D01*
X150928163Y-91203784D01*
X151015822Y-91072592D01*
X151127392Y-90961022D01*
X151258584Y-90873363D01*
X151258586Y-90873362D01*
X151404358Y-90812981D01*
X151559107Y-90782200D01*
X151716893Y-90782200D01*
X151871642Y-90812981D01*
X151871642Y-90812981D01*
G37*
G36*
X112774487Y-87961396D02*
G01*
X113011253Y-88059468D01*
X113011255Y-88059469D01*
X113118699Y-88131261D01*
X113224339Y-88201847D01*
X113405553Y-88383061D01*
X113547932Y-88596147D01*
X113646004Y-88832913D01*
X113696000Y-89084261D01*
X113696000Y-89340539D01*
X113646004Y-89591887D01*
X113576203Y-89760400D01*
X113547931Y-89828655D01*
X113405553Y-90041739D01*
X113224339Y-90222953D01*
X113011255Y-90365331D01*
X113011254Y-90365332D01*
X113011253Y-90365332D01*
X112774487Y-90463404D01*
X112523139Y-90513400D01*
X112266861Y-90513400D01*
X112015513Y-90463404D01*
X111778747Y-90365332D01*
X111778746Y-90365332D01*
X111778745Y-90365331D01*
X111565661Y-90222953D01*
X111384447Y-90041739D01*
X111242069Y-89828655D01*
X111213797Y-89760400D01*
X111143996Y-89591887D01*
X111094000Y-89340539D01*
X111094000Y-89084261D01*
X111143996Y-88832913D01*
X111242068Y-88596147D01*
X111384447Y-88383061D01*
X111565661Y-88201847D01*
X111671301Y-88131261D01*
X111778745Y-88059469D01*
X111778747Y-88059468D01*
X112015513Y-87961396D01*
X112266861Y-87911400D01*
X112523139Y-87911400D01*
X112774487Y-87961396D01*
X112774487Y-87961396D01*
G37*
G36*
X120737795Y-88328156D02*
G01*
X120844150Y-88349311D01*
X120875172Y-88362161D01*
X121044520Y-88432307D01*
X121224844Y-88552795D01*
X121378205Y-88706156D01*
X121498693Y-88886480D01*
X121498693Y-88886481D01*
X121581689Y-89086850D01*
X121624000Y-89299561D01*
X121624000Y-89516439D01*
X121581689Y-89729150D01*
X121540473Y-89828653D01*
X121498693Y-89929520D01*
X121378205Y-90109844D01*
X121224844Y-90263205D01*
X121044520Y-90383693D01*
X120944334Y-90425191D01*
X120844150Y-90466689D01*
X120737795Y-90487844D01*
X120631440Y-90509000D01*
X120414560Y-90509000D01*
X120308206Y-90487845D01*
X120201850Y-90466689D01*
X120001480Y-90383693D01*
X119821156Y-90263205D01*
X119667795Y-90109844D01*
X119547307Y-89929520D01*
X119505527Y-89828653D01*
X119464311Y-89729150D01*
X119422000Y-89516439D01*
X119422000Y-89299561D01*
X119464311Y-89086850D01*
X119547307Y-88886481D01*
X119547307Y-88886480D01*
X119667795Y-88706156D01*
X119821156Y-88552795D01*
X120001480Y-88432307D01*
X120170828Y-88362161D01*
X120201850Y-88349311D01*
X120308205Y-88328156D01*
X120414560Y-88307000D01*
X120631440Y-88307000D01*
X120737795Y-88328156D01*
X120737795Y-88328156D01*
G37*
G36*
X140693985Y-86688202D02*
G01*
X140843810Y-86718004D01*
X141126074Y-86834921D01*
X141380105Y-87004659D01*
X141596141Y-87220695D01*
X141765879Y-87474726D01*
X141882796Y-87756990D01*
X141942400Y-88056640D01*
X141942400Y-88362160D01*
X141882796Y-88661810D01*
X141765879Y-88944074D01*
X141596141Y-89198105D01*
X141380105Y-89414141D01*
X141126074Y-89583879D01*
X140843810Y-89700796D01*
X140701270Y-89729149D01*
X140544161Y-89760400D01*
X140238639Y-89760400D01*
X140081530Y-89729149D01*
X139938990Y-89700796D01*
X139656726Y-89583879D01*
X139402695Y-89414141D01*
X139186659Y-89198105D01*
X139016921Y-88944074D01*
X138900004Y-88661810D01*
X138840400Y-88362160D01*
X138840400Y-88056640D01*
X138900004Y-87756990D01*
X139016921Y-87474726D01*
X139186659Y-87220695D01*
X139402695Y-87004659D01*
X139656726Y-86834921D01*
X139938990Y-86718004D01*
X140088815Y-86688202D01*
X140238639Y-86658400D01*
X140544161Y-86658400D01*
X140693985Y-86688202D01*
X140693985Y-86688202D01*
G37*
G36*
X128520887Y-87008396D02*
G01*
X128757653Y-87106468D01*
X128757655Y-87106469D01*
X128928608Y-87220696D01*
X128970739Y-87248847D01*
X129151953Y-87430061D01*
X129294332Y-87643147D01*
X129392404Y-87879913D01*
X129442400Y-88131261D01*
X129442400Y-88387539D01*
X129392404Y-88638887D01*
X129294332Y-88875653D01*
X129294331Y-88875655D01*
X129151953Y-89088739D01*
X128970739Y-89269953D01*
X128757655Y-89412331D01*
X128757654Y-89412332D01*
X128757653Y-89412332D01*
X128520887Y-89510404D01*
X128269539Y-89560400D01*
X128013261Y-89560400D01*
X127761913Y-89510404D01*
X127525147Y-89412332D01*
X127525146Y-89412332D01*
X127525145Y-89412331D01*
X127312061Y-89269953D01*
X127130847Y-89088739D01*
X126988469Y-88875655D01*
X126988468Y-88875653D01*
X126890396Y-88638887D01*
X126840400Y-88387539D01*
X126840400Y-88131261D01*
X126890396Y-87879913D01*
X126988468Y-87643147D01*
X127130847Y-87430061D01*
X127312061Y-87248847D01*
X127354192Y-87220696D01*
X127525145Y-87106469D01*
X127525147Y-87106468D01*
X127761913Y-87008396D01*
X128013261Y-86958400D01*
X128269539Y-86958400D01*
X128520887Y-87008396D01*
X128520887Y-87008396D01*
G37*
G36*
X133755365Y-79923020D02*
G01*
X133944888Y-80001523D01*
X134115454Y-80115492D01*
X134260508Y-80260546D01*
X134374477Y-80431112D01*
X134452980Y-80620635D01*
X134493000Y-80821831D01*
X134493000Y-81026969D01*
X134452980Y-81228165D01*
X134374477Y-81417688D01*
X134260508Y-81588254D01*
X134115454Y-81733308D01*
X133944888Y-81847277D01*
X133944887Y-81847278D01*
X133944886Y-81847278D01*
X133755365Y-81925780D01*
X133554170Y-81965800D01*
X133349030Y-81965800D01*
X133147835Y-81925780D01*
X132958314Y-81847278D01*
X132958313Y-81847278D01*
X132958312Y-81847277D01*
X132787746Y-81733308D01*
X132642692Y-81588254D01*
X132528723Y-81417688D01*
X132450220Y-81228165D01*
X132410200Y-81026969D01*
X132410200Y-80821831D01*
X132450220Y-80620635D01*
X132528723Y-80431112D01*
X132642692Y-80260546D01*
X132787746Y-80115492D01*
X132958312Y-80001523D01*
X133147835Y-79923020D01*
X133349030Y-79883000D01*
X133554170Y-79883000D01*
X133755365Y-79923020D01*
X133755365Y-79923020D01*
G37*
G36*
X126135365Y-79923020D02*
G01*
X126324888Y-80001523D01*
X126495454Y-80115492D01*
X126640508Y-80260546D01*
X126754477Y-80431112D01*
X126832980Y-80620635D01*
X126873000Y-80821831D01*
X126873000Y-81026969D01*
X126832980Y-81228165D01*
X126754477Y-81417688D01*
X126640508Y-81588254D01*
X126495454Y-81733308D01*
X126324888Y-81847277D01*
X126324887Y-81847278D01*
X126324886Y-81847278D01*
X126135365Y-81925780D01*
X125934170Y-81965800D01*
X125729030Y-81965800D01*
X125527835Y-81925780D01*
X125338314Y-81847278D01*
X125338313Y-81847278D01*
X125338312Y-81847277D01*
X125167746Y-81733308D01*
X125022692Y-81588254D01*
X124908723Y-81417688D01*
X124830220Y-81228165D01*
X124790200Y-81026969D01*
X124790200Y-80821831D01*
X124830220Y-80620635D01*
X124908723Y-80431112D01*
X125022692Y-80260546D01*
X125167746Y-80115492D01*
X125338312Y-80001523D01*
X125527835Y-79923020D01*
X125729030Y-79883000D01*
X125934170Y-79883000D01*
X126135365Y-79923020D01*
X126135365Y-79923020D01*
G37*
G36*
X139800565Y-79923020D02*
G01*
X139990088Y-80001523D01*
X140160654Y-80115492D01*
X140305708Y-80260546D01*
X140419677Y-80431112D01*
X140498180Y-80620635D01*
X140538200Y-80821831D01*
X140538200Y-81026969D01*
X140498180Y-81228165D01*
X140419677Y-81417688D01*
X140305708Y-81588254D01*
X140160654Y-81733308D01*
X139990088Y-81847277D01*
X139990087Y-81847278D01*
X139990086Y-81847278D01*
X139800565Y-81925780D01*
X139599370Y-81965800D01*
X139394230Y-81965800D01*
X139193035Y-81925780D01*
X139003514Y-81847278D01*
X139003513Y-81847278D01*
X139003512Y-81847277D01*
X138832946Y-81733308D01*
X138687892Y-81588254D01*
X138573923Y-81417688D01*
X138495420Y-81228165D01*
X138455400Y-81026969D01*
X138455400Y-80821831D01*
X138495420Y-80620635D01*
X138573923Y-80431112D01*
X138687892Y-80260546D01*
X138832946Y-80115492D01*
X139003512Y-80001523D01*
X139193035Y-79923020D01*
X139394230Y-79883000D01*
X139599370Y-79883000D01*
X139800565Y-79923020D01*
X139800565Y-79923020D01*
G37*
G36*
X147420565Y-79923020D02*
G01*
X147610088Y-80001523D01*
X147780654Y-80115492D01*
X147925708Y-80260546D01*
X148039677Y-80431112D01*
X148118180Y-80620635D01*
X148158200Y-80821831D01*
X148158200Y-81026969D01*
X148118180Y-81228165D01*
X148039677Y-81417688D01*
X147925708Y-81588254D01*
X147780654Y-81733308D01*
X147610088Y-81847277D01*
X147610087Y-81847278D01*
X147610086Y-81847278D01*
X147420565Y-81925780D01*
X147219370Y-81965800D01*
X147014230Y-81965800D01*
X146813035Y-81925780D01*
X146623514Y-81847278D01*
X146623513Y-81847278D01*
X146623512Y-81847277D01*
X146452946Y-81733308D01*
X146307892Y-81588254D01*
X146193923Y-81417688D01*
X146115420Y-81228165D01*
X146075400Y-81026969D01*
X146075400Y-80821831D01*
X146115420Y-80620635D01*
X146193923Y-80431112D01*
X146307892Y-80260546D01*
X146452946Y-80115492D01*
X146623512Y-80001523D01*
X146813035Y-79923020D01*
X147014230Y-79883000D01*
X147219370Y-79883000D01*
X147420565Y-79923020D01*
X147420565Y-79923020D01*
G37*
G36*
X139800565Y-76113020D02*
G01*
X139897308Y-76153092D01*
X139990088Y-76191523D01*
X140160654Y-76305492D01*
X140305708Y-76450546D01*
X140419677Y-76621112D01*
X140498180Y-76810635D01*
X140538200Y-77011831D01*
X140538200Y-77216969D01*
X140498180Y-77418165D01*
X140419677Y-77607688D01*
X140305708Y-77778254D01*
X140160654Y-77923308D01*
X139990088Y-78037277D01*
X139990087Y-78037278D01*
X139990086Y-78037278D01*
X139800565Y-78115780D01*
X139599370Y-78155800D01*
X139394230Y-78155800D01*
X139193035Y-78115780D01*
X139003514Y-78037278D01*
X139003513Y-78037278D01*
X139003512Y-78037277D01*
X138832946Y-77923308D01*
X138687892Y-77778254D01*
X138573923Y-77607688D01*
X138495420Y-77418165D01*
X138455400Y-77216969D01*
X138455400Y-77011831D01*
X138495420Y-76810635D01*
X138573923Y-76621112D01*
X138687892Y-76450546D01*
X138832946Y-76305492D01*
X139003512Y-76191523D01*
X139096293Y-76153092D01*
X139193035Y-76113020D01*
X139394230Y-76073000D01*
X139599370Y-76073000D01*
X139800565Y-76113020D01*
X139800565Y-76113020D01*
G37*
G36*
X147420565Y-76113020D02*
G01*
X147517308Y-76153092D01*
X147610088Y-76191523D01*
X147780654Y-76305492D01*
X147925708Y-76450546D01*
X148039677Y-76621112D01*
X148118180Y-76810635D01*
X148158200Y-77011831D01*
X148158200Y-77216969D01*
X148118180Y-77418165D01*
X148039677Y-77607688D01*
X147925708Y-77778254D01*
X147780654Y-77923308D01*
X147610088Y-78037277D01*
X147610087Y-78037278D01*
X147610086Y-78037278D01*
X147420565Y-78115780D01*
X147219370Y-78155800D01*
X147014230Y-78155800D01*
X146813035Y-78115780D01*
X146623514Y-78037278D01*
X146623513Y-78037278D01*
X146623512Y-78037277D01*
X146452946Y-77923308D01*
X146307892Y-77778254D01*
X146193923Y-77607688D01*
X146115420Y-77418165D01*
X146075400Y-77216969D01*
X146075400Y-77011831D01*
X146115420Y-76810635D01*
X146193923Y-76621112D01*
X146307892Y-76450546D01*
X146452946Y-76305492D01*
X146623512Y-76191523D01*
X146716293Y-76153092D01*
X146813035Y-76113020D01*
X147014230Y-76073000D01*
X147219370Y-76073000D01*
X147420565Y-76113020D01*
X147420565Y-76113020D01*
G37*
G36*
X133755365Y-75960620D02*
G01*
X133944888Y-76039123D01*
X134115454Y-76153092D01*
X134260508Y-76298146D01*
X134374477Y-76468712D01*
X134452980Y-76658235D01*
X134493000Y-76859431D01*
X134493000Y-77064569D01*
X134452980Y-77265765D01*
X134374477Y-77455288D01*
X134260508Y-77625854D01*
X134115454Y-77770908D01*
X133944888Y-77884877D01*
X133944887Y-77884878D01*
X133944886Y-77884878D01*
X133755365Y-77963380D01*
X133554170Y-78003400D01*
X133349030Y-78003400D01*
X133147835Y-77963380D01*
X132958314Y-77884878D01*
X132958313Y-77884878D01*
X132958312Y-77884877D01*
X132787746Y-77770908D01*
X132642692Y-77625854D01*
X132528723Y-77455288D01*
X132450220Y-77265765D01*
X132410200Y-77064569D01*
X132410200Y-76859431D01*
X132450220Y-76658235D01*
X132528723Y-76468712D01*
X132642692Y-76298146D01*
X132787746Y-76153092D01*
X132958312Y-76039123D01*
X133147835Y-75960620D01*
X133349030Y-75920600D01*
X133554170Y-75920600D01*
X133755365Y-75960620D01*
X133755365Y-75960620D01*
G37*
G36*
X126135365Y-75960620D02*
G01*
X126324888Y-76039123D01*
X126495454Y-76153092D01*
X126640508Y-76298146D01*
X126754477Y-76468712D01*
X126832980Y-76658235D01*
X126873000Y-76859431D01*
X126873000Y-77064569D01*
X126832980Y-77265765D01*
X126754477Y-77455288D01*
X126640508Y-77625854D01*
X126495454Y-77770908D01*
X126324888Y-77884877D01*
X126324887Y-77884878D01*
X126324886Y-77884878D01*
X126135365Y-77963380D01*
X125934170Y-78003400D01*
X125729030Y-78003400D01*
X125527835Y-77963380D01*
X125338314Y-77884878D01*
X125338313Y-77884878D01*
X125338312Y-77884877D01*
X125167746Y-77770908D01*
X125022692Y-77625854D01*
X124908723Y-77455288D01*
X124830220Y-77265765D01*
X124790200Y-77064569D01*
X124790200Y-76859431D01*
X124830220Y-76658235D01*
X124908723Y-76468712D01*
X125022692Y-76298146D01*
X125167746Y-76153092D01*
X125338312Y-76039123D01*
X125527835Y-75960620D01*
X125729030Y-75920600D01*
X125934170Y-75920600D01*
X126135365Y-75960620D01*
X126135365Y-75960620D01*
G37*
G36*
X111302039Y-66102667D02*
G01*
X111616082Y-66165134D01*
X112207726Y-66410201D01*
X112459309Y-66578304D01*
X112702179Y-66740584D01*
X112740192Y-66765984D01*
X113193016Y-67218808D01*
X113548799Y-67751274D01*
X113783345Y-68317518D01*
X113793866Y-68342919D01*
X113918800Y-68971003D01*
X113918800Y-69611397D01*
X113873345Y-69839913D01*
X113793866Y-70239482D01*
X113548799Y-70831126D01*
X113319435Y-71174393D01*
X113207659Y-71341678D01*
X113193016Y-71363592D01*
X112740192Y-71816416D01*
X112207726Y-72172199D01*
X111616082Y-72417266D01*
X111302039Y-72479733D01*
X110987997Y-72542200D01*
X110347603Y-72542200D01*
X110033561Y-72479733D01*
X109719518Y-72417266D01*
X109127874Y-72172199D01*
X108595408Y-71816416D01*
X108142584Y-71363592D01*
X108127942Y-71341678D01*
X108016165Y-71174393D01*
X107786801Y-70831126D01*
X107541734Y-70239482D01*
X107462255Y-69839913D01*
X107416800Y-69611397D01*
X107416800Y-68971003D01*
X107541734Y-68342919D01*
X107552255Y-68317518D01*
X107786801Y-67751274D01*
X108142584Y-67218808D01*
X108595408Y-66765984D01*
X108633422Y-66740584D01*
X108876291Y-66578304D01*
X109127874Y-66410201D01*
X109719518Y-66165134D01*
X110033561Y-66102667D01*
X110347603Y-66040200D01*
X110987997Y-66040200D01*
X111302039Y-66102667D01*
X111302039Y-66102667D01*
G37*
G36*
X170306239Y-66077267D02*
G01*
X170620282Y-66139734D01*
X171211926Y-66384801D01*
X171612073Y-66652171D01*
X171744391Y-66740583D01*
X172197217Y-67193409D01*
X172230907Y-67243830D01*
X172552999Y-67725874D01*
X172798066Y-68317518D01*
X172860533Y-68631561D01*
X172923000Y-68945603D01*
X172923000Y-69585997D01*
X172895377Y-69724868D01*
X172798066Y-70214082D01*
X172552999Y-70805726D01*
X172279664Y-71214800D01*
X172197217Y-71338191D01*
X171744391Y-71791017D01*
X171706377Y-71816417D01*
X171211926Y-72146799D01*
X170620282Y-72391866D01*
X170306239Y-72454333D01*
X169992197Y-72516800D01*
X169351803Y-72516800D01*
X169037761Y-72454333D01*
X168723718Y-72391866D01*
X168132074Y-72146799D01*
X167637623Y-71816417D01*
X167599609Y-71791017D01*
X167146783Y-71338191D01*
X167064336Y-71214800D01*
X166791001Y-70805726D01*
X166545934Y-70214082D01*
X166448623Y-69724868D01*
X166421000Y-69585997D01*
X166421000Y-68945603D01*
X166483467Y-68631561D01*
X166545934Y-68317518D01*
X166791001Y-67725874D01*
X167113093Y-67243830D01*
X167146783Y-67193409D01*
X167599609Y-66740583D01*
X167731927Y-66652171D01*
X168132074Y-66384801D01*
X168723718Y-66139734D01*
X169037761Y-66077267D01*
X169351803Y-66014800D01*
X169992197Y-66014800D01*
X170306239Y-66077267D01*
X170306239Y-66077267D01*
G37*
G36*
X132680518Y-69253953D02*
G01*
X132877678Y-69335620D01*
X132899087Y-69344488D01*
X133095793Y-69475922D01*
X133263078Y-69643207D01*
X133394512Y-69839913D01*
X133394513Y-69839915D01*
X133485047Y-70058482D01*
X133531200Y-70290510D01*
X133531200Y-70527090D01*
X133485047Y-70759118D01*
X133455220Y-70831126D01*
X133394512Y-70977687D01*
X133263078Y-71174393D01*
X133095793Y-71341678D01*
X132899087Y-71473112D01*
X132899086Y-71473113D01*
X132899085Y-71473113D01*
X132680518Y-71563647D01*
X132448490Y-71609800D01*
X132211910Y-71609800D01*
X131979882Y-71563647D01*
X131761315Y-71473113D01*
X131761314Y-71473113D01*
X131761313Y-71473112D01*
X131564607Y-71341678D01*
X131397322Y-71174393D01*
X131265888Y-70977687D01*
X131205180Y-70831126D01*
X131175353Y-70759118D01*
X131129200Y-70527090D01*
X131129200Y-70290510D01*
X131175353Y-70058482D01*
X131265887Y-69839915D01*
X131265888Y-69839913D01*
X131397322Y-69643207D01*
X131564607Y-69475922D01*
X131761313Y-69344488D01*
X131782722Y-69335620D01*
X131979882Y-69253953D01*
X132211910Y-69207800D01*
X132448490Y-69207800D01*
X132680518Y-69253953D01*
X132680518Y-69253953D01*
G37*
G36*
X128531200Y-71609800D02*
G01*
X126129200Y-71609800D01*
X126129200Y-69207800D01*
X128531200Y-69207800D01*
X128531200Y-71609800D01*
X128531200Y-71609800D01*
G37*
G36*
X142196400Y-71609800D02*
G01*
X139794400Y-71609800D01*
X139794400Y-69207800D01*
X142196400Y-69207800D01*
X142196400Y-71609800D01*
X142196400Y-71609800D01*
G37*
G36*
X146345718Y-69253953D02*
G01*
X146542878Y-69335620D01*
X146564287Y-69344488D01*
X146760993Y-69475922D01*
X146928278Y-69643207D01*
X147059712Y-69839913D01*
X147059713Y-69839915D01*
X147150247Y-70058482D01*
X147196400Y-70290510D01*
X147196400Y-70527090D01*
X147150247Y-70759118D01*
X147120420Y-70831126D01*
X147059712Y-70977687D01*
X146928278Y-71174393D01*
X146760993Y-71341678D01*
X146564287Y-71473112D01*
X146564286Y-71473113D01*
X146564285Y-71473113D01*
X146345718Y-71563647D01*
X146113690Y-71609800D01*
X145877110Y-71609800D01*
X145645082Y-71563647D01*
X145426515Y-71473113D01*
X145426514Y-71473113D01*
X145426513Y-71473112D01*
X145229807Y-71341678D01*
X145062522Y-71174393D01*
X144931088Y-70977687D01*
X144870380Y-70831126D01*
X144840553Y-70759118D01*
X144794400Y-70527090D01*
X144794400Y-70290510D01*
X144840553Y-70058482D01*
X144931087Y-69839915D01*
X144931088Y-69839913D01*
X145062522Y-69643207D01*
X145229807Y-69475922D01*
X145426513Y-69344488D01*
X145447922Y-69335620D01*
X145645082Y-69253953D01*
X145877110Y-69207800D01*
X146113690Y-69207800D01*
X146345718Y-69253953D01*
X146345718Y-69253953D01*
G37*
M02*
