G04 #@! TF.GenerationSoftware,KiCad,Pcbnew,(5.1.2)-2*
G04 #@! TF.CreationDate,2020-03-21T23:17:17-04:00*
G04 #@! TF.ProjectId,InfraRedGelUniversalDispenserV2,496e6672-6152-4656-9447-656c556e6976,R01*
G04 #@! TF.SameCoordinates,Original*
G04 #@! TF.FileFunction,Copper,L2,Bot*
G04 #@! TF.FilePolarity,Positive*
%FSLAX46Y46*%
G04 Gerber Fmt 4.6, Leading zero omitted, Abs format (unit mm)*
G04 Created by KiCad (PCBNEW (5.1.2)-2) date 2020-03-21 23:17:17*
%MOMM*%
%LPD*%
G04 APERTURE LIST*
%ADD10C,0.300000*%
%ADD11C,6.400000*%
%ADD12C,0.800000*%
%ADD13C,1.879600*%
%ADD14C,2.300000*%
%ADD15R,2.300000X2.300000*%
%ADD16C,2.500000*%
%ADD17R,2.500000X2.500000*%
%ADD18C,1.440000*%
%ADD19C,1.676400*%
%ADD20R,1.500000X1.500000*%
%ADD21C,1.500000*%
%ADD22C,3.000000*%
%ADD23C,2.100000*%
%ADD24C,1.000000*%
%ADD25C,0.254000*%
G04 APERTURE END LIST*
D10*
X105442628Y-90103971D02*
X106942628Y-90103971D01*
X105442628Y-89246828D01*
X106942628Y-89246828D01*
X105585485Y-87675400D02*
X105514057Y-87746828D01*
X105442628Y-87961114D01*
X105442628Y-88103971D01*
X105514057Y-88318257D01*
X105656914Y-88461114D01*
X105799771Y-88532542D01*
X106085485Y-88603971D01*
X106299771Y-88603971D01*
X106585485Y-88532542D01*
X106728342Y-88461114D01*
X106871200Y-88318257D01*
X106942628Y-88103971D01*
X106942628Y-87961114D01*
X106871200Y-87746828D01*
X106799771Y-87675400D01*
X105366428Y-95041885D02*
X106866428Y-95041885D01*
X105366428Y-94184742D01*
X106866428Y-94184742D01*
X106866428Y-93184742D02*
X106866428Y-92899028D01*
X106795000Y-92756171D01*
X106652142Y-92613314D01*
X106366428Y-92541885D01*
X105866428Y-92541885D01*
X105580714Y-92613314D01*
X105437857Y-92756171D01*
X105366428Y-92899028D01*
X105366428Y-93184742D01*
X105437857Y-93327600D01*
X105580714Y-93470457D01*
X105866428Y-93541885D01*
X106366428Y-93541885D01*
X106652142Y-93470457D01*
X106795000Y-93327600D01*
X106866428Y-93184742D01*
X105737885Y-100771971D02*
X105666457Y-100843400D01*
X105595028Y-101057685D01*
X105595028Y-101200542D01*
X105666457Y-101414828D01*
X105809314Y-101557685D01*
X105952171Y-101629114D01*
X106237885Y-101700542D01*
X106452171Y-101700542D01*
X106737885Y-101629114D01*
X106880742Y-101557685D01*
X107023600Y-101414828D01*
X107095028Y-101200542D01*
X107095028Y-101057685D01*
X107023600Y-100843400D01*
X106952171Y-100771971D01*
X107095028Y-99843400D02*
X107095028Y-99557685D01*
X107023600Y-99414828D01*
X106880742Y-99271971D01*
X106595028Y-99200542D01*
X106095028Y-99200542D01*
X105809314Y-99271971D01*
X105666457Y-99414828D01*
X105595028Y-99557685D01*
X105595028Y-99843400D01*
X105666457Y-99986257D01*
X105809314Y-100129114D01*
X106095028Y-100200542D01*
X106595028Y-100200542D01*
X106880742Y-100129114D01*
X107023600Y-99986257D01*
X107095028Y-99843400D01*
X105595028Y-98557685D02*
X107095028Y-98557685D01*
X106023600Y-98057685D01*
X107095028Y-97557685D01*
X105595028Y-97557685D01*
X126504628Y-65181942D02*
X125361771Y-65181942D01*
X140576228Y-64978742D02*
X139433371Y-64978742D01*
X148831228Y-65029542D02*
X147688371Y-65029542D01*
X148259800Y-65600971D02*
X148259800Y-64458114D01*
X134581828Y-64902542D02*
X133438971Y-64902542D01*
X134010400Y-65473971D02*
X134010400Y-64331114D01*
X144667171Y-65753371D02*
X145524314Y-65753371D01*
X145095742Y-65753371D02*
X145095742Y-64253371D01*
X145238600Y-64467657D01*
X145381457Y-64610514D01*
X145524314Y-64681942D01*
X144095742Y-64396228D02*
X144024314Y-64324800D01*
X143881457Y-64253371D01*
X143524314Y-64253371D01*
X143381457Y-64324800D01*
X143310028Y-64396228D01*
X143238600Y-64539085D01*
X143238600Y-64681942D01*
X143310028Y-64896228D01*
X144167171Y-65753371D01*
X143238600Y-65753371D01*
X142810028Y-64253371D02*
X142310028Y-65753371D01*
X141810028Y-64253371D01*
X131198714Y-64320028D02*
X131127285Y-64248600D01*
X130984428Y-64177171D01*
X130627285Y-64177171D01*
X130484428Y-64248600D01*
X130413000Y-64320028D01*
X130341571Y-64462885D01*
X130341571Y-64605742D01*
X130413000Y-64820028D01*
X131270142Y-65677171D01*
X130341571Y-65677171D01*
X129055857Y-64677171D02*
X129055857Y-65677171D01*
X129413000Y-64105742D02*
X129770142Y-65177171D01*
X128841571Y-65177171D01*
X128484428Y-64177171D02*
X127984428Y-65677171D01*
X127484428Y-64177171D01*
D11*
X110667800Y-69291200D03*
D12*
X113067800Y-69291200D03*
X112364856Y-70988256D03*
X110667800Y-71691200D03*
X108970744Y-70988256D03*
X108267800Y-69291200D03*
X108970744Y-67594144D03*
X110667800Y-66891200D03*
X112364856Y-67594144D03*
D11*
X110718600Y-113055400D03*
D12*
X113118600Y-113055400D03*
X112415656Y-114752456D03*
X110718600Y-115455400D03*
X109021544Y-114752456D03*
X108318600Y-113055400D03*
X109021544Y-111358344D03*
X110718600Y-110655400D03*
X112415656Y-111358344D03*
D11*
X169748200Y-113055400D03*
D12*
X172148200Y-113055400D03*
X171445256Y-114752456D03*
X169748200Y-115455400D03*
X168051144Y-114752456D03*
X167348200Y-113055400D03*
X168051144Y-111358344D03*
X169748200Y-110655400D03*
X171445256Y-111358344D03*
X171369056Y-67568744D03*
X169672000Y-66865800D03*
X167974944Y-67568744D03*
X167272000Y-69265800D03*
X167974944Y-70962856D03*
X169672000Y-71665800D03*
X171369056Y-70962856D03*
X172072000Y-69265800D03*
D11*
X169672000Y-69265800D03*
D13*
X139496800Y-77114400D03*
X147116800Y-77114400D03*
X147116800Y-80924400D03*
X139496800Y-80924400D03*
X125831600Y-76962000D03*
X133451600Y-76962000D03*
X125831600Y-80924400D03*
X133451600Y-80924400D03*
D14*
X145995400Y-70408800D03*
D15*
X140995400Y-70408800D03*
D14*
X132330200Y-70408800D03*
D15*
X127330200Y-70408800D03*
D16*
X112395000Y-89212400D03*
X112395000Y-94212400D03*
D17*
X112395000Y-99212400D03*
D18*
X136067800Y-113004600D03*
X133527800Y-107924600D03*
X130987800Y-113004600D03*
D19*
X167208200Y-95902780D03*
X167208200Y-91904820D03*
D20*
X151638000Y-96783200D03*
D21*
X151638000Y-91583200D03*
X151638000Y-94183200D03*
D22*
X126191400Y-94209400D03*
D16*
X128141400Y-88259400D03*
D22*
X140391400Y-88209400D03*
X140341400Y-100259400D03*
D16*
X128141400Y-100259400D03*
D23*
X120523000Y-98608000D03*
X120523000Y-89408000D03*
D24*
X120523000Y-100092924D02*
X120683876Y-100253800D01*
X120523000Y-98608000D02*
X120523000Y-100092924D01*
X120683876Y-100253800D02*
X122199400Y-100253800D01*
X122205000Y-100259400D02*
X128141400Y-100259400D01*
X122199400Y-100253800D02*
X122205000Y-100259400D01*
X151638000Y-106222800D02*
X151638000Y-96783200D01*
X134670800Y-110388400D02*
X147472400Y-110388400D01*
X133553200Y-111506000D02*
X134670800Y-110388400D01*
X133451600Y-111506000D02*
X133553200Y-111506000D01*
X133451600Y-114376200D02*
X133451600Y-111506000D01*
X132207000Y-115620800D02*
X133451600Y-114376200D01*
X147472400Y-110388400D02*
X151638000Y-106222800D01*
X128141400Y-102027166D02*
X127127000Y-103041566D01*
X128141400Y-100259400D02*
X128141400Y-102027166D01*
X127127000Y-103041566D02*
X127127000Y-113461800D01*
X127127000Y-113461800D02*
X129387600Y-115722400D01*
X129387600Y-115722400D02*
X129489200Y-115620800D01*
X129489200Y-115620800D02*
X132207000Y-115620800D01*
X154127200Y-94183200D02*
X151638000Y-94183200D01*
X154762200Y-94818200D02*
X154127200Y-94183200D01*
X136067800Y-113004600D02*
X149758400Y-113004600D01*
X149758400Y-113004600D02*
X154762200Y-108000800D01*
X154846020Y-95902780D02*
X154762200Y-95986600D01*
X167208200Y-95902780D02*
X154846020Y-95902780D01*
X154762200Y-108000800D02*
X154762200Y-95986600D01*
X154762200Y-95986600D02*
X154762200Y-94818200D01*
X120523000Y-89408000D02*
X120523000Y-88341200D01*
X120604800Y-88259400D02*
X128141400Y-88259400D01*
X120523000Y-88341200D02*
X120604800Y-88259400D01*
X129909166Y-88259400D02*
X130016366Y-88366600D01*
X128141400Y-88259400D02*
X129909166Y-88259400D01*
X130016366Y-88366600D02*
X131292600Y-88366600D01*
X131292600Y-88366600D02*
X133146800Y-86512400D01*
X133146800Y-86512400D02*
X133146800Y-85293200D01*
X133451600Y-84988400D02*
X133451600Y-80924400D01*
X133146800Y-85293200D02*
X133451600Y-84988400D01*
X133451600Y-80924400D02*
X139496800Y-80924400D01*
X167208200Y-88442800D02*
X167208200Y-91904820D01*
X165531800Y-86766400D02*
X167208200Y-88442800D01*
X144009723Y-86766400D02*
X165531800Y-86766400D01*
X139496800Y-80924400D02*
X139496800Y-82253477D01*
X139496800Y-82253477D02*
X144009723Y-86766400D01*
X136783800Y-88209400D02*
X140391400Y-88209400D01*
X134035800Y-90957400D02*
X136783800Y-88209400D01*
X113644999Y-90462399D02*
X117665799Y-90462399D01*
X112395000Y-89212400D02*
X113644999Y-90462399D01*
X117665799Y-90462399D02*
X118770400Y-91567000D01*
X118770400Y-91567000D02*
X123190000Y-91567000D01*
X123190000Y-91567000D02*
X123799600Y-90957400D01*
X123799600Y-90957400D02*
X134035800Y-90957400D01*
X137567200Y-97485200D02*
X140341400Y-100259400D01*
X113644999Y-95462399D02*
X116290399Y-95462399D01*
X112395000Y-94212400D02*
X113644999Y-95462399D01*
X116290399Y-95462399D02*
X117221000Y-96393000D01*
X117221000Y-96393000D02*
X122758200Y-96393000D01*
X122758200Y-96393000D02*
X123850400Y-97485200D01*
X123850400Y-97485200D02*
X137567200Y-97485200D01*
X112395000Y-99212400D02*
X112699800Y-99212400D01*
X110145000Y-99212400D02*
X109220000Y-98287400D01*
X112395000Y-99212400D02*
X110145000Y-99212400D01*
X109220000Y-98287400D02*
X109220000Y-93522800D01*
X109220000Y-93522800D02*
X110769400Y-91973400D01*
X110769400Y-91973400D02*
X116103400Y-91973400D01*
X118339400Y-94209400D02*
X126191400Y-94209400D01*
X116103400Y-91973400D02*
X118339400Y-94209400D01*
X132511801Y-77901799D02*
X133451600Y-76962000D01*
X131064000Y-77901800D02*
X132511801Y-77901799D01*
X128981199Y-79984601D02*
X131064000Y-77901800D01*
X125831600Y-80924400D02*
X126771399Y-79984601D01*
X126771399Y-79984601D02*
X128981199Y-79984601D01*
X133451600Y-71530200D02*
X132330200Y-70408800D01*
X133451600Y-76962000D02*
X133451600Y-71530200D01*
X130267801Y-112284601D02*
X130267801Y-108441399D01*
X130987800Y-113004600D02*
X130267801Y-112284601D01*
X130267801Y-108441399D02*
X131038600Y-107670600D01*
X131292600Y-107924600D02*
X133527800Y-107924600D01*
X131038600Y-107670600D02*
X131292600Y-107924600D01*
X133527800Y-107924600D02*
X138404600Y-107924600D01*
X138404600Y-107924600D02*
X144653000Y-101676200D01*
X144653000Y-101676200D02*
X144653000Y-93014800D01*
X144653000Y-93014800D02*
X146151600Y-91516200D01*
X146218600Y-91583200D02*
X151638000Y-91583200D01*
X146151600Y-91516200D02*
X146218600Y-91583200D01*
X125831600Y-71907400D02*
X127330200Y-70408800D01*
X125831600Y-76962000D02*
X125831600Y-71907400D01*
X140995400Y-68258800D02*
X140995400Y-70408800D01*
X139665600Y-66929000D02*
X140995400Y-68258800D01*
X128660000Y-66929000D02*
X139665600Y-66929000D01*
X127330200Y-68258800D02*
X128660000Y-66929000D01*
X127330200Y-70408800D02*
X127330200Y-68258800D01*
X140995400Y-75615800D02*
X139496800Y-77114400D01*
X140995400Y-70408800D02*
X140995400Y-75615800D01*
X142976600Y-79654400D02*
X141351000Y-78028800D01*
X142976600Y-81838800D02*
X142976600Y-79654400D01*
X144932400Y-83794600D02*
X142976600Y-81838800D01*
X168249600Y-83794600D02*
X144932400Y-83794600D01*
X141325601Y-78054199D02*
X140436599Y-78054199D01*
X141351000Y-78028800D02*
X141325601Y-78054199D01*
X170535600Y-92760800D02*
X170535600Y-86080600D01*
X151638000Y-91583200D02*
X152698660Y-91583200D01*
X152698660Y-91583200D02*
X152733260Y-91617800D01*
X140436599Y-78054199D02*
X139496800Y-77114400D01*
X170535600Y-86080600D02*
X168249600Y-83794600D01*
X152733260Y-91617800D02*
X162636200Y-91617800D01*
X162636200Y-91617800D02*
X164820600Y-93802200D01*
X164820600Y-93802200D02*
X169494200Y-93802200D01*
X169494200Y-93802200D02*
X170535600Y-92760800D01*
X145995400Y-75993000D02*
X147116800Y-77114400D01*
X145995400Y-70408800D02*
X145995400Y-75993000D01*
X147116800Y-77114400D02*
X147116800Y-80924400D01*
D25*
G36*
X124219629Y-67104800D02*
G01*
X127646772Y-67104800D01*
X127646772Y-67028600D01*
X132269429Y-67028600D01*
X132269429Y-64261200D01*
X132296829Y-64261200D01*
X132296829Y-66825400D01*
X135723972Y-66825400D01*
X135723972Y-64261200D01*
X138291229Y-64261200D01*
X138291229Y-66901600D01*
X140882172Y-66901600D01*
X140882172Y-67104800D01*
X146595029Y-67104800D01*
X146595029Y-66952400D01*
X149973372Y-66952400D01*
X149973372Y-64261200D01*
X175286200Y-64261200D01*
X175286201Y-118390200D01*
X105180600Y-118390200D01*
X105180600Y-112677685D01*
X106883600Y-112677685D01*
X106883600Y-113433115D01*
X107030977Y-114174028D01*
X107320067Y-114871954D01*
X107739761Y-115500070D01*
X108273930Y-116034239D01*
X108902046Y-116453933D01*
X109599972Y-116743023D01*
X110340885Y-116890400D01*
X111096315Y-116890400D01*
X111837228Y-116743023D01*
X112535154Y-116453933D01*
X113163270Y-116034239D01*
X113697439Y-115500070D01*
X114117133Y-114871954D01*
X114406223Y-114174028D01*
X114553600Y-113433115D01*
X114553600Y-112677685D01*
X114406223Y-111936772D01*
X114117133Y-111238846D01*
X113697439Y-110610730D01*
X113163270Y-110076561D01*
X112535154Y-109656867D01*
X111837228Y-109367777D01*
X111096315Y-109220400D01*
X110340885Y-109220400D01*
X109599972Y-109367777D01*
X108902046Y-109656867D01*
X108273930Y-110076561D01*
X107739761Y-110610730D01*
X107320067Y-111238846D01*
X107030977Y-111936772D01*
X106883600Y-112677685D01*
X105180600Y-112677685D01*
X105180600Y-102771257D01*
X108063600Y-102771257D01*
X108063600Y-96415543D01*
X105180600Y-96415543D01*
X105180600Y-96184029D01*
X107835000Y-96184029D01*
X107835000Y-93522800D01*
X108079509Y-93522800D01*
X108085001Y-93578561D01*
X108085000Y-98231648D01*
X108079509Y-98287400D01*
X108085000Y-98343151D01*
X108101423Y-98509898D01*
X108166324Y-98723846D01*
X108271716Y-98921023D01*
X108413551Y-99093849D01*
X108456864Y-99129395D01*
X109303013Y-99975545D01*
X109338551Y-100018849D01*
X109381854Y-100054387D01*
X109381856Y-100054389D01*
X109511377Y-100160684D01*
X109708553Y-100266076D01*
X109922501Y-100330977D01*
X110145000Y-100352891D01*
X110200752Y-100347400D01*
X110506928Y-100347400D01*
X110506928Y-100462400D01*
X110519188Y-100586882D01*
X110555498Y-100706580D01*
X110614463Y-100816894D01*
X110693815Y-100913585D01*
X110790506Y-100992937D01*
X110900820Y-101051902D01*
X111020518Y-101088212D01*
X111145000Y-101100472D01*
X113645000Y-101100472D01*
X113769482Y-101088212D01*
X113889180Y-101051902D01*
X113999494Y-100992937D01*
X114096185Y-100913585D01*
X114175537Y-100816894D01*
X114234502Y-100706580D01*
X114270812Y-100586882D01*
X114283072Y-100462400D01*
X114283072Y-97962400D01*
X114270812Y-97837918D01*
X114234502Y-97718220D01*
X114175537Y-97607906D01*
X114096185Y-97511215D01*
X113999494Y-97431863D01*
X113889180Y-97372898D01*
X113769482Y-97336588D01*
X113645000Y-97324328D01*
X111145000Y-97324328D01*
X111020518Y-97336588D01*
X110900820Y-97372898D01*
X110790506Y-97431863D01*
X110693815Y-97511215D01*
X110614463Y-97607906D01*
X110555498Y-97718220D01*
X110519188Y-97837918D01*
X110506928Y-97962400D01*
X110506928Y-97969196D01*
X110355000Y-97817268D01*
X110355000Y-93992931D01*
X110556882Y-93791049D01*
X110510000Y-94026744D01*
X110510000Y-94398056D01*
X110582439Y-94762234D01*
X110724534Y-95105282D01*
X110930825Y-95414018D01*
X111193382Y-95676575D01*
X111502118Y-95882866D01*
X111845166Y-96024961D01*
X112209344Y-96097400D01*
X112580656Y-96097400D01*
X112659237Y-96081769D01*
X112803012Y-96225545D01*
X112838550Y-96268848D01*
X112881853Y-96304386D01*
X112881855Y-96304388D01*
X113011376Y-96410683D01*
X113208552Y-96516075D01*
X113422500Y-96580976D01*
X113644999Y-96602890D01*
X113700751Y-96597399D01*
X115820267Y-96597399D01*
X116379013Y-97156145D01*
X116414551Y-97199449D01*
X116457854Y-97234987D01*
X116457856Y-97234989D01*
X116587377Y-97341284D01*
X116784553Y-97446676D01*
X116998501Y-97511577D01*
X117221000Y-97533491D01*
X117276752Y-97528000D01*
X119220050Y-97528000D01*
X119214175Y-97533875D01*
X119029772Y-97809853D01*
X118902754Y-98116504D01*
X118838000Y-98442042D01*
X118838000Y-98773958D01*
X118902754Y-99099496D01*
X119029772Y-99406147D01*
X119214175Y-99682125D01*
X119388000Y-99855950D01*
X119388000Y-100037173D01*
X119382509Y-100092924D01*
X119388000Y-100148675D01*
X119388000Y-100148676D01*
X119404423Y-100315423D01*
X119415789Y-100352891D01*
X119469324Y-100529370D01*
X119469325Y-100529371D01*
X119574717Y-100726547D01*
X119716552Y-100899373D01*
X119759860Y-100934915D01*
X119841880Y-101016935D01*
X119877427Y-101060249D01*
X120050253Y-101202084D01*
X120247429Y-101307476D01*
X120461377Y-101372377D01*
X120628124Y-101388800D01*
X120683875Y-101394291D01*
X120739627Y-101388800D01*
X122092390Y-101388800D01*
X122149248Y-101394400D01*
X122149249Y-101394400D01*
X122205000Y-101399891D01*
X122260752Y-101394400D01*
X126632712Y-101394400D01*
X126677225Y-101461018D01*
X126889821Y-101673614D01*
X126363864Y-102199570D01*
X126320551Y-102235117D01*
X126178716Y-102407943D01*
X126073325Y-102605119D01*
X126073324Y-102605120D01*
X126008423Y-102819068D01*
X125986509Y-103041566D01*
X125992000Y-103097318D01*
X125992001Y-113406039D01*
X125986509Y-113461800D01*
X126008423Y-113684298D01*
X126073324Y-113898246D01*
X126073325Y-113898247D01*
X126178717Y-114095423D01*
X126320552Y-114268249D01*
X126363860Y-114303791D01*
X128545619Y-116485551D01*
X128581152Y-116528848D01*
X128624449Y-116564381D01*
X128624456Y-116564388D01*
X128753977Y-116670683D01*
X128859370Y-116727016D01*
X128951154Y-116776076D01*
X129065509Y-116810766D01*
X129165100Y-116840977D01*
X129204999Y-116844906D01*
X129387600Y-116862891D01*
X129610098Y-116840977D01*
X129824046Y-116776076D01*
X129861980Y-116755800D01*
X132151249Y-116755800D01*
X132207000Y-116761291D01*
X132262751Y-116755800D01*
X132262752Y-116755800D01*
X132429499Y-116739377D01*
X132643447Y-116674476D01*
X132840623Y-116569084D01*
X133013449Y-116427249D01*
X133048996Y-116383935D01*
X134214740Y-115218192D01*
X134258049Y-115182649D01*
X134399884Y-115009823D01*
X134505276Y-114812647D01*
X134555071Y-114648495D01*
X134570177Y-114598700D01*
X134576136Y-114538195D01*
X134586600Y-114431952D01*
X134586600Y-114431945D01*
X134592090Y-114376201D01*
X134586600Y-114320457D01*
X134586600Y-112077731D01*
X135140932Y-111523400D01*
X147416649Y-111523400D01*
X147472400Y-111528891D01*
X147528151Y-111523400D01*
X147528152Y-111523400D01*
X147694899Y-111506977D01*
X147908847Y-111442076D01*
X148106023Y-111336684D01*
X148278849Y-111194849D01*
X148314396Y-111151535D01*
X152401141Y-107064791D01*
X152444449Y-107029249D01*
X152586284Y-106856423D01*
X152691676Y-106659247D01*
X152756577Y-106445299D01*
X152773000Y-106278552D01*
X152773000Y-106278551D01*
X152778491Y-106222801D01*
X152773000Y-106167049D01*
X152773000Y-98038701D01*
X152839185Y-97984385D01*
X152918537Y-97887694D01*
X152977502Y-97777380D01*
X153013812Y-97657682D01*
X153026072Y-97533200D01*
X153026072Y-96033200D01*
X153013812Y-95908718D01*
X152977502Y-95789020D01*
X152918537Y-95678706D01*
X152839185Y-95582015D01*
X152742494Y-95502663D01*
X152632180Y-95443698D01*
X152512482Y-95407388D01*
X152388000Y-95395128D01*
X152317155Y-95395128D01*
X152432286Y-95318200D01*
X153627200Y-95318200D01*
X153627200Y-95930848D01*
X153621709Y-95986600D01*
X153627200Y-96042351D01*
X153627201Y-96042361D01*
X153627200Y-107530668D01*
X149288269Y-111869600D01*
X136808087Y-111869600D01*
X136709633Y-111803815D01*
X136463039Y-111701672D01*
X136201256Y-111649600D01*
X135934344Y-111649600D01*
X135672561Y-111701672D01*
X135425967Y-111803815D01*
X135204038Y-111952103D01*
X135015303Y-112140838D01*
X134867015Y-112362767D01*
X134764872Y-112609361D01*
X134712800Y-112871144D01*
X134712800Y-113138056D01*
X134764872Y-113399839D01*
X134867015Y-113646433D01*
X135015303Y-113868362D01*
X135204038Y-114057097D01*
X135425967Y-114205385D01*
X135672561Y-114307528D01*
X135934344Y-114359600D01*
X136201256Y-114359600D01*
X136463039Y-114307528D01*
X136709633Y-114205385D01*
X136808087Y-114139600D01*
X149702649Y-114139600D01*
X149758400Y-114145091D01*
X149814151Y-114139600D01*
X149814152Y-114139600D01*
X149980899Y-114123177D01*
X150194847Y-114058276D01*
X150392023Y-113952884D01*
X150564849Y-113811049D01*
X150600396Y-113767735D01*
X151690446Y-112677685D01*
X165913200Y-112677685D01*
X165913200Y-113433115D01*
X166060577Y-114174028D01*
X166349667Y-114871954D01*
X166769361Y-115500070D01*
X167303530Y-116034239D01*
X167931646Y-116453933D01*
X168629572Y-116743023D01*
X169370485Y-116890400D01*
X170125915Y-116890400D01*
X170866828Y-116743023D01*
X171564754Y-116453933D01*
X172192870Y-116034239D01*
X172727039Y-115500070D01*
X173146733Y-114871954D01*
X173435823Y-114174028D01*
X173583200Y-113433115D01*
X173583200Y-112677685D01*
X173435823Y-111936772D01*
X173146733Y-111238846D01*
X172727039Y-110610730D01*
X172192870Y-110076561D01*
X171564754Y-109656867D01*
X170866828Y-109367777D01*
X170125915Y-109220400D01*
X169370485Y-109220400D01*
X168629572Y-109367777D01*
X167931646Y-109656867D01*
X167303530Y-110076561D01*
X166769361Y-110610730D01*
X166349667Y-111238846D01*
X166060577Y-111936772D01*
X165913200Y-112677685D01*
X151690446Y-112677685D01*
X155525341Y-108842791D01*
X155568649Y-108807249D01*
X155710484Y-108634423D01*
X155815876Y-108437247D01*
X155880777Y-108223299D01*
X155897200Y-108056552D01*
X155897200Y-108056551D01*
X155902691Y-108000800D01*
X155897200Y-107945048D01*
X155897200Y-97037780D01*
X166259781Y-97037780D01*
X166269090Y-97047089D01*
X166510378Y-97208313D01*
X166778483Y-97319366D01*
X167063102Y-97375980D01*
X167353298Y-97375980D01*
X167637917Y-97319366D01*
X167906022Y-97208313D01*
X168147310Y-97047089D01*
X168352509Y-96841890D01*
X168513733Y-96600602D01*
X168624786Y-96332497D01*
X168681400Y-96047878D01*
X168681400Y-95757682D01*
X168624786Y-95473063D01*
X168513733Y-95204958D01*
X168352509Y-94963670D01*
X168147310Y-94758471D01*
X167906022Y-94597247D01*
X167637917Y-94486194D01*
X167353298Y-94429580D01*
X167063102Y-94429580D01*
X166778483Y-94486194D01*
X166510378Y-94597247D01*
X166269090Y-94758471D01*
X166259781Y-94767780D01*
X155897725Y-94767780D01*
X155880777Y-94595701D01*
X155815876Y-94381753D01*
X155710484Y-94184577D01*
X155604189Y-94055057D01*
X155568649Y-94011751D01*
X155525340Y-93976208D01*
X154969195Y-93420064D01*
X154933649Y-93376751D01*
X154760823Y-93234916D01*
X154563647Y-93129524D01*
X154349699Y-93064623D01*
X154182952Y-93048200D01*
X154182951Y-93048200D01*
X154127200Y-93042709D01*
X154071449Y-93048200D01*
X152432286Y-93048200D01*
X152294043Y-92955829D01*
X152117345Y-92882639D01*
X152236832Y-92839477D01*
X152349863Y-92779060D01*
X152415388Y-92540193D01*
X151638000Y-91762805D01*
X150860612Y-92540193D01*
X150926137Y-92779060D01*
X151152390Y-92885234D01*
X150981957Y-92955829D01*
X150755114Y-93107401D01*
X150562201Y-93300314D01*
X150410629Y-93527157D01*
X150306225Y-93779211D01*
X150253000Y-94046789D01*
X150253000Y-94319611D01*
X150306225Y-94587189D01*
X150410629Y-94839243D01*
X150562201Y-95066086D01*
X150755114Y-95258999D01*
X150958845Y-95395128D01*
X150888000Y-95395128D01*
X150763518Y-95407388D01*
X150643820Y-95443698D01*
X150533506Y-95502663D01*
X150436815Y-95582015D01*
X150357463Y-95678706D01*
X150298498Y-95789020D01*
X150262188Y-95908718D01*
X150249928Y-96033200D01*
X150249928Y-97533200D01*
X150262188Y-97657682D01*
X150298498Y-97777380D01*
X150357463Y-97887694D01*
X150436815Y-97984385D01*
X150503001Y-98038702D01*
X150503000Y-105752668D01*
X147002269Y-109253400D01*
X134726551Y-109253400D01*
X134670799Y-109247909D01*
X134615048Y-109253400D01*
X134448301Y-109269823D01*
X134234353Y-109334724D01*
X134037177Y-109440116D01*
X133864351Y-109581951D01*
X133828811Y-109625257D01*
X132986349Y-110467720D01*
X132817977Y-110557716D01*
X132645151Y-110699551D01*
X132503316Y-110872377D01*
X132397924Y-111069553D01*
X132333023Y-111283501D01*
X132311109Y-111506000D01*
X132316601Y-111561761D01*
X132316601Y-112730534D01*
X132306863Y-112667099D01*
X132215675Y-112416247D01*
X132159168Y-112310532D01*
X131923360Y-112248645D01*
X131167405Y-113004600D01*
X131923360Y-113760555D01*
X132159168Y-113698668D01*
X132272066Y-113456810D01*
X132316600Y-113275128D01*
X132316600Y-113906068D01*
X131736869Y-114485800D01*
X129756132Y-114485800D01*
X129210492Y-113940160D01*
X130231845Y-113940160D01*
X130293732Y-114175968D01*
X130535590Y-114288866D01*
X130794827Y-114352411D01*
X131061480Y-114364161D01*
X131325301Y-114323663D01*
X131576153Y-114232475D01*
X131681868Y-114175968D01*
X131743755Y-113940160D01*
X130987800Y-113184205D01*
X130231845Y-113940160D01*
X129210492Y-113940160D01*
X128348612Y-113078280D01*
X129628239Y-113078280D01*
X129668737Y-113342101D01*
X129759925Y-113592953D01*
X129816432Y-113698668D01*
X130052240Y-113760555D01*
X130808195Y-113004600D01*
X130052240Y-112248645D01*
X129816432Y-112310532D01*
X129703534Y-112552390D01*
X129639989Y-112811627D01*
X129628239Y-113078280D01*
X128348612Y-113078280D01*
X128262000Y-112991669D01*
X128262000Y-112069040D01*
X130231845Y-112069040D01*
X130987800Y-112824995D01*
X131743755Y-112069040D01*
X131681868Y-111833232D01*
X131440010Y-111720334D01*
X131180773Y-111656789D01*
X130914120Y-111645039D01*
X130650299Y-111685537D01*
X130399447Y-111776725D01*
X130293732Y-111833232D01*
X130231845Y-112069040D01*
X128262000Y-112069040D01*
X128262000Y-108860160D01*
X132771845Y-108860160D01*
X132833732Y-109095968D01*
X133075590Y-109208866D01*
X133334827Y-109272411D01*
X133601480Y-109284161D01*
X133865301Y-109243663D01*
X134116153Y-109152475D01*
X134221868Y-109095968D01*
X134283755Y-108860160D01*
X133527800Y-108104205D01*
X132771845Y-108860160D01*
X128262000Y-108860160D01*
X128262000Y-107998280D01*
X132168239Y-107998280D01*
X132208737Y-108262101D01*
X132299925Y-108512953D01*
X132356432Y-108618668D01*
X132592240Y-108680555D01*
X133348195Y-107924600D01*
X133707405Y-107924600D01*
X134463360Y-108680555D01*
X134699168Y-108618668D01*
X134812066Y-108376810D01*
X134875611Y-108117573D01*
X134887361Y-107850920D01*
X134846863Y-107587099D01*
X134755675Y-107336247D01*
X134699168Y-107230532D01*
X134463360Y-107168645D01*
X133707405Y-107924600D01*
X133348195Y-107924600D01*
X132592240Y-107168645D01*
X132356432Y-107230532D01*
X132243534Y-107472390D01*
X132179989Y-107731627D01*
X132168239Y-107998280D01*
X128262000Y-107998280D01*
X128262000Y-106989040D01*
X132771845Y-106989040D01*
X133527800Y-107744995D01*
X134283755Y-106989040D01*
X134221868Y-106753232D01*
X133980010Y-106640334D01*
X133720773Y-106576789D01*
X133454120Y-106565039D01*
X133190299Y-106605537D01*
X132939447Y-106696725D01*
X132833732Y-106753232D01*
X132771845Y-106989040D01*
X128262000Y-106989040D01*
X128262000Y-103511697D01*
X128904540Y-102869158D01*
X128947849Y-102833615D01*
X129089684Y-102660789D01*
X129195076Y-102463613D01*
X129259977Y-102249665D01*
X129276400Y-102082918D01*
X129276400Y-102082909D01*
X129281890Y-102027167D01*
X129276400Y-101971425D01*
X129276400Y-101768088D01*
X129343018Y-101723575D01*
X129605575Y-101461018D01*
X129811866Y-101152282D01*
X129953961Y-100809234D01*
X130026400Y-100445056D01*
X130026400Y-100073744D01*
X129953961Y-99709566D01*
X129811866Y-99366518D01*
X129605575Y-99057782D01*
X129343018Y-98795225D01*
X129081075Y-98620200D01*
X137097069Y-98620200D01*
X138259423Y-99782555D01*
X138206400Y-100049121D01*
X138206400Y-100469679D01*
X138288447Y-100882156D01*
X138449388Y-101270702D01*
X138683037Y-101620383D01*
X138980417Y-101917763D01*
X139330098Y-102151412D01*
X139718644Y-102312353D01*
X140131121Y-102394400D01*
X140551679Y-102394400D01*
X140964156Y-102312353D01*
X141352702Y-102151412D01*
X141702383Y-101917763D01*
X141999763Y-101620383D01*
X142233412Y-101270702D01*
X142394353Y-100882156D01*
X142476400Y-100469679D01*
X142476400Y-100049121D01*
X142394353Y-99636644D01*
X142233412Y-99248098D01*
X141999763Y-98898417D01*
X141702383Y-98601037D01*
X141352702Y-98367388D01*
X140964156Y-98206447D01*
X140551679Y-98124400D01*
X140131121Y-98124400D01*
X139864555Y-98177423D01*
X138409196Y-96722065D01*
X138373649Y-96678751D01*
X138200823Y-96536916D01*
X138003647Y-96431524D01*
X137789699Y-96366623D01*
X137622952Y-96350200D01*
X137622951Y-96350200D01*
X137567200Y-96344709D01*
X137511449Y-96350200D01*
X124320532Y-96350200D01*
X123600196Y-95629864D01*
X123564649Y-95586551D01*
X123391823Y-95444716D01*
X123204144Y-95344400D01*
X124382040Y-95344400D01*
X124533037Y-95570383D01*
X124830417Y-95867763D01*
X125180098Y-96101412D01*
X125568644Y-96262353D01*
X125981121Y-96344400D01*
X126401679Y-96344400D01*
X126814156Y-96262353D01*
X127202702Y-96101412D01*
X127552383Y-95867763D01*
X127849763Y-95570383D01*
X128083412Y-95220702D01*
X128244353Y-94832156D01*
X128326400Y-94419679D01*
X128326400Y-93999121D01*
X128244353Y-93586644D01*
X128083412Y-93198098D01*
X127849763Y-92848417D01*
X127552383Y-92551037D01*
X127202702Y-92317388D01*
X126814156Y-92156447D01*
X126492171Y-92092400D01*
X133980049Y-92092400D01*
X134035800Y-92097891D01*
X134091551Y-92092400D01*
X134091552Y-92092400D01*
X134258299Y-92075977D01*
X134472247Y-92011076D01*
X134669423Y-91905684D01*
X134842249Y-91763849D01*
X134877796Y-91720535D01*
X134942639Y-91655692D01*
X150248188Y-91655692D01*
X150289035Y-91925438D01*
X150381723Y-92182032D01*
X150442140Y-92295063D01*
X150681007Y-92360588D01*
X151458395Y-91583200D01*
X151817605Y-91583200D01*
X152594993Y-92360588D01*
X152833860Y-92295063D01*
X152949760Y-92048084D01*
X153015250Y-91783240D01*
X153027812Y-91510708D01*
X152986965Y-91240962D01*
X152894277Y-90984368D01*
X152833860Y-90871337D01*
X152594993Y-90805812D01*
X151817605Y-91583200D01*
X151458395Y-91583200D01*
X150681007Y-90805812D01*
X150442140Y-90871337D01*
X150326240Y-91118316D01*
X150260750Y-91383160D01*
X150248188Y-91655692D01*
X134942639Y-91655692D01*
X135972124Y-90626207D01*
X150860612Y-90626207D01*
X151638000Y-91403595D01*
X152415388Y-90626207D01*
X152349863Y-90387340D01*
X152102884Y-90271440D01*
X151838040Y-90205950D01*
X151565508Y-90193388D01*
X151295762Y-90234235D01*
X151039168Y-90326923D01*
X150926137Y-90387340D01*
X150860612Y-90626207D01*
X135972124Y-90626207D01*
X137253932Y-89344400D01*
X138582040Y-89344400D01*
X138733037Y-89570383D01*
X139030417Y-89867763D01*
X139380098Y-90101412D01*
X139768644Y-90262353D01*
X140181121Y-90344400D01*
X140601679Y-90344400D01*
X141014156Y-90262353D01*
X141402702Y-90101412D01*
X141752383Y-89867763D01*
X142049763Y-89570383D01*
X142283412Y-89220702D01*
X142444353Y-88832156D01*
X142526400Y-88419679D01*
X142526400Y-87999121D01*
X142444353Y-87586644D01*
X142283412Y-87198098D01*
X142049763Y-86848417D01*
X141752383Y-86551037D01*
X141402702Y-86317388D01*
X141014156Y-86156447D01*
X140601679Y-86074400D01*
X140181121Y-86074400D01*
X139768644Y-86156447D01*
X139380098Y-86317388D01*
X139030417Y-86551037D01*
X138733037Y-86848417D01*
X138582040Y-87074400D01*
X136839552Y-87074400D01*
X136783800Y-87068909D01*
X136728048Y-87074400D01*
X136561301Y-87090823D01*
X136347353Y-87155724D01*
X136150177Y-87261116D01*
X135977351Y-87402951D01*
X135941809Y-87446259D01*
X133565669Y-89822400D01*
X129195116Y-89822400D01*
X129343018Y-89723575D01*
X129605575Y-89461018D01*
X129623886Y-89433613D01*
X129793867Y-89485177D01*
X129960614Y-89501600D01*
X129960615Y-89501600D01*
X130016366Y-89507091D01*
X130072118Y-89501600D01*
X131236849Y-89501600D01*
X131292600Y-89507091D01*
X131348351Y-89501600D01*
X131348352Y-89501600D01*
X131515099Y-89485177D01*
X131729047Y-89420276D01*
X131926223Y-89314884D01*
X132099049Y-89173049D01*
X132134596Y-89129735D01*
X133909940Y-87354391D01*
X133953249Y-87318849D01*
X134095084Y-87146023D01*
X134200476Y-86948847D01*
X134265377Y-86734899D01*
X134281800Y-86568152D01*
X134281800Y-86568151D01*
X134287291Y-86512400D01*
X134281800Y-86456648D01*
X134281800Y-85765908D01*
X134399884Y-85622023D01*
X134505276Y-85424847D01*
X134570177Y-85210899D01*
X134586600Y-85044152D01*
X134586600Y-85044143D01*
X134592090Y-84988401D01*
X134586600Y-84932659D01*
X134586600Y-82059400D01*
X138361800Y-82059400D01*
X138361800Y-82197726D01*
X138356309Y-82253477D01*
X138361800Y-82309228D01*
X138361800Y-82309229D01*
X138378223Y-82475976D01*
X138443124Y-82689924D01*
X138548517Y-82887100D01*
X138690352Y-83059926D01*
X138733660Y-83095468D01*
X143167732Y-87529541D01*
X143203274Y-87572849D01*
X143376100Y-87714684D01*
X143552885Y-87809177D01*
X143573276Y-87820076D01*
X143787224Y-87884977D01*
X144009723Y-87906891D01*
X144065474Y-87901400D01*
X165061669Y-87901400D01*
X166073200Y-88912933D01*
X166073201Y-90956400D01*
X166063891Y-90965710D01*
X165902667Y-91206998D01*
X165791614Y-91475103D01*
X165735000Y-91759722D01*
X165735000Y-92049918D01*
X165791614Y-92334537D01*
X165902667Y-92602642D01*
X166063891Y-92843930D01*
X166269090Y-93049129D01*
X166510378Y-93210353D01*
X166778483Y-93321406D01*
X167063102Y-93378020D01*
X167353298Y-93378020D01*
X167637917Y-93321406D01*
X167906022Y-93210353D01*
X168147310Y-93049129D01*
X168352509Y-92843930D01*
X168513733Y-92602642D01*
X168624786Y-92334537D01*
X168681400Y-92049918D01*
X168681400Y-91759722D01*
X168624786Y-91475103D01*
X168513733Y-91206998D01*
X168352509Y-90965710D01*
X168343200Y-90956401D01*
X168343200Y-88498552D01*
X168348691Y-88442800D01*
X168341562Y-88370412D01*
X168326777Y-88220301D01*
X168261876Y-88006353D01*
X168156484Y-87809177D01*
X168138903Y-87787754D01*
X168050189Y-87679656D01*
X168050187Y-87679654D01*
X168014649Y-87636351D01*
X167971346Y-87600813D01*
X166373795Y-86003264D01*
X166338249Y-85959951D01*
X166165423Y-85818116D01*
X165968247Y-85712724D01*
X165754299Y-85647823D01*
X165587552Y-85631400D01*
X165587551Y-85631400D01*
X165531800Y-85625909D01*
X165476049Y-85631400D01*
X144479855Y-85631400D01*
X140742740Y-81894285D01*
X140892370Y-81670348D01*
X141011082Y-81383752D01*
X141071600Y-81079504D01*
X141071600Y-80769296D01*
X141011082Y-80465048D01*
X140892370Y-80178452D01*
X140720027Y-79920523D01*
X140500677Y-79701173D01*
X140242748Y-79528830D01*
X139956152Y-79410118D01*
X139651904Y-79349600D01*
X139341696Y-79349600D01*
X139037448Y-79410118D01*
X138750852Y-79528830D01*
X138492923Y-79701173D01*
X138404696Y-79789400D01*
X134543704Y-79789400D01*
X134455477Y-79701173D01*
X134197548Y-79528830D01*
X133910952Y-79410118D01*
X133606704Y-79349600D01*
X133296496Y-79349600D01*
X132992248Y-79410118D01*
X132705652Y-79528830D01*
X132447723Y-79701173D01*
X132228373Y-79920523D01*
X132056030Y-80178452D01*
X131937318Y-80465048D01*
X131876800Y-80769296D01*
X131876800Y-81079504D01*
X131937318Y-81383752D01*
X132056030Y-81670348D01*
X132228373Y-81928277D01*
X132316601Y-82016505D01*
X132316600Y-84515693D01*
X132198517Y-84659577D01*
X132093124Y-84856753D01*
X132093124Y-84856754D01*
X132028223Y-85070702D01*
X132006309Y-85293200D01*
X132011800Y-85348951D01*
X132011800Y-86042268D01*
X130822469Y-87231600D01*
X130394024Y-87231600D01*
X130345613Y-87205724D01*
X130131665Y-87140823D01*
X129964918Y-87124400D01*
X129964917Y-87124400D01*
X129909166Y-87118909D01*
X129853415Y-87124400D01*
X129650088Y-87124400D01*
X129605575Y-87057782D01*
X129343018Y-86795225D01*
X129034282Y-86588934D01*
X128691234Y-86446839D01*
X128327056Y-86374400D01*
X127955744Y-86374400D01*
X127591566Y-86446839D01*
X127248518Y-86588934D01*
X126939782Y-86795225D01*
X126677225Y-87057782D01*
X126632712Y-87124400D01*
X120660552Y-87124400D01*
X120604800Y-87118909D01*
X120549049Y-87124400D01*
X120549048Y-87124400D01*
X120382301Y-87140823D01*
X120168353Y-87205724D01*
X119971177Y-87311116D01*
X119798351Y-87452951D01*
X119762806Y-87496262D01*
X119759858Y-87499211D01*
X119716552Y-87534751D01*
X119574717Y-87707577D01*
X119469324Y-87904753D01*
X119404423Y-88118701D01*
X119401700Y-88146350D01*
X119214175Y-88333875D01*
X119029772Y-88609853D01*
X118902754Y-88916504D01*
X118838000Y-89242042D01*
X118838000Y-89573958D01*
X118902754Y-89899496D01*
X119029772Y-90206147D01*
X119060164Y-90251632D01*
X118507794Y-89699263D01*
X118472248Y-89655950D01*
X118299422Y-89514115D01*
X118102246Y-89408723D01*
X117888298Y-89343822D01*
X117721551Y-89327399D01*
X117721550Y-89327399D01*
X117665799Y-89321908D01*
X117610048Y-89327399D01*
X114280000Y-89327399D01*
X114280000Y-89026744D01*
X114207561Y-88662566D01*
X114065466Y-88319518D01*
X113859175Y-88010782D01*
X113596618Y-87748225D01*
X113287882Y-87541934D01*
X112944834Y-87399839D01*
X112580656Y-87327400D01*
X112209344Y-87327400D01*
X111845166Y-87399839D01*
X111502118Y-87541934D01*
X111193382Y-87748225D01*
X110930825Y-88010782D01*
X110724534Y-88319518D01*
X110582439Y-88662566D01*
X110510000Y-89026744D01*
X110510000Y-89398056D01*
X110582439Y-89762234D01*
X110724534Y-90105282D01*
X110930825Y-90414018D01*
X111193382Y-90676575D01*
X111435570Y-90838400D01*
X110825141Y-90838400D01*
X110769399Y-90832910D01*
X110713657Y-90838400D01*
X110713648Y-90838400D01*
X110546901Y-90854823D01*
X110332953Y-90919724D01*
X110135777Y-91025116D01*
X109962951Y-91166951D01*
X109927409Y-91210260D01*
X108456860Y-92680809D01*
X108413552Y-92716351D01*
X108271717Y-92889177D01*
X108233621Y-92960450D01*
X108166324Y-93086354D01*
X108101423Y-93300302D01*
X108079509Y-93522800D01*
X107835000Y-93522800D01*
X107835000Y-91471172D01*
X105180600Y-91471172D01*
X105180600Y-91246115D01*
X107911200Y-91246115D01*
X107911200Y-86604686D01*
X105180600Y-86604686D01*
X105180600Y-80769296D01*
X124256800Y-80769296D01*
X124256800Y-81079504D01*
X124317318Y-81383752D01*
X124436030Y-81670348D01*
X124608373Y-81928277D01*
X124827723Y-82147627D01*
X125085652Y-82319970D01*
X125372248Y-82438682D01*
X125676496Y-82499200D01*
X125986704Y-82499200D01*
X126290952Y-82438682D01*
X126577548Y-82319970D01*
X126835477Y-82147627D01*
X127054827Y-81928277D01*
X127227170Y-81670348D01*
X127345882Y-81383752D01*
X127398424Y-81119601D01*
X128925448Y-81119601D01*
X128981199Y-81125092D01*
X129036950Y-81119601D01*
X129036951Y-81119601D01*
X129203698Y-81103178D01*
X129417646Y-81038277D01*
X129614822Y-80932885D01*
X129787648Y-80791050D01*
X129823195Y-80747736D01*
X131534133Y-79036799D01*
X132456041Y-79036798D01*
X132511801Y-79042290D01*
X132734299Y-79020376D01*
X132948247Y-78955475D01*
X133040031Y-78906415D01*
X133145424Y-78850082D01*
X133318250Y-78708247D01*
X133353792Y-78664939D01*
X133481931Y-78536800D01*
X133606704Y-78536800D01*
X133910952Y-78476282D01*
X134197548Y-78357570D01*
X134423077Y-78206876D01*
X138583929Y-78206876D01*
X138672423Y-78465123D01*
X138951776Y-78599997D01*
X139252075Y-78677781D01*
X139561777Y-78695484D01*
X139868984Y-78652427D01*
X140161886Y-78550265D01*
X140321177Y-78465123D01*
X140409671Y-78206876D01*
X139496800Y-77294005D01*
X138583929Y-78206876D01*
X134423077Y-78206876D01*
X134455477Y-78185227D01*
X134674827Y-77965877D01*
X134847170Y-77707948D01*
X134965882Y-77421352D01*
X135014013Y-77179377D01*
X137915716Y-77179377D01*
X137958773Y-77486584D01*
X138060935Y-77779486D01*
X138146077Y-77938777D01*
X138404324Y-78027271D01*
X139317195Y-77114400D01*
X139676405Y-77114400D01*
X140589276Y-78027271D01*
X140847523Y-77938777D01*
X140982397Y-77659424D01*
X141060181Y-77359125D01*
X141077884Y-77049423D01*
X141034827Y-76742216D01*
X140932665Y-76449314D01*
X140847523Y-76290023D01*
X140589276Y-76201529D01*
X139676405Y-77114400D01*
X139317195Y-77114400D01*
X138404324Y-76201529D01*
X138146077Y-76290023D01*
X138011203Y-76569376D01*
X137933419Y-76869675D01*
X137915716Y-77179377D01*
X135014013Y-77179377D01*
X135026400Y-77117104D01*
X135026400Y-76806896D01*
X134965882Y-76502648D01*
X134847170Y-76216052D01*
X134717458Y-76021924D01*
X138583929Y-76021924D01*
X139496800Y-76934795D01*
X140409671Y-76021924D01*
X140321177Y-75763677D01*
X140041824Y-75628803D01*
X139741525Y-75551019D01*
X139431823Y-75533316D01*
X139124616Y-75576373D01*
X138831714Y-75678535D01*
X138672423Y-75763677D01*
X138583929Y-76021924D01*
X134717458Y-76021924D01*
X134674827Y-75958123D01*
X134586600Y-75869896D01*
X134586600Y-71585951D01*
X134589274Y-71558800D01*
X139207328Y-71558800D01*
X139219588Y-71683282D01*
X139255898Y-71802980D01*
X139314863Y-71913294D01*
X139394215Y-72009985D01*
X139490906Y-72089337D01*
X139601220Y-72148302D01*
X139720918Y-72184612D01*
X139845400Y-72196872D01*
X140709650Y-72193800D01*
X140868400Y-72035050D01*
X140868400Y-70535800D01*
X141122400Y-70535800D01*
X141122400Y-72035050D01*
X141281150Y-72193800D01*
X142145400Y-72196872D01*
X142269882Y-72184612D01*
X142389580Y-72148302D01*
X142499894Y-72089337D01*
X142596585Y-72009985D01*
X142675937Y-71913294D01*
X142734902Y-71802980D01*
X142771212Y-71683282D01*
X142783472Y-71558800D01*
X142780400Y-70694550D01*
X142621650Y-70535800D01*
X141122400Y-70535800D01*
X140868400Y-70535800D01*
X139369150Y-70535800D01*
X139210400Y-70694550D01*
X139207328Y-71558800D01*
X134589274Y-71558800D01*
X134592091Y-71530199D01*
X134570177Y-71307701D01*
X134505276Y-71093753D01*
X134477839Y-71042422D01*
X134399884Y-70896577D01*
X134258049Y-70723751D01*
X134214740Y-70688208D01*
X134114526Y-70587994D01*
X134115200Y-70584607D01*
X134115200Y-70232993D01*
X134046604Y-69888135D01*
X133912047Y-69563285D01*
X133716700Y-69270929D01*
X133704571Y-69258800D01*
X139207328Y-69258800D01*
X139210400Y-70123050D01*
X139369150Y-70281800D01*
X140868400Y-70281800D01*
X140868400Y-68782550D01*
X141122400Y-68782550D01*
X141122400Y-70281800D01*
X142621650Y-70281800D01*
X142670457Y-70232993D01*
X144210400Y-70232993D01*
X144210400Y-70584607D01*
X144278996Y-70929465D01*
X144413553Y-71254315D01*
X144608900Y-71546671D01*
X144857529Y-71795300D01*
X144860400Y-71797219D01*
X144860401Y-75937239D01*
X144854909Y-75993000D01*
X144876823Y-76215498D01*
X144941724Y-76429446D01*
X144941725Y-76429447D01*
X145047117Y-76626623D01*
X145188952Y-76799449D01*
X145232260Y-76834991D01*
X145542000Y-77144731D01*
X145542000Y-77269504D01*
X145602518Y-77573752D01*
X145721230Y-77860348D01*
X145893573Y-78118277D01*
X145981800Y-78206504D01*
X145981801Y-79832295D01*
X145893573Y-79920523D01*
X145721230Y-80178452D01*
X145602518Y-80465048D01*
X145542000Y-80769296D01*
X145542000Y-81079504D01*
X145602518Y-81383752D01*
X145721230Y-81670348D01*
X145893573Y-81928277D01*
X146112923Y-82147627D01*
X146370852Y-82319970D01*
X146657448Y-82438682D01*
X146961696Y-82499200D01*
X147271904Y-82499200D01*
X147576152Y-82438682D01*
X147862748Y-82319970D01*
X148120677Y-82147627D01*
X148340027Y-81928277D01*
X148512370Y-81670348D01*
X148631082Y-81383752D01*
X148691600Y-81079504D01*
X148691600Y-80769296D01*
X148631082Y-80465048D01*
X148512370Y-80178452D01*
X148340027Y-79920523D01*
X148251800Y-79832296D01*
X148251800Y-78206504D01*
X148340027Y-78118277D01*
X148512370Y-77860348D01*
X148631082Y-77573752D01*
X148691600Y-77269504D01*
X148691600Y-76959296D01*
X148631082Y-76655048D01*
X148512370Y-76368452D01*
X148340027Y-76110523D01*
X148120677Y-75891173D01*
X147862748Y-75718830D01*
X147576152Y-75600118D01*
X147271904Y-75539600D01*
X147147131Y-75539600D01*
X147130400Y-75522869D01*
X147130400Y-71797218D01*
X147133271Y-71795300D01*
X147381900Y-71546671D01*
X147577247Y-71254315D01*
X147711804Y-70929465D01*
X147780400Y-70584607D01*
X147780400Y-70232993D01*
X147711804Y-69888135D01*
X147577247Y-69563285D01*
X147381900Y-69270929D01*
X147133271Y-69022300D01*
X146932406Y-68888085D01*
X165837000Y-68888085D01*
X165837000Y-69643515D01*
X165984377Y-70384428D01*
X166273467Y-71082354D01*
X166693161Y-71710470D01*
X167227330Y-72244639D01*
X167855446Y-72664333D01*
X168553372Y-72953423D01*
X169294285Y-73100800D01*
X170049715Y-73100800D01*
X170790628Y-72953423D01*
X171488554Y-72664333D01*
X172116670Y-72244639D01*
X172650839Y-71710470D01*
X173070533Y-71082354D01*
X173359623Y-70384428D01*
X173507000Y-69643515D01*
X173507000Y-68888085D01*
X173359623Y-68147172D01*
X173070533Y-67449246D01*
X172650839Y-66821130D01*
X172116670Y-66286961D01*
X171488554Y-65867267D01*
X170790628Y-65578177D01*
X170049715Y-65430800D01*
X169294285Y-65430800D01*
X168553372Y-65578177D01*
X167855446Y-65867267D01*
X167227330Y-66286961D01*
X166693161Y-66821130D01*
X166273467Y-67449246D01*
X165984377Y-68147172D01*
X165837000Y-68888085D01*
X146932406Y-68888085D01*
X146840915Y-68826953D01*
X146516065Y-68692396D01*
X146171207Y-68623800D01*
X145819593Y-68623800D01*
X145474735Y-68692396D01*
X145149885Y-68826953D01*
X144857529Y-69022300D01*
X144608900Y-69270929D01*
X144413553Y-69563285D01*
X144278996Y-69888135D01*
X144210400Y-70232993D01*
X142670457Y-70232993D01*
X142780400Y-70123050D01*
X142783472Y-69258800D01*
X142771212Y-69134318D01*
X142734902Y-69014620D01*
X142675937Y-68904306D01*
X142596585Y-68807615D01*
X142499894Y-68728263D01*
X142389580Y-68669298D01*
X142269882Y-68632988D01*
X142145400Y-68620728D01*
X141281150Y-68623800D01*
X141122400Y-68782550D01*
X140868400Y-68782550D01*
X140709650Y-68623800D01*
X139845400Y-68620728D01*
X139720918Y-68632988D01*
X139601220Y-68669298D01*
X139490906Y-68728263D01*
X139394215Y-68807615D01*
X139314863Y-68904306D01*
X139255898Y-69014620D01*
X139219588Y-69134318D01*
X139207328Y-69258800D01*
X133704571Y-69258800D01*
X133468071Y-69022300D01*
X133175715Y-68826953D01*
X132850865Y-68692396D01*
X132506007Y-68623800D01*
X132154393Y-68623800D01*
X131809535Y-68692396D01*
X131484685Y-68826953D01*
X131192329Y-69022300D01*
X130943700Y-69270929D01*
X130748353Y-69563285D01*
X130613796Y-69888135D01*
X130545200Y-70232993D01*
X130545200Y-70584607D01*
X130613796Y-70929465D01*
X130748353Y-71254315D01*
X130943700Y-71546671D01*
X131192329Y-71795300D01*
X131484685Y-71990647D01*
X131809535Y-72125204D01*
X132154393Y-72193800D01*
X132316601Y-72193800D01*
X132316600Y-75869896D01*
X132228373Y-75958123D01*
X132056030Y-76216052D01*
X131937318Y-76502648D01*
X131884776Y-76766800D01*
X131119749Y-76766801D01*
X131063999Y-76761310D01*
X130841500Y-76783224D01*
X130627552Y-76848125D01*
X130430376Y-76953517D01*
X130300856Y-77059812D01*
X130300854Y-77059814D01*
X130257551Y-77095352D01*
X130222013Y-77138655D01*
X128511068Y-78849601D01*
X126827140Y-78849601D01*
X126771398Y-78844111D01*
X126715656Y-78849601D01*
X126715647Y-78849601D01*
X126548900Y-78866024D01*
X126334952Y-78930925D01*
X126137776Y-79036317D01*
X125964950Y-79178152D01*
X125929410Y-79221458D01*
X125801268Y-79349600D01*
X125676496Y-79349600D01*
X125372248Y-79410118D01*
X125085652Y-79528830D01*
X124827723Y-79701173D01*
X124608373Y-79920523D01*
X124436030Y-80178452D01*
X124317318Y-80465048D01*
X124256800Y-80769296D01*
X105180600Y-80769296D01*
X105180600Y-78054476D01*
X124918729Y-78054476D01*
X125007223Y-78312723D01*
X125286576Y-78447597D01*
X125586875Y-78525381D01*
X125896577Y-78543084D01*
X126203784Y-78500027D01*
X126496686Y-78397865D01*
X126655977Y-78312723D01*
X126744471Y-78054476D01*
X125831600Y-77141605D01*
X124918729Y-78054476D01*
X105180600Y-78054476D01*
X105180600Y-77026977D01*
X124250516Y-77026977D01*
X124293573Y-77334184D01*
X124395735Y-77627086D01*
X124480877Y-77786377D01*
X124739124Y-77874871D01*
X125651995Y-76962000D01*
X126011205Y-76962000D01*
X126924076Y-77874871D01*
X127182323Y-77786377D01*
X127317197Y-77507024D01*
X127394981Y-77206725D01*
X127412684Y-76897023D01*
X127369627Y-76589816D01*
X127267465Y-76296914D01*
X127182323Y-76137623D01*
X126924076Y-76049129D01*
X126011205Y-76962000D01*
X125651995Y-76962000D01*
X124739124Y-76049129D01*
X124480877Y-76137623D01*
X124346003Y-76416976D01*
X124268219Y-76717275D01*
X124250516Y-77026977D01*
X105180600Y-77026977D01*
X105180600Y-75869524D01*
X124918729Y-75869524D01*
X125831600Y-76782395D01*
X126744471Y-75869524D01*
X126655977Y-75611277D01*
X126376624Y-75476403D01*
X126076325Y-75398619D01*
X125766623Y-75380916D01*
X125459416Y-75423973D01*
X125166514Y-75526135D01*
X125007223Y-75611277D01*
X124918729Y-75869524D01*
X105180600Y-75869524D01*
X105180600Y-68913485D01*
X106832800Y-68913485D01*
X106832800Y-69668915D01*
X106980177Y-70409828D01*
X107269267Y-71107754D01*
X107688961Y-71735870D01*
X108223130Y-72270039D01*
X108851246Y-72689733D01*
X109549172Y-72978823D01*
X110290085Y-73126200D01*
X111045515Y-73126200D01*
X111786428Y-72978823D01*
X112484354Y-72689733D01*
X113112470Y-72270039D01*
X113646639Y-71735870D01*
X113764953Y-71558800D01*
X125542128Y-71558800D01*
X125554388Y-71683282D01*
X125590698Y-71802980D01*
X125649663Y-71913294D01*
X125729015Y-72009985D01*
X125825706Y-72089337D01*
X125936020Y-72148302D01*
X126055718Y-72184612D01*
X126180200Y-72196872D01*
X127044450Y-72193800D01*
X127203200Y-72035050D01*
X127203200Y-70535800D01*
X127457200Y-70535800D01*
X127457200Y-72035050D01*
X127615950Y-72193800D01*
X128480200Y-72196872D01*
X128604682Y-72184612D01*
X128724380Y-72148302D01*
X128834694Y-72089337D01*
X128931385Y-72009985D01*
X129010737Y-71913294D01*
X129069702Y-71802980D01*
X129106012Y-71683282D01*
X129118272Y-71558800D01*
X129115200Y-70694550D01*
X128956450Y-70535800D01*
X127457200Y-70535800D01*
X127203200Y-70535800D01*
X125703950Y-70535800D01*
X125545200Y-70694550D01*
X125542128Y-71558800D01*
X113764953Y-71558800D01*
X114066333Y-71107754D01*
X114355423Y-70409828D01*
X114502800Y-69668915D01*
X114502800Y-69258800D01*
X125542128Y-69258800D01*
X125545200Y-70123050D01*
X125703950Y-70281800D01*
X127203200Y-70281800D01*
X127203200Y-68782550D01*
X127457200Y-68782550D01*
X127457200Y-70281800D01*
X128956450Y-70281800D01*
X129115200Y-70123050D01*
X129118272Y-69258800D01*
X129106012Y-69134318D01*
X129069702Y-69014620D01*
X129010737Y-68904306D01*
X128931385Y-68807615D01*
X128834694Y-68728263D01*
X128724380Y-68669298D01*
X128604682Y-68632988D01*
X128480200Y-68620728D01*
X127615950Y-68623800D01*
X127457200Y-68782550D01*
X127203200Y-68782550D01*
X127044450Y-68623800D01*
X126180200Y-68620728D01*
X126055718Y-68632988D01*
X125936020Y-68669298D01*
X125825706Y-68728263D01*
X125729015Y-68807615D01*
X125649663Y-68904306D01*
X125590698Y-69014620D01*
X125554388Y-69134318D01*
X125542128Y-69258800D01*
X114502800Y-69258800D01*
X114502800Y-68913485D01*
X114355423Y-68172572D01*
X114066333Y-67474646D01*
X113646639Y-66846530D01*
X113112470Y-66312361D01*
X112484354Y-65892667D01*
X111786428Y-65603577D01*
X111045515Y-65456200D01*
X110290085Y-65456200D01*
X109549172Y-65603577D01*
X108851246Y-65892667D01*
X108223130Y-66312361D01*
X107688961Y-66846530D01*
X107269267Y-67474646D01*
X106980177Y-68172572D01*
X106832800Y-68913485D01*
X105180600Y-68913485D01*
X105180600Y-64261200D01*
X124219629Y-64261200D01*
X124219629Y-67104800D01*
X124219629Y-67104800D01*
G37*
X124219629Y-67104800D02*
X127646772Y-67104800D01*
X127646772Y-67028600D01*
X132269429Y-67028600D01*
X132269429Y-64261200D01*
X132296829Y-64261200D01*
X132296829Y-66825400D01*
X135723972Y-66825400D01*
X135723972Y-64261200D01*
X138291229Y-64261200D01*
X138291229Y-66901600D01*
X140882172Y-66901600D01*
X140882172Y-67104800D01*
X146595029Y-67104800D01*
X146595029Y-66952400D01*
X149973372Y-66952400D01*
X149973372Y-64261200D01*
X175286200Y-64261200D01*
X175286201Y-118390200D01*
X105180600Y-118390200D01*
X105180600Y-112677685D01*
X106883600Y-112677685D01*
X106883600Y-113433115D01*
X107030977Y-114174028D01*
X107320067Y-114871954D01*
X107739761Y-115500070D01*
X108273930Y-116034239D01*
X108902046Y-116453933D01*
X109599972Y-116743023D01*
X110340885Y-116890400D01*
X111096315Y-116890400D01*
X111837228Y-116743023D01*
X112535154Y-116453933D01*
X113163270Y-116034239D01*
X113697439Y-115500070D01*
X114117133Y-114871954D01*
X114406223Y-114174028D01*
X114553600Y-113433115D01*
X114553600Y-112677685D01*
X114406223Y-111936772D01*
X114117133Y-111238846D01*
X113697439Y-110610730D01*
X113163270Y-110076561D01*
X112535154Y-109656867D01*
X111837228Y-109367777D01*
X111096315Y-109220400D01*
X110340885Y-109220400D01*
X109599972Y-109367777D01*
X108902046Y-109656867D01*
X108273930Y-110076561D01*
X107739761Y-110610730D01*
X107320067Y-111238846D01*
X107030977Y-111936772D01*
X106883600Y-112677685D01*
X105180600Y-112677685D01*
X105180600Y-102771257D01*
X108063600Y-102771257D01*
X108063600Y-96415543D01*
X105180600Y-96415543D01*
X105180600Y-96184029D01*
X107835000Y-96184029D01*
X107835000Y-93522800D01*
X108079509Y-93522800D01*
X108085001Y-93578561D01*
X108085000Y-98231648D01*
X108079509Y-98287400D01*
X108085000Y-98343151D01*
X108101423Y-98509898D01*
X108166324Y-98723846D01*
X108271716Y-98921023D01*
X108413551Y-99093849D01*
X108456864Y-99129395D01*
X109303013Y-99975545D01*
X109338551Y-100018849D01*
X109381854Y-100054387D01*
X109381856Y-100054389D01*
X109511377Y-100160684D01*
X109708553Y-100266076D01*
X109922501Y-100330977D01*
X110145000Y-100352891D01*
X110200752Y-100347400D01*
X110506928Y-100347400D01*
X110506928Y-100462400D01*
X110519188Y-100586882D01*
X110555498Y-100706580D01*
X110614463Y-100816894D01*
X110693815Y-100913585D01*
X110790506Y-100992937D01*
X110900820Y-101051902D01*
X111020518Y-101088212D01*
X111145000Y-101100472D01*
X113645000Y-101100472D01*
X113769482Y-101088212D01*
X113889180Y-101051902D01*
X113999494Y-100992937D01*
X114096185Y-100913585D01*
X114175537Y-100816894D01*
X114234502Y-100706580D01*
X114270812Y-100586882D01*
X114283072Y-100462400D01*
X114283072Y-97962400D01*
X114270812Y-97837918D01*
X114234502Y-97718220D01*
X114175537Y-97607906D01*
X114096185Y-97511215D01*
X113999494Y-97431863D01*
X113889180Y-97372898D01*
X113769482Y-97336588D01*
X113645000Y-97324328D01*
X111145000Y-97324328D01*
X111020518Y-97336588D01*
X110900820Y-97372898D01*
X110790506Y-97431863D01*
X110693815Y-97511215D01*
X110614463Y-97607906D01*
X110555498Y-97718220D01*
X110519188Y-97837918D01*
X110506928Y-97962400D01*
X110506928Y-97969196D01*
X110355000Y-97817268D01*
X110355000Y-93992931D01*
X110556882Y-93791049D01*
X110510000Y-94026744D01*
X110510000Y-94398056D01*
X110582439Y-94762234D01*
X110724534Y-95105282D01*
X110930825Y-95414018D01*
X111193382Y-95676575D01*
X111502118Y-95882866D01*
X111845166Y-96024961D01*
X112209344Y-96097400D01*
X112580656Y-96097400D01*
X112659237Y-96081769D01*
X112803012Y-96225545D01*
X112838550Y-96268848D01*
X112881853Y-96304386D01*
X112881855Y-96304388D01*
X113011376Y-96410683D01*
X113208552Y-96516075D01*
X113422500Y-96580976D01*
X113644999Y-96602890D01*
X113700751Y-96597399D01*
X115820267Y-96597399D01*
X116379013Y-97156145D01*
X116414551Y-97199449D01*
X116457854Y-97234987D01*
X116457856Y-97234989D01*
X116587377Y-97341284D01*
X116784553Y-97446676D01*
X116998501Y-97511577D01*
X117221000Y-97533491D01*
X117276752Y-97528000D01*
X119220050Y-97528000D01*
X119214175Y-97533875D01*
X119029772Y-97809853D01*
X118902754Y-98116504D01*
X118838000Y-98442042D01*
X118838000Y-98773958D01*
X118902754Y-99099496D01*
X119029772Y-99406147D01*
X119214175Y-99682125D01*
X119388000Y-99855950D01*
X119388000Y-100037173D01*
X119382509Y-100092924D01*
X119388000Y-100148675D01*
X119388000Y-100148676D01*
X119404423Y-100315423D01*
X119415789Y-100352891D01*
X119469324Y-100529370D01*
X119469325Y-100529371D01*
X119574717Y-100726547D01*
X119716552Y-100899373D01*
X119759860Y-100934915D01*
X119841880Y-101016935D01*
X119877427Y-101060249D01*
X120050253Y-101202084D01*
X120247429Y-101307476D01*
X120461377Y-101372377D01*
X120628124Y-101388800D01*
X120683875Y-101394291D01*
X120739627Y-101388800D01*
X122092390Y-101388800D01*
X122149248Y-101394400D01*
X122149249Y-101394400D01*
X122205000Y-101399891D01*
X122260752Y-101394400D01*
X126632712Y-101394400D01*
X126677225Y-101461018D01*
X126889821Y-101673614D01*
X126363864Y-102199570D01*
X126320551Y-102235117D01*
X126178716Y-102407943D01*
X126073325Y-102605119D01*
X126073324Y-102605120D01*
X126008423Y-102819068D01*
X125986509Y-103041566D01*
X125992000Y-103097318D01*
X125992001Y-113406039D01*
X125986509Y-113461800D01*
X126008423Y-113684298D01*
X126073324Y-113898246D01*
X126073325Y-113898247D01*
X126178717Y-114095423D01*
X126320552Y-114268249D01*
X126363860Y-114303791D01*
X128545619Y-116485551D01*
X128581152Y-116528848D01*
X128624449Y-116564381D01*
X128624456Y-116564388D01*
X128753977Y-116670683D01*
X128859370Y-116727016D01*
X128951154Y-116776076D01*
X129065509Y-116810766D01*
X129165100Y-116840977D01*
X129204999Y-116844906D01*
X129387600Y-116862891D01*
X129610098Y-116840977D01*
X129824046Y-116776076D01*
X129861980Y-116755800D01*
X132151249Y-116755800D01*
X132207000Y-116761291D01*
X132262751Y-116755800D01*
X132262752Y-116755800D01*
X132429499Y-116739377D01*
X132643447Y-116674476D01*
X132840623Y-116569084D01*
X133013449Y-116427249D01*
X133048996Y-116383935D01*
X134214740Y-115218192D01*
X134258049Y-115182649D01*
X134399884Y-115009823D01*
X134505276Y-114812647D01*
X134555071Y-114648495D01*
X134570177Y-114598700D01*
X134576136Y-114538195D01*
X134586600Y-114431952D01*
X134586600Y-114431945D01*
X134592090Y-114376201D01*
X134586600Y-114320457D01*
X134586600Y-112077731D01*
X135140932Y-111523400D01*
X147416649Y-111523400D01*
X147472400Y-111528891D01*
X147528151Y-111523400D01*
X147528152Y-111523400D01*
X147694899Y-111506977D01*
X147908847Y-111442076D01*
X148106023Y-111336684D01*
X148278849Y-111194849D01*
X148314396Y-111151535D01*
X152401141Y-107064791D01*
X152444449Y-107029249D01*
X152586284Y-106856423D01*
X152691676Y-106659247D01*
X152756577Y-106445299D01*
X152773000Y-106278552D01*
X152773000Y-106278551D01*
X152778491Y-106222801D01*
X152773000Y-106167049D01*
X152773000Y-98038701D01*
X152839185Y-97984385D01*
X152918537Y-97887694D01*
X152977502Y-97777380D01*
X153013812Y-97657682D01*
X153026072Y-97533200D01*
X153026072Y-96033200D01*
X153013812Y-95908718D01*
X152977502Y-95789020D01*
X152918537Y-95678706D01*
X152839185Y-95582015D01*
X152742494Y-95502663D01*
X152632180Y-95443698D01*
X152512482Y-95407388D01*
X152388000Y-95395128D01*
X152317155Y-95395128D01*
X152432286Y-95318200D01*
X153627200Y-95318200D01*
X153627200Y-95930848D01*
X153621709Y-95986600D01*
X153627200Y-96042351D01*
X153627201Y-96042361D01*
X153627200Y-107530668D01*
X149288269Y-111869600D01*
X136808087Y-111869600D01*
X136709633Y-111803815D01*
X136463039Y-111701672D01*
X136201256Y-111649600D01*
X135934344Y-111649600D01*
X135672561Y-111701672D01*
X135425967Y-111803815D01*
X135204038Y-111952103D01*
X135015303Y-112140838D01*
X134867015Y-112362767D01*
X134764872Y-112609361D01*
X134712800Y-112871144D01*
X134712800Y-113138056D01*
X134764872Y-113399839D01*
X134867015Y-113646433D01*
X135015303Y-113868362D01*
X135204038Y-114057097D01*
X135425967Y-114205385D01*
X135672561Y-114307528D01*
X135934344Y-114359600D01*
X136201256Y-114359600D01*
X136463039Y-114307528D01*
X136709633Y-114205385D01*
X136808087Y-114139600D01*
X149702649Y-114139600D01*
X149758400Y-114145091D01*
X149814151Y-114139600D01*
X149814152Y-114139600D01*
X149980899Y-114123177D01*
X150194847Y-114058276D01*
X150392023Y-113952884D01*
X150564849Y-113811049D01*
X150600396Y-113767735D01*
X151690446Y-112677685D01*
X165913200Y-112677685D01*
X165913200Y-113433115D01*
X166060577Y-114174028D01*
X166349667Y-114871954D01*
X166769361Y-115500070D01*
X167303530Y-116034239D01*
X167931646Y-116453933D01*
X168629572Y-116743023D01*
X169370485Y-116890400D01*
X170125915Y-116890400D01*
X170866828Y-116743023D01*
X171564754Y-116453933D01*
X172192870Y-116034239D01*
X172727039Y-115500070D01*
X173146733Y-114871954D01*
X173435823Y-114174028D01*
X173583200Y-113433115D01*
X173583200Y-112677685D01*
X173435823Y-111936772D01*
X173146733Y-111238846D01*
X172727039Y-110610730D01*
X172192870Y-110076561D01*
X171564754Y-109656867D01*
X170866828Y-109367777D01*
X170125915Y-109220400D01*
X169370485Y-109220400D01*
X168629572Y-109367777D01*
X167931646Y-109656867D01*
X167303530Y-110076561D01*
X166769361Y-110610730D01*
X166349667Y-111238846D01*
X166060577Y-111936772D01*
X165913200Y-112677685D01*
X151690446Y-112677685D01*
X155525341Y-108842791D01*
X155568649Y-108807249D01*
X155710484Y-108634423D01*
X155815876Y-108437247D01*
X155880777Y-108223299D01*
X155897200Y-108056552D01*
X155897200Y-108056551D01*
X155902691Y-108000800D01*
X155897200Y-107945048D01*
X155897200Y-97037780D01*
X166259781Y-97037780D01*
X166269090Y-97047089D01*
X166510378Y-97208313D01*
X166778483Y-97319366D01*
X167063102Y-97375980D01*
X167353298Y-97375980D01*
X167637917Y-97319366D01*
X167906022Y-97208313D01*
X168147310Y-97047089D01*
X168352509Y-96841890D01*
X168513733Y-96600602D01*
X168624786Y-96332497D01*
X168681400Y-96047878D01*
X168681400Y-95757682D01*
X168624786Y-95473063D01*
X168513733Y-95204958D01*
X168352509Y-94963670D01*
X168147310Y-94758471D01*
X167906022Y-94597247D01*
X167637917Y-94486194D01*
X167353298Y-94429580D01*
X167063102Y-94429580D01*
X166778483Y-94486194D01*
X166510378Y-94597247D01*
X166269090Y-94758471D01*
X166259781Y-94767780D01*
X155897725Y-94767780D01*
X155880777Y-94595701D01*
X155815876Y-94381753D01*
X155710484Y-94184577D01*
X155604189Y-94055057D01*
X155568649Y-94011751D01*
X155525340Y-93976208D01*
X154969195Y-93420064D01*
X154933649Y-93376751D01*
X154760823Y-93234916D01*
X154563647Y-93129524D01*
X154349699Y-93064623D01*
X154182952Y-93048200D01*
X154182951Y-93048200D01*
X154127200Y-93042709D01*
X154071449Y-93048200D01*
X152432286Y-93048200D01*
X152294043Y-92955829D01*
X152117345Y-92882639D01*
X152236832Y-92839477D01*
X152349863Y-92779060D01*
X152415388Y-92540193D01*
X151638000Y-91762805D01*
X150860612Y-92540193D01*
X150926137Y-92779060D01*
X151152390Y-92885234D01*
X150981957Y-92955829D01*
X150755114Y-93107401D01*
X150562201Y-93300314D01*
X150410629Y-93527157D01*
X150306225Y-93779211D01*
X150253000Y-94046789D01*
X150253000Y-94319611D01*
X150306225Y-94587189D01*
X150410629Y-94839243D01*
X150562201Y-95066086D01*
X150755114Y-95258999D01*
X150958845Y-95395128D01*
X150888000Y-95395128D01*
X150763518Y-95407388D01*
X150643820Y-95443698D01*
X150533506Y-95502663D01*
X150436815Y-95582015D01*
X150357463Y-95678706D01*
X150298498Y-95789020D01*
X150262188Y-95908718D01*
X150249928Y-96033200D01*
X150249928Y-97533200D01*
X150262188Y-97657682D01*
X150298498Y-97777380D01*
X150357463Y-97887694D01*
X150436815Y-97984385D01*
X150503001Y-98038702D01*
X150503000Y-105752668D01*
X147002269Y-109253400D01*
X134726551Y-109253400D01*
X134670799Y-109247909D01*
X134615048Y-109253400D01*
X134448301Y-109269823D01*
X134234353Y-109334724D01*
X134037177Y-109440116D01*
X133864351Y-109581951D01*
X133828811Y-109625257D01*
X132986349Y-110467720D01*
X132817977Y-110557716D01*
X132645151Y-110699551D01*
X132503316Y-110872377D01*
X132397924Y-111069553D01*
X132333023Y-111283501D01*
X132311109Y-111506000D01*
X132316601Y-111561761D01*
X132316601Y-112730534D01*
X132306863Y-112667099D01*
X132215675Y-112416247D01*
X132159168Y-112310532D01*
X131923360Y-112248645D01*
X131167405Y-113004600D01*
X131923360Y-113760555D01*
X132159168Y-113698668D01*
X132272066Y-113456810D01*
X132316600Y-113275128D01*
X132316600Y-113906068D01*
X131736869Y-114485800D01*
X129756132Y-114485800D01*
X129210492Y-113940160D01*
X130231845Y-113940160D01*
X130293732Y-114175968D01*
X130535590Y-114288866D01*
X130794827Y-114352411D01*
X131061480Y-114364161D01*
X131325301Y-114323663D01*
X131576153Y-114232475D01*
X131681868Y-114175968D01*
X131743755Y-113940160D01*
X130987800Y-113184205D01*
X130231845Y-113940160D01*
X129210492Y-113940160D01*
X128348612Y-113078280D01*
X129628239Y-113078280D01*
X129668737Y-113342101D01*
X129759925Y-113592953D01*
X129816432Y-113698668D01*
X130052240Y-113760555D01*
X130808195Y-113004600D01*
X130052240Y-112248645D01*
X129816432Y-112310532D01*
X129703534Y-112552390D01*
X129639989Y-112811627D01*
X129628239Y-113078280D01*
X128348612Y-113078280D01*
X128262000Y-112991669D01*
X128262000Y-112069040D01*
X130231845Y-112069040D01*
X130987800Y-112824995D01*
X131743755Y-112069040D01*
X131681868Y-111833232D01*
X131440010Y-111720334D01*
X131180773Y-111656789D01*
X130914120Y-111645039D01*
X130650299Y-111685537D01*
X130399447Y-111776725D01*
X130293732Y-111833232D01*
X130231845Y-112069040D01*
X128262000Y-112069040D01*
X128262000Y-108860160D01*
X132771845Y-108860160D01*
X132833732Y-109095968D01*
X133075590Y-109208866D01*
X133334827Y-109272411D01*
X133601480Y-109284161D01*
X133865301Y-109243663D01*
X134116153Y-109152475D01*
X134221868Y-109095968D01*
X134283755Y-108860160D01*
X133527800Y-108104205D01*
X132771845Y-108860160D01*
X128262000Y-108860160D01*
X128262000Y-107998280D01*
X132168239Y-107998280D01*
X132208737Y-108262101D01*
X132299925Y-108512953D01*
X132356432Y-108618668D01*
X132592240Y-108680555D01*
X133348195Y-107924600D01*
X133707405Y-107924600D01*
X134463360Y-108680555D01*
X134699168Y-108618668D01*
X134812066Y-108376810D01*
X134875611Y-108117573D01*
X134887361Y-107850920D01*
X134846863Y-107587099D01*
X134755675Y-107336247D01*
X134699168Y-107230532D01*
X134463360Y-107168645D01*
X133707405Y-107924600D01*
X133348195Y-107924600D01*
X132592240Y-107168645D01*
X132356432Y-107230532D01*
X132243534Y-107472390D01*
X132179989Y-107731627D01*
X132168239Y-107998280D01*
X128262000Y-107998280D01*
X128262000Y-106989040D01*
X132771845Y-106989040D01*
X133527800Y-107744995D01*
X134283755Y-106989040D01*
X134221868Y-106753232D01*
X133980010Y-106640334D01*
X133720773Y-106576789D01*
X133454120Y-106565039D01*
X133190299Y-106605537D01*
X132939447Y-106696725D01*
X132833732Y-106753232D01*
X132771845Y-106989040D01*
X128262000Y-106989040D01*
X128262000Y-103511697D01*
X128904540Y-102869158D01*
X128947849Y-102833615D01*
X129089684Y-102660789D01*
X129195076Y-102463613D01*
X129259977Y-102249665D01*
X129276400Y-102082918D01*
X129276400Y-102082909D01*
X129281890Y-102027167D01*
X129276400Y-101971425D01*
X129276400Y-101768088D01*
X129343018Y-101723575D01*
X129605575Y-101461018D01*
X129811866Y-101152282D01*
X129953961Y-100809234D01*
X130026400Y-100445056D01*
X130026400Y-100073744D01*
X129953961Y-99709566D01*
X129811866Y-99366518D01*
X129605575Y-99057782D01*
X129343018Y-98795225D01*
X129081075Y-98620200D01*
X137097069Y-98620200D01*
X138259423Y-99782555D01*
X138206400Y-100049121D01*
X138206400Y-100469679D01*
X138288447Y-100882156D01*
X138449388Y-101270702D01*
X138683037Y-101620383D01*
X138980417Y-101917763D01*
X139330098Y-102151412D01*
X139718644Y-102312353D01*
X140131121Y-102394400D01*
X140551679Y-102394400D01*
X140964156Y-102312353D01*
X141352702Y-102151412D01*
X141702383Y-101917763D01*
X141999763Y-101620383D01*
X142233412Y-101270702D01*
X142394353Y-100882156D01*
X142476400Y-100469679D01*
X142476400Y-100049121D01*
X142394353Y-99636644D01*
X142233412Y-99248098D01*
X141999763Y-98898417D01*
X141702383Y-98601037D01*
X141352702Y-98367388D01*
X140964156Y-98206447D01*
X140551679Y-98124400D01*
X140131121Y-98124400D01*
X139864555Y-98177423D01*
X138409196Y-96722065D01*
X138373649Y-96678751D01*
X138200823Y-96536916D01*
X138003647Y-96431524D01*
X137789699Y-96366623D01*
X137622952Y-96350200D01*
X137622951Y-96350200D01*
X137567200Y-96344709D01*
X137511449Y-96350200D01*
X124320532Y-96350200D01*
X123600196Y-95629864D01*
X123564649Y-95586551D01*
X123391823Y-95444716D01*
X123204144Y-95344400D01*
X124382040Y-95344400D01*
X124533037Y-95570383D01*
X124830417Y-95867763D01*
X125180098Y-96101412D01*
X125568644Y-96262353D01*
X125981121Y-96344400D01*
X126401679Y-96344400D01*
X126814156Y-96262353D01*
X127202702Y-96101412D01*
X127552383Y-95867763D01*
X127849763Y-95570383D01*
X128083412Y-95220702D01*
X128244353Y-94832156D01*
X128326400Y-94419679D01*
X128326400Y-93999121D01*
X128244353Y-93586644D01*
X128083412Y-93198098D01*
X127849763Y-92848417D01*
X127552383Y-92551037D01*
X127202702Y-92317388D01*
X126814156Y-92156447D01*
X126492171Y-92092400D01*
X133980049Y-92092400D01*
X134035800Y-92097891D01*
X134091551Y-92092400D01*
X134091552Y-92092400D01*
X134258299Y-92075977D01*
X134472247Y-92011076D01*
X134669423Y-91905684D01*
X134842249Y-91763849D01*
X134877796Y-91720535D01*
X134942639Y-91655692D01*
X150248188Y-91655692D01*
X150289035Y-91925438D01*
X150381723Y-92182032D01*
X150442140Y-92295063D01*
X150681007Y-92360588D01*
X151458395Y-91583200D01*
X151817605Y-91583200D01*
X152594993Y-92360588D01*
X152833860Y-92295063D01*
X152949760Y-92048084D01*
X153015250Y-91783240D01*
X153027812Y-91510708D01*
X152986965Y-91240962D01*
X152894277Y-90984368D01*
X152833860Y-90871337D01*
X152594993Y-90805812D01*
X151817605Y-91583200D01*
X151458395Y-91583200D01*
X150681007Y-90805812D01*
X150442140Y-90871337D01*
X150326240Y-91118316D01*
X150260750Y-91383160D01*
X150248188Y-91655692D01*
X134942639Y-91655692D01*
X135972124Y-90626207D01*
X150860612Y-90626207D01*
X151638000Y-91403595D01*
X152415388Y-90626207D01*
X152349863Y-90387340D01*
X152102884Y-90271440D01*
X151838040Y-90205950D01*
X151565508Y-90193388D01*
X151295762Y-90234235D01*
X151039168Y-90326923D01*
X150926137Y-90387340D01*
X150860612Y-90626207D01*
X135972124Y-90626207D01*
X137253932Y-89344400D01*
X138582040Y-89344400D01*
X138733037Y-89570383D01*
X139030417Y-89867763D01*
X139380098Y-90101412D01*
X139768644Y-90262353D01*
X140181121Y-90344400D01*
X140601679Y-90344400D01*
X141014156Y-90262353D01*
X141402702Y-90101412D01*
X141752383Y-89867763D01*
X142049763Y-89570383D01*
X142283412Y-89220702D01*
X142444353Y-88832156D01*
X142526400Y-88419679D01*
X142526400Y-87999121D01*
X142444353Y-87586644D01*
X142283412Y-87198098D01*
X142049763Y-86848417D01*
X141752383Y-86551037D01*
X141402702Y-86317388D01*
X141014156Y-86156447D01*
X140601679Y-86074400D01*
X140181121Y-86074400D01*
X139768644Y-86156447D01*
X139380098Y-86317388D01*
X139030417Y-86551037D01*
X138733037Y-86848417D01*
X138582040Y-87074400D01*
X136839552Y-87074400D01*
X136783800Y-87068909D01*
X136728048Y-87074400D01*
X136561301Y-87090823D01*
X136347353Y-87155724D01*
X136150177Y-87261116D01*
X135977351Y-87402951D01*
X135941809Y-87446259D01*
X133565669Y-89822400D01*
X129195116Y-89822400D01*
X129343018Y-89723575D01*
X129605575Y-89461018D01*
X129623886Y-89433613D01*
X129793867Y-89485177D01*
X129960614Y-89501600D01*
X129960615Y-89501600D01*
X130016366Y-89507091D01*
X130072118Y-89501600D01*
X131236849Y-89501600D01*
X131292600Y-89507091D01*
X131348351Y-89501600D01*
X131348352Y-89501600D01*
X131515099Y-89485177D01*
X131729047Y-89420276D01*
X131926223Y-89314884D01*
X132099049Y-89173049D01*
X132134596Y-89129735D01*
X133909940Y-87354391D01*
X133953249Y-87318849D01*
X134095084Y-87146023D01*
X134200476Y-86948847D01*
X134265377Y-86734899D01*
X134281800Y-86568152D01*
X134281800Y-86568151D01*
X134287291Y-86512400D01*
X134281800Y-86456648D01*
X134281800Y-85765908D01*
X134399884Y-85622023D01*
X134505276Y-85424847D01*
X134570177Y-85210899D01*
X134586600Y-85044152D01*
X134586600Y-85044143D01*
X134592090Y-84988401D01*
X134586600Y-84932659D01*
X134586600Y-82059400D01*
X138361800Y-82059400D01*
X138361800Y-82197726D01*
X138356309Y-82253477D01*
X138361800Y-82309228D01*
X138361800Y-82309229D01*
X138378223Y-82475976D01*
X138443124Y-82689924D01*
X138548517Y-82887100D01*
X138690352Y-83059926D01*
X138733660Y-83095468D01*
X143167732Y-87529541D01*
X143203274Y-87572849D01*
X143376100Y-87714684D01*
X143552885Y-87809177D01*
X143573276Y-87820076D01*
X143787224Y-87884977D01*
X144009723Y-87906891D01*
X144065474Y-87901400D01*
X165061669Y-87901400D01*
X166073200Y-88912933D01*
X166073201Y-90956400D01*
X166063891Y-90965710D01*
X165902667Y-91206998D01*
X165791614Y-91475103D01*
X165735000Y-91759722D01*
X165735000Y-92049918D01*
X165791614Y-92334537D01*
X165902667Y-92602642D01*
X166063891Y-92843930D01*
X166269090Y-93049129D01*
X166510378Y-93210353D01*
X166778483Y-93321406D01*
X167063102Y-93378020D01*
X167353298Y-93378020D01*
X167637917Y-93321406D01*
X167906022Y-93210353D01*
X168147310Y-93049129D01*
X168352509Y-92843930D01*
X168513733Y-92602642D01*
X168624786Y-92334537D01*
X168681400Y-92049918D01*
X168681400Y-91759722D01*
X168624786Y-91475103D01*
X168513733Y-91206998D01*
X168352509Y-90965710D01*
X168343200Y-90956401D01*
X168343200Y-88498552D01*
X168348691Y-88442800D01*
X168341562Y-88370412D01*
X168326777Y-88220301D01*
X168261876Y-88006353D01*
X168156484Y-87809177D01*
X168138903Y-87787754D01*
X168050189Y-87679656D01*
X168050187Y-87679654D01*
X168014649Y-87636351D01*
X167971346Y-87600813D01*
X166373795Y-86003264D01*
X166338249Y-85959951D01*
X166165423Y-85818116D01*
X165968247Y-85712724D01*
X165754299Y-85647823D01*
X165587552Y-85631400D01*
X165587551Y-85631400D01*
X165531800Y-85625909D01*
X165476049Y-85631400D01*
X144479855Y-85631400D01*
X140742740Y-81894285D01*
X140892370Y-81670348D01*
X141011082Y-81383752D01*
X141071600Y-81079504D01*
X141071600Y-80769296D01*
X141011082Y-80465048D01*
X140892370Y-80178452D01*
X140720027Y-79920523D01*
X140500677Y-79701173D01*
X140242748Y-79528830D01*
X139956152Y-79410118D01*
X139651904Y-79349600D01*
X139341696Y-79349600D01*
X139037448Y-79410118D01*
X138750852Y-79528830D01*
X138492923Y-79701173D01*
X138404696Y-79789400D01*
X134543704Y-79789400D01*
X134455477Y-79701173D01*
X134197548Y-79528830D01*
X133910952Y-79410118D01*
X133606704Y-79349600D01*
X133296496Y-79349600D01*
X132992248Y-79410118D01*
X132705652Y-79528830D01*
X132447723Y-79701173D01*
X132228373Y-79920523D01*
X132056030Y-80178452D01*
X131937318Y-80465048D01*
X131876800Y-80769296D01*
X131876800Y-81079504D01*
X131937318Y-81383752D01*
X132056030Y-81670348D01*
X132228373Y-81928277D01*
X132316601Y-82016505D01*
X132316600Y-84515693D01*
X132198517Y-84659577D01*
X132093124Y-84856753D01*
X132093124Y-84856754D01*
X132028223Y-85070702D01*
X132006309Y-85293200D01*
X132011800Y-85348951D01*
X132011800Y-86042268D01*
X130822469Y-87231600D01*
X130394024Y-87231600D01*
X130345613Y-87205724D01*
X130131665Y-87140823D01*
X129964918Y-87124400D01*
X129964917Y-87124400D01*
X129909166Y-87118909D01*
X129853415Y-87124400D01*
X129650088Y-87124400D01*
X129605575Y-87057782D01*
X129343018Y-86795225D01*
X129034282Y-86588934D01*
X128691234Y-86446839D01*
X128327056Y-86374400D01*
X127955744Y-86374400D01*
X127591566Y-86446839D01*
X127248518Y-86588934D01*
X126939782Y-86795225D01*
X126677225Y-87057782D01*
X126632712Y-87124400D01*
X120660552Y-87124400D01*
X120604800Y-87118909D01*
X120549049Y-87124400D01*
X120549048Y-87124400D01*
X120382301Y-87140823D01*
X120168353Y-87205724D01*
X119971177Y-87311116D01*
X119798351Y-87452951D01*
X119762806Y-87496262D01*
X119759858Y-87499211D01*
X119716552Y-87534751D01*
X119574717Y-87707577D01*
X119469324Y-87904753D01*
X119404423Y-88118701D01*
X119401700Y-88146350D01*
X119214175Y-88333875D01*
X119029772Y-88609853D01*
X118902754Y-88916504D01*
X118838000Y-89242042D01*
X118838000Y-89573958D01*
X118902754Y-89899496D01*
X119029772Y-90206147D01*
X119060164Y-90251632D01*
X118507794Y-89699263D01*
X118472248Y-89655950D01*
X118299422Y-89514115D01*
X118102246Y-89408723D01*
X117888298Y-89343822D01*
X117721551Y-89327399D01*
X117721550Y-89327399D01*
X117665799Y-89321908D01*
X117610048Y-89327399D01*
X114280000Y-89327399D01*
X114280000Y-89026744D01*
X114207561Y-88662566D01*
X114065466Y-88319518D01*
X113859175Y-88010782D01*
X113596618Y-87748225D01*
X113287882Y-87541934D01*
X112944834Y-87399839D01*
X112580656Y-87327400D01*
X112209344Y-87327400D01*
X111845166Y-87399839D01*
X111502118Y-87541934D01*
X111193382Y-87748225D01*
X110930825Y-88010782D01*
X110724534Y-88319518D01*
X110582439Y-88662566D01*
X110510000Y-89026744D01*
X110510000Y-89398056D01*
X110582439Y-89762234D01*
X110724534Y-90105282D01*
X110930825Y-90414018D01*
X111193382Y-90676575D01*
X111435570Y-90838400D01*
X110825141Y-90838400D01*
X110769399Y-90832910D01*
X110713657Y-90838400D01*
X110713648Y-90838400D01*
X110546901Y-90854823D01*
X110332953Y-90919724D01*
X110135777Y-91025116D01*
X109962951Y-91166951D01*
X109927409Y-91210260D01*
X108456860Y-92680809D01*
X108413552Y-92716351D01*
X108271717Y-92889177D01*
X108233621Y-92960450D01*
X108166324Y-93086354D01*
X108101423Y-93300302D01*
X108079509Y-93522800D01*
X107835000Y-93522800D01*
X107835000Y-91471172D01*
X105180600Y-91471172D01*
X105180600Y-91246115D01*
X107911200Y-91246115D01*
X107911200Y-86604686D01*
X105180600Y-86604686D01*
X105180600Y-80769296D01*
X124256800Y-80769296D01*
X124256800Y-81079504D01*
X124317318Y-81383752D01*
X124436030Y-81670348D01*
X124608373Y-81928277D01*
X124827723Y-82147627D01*
X125085652Y-82319970D01*
X125372248Y-82438682D01*
X125676496Y-82499200D01*
X125986704Y-82499200D01*
X126290952Y-82438682D01*
X126577548Y-82319970D01*
X126835477Y-82147627D01*
X127054827Y-81928277D01*
X127227170Y-81670348D01*
X127345882Y-81383752D01*
X127398424Y-81119601D01*
X128925448Y-81119601D01*
X128981199Y-81125092D01*
X129036950Y-81119601D01*
X129036951Y-81119601D01*
X129203698Y-81103178D01*
X129417646Y-81038277D01*
X129614822Y-80932885D01*
X129787648Y-80791050D01*
X129823195Y-80747736D01*
X131534133Y-79036799D01*
X132456041Y-79036798D01*
X132511801Y-79042290D01*
X132734299Y-79020376D01*
X132948247Y-78955475D01*
X133040031Y-78906415D01*
X133145424Y-78850082D01*
X133318250Y-78708247D01*
X133353792Y-78664939D01*
X133481931Y-78536800D01*
X133606704Y-78536800D01*
X133910952Y-78476282D01*
X134197548Y-78357570D01*
X134423077Y-78206876D01*
X138583929Y-78206876D01*
X138672423Y-78465123D01*
X138951776Y-78599997D01*
X139252075Y-78677781D01*
X139561777Y-78695484D01*
X139868984Y-78652427D01*
X140161886Y-78550265D01*
X140321177Y-78465123D01*
X140409671Y-78206876D01*
X139496800Y-77294005D01*
X138583929Y-78206876D01*
X134423077Y-78206876D01*
X134455477Y-78185227D01*
X134674827Y-77965877D01*
X134847170Y-77707948D01*
X134965882Y-77421352D01*
X135014013Y-77179377D01*
X137915716Y-77179377D01*
X137958773Y-77486584D01*
X138060935Y-77779486D01*
X138146077Y-77938777D01*
X138404324Y-78027271D01*
X139317195Y-77114400D01*
X139676405Y-77114400D01*
X140589276Y-78027271D01*
X140847523Y-77938777D01*
X140982397Y-77659424D01*
X141060181Y-77359125D01*
X141077884Y-77049423D01*
X141034827Y-76742216D01*
X140932665Y-76449314D01*
X140847523Y-76290023D01*
X140589276Y-76201529D01*
X139676405Y-77114400D01*
X139317195Y-77114400D01*
X138404324Y-76201529D01*
X138146077Y-76290023D01*
X138011203Y-76569376D01*
X137933419Y-76869675D01*
X137915716Y-77179377D01*
X135014013Y-77179377D01*
X135026400Y-77117104D01*
X135026400Y-76806896D01*
X134965882Y-76502648D01*
X134847170Y-76216052D01*
X134717458Y-76021924D01*
X138583929Y-76021924D01*
X139496800Y-76934795D01*
X140409671Y-76021924D01*
X140321177Y-75763677D01*
X140041824Y-75628803D01*
X139741525Y-75551019D01*
X139431823Y-75533316D01*
X139124616Y-75576373D01*
X138831714Y-75678535D01*
X138672423Y-75763677D01*
X138583929Y-76021924D01*
X134717458Y-76021924D01*
X134674827Y-75958123D01*
X134586600Y-75869896D01*
X134586600Y-71585951D01*
X134589274Y-71558800D01*
X139207328Y-71558800D01*
X139219588Y-71683282D01*
X139255898Y-71802980D01*
X139314863Y-71913294D01*
X139394215Y-72009985D01*
X139490906Y-72089337D01*
X139601220Y-72148302D01*
X139720918Y-72184612D01*
X139845400Y-72196872D01*
X140709650Y-72193800D01*
X140868400Y-72035050D01*
X140868400Y-70535800D01*
X141122400Y-70535800D01*
X141122400Y-72035050D01*
X141281150Y-72193800D01*
X142145400Y-72196872D01*
X142269882Y-72184612D01*
X142389580Y-72148302D01*
X142499894Y-72089337D01*
X142596585Y-72009985D01*
X142675937Y-71913294D01*
X142734902Y-71802980D01*
X142771212Y-71683282D01*
X142783472Y-71558800D01*
X142780400Y-70694550D01*
X142621650Y-70535800D01*
X141122400Y-70535800D01*
X140868400Y-70535800D01*
X139369150Y-70535800D01*
X139210400Y-70694550D01*
X139207328Y-71558800D01*
X134589274Y-71558800D01*
X134592091Y-71530199D01*
X134570177Y-71307701D01*
X134505276Y-71093753D01*
X134477839Y-71042422D01*
X134399884Y-70896577D01*
X134258049Y-70723751D01*
X134214740Y-70688208D01*
X134114526Y-70587994D01*
X134115200Y-70584607D01*
X134115200Y-70232993D01*
X134046604Y-69888135D01*
X133912047Y-69563285D01*
X133716700Y-69270929D01*
X133704571Y-69258800D01*
X139207328Y-69258800D01*
X139210400Y-70123050D01*
X139369150Y-70281800D01*
X140868400Y-70281800D01*
X140868400Y-68782550D01*
X141122400Y-68782550D01*
X141122400Y-70281800D01*
X142621650Y-70281800D01*
X142670457Y-70232993D01*
X144210400Y-70232993D01*
X144210400Y-70584607D01*
X144278996Y-70929465D01*
X144413553Y-71254315D01*
X144608900Y-71546671D01*
X144857529Y-71795300D01*
X144860400Y-71797219D01*
X144860401Y-75937239D01*
X144854909Y-75993000D01*
X144876823Y-76215498D01*
X144941724Y-76429446D01*
X144941725Y-76429447D01*
X145047117Y-76626623D01*
X145188952Y-76799449D01*
X145232260Y-76834991D01*
X145542000Y-77144731D01*
X145542000Y-77269504D01*
X145602518Y-77573752D01*
X145721230Y-77860348D01*
X145893573Y-78118277D01*
X145981800Y-78206504D01*
X145981801Y-79832295D01*
X145893573Y-79920523D01*
X145721230Y-80178452D01*
X145602518Y-80465048D01*
X145542000Y-80769296D01*
X145542000Y-81079504D01*
X145602518Y-81383752D01*
X145721230Y-81670348D01*
X145893573Y-81928277D01*
X146112923Y-82147627D01*
X146370852Y-82319970D01*
X146657448Y-82438682D01*
X146961696Y-82499200D01*
X147271904Y-82499200D01*
X147576152Y-82438682D01*
X147862748Y-82319970D01*
X148120677Y-82147627D01*
X148340027Y-81928277D01*
X148512370Y-81670348D01*
X148631082Y-81383752D01*
X148691600Y-81079504D01*
X148691600Y-80769296D01*
X148631082Y-80465048D01*
X148512370Y-80178452D01*
X148340027Y-79920523D01*
X148251800Y-79832296D01*
X148251800Y-78206504D01*
X148340027Y-78118277D01*
X148512370Y-77860348D01*
X148631082Y-77573752D01*
X148691600Y-77269504D01*
X148691600Y-76959296D01*
X148631082Y-76655048D01*
X148512370Y-76368452D01*
X148340027Y-76110523D01*
X148120677Y-75891173D01*
X147862748Y-75718830D01*
X147576152Y-75600118D01*
X147271904Y-75539600D01*
X147147131Y-75539600D01*
X147130400Y-75522869D01*
X147130400Y-71797218D01*
X147133271Y-71795300D01*
X147381900Y-71546671D01*
X147577247Y-71254315D01*
X147711804Y-70929465D01*
X147780400Y-70584607D01*
X147780400Y-70232993D01*
X147711804Y-69888135D01*
X147577247Y-69563285D01*
X147381900Y-69270929D01*
X147133271Y-69022300D01*
X146932406Y-68888085D01*
X165837000Y-68888085D01*
X165837000Y-69643515D01*
X165984377Y-70384428D01*
X166273467Y-71082354D01*
X166693161Y-71710470D01*
X167227330Y-72244639D01*
X167855446Y-72664333D01*
X168553372Y-72953423D01*
X169294285Y-73100800D01*
X170049715Y-73100800D01*
X170790628Y-72953423D01*
X171488554Y-72664333D01*
X172116670Y-72244639D01*
X172650839Y-71710470D01*
X173070533Y-71082354D01*
X173359623Y-70384428D01*
X173507000Y-69643515D01*
X173507000Y-68888085D01*
X173359623Y-68147172D01*
X173070533Y-67449246D01*
X172650839Y-66821130D01*
X172116670Y-66286961D01*
X171488554Y-65867267D01*
X170790628Y-65578177D01*
X170049715Y-65430800D01*
X169294285Y-65430800D01*
X168553372Y-65578177D01*
X167855446Y-65867267D01*
X167227330Y-66286961D01*
X166693161Y-66821130D01*
X166273467Y-67449246D01*
X165984377Y-68147172D01*
X165837000Y-68888085D01*
X146932406Y-68888085D01*
X146840915Y-68826953D01*
X146516065Y-68692396D01*
X146171207Y-68623800D01*
X145819593Y-68623800D01*
X145474735Y-68692396D01*
X145149885Y-68826953D01*
X144857529Y-69022300D01*
X144608900Y-69270929D01*
X144413553Y-69563285D01*
X144278996Y-69888135D01*
X144210400Y-70232993D01*
X142670457Y-70232993D01*
X142780400Y-70123050D01*
X142783472Y-69258800D01*
X142771212Y-69134318D01*
X142734902Y-69014620D01*
X142675937Y-68904306D01*
X142596585Y-68807615D01*
X142499894Y-68728263D01*
X142389580Y-68669298D01*
X142269882Y-68632988D01*
X142145400Y-68620728D01*
X141281150Y-68623800D01*
X141122400Y-68782550D01*
X140868400Y-68782550D01*
X140709650Y-68623800D01*
X139845400Y-68620728D01*
X139720918Y-68632988D01*
X139601220Y-68669298D01*
X139490906Y-68728263D01*
X139394215Y-68807615D01*
X139314863Y-68904306D01*
X139255898Y-69014620D01*
X139219588Y-69134318D01*
X139207328Y-69258800D01*
X133704571Y-69258800D01*
X133468071Y-69022300D01*
X133175715Y-68826953D01*
X132850865Y-68692396D01*
X132506007Y-68623800D01*
X132154393Y-68623800D01*
X131809535Y-68692396D01*
X131484685Y-68826953D01*
X131192329Y-69022300D01*
X130943700Y-69270929D01*
X130748353Y-69563285D01*
X130613796Y-69888135D01*
X130545200Y-70232993D01*
X130545200Y-70584607D01*
X130613796Y-70929465D01*
X130748353Y-71254315D01*
X130943700Y-71546671D01*
X131192329Y-71795300D01*
X131484685Y-71990647D01*
X131809535Y-72125204D01*
X132154393Y-72193800D01*
X132316601Y-72193800D01*
X132316600Y-75869896D01*
X132228373Y-75958123D01*
X132056030Y-76216052D01*
X131937318Y-76502648D01*
X131884776Y-76766800D01*
X131119749Y-76766801D01*
X131063999Y-76761310D01*
X130841500Y-76783224D01*
X130627552Y-76848125D01*
X130430376Y-76953517D01*
X130300856Y-77059812D01*
X130300854Y-77059814D01*
X130257551Y-77095352D01*
X130222013Y-77138655D01*
X128511068Y-78849601D01*
X126827140Y-78849601D01*
X126771398Y-78844111D01*
X126715656Y-78849601D01*
X126715647Y-78849601D01*
X126548900Y-78866024D01*
X126334952Y-78930925D01*
X126137776Y-79036317D01*
X125964950Y-79178152D01*
X125929410Y-79221458D01*
X125801268Y-79349600D01*
X125676496Y-79349600D01*
X125372248Y-79410118D01*
X125085652Y-79528830D01*
X124827723Y-79701173D01*
X124608373Y-79920523D01*
X124436030Y-80178452D01*
X124317318Y-80465048D01*
X124256800Y-80769296D01*
X105180600Y-80769296D01*
X105180600Y-78054476D01*
X124918729Y-78054476D01*
X125007223Y-78312723D01*
X125286576Y-78447597D01*
X125586875Y-78525381D01*
X125896577Y-78543084D01*
X126203784Y-78500027D01*
X126496686Y-78397865D01*
X126655977Y-78312723D01*
X126744471Y-78054476D01*
X125831600Y-77141605D01*
X124918729Y-78054476D01*
X105180600Y-78054476D01*
X105180600Y-77026977D01*
X124250516Y-77026977D01*
X124293573Y-77334184D01*
X124395735Y-77627086D01*
X124480877Y-77786377D01*
X124739124Y-77874871D01*
X125651995Y-76962000D01*
X126011205Y-76962000D01*
X126924076Y-77874871D01*
X127182323Y-77786377D01*
X127317197Y-77507024D01*
X127394981Y-77206725D01*
X127412684Y-76897023D01*
X127369627Y-76589816D01*
X127267465Y-76296914D01*
X127182323Y-76137623D01*
X126924076Y-76049129D01*
X126011205Y-76962000D01*
X125651995Y-76962000D01*
X124739124Y-76049129D01*
X124480877Y-76137623D01*
X124346003Y-76416976D01*
X124268219Y-76717275D01*
X124250516Y-77026977D01*
X105180600Y-77026977D01*
X105180600Y-75869524D01*
X124918729Y-75869524D01*
X125831600Y-76782395D01*
X126744471Y-75869524D01*
X126655977Y-75611277D01*
X126376624Y-75476403D01*
X126076325Y-75398619D01*
X125766623Y-75380916D01*
X125459416Y-75423973D01*
X125166514Y-75526135D01*
X125007223Y-75611277D01*
X124918729Y-75869524D01*
X105180600Y-75869524D01*
X105180600Y-68913485D01*
X106832800Y-68913485D01*
X106832800Y-69668915D01*
X106980177Y-70409828D01*
X107269267Y-71107754D01*
X107688961Y-71735870D01*
X108223130Y-72270039D01*
X108851246Y-72689733D01*
X109549172Y-72978823D01*
X110290085Y-73126200D01*
X111045515Y-73126200D01*
X111786428Y-72978823D01*
X112484354Y-72689733D01*
X113112470Y-72270039D01*
X113646639Y-71735870D01*
X113764953Y-71558800D01*
X125542128Y-71558800D01*
X125554388Y-71683282D01*
X125590698Y-71802980D01*
X125649663Y-71913294D01*
X125729015Y-72009985D01*
X125825706Y-72089337D01*
X125936020Y-72148302D01*
X126055718Y-72184612D01*
X126180200Y-72196872D01*
X127044450Y-72193800D01*
X127203200Y-72035050D01*
X127203200Y-70535800D01*
X127457200Y-70535800D01*
X127457200Y-72035050D01*
X127615950Y-72193800D01*
X128480200Y-72196872D01*
X128604682Y-72184612D01*
X128724380Y-72148302D01*
X128834694Y-72089337D01*
X128931385Y-72009985D01*
X129010737Y-71913294D01*
X129069702Y-71802980D01*
X129106012Y-71683282D01*
X129118272Y-71558800D01*
X129115200Y-70694550D01*
X128956450Y-70535800D01*
X127457200Y-70535800D01*
X127203200Y-70535800D01*
X125703950Y-70535800D01*
X125545200Y-70694550D01*
X125542128Y-71558800D01*
X113764953Y-71558800D01*
X114066333Y-71107754D01*
X114355423Y-70409828D01*
X114502800Y-69668915D01*
X114502800Y-69258800D01*
X125542128Y-69258800D01*
X125545200Y-70123050D01*
X125703950Y-70281800D01*
X127203200Y-70281800D01*
X127203200Y-68782550D01*
X127457200Y-68782550D01*
X127457200Y-70281800D01*
X128956450Y-70281800D01*
X129115200Y-70123050D01*
X129118272Y-69258800D01*
X129106012Y-69134318D01*
X129069702Y-69014620D01*
X129010737Y-68904306D01*
X128931385Y-68807615D01*
X128834694Y-68728263D01*
X128724380Y-68669298D01*
X128604682Y-68632988D01*
X128480200Y-68620728D01*
X127615950Y-68623800D01*
X127457200Y-68782550D01*
X127203200Y-68782550D01*
X127044450Y-68623800D01*
X126180200Y-68620728D01*
X126055718Y-68632988D01*
X125936020Y-68669298D01*
X125825706Y-68728263D01*
X125729015Y-68807615D01*
X125649663Y-68904306D01*
X125590698Y-69014620D01*
X125554388Y-69134318D01*
X125542128Y-69258800D01*
X114502800Y-69258800D01*
X114502800Y-68913485D01*
X114355423Y-68172572D01*
X114066333Y-67474646D01*
X113646639Y-66846530D01*
X113112470Y-66312361D01*
X112484354Y-65892667D01*
X111786428Y-65603577D01*
X111045515Y-65456200D01*
X110290085Y-65456200D01*
X109549172Y-65603577D01*
X108851246Y-65892667D01*
X108223130Y-66312361D01*
X107688961Y-66846530D01*
X107269267Y-67474646D01*
X106980177Y-68172572D01*
X106832800Y-68913485D01*
X105180600Y-68913485D01*
X105180600Y-64261200D01*
X124219629Y-64261200D01*
X124219629Y-67104800D01*
M02*
